<?xml version="1.0" encoding="utf-8" standalone="no"?>
<!DOCTYPE svg PUBLIC "-//W3C//DTD SVG 1.1//EN"
  "http://www.w3.org/Graphics/SVG/1.1/DTD/svg11.dtd">
<svg xmlns:xlink="http://www.w3.org/1999/xlink" width="432pt" height="288pt" viewBox="0 0 432 288" xmlns="http://www.w3.org/2000/svg" version="1.1">
 <metadata>
  <rdf:RDF xmlns:dc="http://purl.org/dc/elements/1.1/" xmlns:cc="http://creativecommons.org/ns#" xmlns:rdf="http://www.w3.org/1999/02/22-rdf-syntax-ns#">
   <cc:Work>
    <dc:type rdf:resource="http://purl.org/dc/dcmitype/StillImage"/>
    <dc:date>2024-10-15T13:34:08.888985</dc:date>
    <dc:format>image/svg+xml</dc:format>
    <dc:creator>
     <cc:Agent>
      <dc:title>Matplotlib v3.5.3, https://matplotlib.org/</dc:title>
     </cc:Agent>
    </dc:creator>
   </cc:Work>
  </rdf:RDF>
 </metadata>
 <defs>
  <style type="text/css">*{stroke-linejoin: round; stroke-linecap: butt}</style>
 </defs>
 <g id="figure_1">
  <g id="patch_1">
   <path d="M 0 288 
L 432 288 
L 432 0 
L 0 0 
z
" style="fill: #ffffff"/>
  </g>
  <g id="axes_1">
   <g id="patch_2">
    <path d="M 54 256.32 
L 388.8 256.32 
L 388.8 34.56 
L 54 34.56 
z
" style="fill: #ffffff"/>
   </g>
   <g id="matplotlib.axis_1">
    <g id="text_1">
     <!-- Genomes -->
     <g transform="translate(192.923438 269.438125)scale(0.12 -0.12)">
      <defs>
       <path id="DejaVuSans-47" d="M 3809 666 
L 3809 1919 
L 2778 1919 
L 2778 2438 
L 4434 2438 
L 4434 434 
Q 4069 175 3628 42 
Q 3188 -91 2688 -91 
Q 1594 -91 976 548 
Q 359 1188 359 2328 
Q 359 3472 976 4111 
Q 1594 4750 2688 4750 
Q 3144 4750 3555 4637 
Q 3966 4525 4313 4306 
L 4313 3634 
Q 3963 3931 3569 4081 
Q 3175 4231 2741 4231 
Q 1884 4231 1454 3753 
Q 1025 3275 1025 2328 
Q 1025 1384 1454 906 
Q 1884 428 2741 428 
Q 3075 428 3337 486 
Q 3600 544 3809 666 
z
" transform="scale(0.015625)"/>
       <path id="DejaVuSans-65" d="M 3597 1894 
L 3597 1613 
L 953 1613 
Q 991 1019 1311 708 
Q 1631 397 2203 397 
Q 2534 397 2845 478 
Q 3156 559 3463 722 
L 3463 178 
Q 3153 47 2828 -22 
Q 2503 -91 2169 -91 
Q 1331 -91 842 396 
Q 353 884 353 1716 
Q 353 2575 817 3079 
Q 1281 3584 2069 3584 
Q 2775 3584 3186 3129 
Q 3597 2675 3597 1894 
z
M 3022 2063 
Q 3016 2534 2758 2815 
Q 2500 3097 2075 3097 
Q 1594 3097 1305 2825 
Q 1016 2553 972 2059 
L 3022 2063 
z
" transform="scale(0.015625)"/>
       <path id="DejaVuSans-6e" d="M 3513 2113 
L 3513 0 
L 2938 0 
L 2938 2094 
Q 2938 2591 2744 2837 
Q 2550 3084 2163 3084 
Q 1697 3084 1428 2787 
Q 1159 2491 1159 1978 
L 1159 0 
L 581 0 
L 581 3500 
L 1159 3500 
L 1159 2956 
Q 1366 3272 1645 3428 
Q 1925 3584 2291 3584 
Q 2894 3584 3203 3211 
Q 3513 2838 3513 2113 
z
" transform="scale(0.015625)"/>
       <path id="DejaVuSans-6f" d="M 1959 3097 
Q 1497 3097 1228 2736 
Q 959 2375 959 1747 
Q 959 1119 1226 758 
Q 1494 397 1959 397 
Q 2419 397 2687 759 
Q 2956 1122 2956 1747 
Q 2956 2369 2687 2733 
Q 2419 3097 1959 3097 
z
M 1959 3584 
Q 2709 3584 3137 3096 
Q 3566 2609 3566 1747 
Q 3566 888 3137 398 
Q 2709 -91 1959 -91 
Q 1206 -91 779 398 
Q 353 888 353 1747 
Q 353 2609 779 3096 
Q 1206 3584 1959 3584 
z
" transform="scale(0.015625)"/>
       <path id="DejaVuSans-6d" d="M 3328 2828 
Q 3544 3216 3844 3400 
Q 4144 3584 4550 3584 
Q 5097 3584 5394 3201 
Q 5691 2819 5691 2113 
L 5691 0 
L 5113 0 
L 5113 2094 
Q 5113 2597 4934 2840 
Q 4756 3084 4391 3084 
Q 3944 3084 3684 2787 
Q 3425 2491 3425 1978 
L 3425 0 
L 2847 0 
L 2847 2094 
Q 2847 2600 2669 2842 
Q 2491 3084 2119 3084 
Q 1678 3084 1418 2786 
Q 1159 2488 1159 1978 
L 1159 0 
L 581 0 
L 581 3500 
L 1159 3500 
L 1159 2956 
Q 1356 3278 1631 3431 
Q 1906 3584 2284 3584 
Q 2666 3584 2933 3390 
Q 3200 3197 3328 2828 
z
" transform="scale(0.015625)"/>
       <path id="DejaVuSans-73" d="M 2834 3397 
L 2834 2853 
Q 2591 2978 2328 3040 
Q 2066 3103 1784 3103 
Q 1356 3103 1142 2972 
Q 928 2841 928 2578 
Q 928 2378 1081 2264 
Q 1234 2150 1697 2047 
L 1894 2003 
Q 2506 1872 2764 1633 
Q 3022 1394 3022 966 
Q 3022 478 2636 193 
Q 2250 -91 1575 -91 
Q 1294 -91 989 -36 
Q 684 19 347 128 
L 347 722 
Q 666 556 975 473 
Q 1284 391 1588 391 
Q 1994 391 2212 530 
Q 2431 669 2431 922 
Q 2431 1156 2273 1281 
Q 2116 1406 1581 1522 
L 1381 1569 
Q 847 1681 609 1914 
Q 372 2147 372 2553 
Q 372 3047 722 3315 
Q 1072 3584 1716 3584 
Q 2034 3584 2315 3537 
Q 2597 3491 2834 3397 
z
" transform="scale(0.015625)"/>
      </defs>
      <use xlink:href="#DejaVuSans-47"/>
      <use xlink:href="#DejaVuSans-65" x="77.490234"/>
      <use xlink:href="#DejaVuSans-6e" x="139.013672"/>
      <use xlink:href="#DejaVuSans-6f" x="202.392578"/>
      <use xlink:href="#DejaVuSans-6d" x="263.574219"/>
      <use xlink:href="#DejaVuSans-65" x="360.986328"/>
      <use xlink:href="#DejaVuSans-73" x="422.509766"/>
     </g>
    </g>
   </g>
   <g id="matplotlib.axis_2">
    <g id="ytick_1">
     <g id="line2d_1">
      <defs>
       <path id="mcd4c6e0bd2" d="M 0 0 
L -3.5 0 
" style="stroke: #000000; stroke-width: 0.8"/>
      </defs>
      <g>
       <use xlink:href="#mcd4c6e0bd2" x="54" y="256.32" style="stroke: #000000; stroke-width: 0.8"/>
      </g>
     </g>
     <g id="text_2">
      <!-- 0 -->
      <g transform="translate(40.6375 260.119219)scale(0.1 -0.1)">
       <defs>
        <path id="DejaVuSans-30" d="M 2034 4250 
Q 1547 4250 1301 3770 
Q 1056 3291 1056 2328 
Q 1056 1369 1301 889 
Q 1547 409 2034 409 
Q 2525 409 2770 889 
Q 3016 1369 3016 2328 
Q 3016 3291 2770 3770 
Q 2525 4250 2034 4250 
z
M 2034 4750 
Q 2819 4750 3233 4129 
Q 3647 3509 3647 2328 
Q 3647 1150 3233 529 
Q 2819 -91 2034 -91 
Q 1250 -91 836 529 
Q 422 1150 422 2328 
Q 422 3509 836 4129 
Q 1250 4750 2034 4750 
z
" transform="scale(0.015625)"/>
       </defs>
       <use xlink:href="#DejaVuSans-30"/>
      </g>
     </g>
    </g>
    <g id="ytick_2">
     <g id="line2d_2">
      <g>
       <use xlink:href="#mcd4c6e0bd2" x="54" y="227.833704" style="stroke: #000000; stroke-width: 0.8"/>
      </g>
     </g>
     <g id="text_3">
      <!-- 2 -->
      <g transform="translate(40.6375 231.632923)scale(0.1 -0.1)">
       <defs>
        <path id="DejaVuSans-32" d="M 1228 531 
L 3431 531 
L 3431 0 
L 469 0 
L 469 531 
Q 828 903 1448 1529 
Q 2069 2156 2228 2338 
Q 2531 2678 2651 2914 
Q 2772 3150 2772 3378 
Q 2772 3750 2511 3984 
Q 2250 4219 1831 4219 
Q 1534 4219 1204 4116 
Q 875 4013 500 3803 
L 500 4441 
Q 881 4594 1212 4672 
Q 1544 4750 1819 4750 
Q 2544 4750 2975 4387 
Q 3406 4025 3406 3419 
Q 3406 3131 3298 2873 
Q 3191 2616 2906 2266 
Q 2828 2175 2409 1742 
Q 1991 1309 1228 531 
z
" transform="scale(0.015625)"/>
       </defs>
       <use xlink:href="#DejaVuSans-32"/>
      </g>
     </g>
    </g>
    <g id="ytick_3">
     <g id="line2d_3">
      <g>
       <use xlink:href="#mcd4c6e0bd2" x="54" y="199.347408" style="stroke: #000000; stroke-width: 0.8"/>
      </g>
     </g>
     <g id="text_4">
      <!-- 4 -->
      <g transform="translate(40.6375 203.146627)scale(0.1 -0.1)">
       <defs>
        <path id="DejaVuSans-34" d="M 2419 4116 
L 825 1625 
L 2419 1625 
L 2419 4116 
z
M 2253 4666 
L 3047 4666 
L 3047 1625 
L 3713 1625 
L 3713 1100 
L 3047 1100 
L 3047 0 
L 2419 0 
L 2419 1100 
L 313 1100 
L 313 1709 
L 2253 4666 
z
" transform="scale(0.015625)"/>
       </defs>
       <use xlink:href="#DejaVuSans-34"/>
      </g>
     </g>
    </g>
    <g id="ytick_4">
     <g id="line2d_4">
      <g>
       <use xlink:href="#mcd4c6e0bd2" x="54" y="170.861112" style="stroke: #000000; stroke-width: 0.8"/>
      </g>
     </g>
     <g id="text_5">
      <!-- 6 -->
      <g transform="translate(40.6375 174.660331)scale(0.1 -0.1)">
       <defs>
        <path id="DejaVuSans-36" d="M 2113 2584 
Q 1688 2584 1439 2293 
Q 1191 2003 1191 1497 
Q 1191 994 1439 701 
Q 1688 409 2113 409 
Q 2538 409 2786 701 
Q 3034 994 3034 1497 
Q 3034 2003 2786 2293 
Q 2538 2584 2113 2584 
z
M 3366 4563 
L 3366 3988 
Q 3128 4100 2886 4159 
Q 2644 4219 2406 4219 
Q 1781 4219 1451 3797 
Q 1122 3375 1075 2522 
Q 1259 2794 1537 2939 
Q 1816 3084 2150 3084 
Q 2853 3084 3261 2657 
Q 3669 2231 3669 1497 
Q 3669 778 3244 343 
Q 2819 -91 2113 -91 
Q 1303 -91 875 529 
Q 447 1150 447 2328 
Q 447 3434 972 4092 
Q 1497 4750 2381 4750 
Q 2619 4750 2861 4703 
Q 3103 4656 3366 4563 
z
" transform="scale(0.015625)"/>
       </defs>
       <use xlink:href="#DejaVuSans-36"/>
      </g>
     </g>
    </g>
    <g id="ytick_5">
     <g id="line2d_5">
      <g>
       <use xlink:href="#mcd4c6e0bd2" x="54" y="142.374816" style="stroke: #000000; stroke-width: 0.8"/>
      </g>
     </g>
     <g id="text_6">
      <!-- 8 -->
      <g transform="translate(40.6375 146.174035)scale(0.1 -0.1)">
       <defs>
        <path id="DejaVuSans-38" d="M 2034 2216 
Q 1584 2216 1326 1975 
Q 1069 1734 1069 1313 
Q 1069 891 1326 650 
Q 1584 409 2034 409 
Q 2484 409 2743 651 
Q 3003 894 3003 1313 
Q 3003 1734 2745 1975 
Q 2488 2216 2034 2216 
z
M 1403 2484 
Q 997 2584 770 2862 
Q 544 3141 544 3541 
Q 544 4100 942 4425 
Q 1341 4750 2034 4750 
Q 2731 4750 3128 4425 
Q 3525 4100 3525 3541 
Q 3525 3141 3298 2862 
Q 3072 2584 2669 2484 
Q 3125 2378 3379 2068 
Q 3634 1759 3634 1313 
Q 3634 634 3220 271 
Q 2806 -91 2034 -91 
Q 1263 -91 848 271 
Q 434 634 434 1313 
Q 434 1759 690 2068 
Q 947 2378 1403 2484 
z
M 1172 3481 
Q 1172 3119 1398 2916 
Q 1625 2713 2034 2713 
Q 2441 2713 2670 2916 
Q 2900 3119 2900 3481 
Q 2900 3844 2670 4047 
Q 2441 4250 2034 4250 
Q 1625 4250 1398 4047 
Q 1172 3844 1172 3481 
z
" transform="scale(0.015625)"/>
       </defs>
       <use xlink:href="#DejaVuSans-38"/>
      </g>
     </g>
    </g>
    <g id="ytick_6">
     <g id="line2d_6">
      <g>
       <use xlink:href="#mcd4c6e0bd2" x="54" y="113.88852" style="stroke: #000000; stroke-width: 0.8"/>
      </g>
     </g>
     <g id="text_7">
      <!-- 10 -->
      <g transform="translate(34.275 117.687739)scale(0.1 -0.1)">
       <defs>
        <path id="DejaVuSans-31" d="M 794 531 
L 1825 531 
L 1825 4091 
L 703 3866 
L 703 4441 
L 1819 4666 
L 2450 4666 
L 2450 531 
L 3481 531 
L 3481 0 
L 794 0 
L 794 531 
z
" transform="scale(0.015625)"/>
       </defs>
       <use xlink:href="#DejaVuSans-31"/>
       <use xlink:href="#DejaVuSans-30" x="63.623047"/>
      </g>
     </g>
    </g>
    <g id="ytick_7">
     <g id="line2d_7">
      <g>
       <use xlink:href="#mcd4c6e0bd2" x="54" y="85.402224" style="stroke: #000000; stroke-width: 0.8"/>
      </g>
     </g>
     <g id="text_8">
      <!-- 12 -->
      <g transform="translate(34.275 89.201443)scale(0.1 -0.1)">
       <use xlink:href="#DejaVuSans-31"/>
       <use xlink:href="#DejaVuSans-32" x="63.623047"/>
      </g>
     </g>
    </g>
    <g id="ytick_8">
     <g id="line2d_8">
      <g>
       <use xlink:href="#mcd4c6e0bd2" x="54" y="56.915928" style="stroke: #000000; stroke-width: 0.8"/>
      </g>
     </g>
     <g id="text_9">
      <!-- 14 -->
      <g transform="translate(34.275 60.715146)scale(0.1 -0.1)">
       <use xlink:href="#DejaVuSans-31"/>
       <use xlink:href="#DejaVuSans-34" x="63.623047"/>
      </g>
     </g>
    </g>
    <g id="text_10">
     <!-- Distance -->
     <g transform="translate(27.779375 171.675)rotate(-90)scale(0.12 -0.12)">
      <defs>
       <path id="DejaVuSans-44" d="M 1259 4147 
L 1259 519 
L 2022 519 
Q 2988 519 3436 956 
Q 3884 1394 3884 2338 
Q 3884 3275 3436 3711 
Q 2988 4147 2022 4147 
L 1259 4147 
z
M 628 4666 
L 1925 4666 
Q 3281 4666 3915 4102 
Q 4550 3538 4550 2338 
Q 4550 1131 3912 565 
Q 3275 0 1925 0 
L 628 0 
L 628 4666 
z
" transform="scale(0.015625)"/>
       <path id="DejaVuSans-69" d="M 603 3500 
L 1178 3500 
L 1178 0 
L 603 0 
L 603 3500 
z
M 603 4863 
L 1178 4863 
L 1178 4134 
L 603 4134 
L 603 4863 
z
" transform="scale(0.015625)"/>
       <path id="DejaVuSans-74" d="M 1172 4494 
L 1172 3500 
L 2356 3500 
L 2356 3053 
L 1172 3053 
L 1172 1153 
Q 1172 725 1289 603 
Q 1406 481 1766 481 
L 2356 481 
L 2356 0 
L 1766 0 
Q 1100 0 847 248 
Q 594 497 594 1153 
L 594 3053 
L 172 3053 
L 172 3500 
L 594 3500 
L 594 4494 
L 1172 4494 
z
" transform="scale(0.015625)"/>
       <path id="DejaVuSans-61" d="M 2194 1759 
Q 1497 1759 1228 1600 
Q 959 1441 959 1056 
Q 959 750 1161 570 
Q 1363 391 1709 391 
Q 2188 391 2477 730 
Q 2766 1069 2766 1631 
L 2766 1759 
L 2194 1759 
z
M 3341 1997 
L 3341 0 
L 2766 0 
L 2766 531 
Q 2569 213 2275 61 
Q 1981 -91 1556 -91 
Q 1019 -91 701 211 
Q 384 513 384 1019 
Q 384 1609 779 1909 
Q 1175 2209 1959 2209 
L 2766 2209 
L 2766 2266 
Q 2766 2663 2505 2880 
Q 2244 3097 1772 3097 
Q 1472 3097 1187 3025 
Q 903 2953 641 2809 
L 641 3341 
Q 956 3463 1253 3523 
Q 1550 3584 1831 3584 
Q 2591 3584 2966 3190 
Q 3341 2797 3341 1997 
z
" transform="scale(0.015625)"/>
       <path id="DejaVuSans-63" d="M 3122 3366 
L 3122 2828 
Q 2878 2963 2633 3030 
Q 2388 3097 2138 3097 
Q 1578 3097 1268 2742 
Q 959 2388 959 1747 
Q 959 1106 1268 751 
Q 1578 397 2138 397 
Q 2388 397 2633 464 
Q 2878 531 3122 666 
L 3122 134 
Q 2881 22 2623 -34 
Q 2366 -91 2075 -91 
Q 1284 -91 818 406 
Q 353 903 353 1747 
Q 353 2603 823 3093 
Q 1294 3584 2113 3584 
Q 2378 3584 2631 3529 
Q 2884 3475 3122 3366 
z
" transform="scale(0.015625)"/>
      </defs>
      <use xlink:href="#DejaVuSans-44"/>
      <use xlink:href="#DejaVuSans-69" x="77.001953"/>
      <use xlink:href="#DejaVuSans-73" x="104.785156"/>
      <use xlink:href="#DejaVuSans-74" x="156.884766"/>
      <use xlink:href="#DejaVuSans-61" x="196.09375"/>
      <use xlink:href="#DejaVuSans-6e" x="257.373047"/>
      <use xlink:href="#DejaVuSans-63" x="320.751953"/>
      <use xlink:href="#DejaVuSans-65" x="375.732422"/>
     </g>
    </g>
   </g>
   <g id="LineCollection_1">
    <path d="M 60.539062 256.32 
L 60.539062 256.32 
L 63.154688 256.32 
L 63.154688 256.32 
" clip-path="url(#pafed18dc3e)" style="fill: none; stroke: #ff7f0e; stroke-width: 1.5"/>
    <path d="M 57.923437 256.32 
L 57.923437 233.061037 
L 61.846875 233.061037 
L 61.846875 256.32 
" clip-path="url(#pafed18dc3e)" style="fill: none; stroke: #ff7f0e; stroke-width: 1.5"/>
    <path d="M 55.307812 256.32 
L 55.307812 228.433483 
L 59.885156 228.433483 
L 59.885156 233.061037 
" clip-path="url(#pafed18dc3e)" style="fill: none; stroke: #ff7f0e; stroke-width: 1.5"/>
    <path d="M 65.770313 256.32 
L 65.770313 242.076852 
L 68.385937 242.076852 
L 68.385937 256.32 
" clip-path="url(#pafed18dc3e)" style="fill: none; stroke: #ff7f0e; stroke-width: 1.5"/>
    <path d="M 71.001563 256.32 
L 71.001563 236.177147 
L 73.617188 236.177147 
L 73.617188 256.32 
" clip-path="url(#pafed18dc3e)" style="fill: none; stroke: #ff7f0e; stroke-width: 1.5"/>
    <path d="M 67.078125 242.076852 
L 67.078125 222.916857 
L 72.309375 222.916857 
L 72.309375 236.177147 
" clip-path="url(#pafed18dc3e)" style="fill: none; stroke: #ff7f0e; stroke-width: 1.5"/>
    <path d="M 57.596484 228.433483 
L 57.596484 205.962867 
L 69.69375 205.962867 
L 69.69375 222.916857 
" clip-path="url(#pafed18dc3e)" style="fill: none; stroke: #ff7f0e; stroke-width: 1.5"/>
    <path d="M 81.464063 256.32 
L 81.464063 242.076852 
L 84.079688 242.076852 
L 84.079688 256.32 
" clip-path="url(#pafed18dc3e)" style="fill: none; stroke: #ff7f0e; stroke-width: 1.5"/>
    <path d="M 78.848438 256.32 
L 78.848438 237.932175 
L 82.771875 237.932175 
L 82.771875 242.076852 
" clip-path="url(#pafed18dc3e)" style="fill: none; stroke: #ff7f0e; stroke-width: 1.5"/>
    <path d="M 76.232812 256.32 
L 76.232812 237.034686 
L 80.810156 237.034686 
L 80.810156 237.932175 
" clip-path="url(#pafed18dc3e)" style="fill: none; stroke: #ff7f0e; stroke-width: 1.5"/>
    <path d="M 91.926563 256.32 
L 91.926563 256.32 
L 94.542188 256.32 
L 94.542188 256.32 
" clip-path="url(#pafed18dc3e)" style="fill: none; stroke: #ff7f0e; stroke-width: 1.5"/>
    <path d="M 89.310937 256.32 
L 89.310937 239.873429 
L 93.234375 239.873429 
L 93.234375 256.32 
" clip-path="url(#pafed18dc3e)" style="fill: none; stroke: #ff7f0e; stroke-width: 1.5"/>
    <path d="M 86.695312 256.32 
L 86.695312 223.944893 
L 91.272656 223.944893 
L 91.272656 239.873429 
" clip-path="url(#pafed18dc3e)" style="fill: none; stroke: #ff7f0e; stroke-width: 1.5"/>
    <path d="M 78.521484 237.034686 
L 78.521484 202.083708 
L 88.983984 202.083708 
L 88.983984 223.944893 
" clip-path="url(#pafed18dc3e)" style="fill: none; stroke: #ff7f0e; stroke-width: 1.5"/>
    <path d="M 102.389063 256.32 
L 102.389063 256.32 
L 105.004688 256.32 
L 105.004688 256.32 
" clip-path="url(#pafed18dc3e)" style="fill: none; stroke: #ff7f0e; stroke-width: 1.5"/>
    <path d="M 99.773438 256.32 
L 99.773438 256.32 
L 103.696875 256.32 
L 103.696875 256.32 
" clip-path="url(#pafed18dc3e)" style="fill: none; stroke: #ff7f0e; stroke-width: 1.5"/>
    <path d="M 97.157813 256.32 
L 97.157813 256.32 
L 101.735156 256.32 
L 101.735156 256.32 
" clip-path="url(#pafed18dc3e)" style="fill: none; stroke: #ff7f0e; stroke-width: 1.5"/>
    <path d="M 112.851562 256.32 
L 112.851562 256.32 
L 115.467188 256.32 
L 115.467188 256.32 
" clip-path="url(#pafed18dc3e)" style="fill: none; stroke: #ff7f0e; stroke-width: 1.5"/>
    <path d="M 110.235938 256.32 
L 110.235938 239.873429 
L 114.159375 239.873429 
L 114.159375 256.32 
" clip-path="url(#pafed18dc3e)" style="fill: none; stroke: #ff7f0e; stroke-width: 1.5"/>
    <path d="M 107.620313 256.32 
L 107.620313 229.046448 
L 112.197656 229.046448 
L 112.197656 239.873429 
" clip-path="url(#pafed18dc3e)" style="fill: none; stroke: #ff7f0e; stroke-width: 1.5"/>
    <path d="M 99.446484 256.32 
L 99.446484 212.419669 
L 109.908984 212.419669 
L 109.908984 229.046448 
" clip-path="url(#pafed18dc3e)" style="fill: none; stroke: #ff7f0e; stroke-width: 1.5"/>
    <path d="M 118.082813 256.32 
L 118.082813 242.076852 
L 120.698438 242.076852 
L 120.698438 256.32 
" clip-path="url(#pafed18dc3e)" style="fill: none; stroke: #ff7f0e; stroke-width: 1.5"/>
    <path d="M 123.314063 256.32 
L 123.314063 242.076852 
L 125.929688 242.076852 
L 125.929688 256.32 
" clip-path="url(#pafed18dc3e)" style="fill: none; stroke: #ff7f0e; stroke-width: 1.5"/>
    <path d="M 128.545313 256.32 
L 128.545313 242.076852 
L 131.160937 242.076852 
L 131.160937 256.32 
" clip-path="url(#pafed18dc3e)" style="fill: none; stroke: #ff7f0e; stroke-width: 1.5"/>
    <path d="M 133.776563 256.32 
L 133.776563 242.076852 
L 136.392188 242.076852 
L 136.392188 256.32 
" clip-path="url(#pafed18dc3e)" style="fill: none; stroke: #ff7f0e; stroke-width: 1.5"/>
    <path d="M 129.853125 242.076852 
L 129.853125 224.471353 
L 135.084375 224.471353 
L 135.084375 242.076852 
" clip-path="url(#pafed18dc3e)" style="fill: none; stroke: #ff7f0e; stroke-width: 1.5"/>
    <path d="M 124.621875 242.076852 
L 124.621875 216.882509 
L 132.46875 216.882509 
L 132.46875 224.471353 
" clip-path="url(#pafed18dc3e)" style="fill: none; stroke: #ff7f0e; stroke-width: 1.5"/>
    <path d="M 119.390625 242.076852 
L 119.390625 206.299708 
L 128.545313 206.299708 
L 128.545313 216.882509 
" clip-path="url(#pafed18dc3e)" style="fill: none; stroke: #ff7f0e; stroke-width: 1.5"/>
    <path d="M 104.677734 212.419669 
L 104.677734 183.345582 
L 123.967969 183.345582 
L 123.967969 206.299708 
" clip-path="url(#pafed18dc3e)" style="fill: none; stroke: #ff7f0e; stroke-width: 1.5"/>
    <path d="M 83.752734 202.083708 
L 83.752734 179.508176 
L 114.322852 179.508176 
L 114.322852 183.345582 
" clip-path="url(#pafed18dc3e)" style="fill: none; stroke: #ff7f0e; stroke-width: 1.5"/>
    <path d="M 63.645117 205.962867 
L 63.645117 165.910597 
L 99.037793 165.910597 
L 99.037793 179.508176 
" clip-path="url(#pafed18dc3e)" style="fill: none; stroke: #ff7f0e; stroke-width: 1.5"/>
   </g>
   <g id="LineCollection_2">
    <path d="M 139.007812 256.32 
L 139.007812 256.32 
L 141.623438 256.32 
L 141.623438 256.32 
" clip-path="url(#pafed18dc3e)" style="fill: none; stroke: #2ca02c; stroke-width: 1.5"/>
    <path d="M 144.239063 256.32 
L 144.239063 242.076852 
L 146.854688 242.076852 
L 146.854688 256.32 
" clip-path="url(#pafed18dc3e)" style="fill: none; stroke: #2ca02c; stroke-width: 1.5"/>
    <path d="M 140.315625 256.32 
L 140.315625 210.166925 
L 145.546875 210.166925 
L 145.546875 242.076852 
" clip-path="url(#pafed18dc3e)" style="fill: none; stroke: #2ca02c; stroke-width: 1.5"/>
    <path d="M 154.701563 256.32 
L 154.701563 256.32 
L 157.317188 256.32 
L 157.317188 256.32 
" clip-path="url(#pafed18dc3e)" style="fill: none; stroke: #2ca02c; stroke-width: 1.5"/>
    <path d="M 152.085938 256.32 
L 152.085938 239.873429 
L 156.009375 239.873429 
L 156.009375 256.32 
" clip-path="url(#pafed18dc3e)" style="fill: none; stroke: #2ca02c; stroke-width: 1.5"/>
    <path d="M 149.470313 256.32 
L 149.470313 230.974132 
L 154.047656 230.974132 
L 154.047656 239.873429 
" clip-path="url(#pafed18dc3e)" style="fill: none; stroke: #2ca02c; stroke-width: 1.5"/>
    <path d="M 159.932813 256.32 
L 159.932813 242.076852 
L 162.548438 242.076852 
L 162.548438 256.32 
" clip-path="url(#pafed18dc3e)" style="fill: none; stroke: #2ca02c; stroke-width: 1.5"/>
    <path d="M 165.164062 256.32 
L 165.164062 236.177147 
L 167.779688 236.177147 
L 167.779688 256.32 
" clip-path="url(#pafed18dc3e)" style="fill: none; stroke: #2ca02c; stroke-width: 1.5"/>
    <path d="M 161.240625 242.076852 
L 161.240625 229.67351 
L 166.471875 229.67351 
L 166.471875 236.177147 
" clip-path="url(#pafed18dc3e)" style="fill: none; stroke: #2ca02c; stroke-width: 1.5"/>
    <path d="M 151.758984 230.974132 
L 151.758984 220.006955 
L 163.85625 220.006955 
L 163.85625 229.67351 
" clip-path="url(#pafed18dc3e)" style="fill: none; stroke: #2ca02c; stroke-width: 1.5"/>
    <path d="M 170.395313 256.32 
L 170.395313 236.177147 
L 173.010938 236.177147 
L 173.010938 256.32 
" clip-path="url(#pafed18dc3e)" style="fill: none; stroke: #2ca02c; stroke-width: 1.5"/>
    <path d="M 175.626563 256.32 
L 175.626563 236.177147 
L 178.242188 236.177147 
L 178.242188 256.32 
" clip-path="url(#pafed18dc3e)" style="fill: none; stroke: #2ca02c; stroke-width: 1.5"/>
    <path d="M 171.703125 236.177147 
L 171.703125 211.279211 
L 176.934375 211.279211 
L 176.934375 236.177147 
" clip-path="url(#pafed18dc3e)" style="fill: none; stroke: #2ca02c; stroke-width: 1.5"/>
    <path d="M 157.807617 220.006955 
L 157.807617 202.710738 
L 174.31875 202.710738 
L 174.31875 211.279211 
" clip-path="url(#pafed18dc3e)" style="fill: none; stroke: #2ca02c; stroke-width: 1.5"/>
    <path d="M 142.93125 210.166925 
L 142.93125 195.126932 
L 166.063184 195.126932 
L 166.063184 202.710738 
" clip-path="url(#pafed18dc3e)" style="fill: none; stroke: #2ca02c; stroke-width: 1.5"/>
    <path d="M 180.857813 256.32 
L 180.857813 256.32 
L 183.473438 256.32 
L 183.473438 256.32 
" clip-path="url(#pafed18dc3e)" style="fill: none; stroke: #2ca02c; stroke-width: 1.5"/>
    <path d="M 186.089063 256.32 
L 186.089063 242.076852 
L 188.704688 242.076852 
L 188.704688 256.32 
" clip-path="url(#pafed18dc3e)" style="fill: none; stroke: #2ca02c; stroke-width: 1.5"/>
    <path d="M 182.165625 256.32 
L 182.165625 233.799606 
L 187.396875 233.799606 
L 187.396875 242.076852 
" clip-path="url(#pafed18dc3e)" style="fill: none; stroke: #2ca02c; stroke-width: 1.5"/>
    <path d="M 196.551563 256.32 
L 196.551563 242.076852 
L 199.167188 242.076852 
L 199.167188 256.32 
" clip-path="url(#pafed18dc3e)" style="fill: none; stroke: #2ca02c; stroke-width: 1.5"/>
    <path d="M 193.935938 256.32 
L 193.935938 237.932175 
L 197.859375 237.932175 
L 197.859375 242.076852 
" clip-path="url(#pafed18dc3e)" style="fill: none; stroke: #2ca02c; stroke-width: 1.5"/>
    <path d="M 191.320313 256.32 
L 191.320313 223.426859 
L 195.897656 223.426859 
L 195.897656 237.932175 
" clip-path="url(#pafed18dc3e)" style="fill: none; stroke: #2ca02c; stroke-width: 1.5"/>
    <path d="M 184.78125 233.799606 
L 184.78125 208.547029 
L 193.608984 208.547029 
L 193.608984 223.426859 
" clip-path="url(#pafed18dc3e)" style="fill: none; stroke: #2ca02c; stroke-width: 1.5"/>
    <path d="M 201.782813 256.32 
L 201.782813 242.076852 
L 204.398438 242.076852 
L 204.398438 256.32 
" clip-path="url(#pafed18dc3e)" style="fill: none; stroke: #2ca02c; stroke-width: 1.5"/>
    <path d="M 207.014063 256.32 
L 207.014063 242.076852 
L 209.629688 242.076852 
L 209.629688 256.32 
" clip-path="url(#pafed18dc3e)" style="fill: none; stroke: #2ca02c; stroke-width: 1.5"/>
    <path d="M 217.476563 256.32 
L 217.476563 256.32 
L 220.092188 256.32 
L 220.092188 256.32 
" clip-path="url(#pafed18dc3e)" style="fill: none; stroke: #2ca02c; stroke-width: 1.5"/>
    <path d="M 214.860938 256.32 
L 214.860938 239.873429 
L 218.784375 239.873429 
L 218.784375 256.32 
" clip-path="url(#pafed18dc3e)" style="fill: none; stroke: #2ca02c; stroke-width: 1.5"/>
    <path d="M 212.245313 256.32 
L 212.245313 237.932175 
L 216.822656 237.932175 
L 216.822656 239.873429 
" clip-path="url(#pafed18dc3e)" style="fill: none; stroke: #2ca02c; stroke-width: 1.5"/>
    <path d="M 208.321875 242.076852 
L 208.321875 213.590556 
L 214.533984 213.590556 
L 214.533984 237.932175 
" clip-path="url(#pafed18dc3e)" style="fill: none; stroke: #2ca02c; stroke-width: 1.5"/>
    <path d="M 203.090625 242.076852 
L 203.090625 199.347408 
L 211.42793 199.347408 
L 211.42793 213.590556 
" clip-path="url(#pafed18dc3e)" style="fill: none; stroke: #2ca02c; stroke-width: 1.5"/>
    <path d="M 189.195117 208.547029 
L 189.195117 180.11583 
L 207.259277 180.11583 
L 207.259277 199.347408 
" clip-path="url(#pafed18dc3e)" style="fill: none; stroke: #2ca02c; stroke-width: 1.5"/>
    <path d="M 154.497217 195.126932 
L 154.497217 150.210937 
L 198.227197 150.210937 
L 198.227197 180.11583 
" clip-path="url(#pafed18dc3e)" style="fill: none; stroke: #2ca02c; stroke-width: 1.5"/>
   </g>
   <g id="LineCollection_3">
    <path d="M 227.939063 256.32 
L 227.939063 236.177147 
L 230.554688 236.177147 
L 230.554688 256.32 
" clip-path="url(#pafed18dc3e)" style="fill: none; stroke: #d62728; stroke-width: 1.5"/>
    <path d="M 225.323438 256.32 
L 225.323438 230.315688 
L 229.246875 230.315688 
L 229.246875 236.177147 
" clip-path="url(#pafed18dc3e)" style="fill: none; stroke: #d62728; stroke-width: 1.5"/>
    <path d="M 222.707813 256.32 
L 222.707813 229.046448 
L 227.285156 229.046448 
L 227.285156 230.315688 
" clip-path="url(#pafed18dc3e)" style="fill: none; stroke: #d62728; stroke-width: 1.5"/>
    <path d="M 233.170313 256.32 
L 233.170313 242.076852 
L 235.785938 242.076852 
L 235.785938 256.32 
" clip-path="url(#pafed18dc3e)" style="fill: none; stroke: #d62728; stroke-width: 1.5"/>
    <path d="M 238.401563 256.32 
L 238.401563 242.076852 
L 241.017188 242.076852 
L 241.017188 256.32 
" clip-path="url(#pafed18dc3e)" style="fill: none; stroke: #d62728; stroke-width: 1.5"/>
    <path d="M 234.478125 242.076852 
L 234.478125 218.636172 
L 239.709375 218.636172 
L 239.709375 242.076852 
" clip-path="url(#pafed18dc3e)" style="fill: none; stroke: #d62728; stroke-width: 1.5"/>
    <path d="M 224.996484 229.046448 
L 224.996484 204.965599 
L 237.09375 204.965599 
L 237.09375 218.636172 
" clip-path="url(#pafed18dc3e)" style="fill: none; stroke: #d62728; stroke-width: 1.5"/>
    <path d="M 243.632813 256.32 
L 243.632813 236.177147 
L 246.248438 236.177147 
L 246.248438 256.32 
" clip-path="url(#pafed18dc3e)" style="fill: none; stroke: #d62728; stroke-width: 1.5"/>
    <path d="M 248.864063 256.32 
L 248.864063 256.32 
L 251.479688 256.32 
L 251.479688 256.32 
" clip-path="url(#pafed18dc3e)" style="fill: none; stroke: #d62728; stroke-width: 1.5"/>
    <path d="M 254.095313 256.32 
L 254.095313 242.076852 
L 256.710938 242.076852 
L 256.710938 256.32 
" clip-path="url(#pafed18dc3e)" style="fill: none; stroke: #d62728; stroke-width: 1.5"/>
    <path d="M 250.171875 256.32 
L 250.171875 226.10572 
L 255.403125 226.10572 
L 255.403125 242.076852 
" clip-path="url(#pafed18dc3e)" style="fill: none; stroke: #d62728; stroke-width: 1.5"/>
    <path d="M 259.326563 256.32 
L 259.326563 227.833704 
L 261.942188 227.833704 
L 261.942188 256.32 
" clip-path="url(#pafed18dc3e)" style="fill: none; stroke: #d62728; stroke-width: 1.5"/>
    <path d="M 269.789062 256.32 
L 269.789062 256.32 
L 272.404688 256.32 
L 272.404688 256.32 
" clip-path="url(#pafed18dc3e)" style="fill: none; stroke: #d62728; stroke-width: 1.5"/>
    <path d="M 267.173438 256.32 
L 267.173438 239.873429 
L 271.096875 239.873429 
L 271.096875 256.32 
" clip-path="url(#pafed18dc3e)" style="fill: none; stroke: #d62728; stroke-width: 1.5"/>
    <path d="M 264.557813 256.32 
L 264.557813 229.046448 
L 269.135156 229.046448 
L 269.135156 239.873429 
" clip-path="url(#pafed18dc3e)" style="fill: none; stroke: #d62728; stroke-width: 1.5"/>
    <path d="M 280.251563 256.32 
L 280.251563 256.32 
L 282.867188 256.32 
L 282.867188 256.32 
" clip-path="url(#pafed18dc3e)" style="fill: none; stroke: #d62728; stroke-width: 1.5"/>
    <path d="M 277.635938 256.32 
L 277.635938 239.873429 
L 281.559375 239.873429 
L 281.559375 256.32 
" clip-path="url(#pafed18dc3e)" style="fill: none; stroke: #d62728; stroke-width: 1.5"/>
    <path d="M 275.020313 256.32 
L 275.020313 225.551284 
L 279.597656 225.551284 
L 279.597656 239.873429 
" clip-path="url(#pafed18dc3e)" style="fill: none; stroke: #d62728; stroke-width: 1.5"/>
    <path d="M 266.846484 229.046448 
L 266.846484 210.166925 
L 277.308984 210.166925 
L 277.308984 225.551284 
" clip-path="url(#pafed18dc3e)" style="fill: none; stroke: #d62728; stroke-width: 1.5"/>
    <path d="M 260.634375 227.833704 
L 260.634375 207.600938 
L 272.077734 207.600938 
L 272.077734 210.166925 
" clip-path="url(#pafed18dc3e)" style="fill: none; stroke: #d62728; stroke-width: 1.5"/>
    <path d="M 252.7875 226.10572 
L 252.7875 206.950928 
L 266.356055 206.950928 
L 266.356055 207.600938 
" clip-path="url(#pafed18dc3e)" style="fill: none; stroke: #d62728; stroke-width: 1.5"/>
    <path d="M 244.940625 236.177147 
L 244.940625 203.67675 
L 259.571777 203.67675 
L 259.571777 206.950928 
" clip-path="url(#pafed18dc3e)" style="fill: none; stroke: #d62728; stroke-width: 1.5"/>
    <path d="M 285.482813 256.32 
L 285.482813 256.32 
L 288.098438 256.32 
L 288.098438 256.32 
" clip-path="url(#pafed18dc3e)" style="fill: none; stroke: #d62728; stroke-width: 1.5"/>
    <path d="M 290.714063 256.32 
L 290.714063 242.076852 
L 293.329688 242.076852 
L 293.329688 256.32 
" clip-path="url(#pafed18dc3e)" style="fill: none; stroke: #d62728; stroke-width: 1.5"/>
    <path d="M 286.790625 256.32 
L 286.790625 233.799606 
L 292.021875 233.799606 
L 292.021875 242.076852 
" clip-path="url(#pafed18dc3e)" style="fill: none; stroke: #d62728; stroke-width: 1.5"/>
    <path d="M 301.176563 256.32 
L 301.176563 256.32 
L 303.792188 256.32 
L 303.792188 256.32 
" clip-path="url(#pafed18dc3e)" style="fill: none; stroke: #d62728; stroke-width: 1.5"/>
    <path d="M 298.560938 256.32 
L 298.560938 239.873429 
L 302.484375 239.873429 
L 302.484375 256.32 
" clip-path="url(#pafed18dc3e)" style="fill: none; stroke: #d62728; stroke-width: 1.5"/>
    <path d="M 295.945312 256.32 
L 295.945312 229.046448 
L 300.522656 229.046448 
L 300.522656 239.873429 
" clip-path="url(#pafed18dc3e)" style="fill: none; stroke: #d62728; stroke-width: 1.5"/>
    <path d="M 289.40625 233.799606 
L 289.40625 201.618152 
L 298.233984 201.618152 
L 298.233984 229.046448 
" clip-path="url(#pafed18dc3e)" style="fill: none; stroke: #d62728; stroke-width: 1.5"/>
    <path d="M 252.256201 203.67675 
L 252.256201 186.000091 
L 293.820117 186.000091 
L 293.820117 201.618152 
" clip-path="url(#pafed18dc3e)" style="fill: none; stroke: #d62728; stroke-width: 1.5"/>
    <path d="M 231.045117 204.965599 
L 231.045117 163.739538 
L 273.038159 163.739538 
L 273.038159 186.000091 
" clip-path="url(#pafed18dc3e)" style="fill: none; stroke: #d62728; stroke-width: 1.5"/>
   </g>
   <g id="LineCollection_4">
    <path d="M 306.407813 256.32 
L 306.407813 236.177147 
L 309.023438 236.177147 
L 309.023438 256.32 
" clip-path="url(#pafed18dc3e)" style="fill: none; stroke: #9467bd; stroke-width: 1.5"/>
    <path d="M 311.639063 256.32 
L 311.639063 236.177147 
L 314.254688 236.177147 
L 314.254688 256.32 
" clip-path="url(#pafed18dc3e)" style="fill: none; stroke: #9467bd; stroke-width: 1.5"/>
    <path d="M 322.101563 256.32 
L 322.101563 242.076852 
L 324.717188 242.076852 
L 324.717188 256.32 
" clip-path="url(#pafed18dc3e)" style="fill: none; stroke: #9467bd; stroke-width: 1.5"/>
    <path d="M 319.485938 256.32 
L 319.485938 237.932175 
L 323.409375 237.932175 
L 323.409375 242.076852 
" clip-path="url(#pafed18dc3e)" style="fill: none; stroke: #9467bd; stroke-width: 1.5"/>
    <path d="M 316.870313 256.32 
L 316.870313 228.433483 
L 321.447656 228.433483 
L 321.447656 237.932175 
" clip-path="url(#pafed18dc3e)" style="fill: none; stroke: #9467bd; stroke-width: 1.5"/>
    <path d="M 312.946875 236.177147 
L 312.946875 223.944893 
L 319.158984 223.944893 
L 319.158984 228.433483 
" clip-path="url(#pafed18dc3e)" style="fill: none; stroke: #9467bd; stroke-width: 1.5"/>
    <path d="M 307.715625 236.177147 
L 307.715625 200.094132 
L 316.05293 200.094132 
L 316.05293 223.944893 
" clip-path="url(#pafed18dc3e)" style="fill: none; stroke: #9467bd; stroke-width: 1.5"/>
    <path d="M 327.332813 256.32 
L 327.332813 242.076852 
L 329.948438 242.076852 
L 329.948438 256.32 
" clip-path="url(#pafed18dc3e)" style="fill: none; stroke: #9467bd; stroke-width: 1.5"/>
    <path d="M 332.564063 256.32 
L 332.564063 242.076852 
L 335.179688 242.076852 
L 335.179688 256.32 
" clip-path="url(#pafed18dc3e)" style="fill: none; stroke: #9467bd; stroke-width: 1.5"/>
    <path d="M 328.640625 242.076852 
L 328.640625 231.650144 
L 333.871875 231.650144 
L 333.871875 242.076852 
" clip-path="url(#pafed18dc3e)" style="fill: none; stroke: #9467bd; stroke-width: 1.5"/>
    <path d="M 337.795313 256.32 
L 337.795313 227.833704 
L 340.410938 227.833704 
L 340.410938 256.32 
" clip-path="url(#pafed18dc3e)" style="fill: none; stroke: #9467bd; stroke-width: 1.5"/>
    <path d="M 343.026563 256.32 
L 343.026563 227.833704 
L 345.642188 227.833704 
L 345.642188 256.32 
" clip-path="url(#pafed18dc3e)" style="fill: none; stroke: #9467bd; stroke-width: 1.5"/>
    <path d="M 339.103125 227.833704 
L 339.103125 221.431555 
L 344.334375 221.431555 
L 344.334375 227.833704 
" clip-path="url(#pafed18dc3e)" style="fill: none; stroke: #9467bd; stroke-width: 1.5"/>
    <path d="M 331.25625 231.650144 
L 331.25625 191.831405 
L 341.71875 191.831405 
L 341.71875 221.431555 
" clip-path="url(#pafed18dc3e)" style="fill: none; stroke: #9467bd; stroke-width: 1.5"/>
    <path d="M 311.884277 200.094132 
L 311.884277 176.222077 
L 336.4875 176.222077 
L 336.4875 191.831405 
" clip-path="url(#pafed18dc3e)" style="fill: none; stroke: #9467bd; stroke-width: 1.5"/>
    <path d="M 348.257813 256.32 
L 348.257813 256.32 
L 350.873438 256.32 
L 350.873438 256.32 
" clip-path="url(#pafed18dc3e)" style="fill: none; stroke: #9467bd; stroke-width: 1.5"/>
    <path d="M 353.489063 256.32 
L 353.489063 242.076852 
L 356.104688 242.076852 
L 356.104688 256.32 
" clip-path="url(#pafed18dc3e)" style="fill: none; stroke: #9467bd; stroke-width: 1.5"/>
    <path d="M 349.565625 256.32 
L 349.565625 226.10572 
L 354.796875 226.10572 
L 354.796875 242.076852 
" clip-path="url(#pafed18dc3e)" style="fill: none; stroke: #9467bd; stroke-width: 1.5"/>
    <path d="M 358.720313 256.32 
L 358.720313 236.177147 
L 361.335938 236.177147 
L 361.335938 256.32 
" clip-path="url(#pafed18dc3e)" style="fill: none; stroke: #9467bd; stroke-width: 1.5"/>
    <path d="M 363.951563 256.32 
L 363.951563 231.650144 
L 366.567188 231.650144 
L 366.567188 256.32 
" clip-path="url(#pafed18dc3e)" style="fill: none; stroke: #9467bd; stroke-width: 1.5"/>
    <path d="M 360.028125 236.177147 
L 360.028125 220.006955 
L 365.259375 220.006955 
L 365.259375 231.650144 
" clip-path="url(#pafed18dc3e)" style="fill: none; stroke: #9467bd; stroke-width: 1.5"/>
    <path d="M 352.18125 226.10572 
L 352.18125 203.987333 
L 362.64375 203.987333 
L 362.64375 220.006955 
" clip-path="url(#pafed18dc3e)" style="fill: none; stroke: #9467bd; stroke-width: 1.5"/>
    <path d="M 369.182813 256.32 
L 369.182813 242.076852 
L 371.798438 242.076852 
L 371.798438 256.32 
" clip-path="url(#pafed18dc3e)" style="fill: none; stroke: #9467bd; stroke-width: 1.5"/>
    <path d="M 374.414063 256.32 
L 374.414063 236.177147 
L 377.029688 236.177147 
L 377.029688 256.32 
" clip-path="url(#pafed18dc3e)" style="fill: none; stroke: #9467bd; stroke-width: 1.5"/>
    <path d="M 370.490625 242.076852 
L 370.490625 229.67351 
L 375.721875 229.67351 
L 375.721875 236.177147 
" clip-path="url(#pafed18dc3e)" style="fill: none; stroke: #9467bd; stroke-width: 1.5"/>
    <path d="M 384.876563 256.32 
L 384.876563 256.32 
L 387.492188 256.32 
L 387.492188 256.32 
" clip-path="url(#pafed18dc3e)" style="fill: none; stroke: #9467bd; stroke-width: 1.5"/>
    <path d="M 382.260938 256.32 
L 382.260938 227.833704 
L 386.184375 227.833704 
L 386.184375 256.32 
" clip-path="url(#pafed18dc3e)" style="fill: none; stroke: #9467bd; stroke-width: 1.5"/>
    <path d="M 379.645313 256.32 
L 379.645313 221.431555 
L 384.222656 221.431555 
L 384.222656 227.833704 
" clip-path="url(#pafed18dc3e)" style="fill: none; stroke: #9467bd; stroke-width: 1.5"/>
    <path d="M 373.10625 229.67351 
L 373.10625 198.027404 
L 381.933984 198.027404 
L 381.933984 221.431555 
" clip-path="url(#pafed18dc3e)" style="fill: none; stroke: #9467bd; stroke-width: 1.5"/>
    <path d="M 357.4125 203.987333 
L 357.4125 167.229138 
L 377.520117 167.229138 
L 377.520117 198.027404 
" clip-path="url(#pafed18dc3e)" style="fill: none; stroke: #9467bd; stroke-width: 1.5"/>
    <path d="M 324.185889 176.222077 
L 324.185889 154.230305 
L 367.466309 154.230305 
L 367.466309 167.229138 
" clip-path="url(#pafed18dc3e)" style="fill: none; stroke: #9467bd; stroke-width: 1.5"/>
   </g>
   <g id="LineCollection_5">
    <path d="M 81.341455 165.910597 
L 81.341455 87.980993 
L 176.362207 87.980993 
L 176.362207 150.210937 
" clip-path="url(#pafed18dc3e)" style="fill: none; stroke: #1f77b4; stroke-width: 1.5"/>
    <path d="M 252.041638 163.739538 
L 252.041638 69.48893 
L 345.826099 69.48893 
L 345.826099 154.230305 
" clip-path="url(#pafed18dc3e)" style="fill: none; stroke: #1f77b4; stroke-width: 1.5"/>
    <path d="M 128.851831 87.980993 
L 128.851831 45.12 
L 298.933868 45.12 
L 298.933868 69.48893 
" clip-path="url(#pafed18dc3e)" style="fill: none; stroke: #1f77b4; stroke-width: 1.5"/>
   </g>
   <g id="patch_3">
    <path d="M 54 256.32 
L 54 34.56 
" style="fill: none; stroke: #000000; stroke-width: 0.8; stroke-linejoin: miter; stroke-linecap: square"/>
   </g>
   <g id="patch_4">
    <path d="M 388.8 256.32 
L 388.8 34.56 
" style="fill: none; stroke: #000000; stroke-width: 0.8; stroke-linejoin: miter; stroke-linecap: square"/>
   </g>
   <g id="patch_5">
    <path d="M 54 256.32 
L 388.8 256.32 
" style="fill: none; stroke: #000000; stroke-width: 0.8; stroke-linejoin: miter; stroke-linecap: square"/>
   </g>
   <g id="patch_6">
    <path d="M 54 34.56 
L 388.8 34.56 
" style="fill: none; stroke: #000000; stroke-width: 0.8; stroke-linejoin: miter; stroke-linecap: square"/>
   </g>
  </g>
 </g>
 <defs>
  <clipPath id="pafed18dc3e">
   <rect x="54" y="34.56" width="334.8" height="221.76"/>
  </clipPath>
 </defs>
</svg>
