<svg class="main-svg" xmlns="http://www.w3.org/2000/svg" xmlns:xlink="http://www.w3.org/1999/xlink" width="600" height="600" style="" viewBox="0 0 600 600"><rect x="0" y="0" width="600" height="600" style="fill: rgb(255, 255, 255); fill-opacity: 1;"/><defs id="defs-176007"><g class="clips"><clipPath id="clip176007xyplot" class="plotclip"><rect width="440" height="420"/></clipPath><clipPath class="axesclip" id="clip176007x"><rect x="80" y="0" width="440" height="600"/></clipPath><clipPath class="axesclip" id="clip176007y"><rect x="0" y="100" width="600" height="420"/></clipPath><clipPath class="axesclip" id="clip176007xy"><rect x="80" y="100" width="440" height="420"/></clipPath></g><g class="gradients"/><g class="patterns"/></defs><g class="bglayer"><rect class="bg" x="80" y="100" width="440" height="420" style="fill: rgb(229, 236, 246); fill-opacity: 1; stroke-width: 0;"/></g><g class="layer-below"><g class="imagelayer"/><g class="shapelayer"/></g><g class="cartesianlayer"><g class="subplot xy"><g class="layer-subplot"><g class="shapelayer"/><g class="imagelayer"/></g><g class="minor-gridlayer"><g class="x"/><g class="y"/></g><g class="gridlayer"><g class="x"/><g class="y"/></g><g class="zerolinelayer"/><path class="xlines-below"/><path class="ylines-below"/><g class="overlines-below"/><g class="xaxislayer-below"/><g class="yaxislayer-below"/><g class="overaxes-below"/><g class="plot" transform="translate(80,100)" clip-path="url(#clip176007xyplot)"><g class="scatterlayer mlayer"><g class="trace scatter tracea4659c" style="stroke-miterlimit: 2; opacity: 1;"><g class="fills"/><g class="errorbars"/><g class="lines"><path class="js-line" d="M30.75,310.97L181.46,212.96" style="vector-effect: none; fill: none; stroke: rgb(145, 179, 254); stroke-opacity: 1; stroke-width: 3px; opacity: 1;"/></g><g class="points"/><g class="text"/></g><g class="trace scatter tracee8153b" style="stroke-miterlimit: 2; opacity: 1;"><g class="fills"/><g class="errorbars"/><g class="lines"><path class="js-line" d="M30.75,310.97L102.15,390.25" style="vector-effect: none; fill: none; stroke: rgb(247, 179, 151); stroke-opacity: 1; stroke-width: 3px; opacity: 1;"/></g><g class="points"/><g class="text"/></g><g class="trace scatter trace4ad945" style="stroke-miterlimit: 2; opacity: 1;"><g class="fills"/><g class="errorbars"/><g class="lines"><path class="js-line" d="M30.75,310.97L76.41,237.52" style="vector-effect: none; fill: none; stroke: rgb(246, 164, 134); stroke-opacity: 1; stroke-width: 3px; opacity: 1;"/></g><g class="points"/><g class="text"/></g><g class="trace scatter tracea2a0b2" style="stroke-miterlimit: 2; opacity: 1;"><g class="fills"/><g class="errorbars"/><g class="lines"><path class="js-line" d="M102.15,390.25L181.46,212.96" style="vector-effect: none; fill: none; stroke: rgb(225, 218, 214); stroke-opacity: 1; stroke-width: 3px; opacity: 1;"/></g><g class="points"/><g class="text"/></g><g class="trace scatter tracedb0194" style="stroke-miterlimit: 2; opacity: 1;"><g class="fills"/><g class="errorbars"/><g class="lines"><path class="js-line" d="M102.15,390.25L190.3,327.54" style="vector-effect: none; fill: none; stroke: rgb(242, 199, 178); stroke-opacity: 1; stroke-width: 3px; opacity: 1;"/></g><g class="points"/><g class="text"/></g><g class="trace scatter trace4a0abf" style="stroke-miterlimit: 2; opacity: 1;"><g class="fills"/><g class="errorbars"/><g class="lines"><path class="js-line" d="M181.46,212.96L76.41,237.52" style="vector-effect: none; fill: none; stroke: rgb(223, 100, 79); stroke-opacity: 1; stroke-width: 3px; opacity: 1;"/></g><g class="points"/><g class="text"/></g><g class="trace scatter trace50ea40" style="stroke-miterlimit: 2; opacity: 1;"><g class="fills"/><g class="errorbars"/><g class="lines"><path class="js-line" d="M181.46,212.96L334.45,143.71" style="vector-effect: none; fill: none; stroke: rgb(209, 73, 62); stroke-opacity: 1; stroke-width: 3px; opacity: 1;"/></g><g class="points"/><g class="text"/></g><g class="trace scatter traced3c3a7" style="stroke-miterlimit: 2; opacity: 1;"><g class="fills"/><g class="errorbars"/><g class="lines"><path class="js-line" d="M181.46,212.96L190.3,327.54" style="vector-effect: none; fill: none; stroke: rgb(198, 53, 52); stroke-opacity: 1; stroke-width: 3px; opacity: 1;"/></g><g class="points"/><g class="text"/></g><g class="trace scatter trace0ce745" style="stroke-miterlimit: 2; opacity: 1;"><g class="fills"/><g class="errorbars"/><g class="lines"><path class="js-line" d="M181.46,212.96L291.81,125.27" style="vector-effect: none; fill: none; stroke: rgb(179, 3, 38); stroke-opacity: 1; stroke-width: 3px; opacity: 1;"/></g><g class="points"/><g class="text"/></g><g class="trace scatter traced6d0f1" style="stroke-miterlimit: 2; opacity: 1;"><g class="fills"/><g class="errorbars"/><g class="lines"><path class="js-line" d="M181.46,212.96L305.48,65.05" style="vector-effect: none; fill: none; stroke: rgb(179, 3, 38); stroke-opacity: 1; stroke-width: 3px; opacity: 1;"/></g><g class="points"/><g class="text"/></g><g class="trace scatter trace447ff0" style="stroke-miterlimit: 2; opacity: 1;"><g class="fills"/><g class="errorbars"/><g class="lines"><path class="js-line" d="M76.41,237.52L190.3,327.54" style="vector-effect: none; fill: none; stroke: rgb(244, 155, 124); stroke-opacity: 1; stroke-width: 3px; opacity: 1;"/></g><g class="points"/><g class="text"/></g><g class="trace scatter trace03cc93" style="stroke-miterlimit: 2; opacity: 1;"><g class="fills"/><g class="errorbars"/><g class="lines"><path class="js-line" d="M190.3,327.54L334.48,213.66" style="vector-effect: none; fill: none; stroke: rgb(179, 3, 38); stroke-opacity: 1; stroke-width: 3px; opacity: 1;"/></g><g class="points"/><g class="text"/></g><g class="trace scatter trace8e0faa" style="stroke-miterlimit: 2; opacity: 1;"><g class="fills"/><g class="errorbars"/><g class="lines"><path class="js-line" d="M334.48,213.66L408.37,152.58" style="vector-effect: none; fill: none; stroke: rgb(206, 217, 235); stroke-opacity: 1; stroke-width: 3px; opacity: 1;"/></g><g class="points"/><g class="text"/></g><g class="trace scatter trace0d9116" style="stroke-miterlimit: 2; opacity: 1;"><g class="fills"/><g class="errorbars"/><g class="lines"><path class="js-line" d="M334.48,213.66L409.25,80.58" style="vector-effect: none; fill: none; stroke: rgb(216, 219, 225); stroke-opacity: 1; stroke-width: 3px; opacity: 1;"/></g><g class="points"/><g class="text"/></g><g class="trace scatter trace394959" style="stroke-miterlimit: 2; opacity: 1;"><g class="fills"/><g class="errorbars"/><g class="lines"><path class="js-line" d="M334.48,213.66L291.81,125.27" style="vector-effect: none; fill: none; stroke: rgb(225, 218, 214); stroke-opacity: 1; stroke-width: 3px; opacity: 1;"/></g><g class="points"/><g class="text"/></g><g class="trace scatter trace048b74" style="stroke-miterlimit: 2; opacity: 1;"><g class="fills"/><g class="errorbars"/><g class="lines"><path class="js-line" d="M334.48,213.66L334.45,143.71" style="vector-effect: none; fill: none; stroke: rgb(229, 216, 208); stroke-opacity: 1; stroke-width: 3px; opacity: 1;"/></g><g class="points"/><g class="text"/></g><g class="trace scatter trace35a3ae" style="stroke-miterlimit: 2; opacity: 1;"><g class="fills"/><g class="errorbars"/><g class="lines"><path class="js-line" d="M334.48,213.66L305.48,65.05" style="vector-effect: none; fill: none; stroke: rgb(237, 207, 192); stroke-opacity: 1; stroke-width: 3px; opacity: 1;"/></g><g class="points"/><g class="text"/></g><g class="trace scatter trace33a135" style="stroke-miterlimit: 2; opacity: 1;"><g class="fills"/><g class="errorbars"/><g class="lines"><path class="js-line" d="M334.48,213.66L371.7,29.75" style="vector-effect: none; fill: none; stroke: rgb(242, 199, 178); stroke-opacity: 1; stroke-width: 3px; opacity: 1;"/></g><g class="points"/><g class="text"/></g><g class="trace scatter trace83d18b" style="stroke-miterlimit: 2; opacity: 1;"><g class="fills"/><g class="errorbars"/><g class="lines"><path class="js-line" d="M408.37,152.58L291.81,125.27" style="vector-effect: none; fill: none; stroke: rgb(107, 141, 240); stroke-opacity: 1; stroke-width: 3px; opacity: 1;"/></g><g class="points"/><g class="text"/></g><g class="trace scatter trace60453b" style="stroke-miterlimit: 2; opacity: 1;"><g class="fills"/><g class="errorbars"/><g class="lines"><path class="js-line" d="M408.37,152.58L305.48,65.05" style="vector-effect: none; fill: none; stroke: rgb(133, 168, 251); stroke-opacity: 1; stroke-width: 3px; opacity: 1;"/></g><g class="points"/><g class="text"/></g><g class="trace scatter tracec02947" style="stroke-miterlimit: 2; opacity: 1;"><g class="fills"/><g class="errorbars"/><g class="lines"><path class="js-line" d="M408.37,152.58L334.45,143.71" style="vector-effect: none; fill: none; stroke: rgb(135, 170, 252); stroke-opacity: 1; stroke-width: 3px; opacity: 1;"/></g><g class="points"/><g class="text"/></g><g class="trace scatter trace353786" style="stroke-miterlimit: 2; opacity: 1;"><g class="fills"/><g class="errorbars"/><g class="lines"><path class="js-line" d="M408.37,152.58L409.25,80.58" style="vector-effect: none; fill: none; stroke: rgb(180, 205, 250); stroke-opacity: 1; stroke-width: 3px; opacity: 1;"/></g><g class="points"/><g class="text"/></g><g class="trace scatter trace9872e1" style="stroke-miterlimit: 2; opacity: 1;"><g class="fills"/><g class="errorbars"/><g class="lines"><path class="js-line" d="M408.37,152.58L371.7,29.75" style="vector-effect: none; fill: none; stroke: rgb(180, 205, 250); stroke-opacity: 1; stroke-width: 3px; opacity: 1;"/></g><g class="points"/><g class="text"/></g><g class="trace scatter tracea6b8da" style="stroke-miterlimit: 2; opacity: 1;"><g class="fills"/><g class="errorbars"/><g class="lines"><path class="js-line" d="M334.45,143.71L291.81,125.27" style="vector-effect: none; fill: none; stroke: rgb(107, 141, 240); stroke-opacity: 1; stroke-width: 3px; opacity: 1;"/></g><g class="points"/><g class="text"/></g><g class="trace scatter trace0bafb6" style="stroke-miterlimit: 2; opacity: 1;"><g class="fills"/><g class="errorbars"/><g class="lines"><path class="js-line" d="M334.45,143.71L305.48,65.05" style="vector-effect: none; fill: none; stroke: rgb(135, 170, 252); stroke-opacity: 1; stroke-width: 3px; opacity: 1;"/></g><g class="points"/><g class="text"/></g><g class="trace scatter traced3d3f5" style="stroke-miterlimit: 2; opacity: 1;"><g class="fills"/><g class="errorbars"/><g class="lines"><path class="js-line" d="M334.45,143.71L371.7,29.75" style="vector-effect: none; fill: none; stroke: rgb(151, 184, 254); stroke-opacity: 1; stroke-width: 3px; opacity: 1;"/></g><g class="points"/><g class="text"/></g><g class="trace scatter trace857385" style="stroke-miterlimit: 2; opacity: 1;"><g class="fills"/><g class="errorbars"/><g class="lines"><path class="js-line" d="M334.45,143.71L409.25,80.58" style="vector-effect: none; fill: none; stroke: rgb(180, 205, 250); stroke-opacity: 1; stroke-width: 3px; opacity: 1;"/></g><g class="points"/><g class="text"/></g><g class="trace scatter trace655831" style="stroke-miterlimit: 2; opacity: 1;"><g class="fills"/><g class="errorbars"/><g class="lines"><path class="js-line" d="M291.81,125.27L305.48,65.05" style="vector-effect: none; fill: none; stroke: rgb(107, 141, 240); stroke-opacity: 1; stroke-width: 3px; opacity: 1;"/></g><g class="points"/><g class="text"/></g><g class="trace scatter trace3d592e" style="stroke-miterlimit: 2; opacity: 1;"><g class="fills"/><g class="errorbars"/><g class="lines"><path class="js-line" d="M291.81,125.27L371.7,29.75" style="vector-effect: none; fill: none; stroke: rgb(142, 177, 253); stroke-opacity: 1; stroke-width: 3px; opacity: 1;"/></g><g class="points"/><g class="text"/></g><g class="trace scatter tracead47a5" style="stroke-miterlimit: 2; opacity: 1;"><g class="fills"/><g class="errorbars"/><g class="lines"><path class="js-line" d="M291.81,125.27L409.25,80.58" style="vector-effect: none; fill: none; stroke: rgb(185, 208, 248); stroke-opacity: 1; stroke-width: 3px; opacity: 1;"/></g><g class="points"/><g class="text"/></g><g class="trace scatter tracec3180e" style="stroke-miterlimit: 2; opacity: 1;"><g class="fills"/><g class="errorbars"/><g class="lines"><path class="js-line" d="M305.48,65.05L371.7,29.75" style="vector-effect: none; fill: none; stroke: rgb(145, 179, 254); stroke-opacity: 1; stroke-width: 3px; opacity: 1;"/></g><g class="points"/><g class="text"/></g><g class="trace scatter trace4f9ff0" style="stroke-miterlimit: 2; opacity: 1;"><g class="fills"/><g class="errorbars"/><g class="lines"><path class="js-line" d="M305.48,65.05L409.25,80.58" style="vector-effect: none; fill: none; stroke: rgb(214, 219, 228); stroke-opacity: 1; stroke-width: 3px; opacity: 1;"/></g><g class="points"/><g class="text"/></g><g class="trace scatter trace3f8d4b" style="stroke-miterlimit: 2; opacity: 1;"><g class="fills"/><g class="errorbars"/><g class="lines"><path class="js-line" d="M409.25,80.58L371.7,29.75" style="vector-effect: none; fill: none; stroke: rgb(206, 217, 235); stroke-opacity: 1; stroke-width: 3px; opacity: 1;"/></g><g class="points"/><g class="text"/></g><g class="trace scatter trace9af250" style="stroke-miterlimit: 2; opacity: 1;"><g class="fills"><g><path class="js-fill" d="M408.37,152.58L291.81,125.27L305.48,65.05L408.37,152.58Z" style="fill: rgb(133, 168, 251); fill-opacity: 1; stroke-width: 0;"/></g></g><g class="errorbars"/><g class="lines"><path class="js-line" d="M408.37,152.58L291.81,125.27L305.48,65.05L408.37,152.58" style="vector-effect: none; fill: none; stroke: rgb(171, 99, 250); stroke-opacity: 1; stroke-width: 3px; opacity: 1;"/></g><g class="points"/><g class="text"/></g><g class="trace scatter tracee70f4d" style="stroke-miterlimit: 2; opacity: 1;"><g class="fills"><g><path class="js-fill" d="M408.37,152.58L334.45,143.71L291.81,125.27L408.37,152.58Z" style="fill: rgb(135, 170, 252); fill-opacity: 1; stroke-width: 0;"/></g></g><g class="errorbars"/><g class="lines"><path class="js-line" d="M408.37,152.58L334.45,143.71L291.81,125.27L408.37,152.58" style="vector-effect: none; fill: none; stroke: rgb(255, 161, 90); stroke-opacity: 1; stroke-width: 3px; opacity: 1;"/></g><g class="points"/><g class="text"/></g><g class="trace scatter tracef749ee" style="stroke-miterlimit: 2; opacity: 1;"><g class="fills"><g><path class="js-fill" d="M408.37,152.58L334.45,143.71L305.48,65.05L408.37,152.58Z" style="fill: rgb(135, 170, 252); fill-opacity: 1; stroke-width: 0;"/></g></g><g class="errorbars"/><g class="lines"><path class="js-line" d="M408.37,152.58L334.45,143.71L305.48,65.05L408.37,152.58" style="vector-effect: none; fill: none; stroke: rgb(25, 211, 243); stroke-opacity: 1; stroke-width: 3px; opacity: 1;"/></g><g class="points"/><g class="text"/></g><g class="trace scatter tracedfb8a2" style="stroke-miterlimit: 2; opacity: 1;"><g class="fills"><g><path class="js-fill" d="M334.45,143.71L291.81,125.27L305.48,65.05L334.45,143.71Z" style="fill: rgb(135, 170, 252); fill-opacity: 1; stroke-width: 0;"/></g></g><g class="errorbars"/><g class="lines"><path class="js-line" d="M334.45,143.71L291.81,125.27L305.48,65.05L334.45,143.71" style="vector-effect: none; fill: none; stroke: rgb(255, 102, 146); stroke-opacity: 1; stroke-width: 3px; opacity: 1;"/></g><g class="points"/><g class="text"/></g><g class="trace scatter tracecb1e6b" style="stroke-miterlimit: 2; opacity: 1;"><g class="fills"><g><path class="js-fill" d="M291.81,125.27L305.48,65.05L371.7,29.75L291.81,125.27Z" style="fill: rgb(145, 179, 254); fill-opacity: 1; stroke-width: 0;"/></g></g><g class="errorbars"/><g class="lines"><path class="js-line" d="M291.81,125.27L305.48,65.05L371.7,29.75L291.81,125.27" style="vector-effect: none; fill: none; stroke: rgb(182, 232, 128); stroke-opacity: 1; stroke-width: 3px; opacity: 1;"/></g><g class="points"/><g class="text"/></g><g class="trace scatter trace62535e" style="stroke-miterlimit: 2; opacity: 1;"><g class="fills"><g><path class="js-fill" d="M334.45,143.71L291.81,125.27L371.7,29.75L334.45,143.71Z" style="fill: rgb(151, 184, 254); fill-opacity: 1; stroke-width: 0;"/></g></g><g class="errorbars"/><g class="lines"><path class="js-line" d="M334.45,143.71L291.81,125.27L371.7,29.75L334.45,143.71" style="vector-effect: none; fill: none; stroke: rgb(255, 151, 255); stroke-opacity: 1; stroke-width: 3px; opacity: 1;"/></g><g class="points"/><g class="text"/></g><g class="trace scatter tracee79652" style="stroke-miterlimit: 2; opacity: 1;"><g class="fills"><g><path class="js-fill" d="M334.45,143.71L305.48,65.05L371.7,29.75L334.45,143.71Z" style="fill: rgb(151, 184, 254); fill-opacity: 1; stroke-width: 0;"/></g></g><g class="errorbars"/><g class="lines"><path class="js-line" d="M334.45,143.71L305.48,65.05L371.7,29.75L334.45,143.71" style="vector-effect: none; fill: none; stroke: rgb(254, 203, 82); stroke-opacity: 1; stroke-width: 3px; opacity: 1;"/></g><g class="points"/><g class="text"/></g><g class="trace scatter tracee66981" style="stroke-miterlimit: 2; opacity: 1;"><g class="fills"><g><path class="js-fill" d="M408.37,152.58L334.45,143.71L409.25,80.58L408.37,152.58Z" style="fill: rgb(180, 205, 250); fill-opacity: 1; stroke-width: 0;"/></g></g><g class="errorbars"/><g class="lines"><path class="js-line" d="M408.37,152.58L334.45,143.71L409.25,80.58L408.37,152.58" style="vector-effect: none; fill: none; stroke: rgb(99, 110, 250); stroke-opacity: 1; stroke-width: 3px; opacity: 1;"/></g><g class="points"/><g class="text"/></g><g class="trace scatter trace2087b4" style="stroke-miterlimit: 2; opacity: 1;"><g class="fills"><g><path class="js-fill" d="M408.37,152.58L334.45,143.71L371.7,29.75L408.37,152.58Z" style="fill: rgb(180, 205, 250); fill-opacity: 1; stroke-width: 0;"/></g></g><g class="errorbars"/><g class="lines"><path class="js-line" d="M408.37,152.58L334.45,143.71L371.7,29.75L408.37,152.58" style="vector-effect: none; fill: none; stroke: rgb(239, 85, 59); stroke-opacity: 1; stroke-width: 3px; opacity: 1;"/></g><g class="points"/><g class="text"/></g><g class="trace scatter trace00a7c2" style="stroke-miterlimit: 2; opacity: 1;"><g class="fills"><g><path class="js-fill" d="M408.37,152.58L291.81,125.27L371.7,29.75L408.37,152.58Z" style="fill: rgb(180, 205, 250); fill-opacity: 1; stroke-width: 0;"/></g></g><g class="errorbars"/><g class="lines"><path class="js-line" d="M408.37,152.58L291.81,125.27L371.7,29.75L408.37,152.58" style="vector-effect: none; fill: none; stroke: rgb(0, 204, 150); stroke-opacity: 1; stroke-width: 3px; opacity: 1;"/></g><g class="points"/><g class="text"/></g><g class="trace scatter traceef947d" style="stroke-miterlimit: 2; opacity: 1;"><g class="fills"><g><path class="js-fill" d="M408.37,152.58L305.48,65.05L371.7,29.75L408.37,152.58Z" style="fill: rgb(180, 205, 250); fill-opacity: 1; stroke-width: 0;"/></g></g><g class="errorbars"/><g class="lines"><path class="js-line" d="M408.37,152.58L305.48,65.05L371.7,29.75L408.37,152.58" style="vector-effect: none; fill: none; stroke: rgb(171, 99, 250); stroke-opacity: 1; stroke-width: 3px; opacity: 1;"/></g><g class="points"/><g class="text"/></g><g class="trace scatter trace86e5ad" style="stroke-miterlimit: 2; opacity: 1;"><g class="fills"><g><path class="js-fill" d="M408.37,152.58L291.81,125.27L409.25,80.58L408.37,152.58Z" style="fill: rgb(185, 208, 248); fill-opacity: 1; stroke-width: 0;"/></g></g><g class="errorbars"/><g class="lines"><path class="js-line" d="M408.37,152.58L291.81,125.27L409.25,80.58L408.37,152.58" style="vector-effect: none; fill: none; stroke: rgb(255, 161, 90); stroke-opacity: 1; stroke-width: 3px; opacity: 1;"/></g><g class="points"/><g class="text"/></g><g class="trace scatter traceea1d76" style="stroke-miterlimit: 2; opacity: 1;"><g class="fills"><g><path class="js-fill" d="M334.45,143.71L291.81,125.27L409.25,80.58L334.45,143.71Z" style="fill: rgb(185, 208, 248); fill-opacity: 1; stroke-width: 0;"/></g></g><g class="errorbars"/><g class="lines"><path class="js-line" d="M334.45,143.71L291.81,125.27L409.25,80.58L334.45,143.71" style="vector-effect: none; fill: none; stroke: rgb(25, 211, 243); stroke-opacity: 1; stroke-width: 3px; opacity: 1;"/></g><g class="points"/><g class="text"/></g><g class="trace scatter trace65c0ae" style="stroke-miterlimit: 2; opacity: 1;"><g class="fills"><g><path class="js-fill" d="M408.37,152.58L409.25,80.58L371.7,29.75L408.37,152.58Z" style="fill: rgb(206, 217, 235); fill-opacity: 1; stroke-width: 0;"/></g></g><g class="errorbars"/><g class="lines"><path class="js-line" d="M408.37,152.58L409.25,80.58L371.7,29.75L408.37,152.58" style="vector-effect: none; fill: none; stroke: rgb(255, 102, 146); stroke-opacity: 1; stroke-width: 3px; opacity: 1;"/></g><g class="points"/><g class="text"/></g><g class="trace scatter trace4ac285" style="stroke-miterlimit: 2; opacity: 1;"><g class="fills"><g><path class="js-fill" d="M334.45,143.71L409.25,80.58L371.7,29.75L334.45,143.71Z" style="fill: rgb(206, 217, 235); fill-opacity: 1; stroke-width: 0;"/></g></g><g class="errorbars"/><g class="lines"><path class="js-line" d="M334.45,143.71L409.25,80.58L371.7,29.75L334.45,143.71" style="vector-effect: none; fill: none; stroke: rgb(182, 232, 128); stroke-opacity: 1; stroke-width: 3px; opacity: 1;"/></g><g class="points"/><g class="text"/></g><g class="trace scatter trace259d20" style="stroke-miterlimit: 2; opacity: 1;"><g class="fills"><g><path class="js-fill" d="M291.81,125.27L409.25,80.58L371.7,29.75L291.81,125.27Z" style="fill: rgb(206, 217, 235); fill-opacity: 1; stroke-width: 0;"/></g></g><g class="errorbars"/><g class="lines"><path class="js-line" d="M291.81,125.27L409.25,80.58L371.7,29.75L291.81,125.27" style="vector-effect: none; fill: none; stroke: rgb(255, 151, 255); stroke-opacity: 1; stroke-width: 3px; opacity: 1;"/></g><g class="points"/><g class="text"/></g><g class="trace scatter trace35bee8" style="stroke-miterlimit: 2; opacity: 1;"><g class="fills"><g><path class="js-fill" d="M408.37,152.58L305.48,65.05L409.25,80.58L408.37,152.58Z" style="fill: rgb(214, 219, 228); fill-opacity: 1; stroke-width: 0;"/></g></g><g class="errorbars"/><g class="lines"><path class="js-line" d="M408.37,152.58L305.48,65.05L409.25,80.58L408.37,152.58" style="vector-effect: none; fill: none; stroke: rgb(254, 203, 82); stroke-opacity: 1; stroke-width: 3px; opacity: 1;"/></g><g class="points"/><g class="text"/></g><g class="trace scatter trace33ee9c" style="stroke-miterlimit: 2; opacity: 1;"><g class="fills"><g><path class="js-fill" d="M334.45,143.71L305.48,65.05L409.25,80.58L334.45,143.71Z" style="fill: rgb(214, 219, 228); fill-opacity: 1; stroke-width: 0;"/></g></g><g class="errorbars"/><g class="lines"><path class="js-line" d="M334.45,143.71L305.48,65.05L409.25,80.58L334.45,143.71" style="vector-effect: none; fill: none; stroke: rgb(99, 110, 250); stroke-opacity: 1; stroke-width: 3px; opacity: 1;"/></g><g class="points"/><g class="text"/></g><g class="trace scatter tracede3539" style="stroke-miterlimit: 2; opacity: 1;"><g class="fills"><g><path class="js-fill" d="M291.81,125.27L305.48,65.05L409.25,80.58L291.81,125.27Z" style="fill: rgb(214, 219, 228); fill-opacity: 1; stroke-width: 0;"/></g></g><g class="errorbars"/><g class="lines"><path class="js-line" d="M291.81,125.27L305.48,65.05L409.25,80.58L291.81,125.27" style="vector-effect: none; fill: none; stroke: rgb(239, 85, 59); stroke-opacity: 1; stroke-width: 3px; opacity: 1;"/></g><g class="points"/><g class="text"/></g><g class="trace scatter tracecedfae" style="stroke-miterlimit: 2; opacity: 1;"><g class="fills"><g><path class="js-fill" d="M305.48,65.05L409.25,80.58L371.7,29.75L305.48,65.05Z" style="fill: rgb(214, 219, 228); fill-opacity: 1; stroke-width: 0;"/></g></g><g class="errorbars"/><g class="lines"><path class="js-line" d="M305.48,65.05L409.25,80.58L371.7,29.75L305.48,65.05" style="vector-effect: none; fill: none; stroke: rgb(0, 204, 150); stroke-opacity: 1; stroke-width: 3px; opacity: 1;"/></g><g class="points"/><g class="text"/></g><g class="trace scatter trace4c83b2" style="stroke-miterlimit: 2; opacity: 1;"><g class="fills"><g><path class="js-fill" d="M334.48,213.66L408.37,152.58L409.25,80.58L334.48,213.66Z" style="fill: rgb(216, 219, 225); fill-opacity: 1; stroke-width: 0;"/></g></g><g class="errorbars"/><g class="lines"><path class="js-line" d="M334.48,213.66L408.37,152.58L409.25,80.58L334.48,213.66" style="vector-effect: none; fill: none; stroke: rgb(171, 99, 250); stroke-opacity: 1; stroke-width: 3px; opacity: 1;"/></g><g class="points"/><g class="text"/></g><g class="trace scatter trace0df7b8" style="stroke-miterlimit: 2; opacity: 1;"><g class="fills"><g><path class="js-fill" d="M334.48,213.66L408.37,152.58L291.81,125.27L334.48,213.66Z" style="fill: rgb(225, 218, 214); fill-opacity: 1; stroke-width: 0;"/></g></g><g class="errorbars"/><g class="lines"><path class="js-line" d="M334.48,213.66L408.37,152.58L291.81,125.27L334.48,213.66" style="vector-effect: none; fill: none; stroke: rgb(255, 161, 90); stroke-opacity: 1; stroke-width: 3px; opacity: 1;"/></g><g class="points"/><g class="text"/></g><g class="trace scatter trace8e9b8a" style="stroke-miterlimit: 2; opacity: 1;"><g class="fills"><g><path class="js-fill" d="M334.48,213.66L291.81,125.27L409.25,80.58L334.48,213.66Z" style="fill: rgb(225, 218, 214); fill-opacity: 1; stroke-width: 0;"/></g></g><g class="errorbars"/><g class="lines"><path class="js-line" d="M334.48,213.66L291.81,125.27L409.25,80.58L334.48,213.66" style="vector-effect: none; fill: none; stroke: rgb(25, 211, 243); stroke-opacity: 1; stroke-width: 3px; opacity: 1;"/></g><g class="points"/><g class="text"/></g><g class="trace scatter trace27e5ba" style="stroke-miterlimit: 2; opacity: 1;"><g class="fills"><g><path class="js-fill" d="M334.48,213.66L408.37,152.58L334.45,143.71L334.48,213.66Z" style="fill: rgb(229, 216, 208); fill-opacity: 1; stroke-width: 0;"/></g></g><g class="errorbars"/><g class="lines"><path class="js-line" d="M334.48,213.66L408.37,152.58L334.45,143.71L334.48,213.66" style="vector-effect: none; fill: none; stroke: rgb(255, 102, 146); stroke-opacity: 1; stroke-width: 3px; opacity: 1;"/></g><g class="points"/><g class="text"/></g><g class="trace scatter trace47a47b" style="stroke-miterlimit: 2; opacity: 1;"><g class="fills"><g><path class="js-fill" d="M334.48,213.66L334.45,143.71L291.81,125.27L334.48,213.66Z" style="fill: rgb(229, 216, 208); fill-opacity: 1; stroke-width: 0;"/></g></g><g class="errorbars"/><g class="lines"><path class="js-line" d="M334.48,213.66L334.45,143.71L291.81,125.27L334.48,213.66" style="vector-effect: none; fill: none; stroke: rgb(182, 232, 128); stroke-opacity: 1; stroke-width: 3px; opacity: 1;"/></g><g class="points"/><g class="text"/></g><g class="trace scatter trace2349f6" style="stroke-miterlimit: 2; opacity: 1;"><g class="fills"><g><path class="js-fill" d="M334.48,213.66L334.45,143.71L409.25,80.58L334.48,213.66Z" style="fill: rgb(229, 216, 208); fill-opacity: 1; stroke-width: 0;"/></g></g><g class="errorbars"/><g class="lines"><path class="js-line" d="M334.48,213.66L334.45,143.71L409.25,80.58L334.48,213.66" style="vector-effect: none; fill: none; stroke: rgb(255, 151, 255); stroke-opacity: 1; stroke-width: 3px; opacity: 1;"/></g><g class="points"/><g class="text"/></g><g class="trace scatter trace0a5d8c" style="stroke-miterlimit: 2; opacity: 1;"><g class="fills"><g><path class="js-fill" d="M334.48,213.66L408.37,152.58L305.48,65.05L334.48,213.66Z" style="fill: rgb(237, 207, 192); fill-opacity: 1; stroke-width: 0;"/></g></g><g class="errorbars"/><g class="lines"><path class="js-line" d="M334.48,213.66L408.37,152.58L305.48,65.05L334.48,213.66" style="vector-effect: none; fill: none; stroke: rgb(254, 203, 82); stroke-opacity: 1; stroke-width: 3px; opacity: 1;"/></g><g class="points"/><g class="text"/></g><g class="trace scatter tracec1b1d6" style="stroke-miterlimit: 2; opacity: 1;"><g class="fills"><g><path class="js-fill" d="M334.48,213.66L334.45,143.71L305.48,65.05L334.48,213.66Z" style="fill: rgb(237, 207, 192); fill-opacity: 1; stroke-width: 0;"/></g></g><g class="errorbars"/><g class="lines"><path class="js-line" d="M334.48,213.66L334.45,143.71L305.48,65.05L334.48,213.66" style="vector-effect: none; fill: none; stroke: rgb(99, 110, 250); stroke-opacity: 1; stroke-width: 3px; opacity: 1;"/></g><g class="points"/><g class="text"/></g><g class="trace scatter trace90e739" style="stroke-miterlimit: 2; opacity: 1;"><g class="fills"><g><path class="js-fill" d="M334.48,213.66L291.81,125.27L305.48,65.05L334.48,213.66Z" style="fill: rgb(237, 207, 192); fill-opacity: 1; stroke-width: 0;"/></g></g><g class="errorbars"/><g class="lines"><path class="js-line" d="M334.48,213.66L291.81,125.27L305.48,65.05L334.48,213.66" style="vector-effect: none; fill: none; stroke: rgb(239, 85, 59); stroke-opacity: 1; stroke-width: 3px; opacity: 1;"/></g><g class="points"/><g class="text"/></g><g class="trace scatter tracea9740a" style="stroke-miterlimit: 2; opacity: 1;"><g class="fills"><g><path class="js-fill" d="M334.48,213.66L305.48,65.05L409.25,80.58L334.48,213.66Z" style="fill: rgb(237, 207, 192); fill-opacity: 1; stroke-width: 0;"/></g></g><g class="errorbars"/><g class="lines"><path class="js-line" d="M334.48,213.66L305.48,65.05L409.25,80.58L334.48,213.66" style="vector-effect: none; fill: none; stroke: rgb(0, 204, 150); stroke-opacity: 1; stroke-width: 3px; opacity: 1;"/></g><g class="points"/><g class="text"/></g><g class="trace scatter trace78a219" style="stroke-miterlimit: 2; opacity: 1;"><g class="fills"><g><path class="js-fill" d="M334.48,213.66L408.37,152.58L371.7,29.75L334.48,213.66Z" style="fill: rgb(242, 199, 178); fill-opacity: 1; stroke-width: 0;"/></g></g><g class="errorbars"/><g class="lines"><path class="js-line" d="M334.48,213.66L408.37,152.58L371.7,29.75L334.48,213.66" style="vector-effect: none; fill: none; stroke: rgb(171, 99, 250); stroke-opacity: 1; stroke-width: 3px; opacity: 1;"/></g><g class="points"/><g class="text"/></g><g class="trace scatter tracef14d49" style="stroke-miterlimit: 2; opacity: 1;"><g class="fills"><g><path class="js-fill" d="M334.48,213.66L334.45,143.71L371.7,29.75L334.48,213.66Z" style="fill: rgb(242, 199, 178); fill-opacity: 1; stroke-width: 0;"/></g></g><g class="errorbars"/><g class="lines"><path class="js-line" d="M334.48,213.66L334.45,143.71L371.7,29.75L334.48,213.66" style="vector-effect: none; fill: none; stroke: rgb(255, 161, 90); stroke-opacity: 1; stroke-width: 3px; opacity: 1;"/></g><g class="points"/><g class="text"/></g><g class="trace scatter trace1f3a2d" style="stroke-miterlimit: 2; opacity: 1;"><g class="fills"><g><path class="js-fill" d="M334.48,213.66L291.81,125.27L371.7,29.75L334.48,213.66Z" style="fill: rgb(242, 199, 178); fill-opacity: 1; stroke-width: 0;"/></g></g><g class="errorbars"/><g class="lines"><path class="js-line" d="M334.48,213.66L291.81,125.27L371.7,29.75L334.48,213.66" style="vector-effect: none; fill: none; stroke: rgb(25, 211, 243); stroke-opacity: 1; stroke-width: 3px; opacity: 1;"/></g><g class="points"/><g class="text"/></g><g class="trace scatter trace5cb16f" style="stroke-miterlimit: 2; opacity: 1;"><g class="fills"><g><path class="js-fill" d="M334.48,213.66L305.48,65.05L371.7,29.75L334.48,213.66Z" style="fill: rgb(242, 199, 178); fill-opacity: 1; stroke-width: 0;"/></g></g><g class="errorbars"/><g class="lines"><path class="js-line" d="M334.48,213.66L305.48,65.05L371.7,29.75L334.48,213.66" style="vector-effect: none; fill: none; stroke: rgb(255, 102, 146); stroke-opacity: 1; stroke-width: 3px; opacity: 1;"/></g><g class="points"/><g class="text"/></g><g class="trace scatter trace624c90" style="stroke-miterlimit: 2; opacity: 1;"><g class="fills"><g><path class="js-fill" d="M334.48,213.66L409.25,80.58L371.7,29.75L334.48,213.66Z" style="fill: rgb(242, 199, 178); fill-opacity: 1; stroke-width: 0;"/></g></g><g class="errorbars"/><g class="lines"><path class="js-line" d="M334.48,213.66L409.25,80.58L371.7,29.75L334.48,213.66" style="vector-effect: none; fill: none; stroke: rgb(182, 232, 128); stroke-opacity: 1; stroke-width: 3px; opacity: 1;"/></g><g class="points"/><g class="text"/></g><g class="trace scatter traceb501ad" style="stroke-miterlimit: 2; opacity: 1;"><g class="fills"><g><path class="js-fill" d="M30.75,310.97L102.15,390.25L181.46,212.96L30.75,310.97Z" style="fill: rgb(247, 179, 151); fill-opacity: 1; stroke-width: 0;"/></g></g><g class="errorbars"/><g class="lines"><path class="js-line" d="M30.75,310.97L102.15,390.25L181.46,212.96L30.75,310.97" style="vector-effect: none; fill: none; stroke: rgb(255, 151, 255); stroke-opacity: 1; stroke-width: 3px; opacity: 1;"/></g><g class="points"/><g class="text"/></g><g class="trace scatter trace8c157e" style="stroke-miterlimit: 2; opacity: 1;"><g class="fills"><g><path class="js-fill" d="M30.75,310.97L181.46,212.96L76.41,237.52L30.75,310.97Z" style="fill: rgb(223, 100, 79); fill-opacity: 1; stroke-width: 0;"/></g></g><g class="errorbars"/><g class="lines"><path class="js-line" d="M30.75,310.97L181.46,212.96L76.41,237.52L30.75,310.97" style="vector-effect: none; fill: none; stroke: rgb(254, 203, 82); stroke-opacity: 1; stroke-width: 3px; opacity: 1;"/></g><g class="points"/><g class="text"/></g><g class="trace scatter trace9ef1d0" style="stroke-miterlimit: 2; opacity: 1;"><g class="fills"><g><path class="js-fill" d="M102.15,390.25L181.46,212.96L190.3,327.54L102.15,390.25Z" style="fill: rgb(198, 53, 52); fill-opacity: 1; stroke-width: 0;"/></g></g><g class="errorbars"/><g class="lines"><path class="js-line" d="M102.15,390.25L181.46,212.96L190.3,327.54L102.15,390.25" style="vector-effect: none; fill: none; stroke: rgb(99, 110, 250); stroke-opacity: 1; stroke-width: 3px; opacity: 1;"/></g><g class="points"/><g class="text"/></g><g class="trace scatter trace392169" style="stroke-miterlimit: 2; opacity: 1;"><g class="fills"><g><path class="js-fill" d="M181.46,212.96L76.41,237.52L190.3,327.54L181.46,212.96Z" style="fill: rgb(198, 53, 52); fill-opacity: 1; stroke-width: 0;"/></g></g><g class="errorbars"/><g class="lines"><path class="js-line" d="M181.46,212.96L76.41,237.52L190.3,327.54L181.46,212.96" style="vector-effect: none; fill: none; stroke: rgb(239, 85, 59); stroke-opacity: 1; stroke-width: 3px; opacity: 1;"/></g><g class="points"/><g class="text"/></g><g class="trace scatter trace7a06d4" style="stroke-miterlimit: 2; opacity: 1;"><g class="fills"><g><path class="js-fill" d="M181.46,212.96L334.45,143.71L291.81,125.27L181.46,212.96Z" style="fill: rgb(179, 3, 38); fill-opacity: 1; stroke-width: 0;"/></g></g><g class="errorbars"/><g class="lines"><path class="js-line" d="M181.46,212.96L334.45,143.71L291.81,125.27L181.46,212.96" style="vector-effect: none; fill: none; stroke: rgb(0, 204, 150); stroke-opacity: 1; stroke-width: 3px; opacity: 1;"/></g><g class="points"/><g class="text"/></g><g class="trace scatter trace1157c6" style="stroke-miterlimit: 2; opacity: 1;"><g class="fills"><g><path class="js-fill" d="M181.46,212.96L334.45,143.71L305.48,65.05L181.46,212.96Z" style="fill: rgb(179, 3, 38); fill-opacity: 1; stroke-width: 0;"/></g></g><g class="errorbars"/><g class="lines"><path class="js-line" d="M181.46,212.96L334.45,143.71L305.48,65.05L181.46,212.96" style="vector-effect: none; fill: none; stroke: rgb(171, 99, 250); stroke-opacity: 1; stroke-width: 3px; opacity: 1;"/></g><g class="points"/><g class="text"/></g><g class="trace scatter trace974002" style="stroke-miterlimit: 2; opacity: 1;"><g class="fills"><g><path class="js-fill" d="M181.46,212.96L291.81,125.27L305.48,65.05L181.46,212.96Z" style="fill: rgb(179, 3, 38); fill-opacity: 1; stroke-width: 0;"/></g></g><g class="errorbars"/><g class="lines"><path class="js-line" d="M181.46,212.96L291.81,125.27L305.48,65.05L181.46,212.96" style="vector-effect: none; fill: none; stroke: rgb(255, 161, 90); stroke-opacity: 1; stroke-width: 3px; opacity: 1;"/></g><g class="points"/><g class="text"/></g><g class="trace scatter tracedb9b6c" style="stroke-miterlimit: 2; opacity: 1;"><g class="fills"/><g class="errorbars"/><g class="lines"/><g class="points"><path class="point" transform="translate(30.75,310.97)" d="M7,0A7,7 0 1,1 0,-7A7,7 0 0,1 7,0Z" style="opacity: 1; stroke-width: 0px; fill: rgb(25, 211, 243); fill-opacity: 1;"/><path class="point" transform="translate(102.15,390.25)" d="M7,0A7,7 0 1,1 0,-7A7,7 0 0,1 7,0Z" style="opacity: 1; stroke-width: 0px; fill: rgb(25, 211, 243); fill-opacity: 1;"/><path class="point" transform="translate(181.46,212.96)" d="M7,0A7,7 0 1,1 0,-7A7,7 0 0,1 7,0Z" style="opacity: 1; stroke-width: 0px; fill: rgb(25, 211, 243); fill-opacity: 1;"/><path class="point" transform="translate(76.41,237.52)" d="M7,0A7,7 0 1,1 0,-7A7,7 0 0,1 7,0Z" style="opacity: 1; stroke-width: 0px; fill: rgb(25, 211, 243); fill-opacity: 1;"/><path class="point" transform="translate(190.3,327.54)" d="M7,0A7,7 0 1,1 0,-7A7,7 0 0,1 7,0Z" style="opacity: 1; stroke-width: 0px; fill: rgb(25, 211, 243); fill-opacity: 1;"/><path class="point" transform="translate(334.48,213.66)" d="M7,0A7,7 0 1,1 0,-7A7,7 0 0,1 7,0Z" style="opacity: 1; stroke-width: 0px; fill: rgb(25, 211, 243); fill-opacity: 1;"/><path class="point" transform="translate(408.37,152.58)" d="M7,0A7,7 0 1,1 0,-7A7,7 0 0,1 7,0Z" style="opacity: 1; stroke-width: 0px; fill: rgb(25, 211, 243); fill-opacity: 1;"/><path class="point" transform="translate(334.45,143.71)" d="M7,0A7,7 0 1,1 0,-7A7,7 0 0,1 7,0Z" style="opacity: 1; stroke-width: 0px; fill: rgb(25, 211, 243); fill-opacity: 1;"/><path class="point" transform="translate(291.81,125.27)" d="M7,0A7,7 0 1,1 0,-7A7,7 0 0,1 7,0Z" style="opacity: 1; stroke-width: 0px; fill: rgb(25, 211, 243); fill-opacity: 1;"/><path class="point" transform="translate(305.48,65.05)" d="M7,0A7,7 0 1,1 0,-7A7,7 0 0,1 7,0Z" style="opacity: 1; stroke-width: 0px; fill: rgb(25, 211, 243); fill-opacity: 1;"/><path class="point" transform="translate(409.25,80.58)" d="M7,0A7,7 0 1,1 0,-7A7,7 0 0,1 7,0Z" style="opacity: 1; stroke-width: 0px; fill: rgb(25, 211, 243); fill-opacity: 1;"/><path class="point" transform="translate(371.7,29.75)" d="M7,0A7,7 0 1,1 0,-7A7,7 0 0,1 7,0Z" style="opacity: 1; stroke-width: 0px; fill: rgb(25, 211, 243); fill-opacity: 1;"/></g><g class="text"><g class="textpoint" transform="translate(0,-13.25)"><text x="30.75" y="310.97" text-anchor="middle" style="font-family: 'Open Sans', verdana, arial, sans-serif; font-size: 14px; fill: rgb(42, 63, 95); fill-opacity: 1; white-space: pre;">EC00690</text></g><g class="textpoint" transform="translate(0,-13.25)"><text x="102.15" y="390.25" text-anchor="middle" style="font-family: 'Open Sans', verdana, arial, sans-serif; font-size: 14px; fill: rgb(42, 63, 95); fill-opacity: 1; white-space: pre;">EC00668</text></g><g class="textpoint" transform="translate(0,-13.25)"><text x="181.46" y="212.96" text-anchor="middle" style="font-family: 'Open Sans', verdana, arial, sans-serif; font-size: 14px; fill: rgb(42, 63, 95); fill-opacity: 1; white-space: pre;">EC00609</text></g><g class="textpoint" transform="translate(0,-13.25)"><text x="76.41" y="237.52" text-anchor="middle" style="font-family: 'Open Sans', verdana, arial, sans-serif; font-size: 14px; fill: rgb(42, 63, 95); fill-opacity: 1; white-space: pre;">EC00701</text></g><g class="textpoint" transform="translate(0,-13.25)"><text x="190.3" y="327.54" text-anchor="middle" style="font-family: 'Open Sans', verdana, arial, sans-serif; font-size: 14px; fill: rgb(42, 63, 95); fill-opacity: 1; white-space: pre;">EC00678</text></g><g class="textpoint" transform="translate(0,-13.25)"><text x="334.48" y="213.66" text-anchor="middle" style="font-family: 'Open Sans', verdana, arial, sans-serif; font-size: 14px; fill: rgb(42, 63, 95); fill-opacity: 1; white-space: pre;">KLP00215</text></g><g class="textpoint" transform="translate(0,-13.25)"><text x="408.37" y="152.58" text-anchor="middle" style="font-family: 'Open Sans', verdana, arial, sans-serif; font-size: 14px; fill: rgb(42, 63, 95); fill-opacity: 1; white-space: pre;">KLP00221</text></g><g class="textpoint" transform="translate(0,-13.25)"><text x="334.45" y="143.71" text-anchor="middle" style="font-family: 'Open Sans', verdana, arial, sans-serif; font-size: 14px; fill: rgb(42, 63, 95); fill-opacity: 1; white-space: pre;">KLP00218</text></g><g class="textpoint" transform="translate(0,-13.25)"><text x="291.81" y="125.27" text-anchor="middle" style="font-family: 'Open Sans', verdana, arial, sans-serif; font-size: 14px; fill: rgb(42, 63, 95); fill-opacity: 1; white-space: pre;">KLP00213</text></g><g class="textpoint" transform="translate(0,-13.25)"><text x="305.48" y="65.05" text-anchor="middle" style="font-family: 'Open Sans', verdana, arial, sans-serif; font-size: 14px; fill: rgb(42, 63, 95); fill-opacity: 1; white-space: pre;">KLP00187</text></g><g class="textpoint" transform="translate(0,-13.25)"><text x="409.25" y="80.58" text-anchor="middle" style="font-family: 'Open Sans', verdana, arial, sans-serif; font-size: 14px; fill: rgb(42, 63, 95); fill-opacity: 1; white-space: pre;">KLP00149</text></g><g class="textpoint" transform="translate(0,-13.25)"><text x="371.7" y="29.75" text-anchor="middle" style="font-family: 'Open Sans', verdana, arial, sans-serif; font-size: 14px; fill: rgb(42, 63, 95); fill-opacity: 1; white-space: pre;">KLP00177</text></g></g></g></g></g><g class="overplot"/><path class="xlines-above crisp" d="M0,0" style="fill: none;"/><path class="ylines-above crisp" d="M0,0" style="fill: none;"/><g class="overlines-above"/><g class="xaxislayer-above"><g class="xtick"><text text-anchor="middle" x="0" y="537" transform="translate(110.75,0)" style="font-family: Arial, sans-serif; font-size: 16px; fill: rgb(42, 63, 95); fill-opacity: 1; white-space: pre; opacity: 1;">−1</text></g><g class="xtick"><text text-anchor="middle" x="0" y="537" style="font-family: Arial, sans-serif; font-size: 16px; fill: rgb(42, 63, 95); fill-opacity: 1; white-space: pre; opacity: 1;" transform="translate(221.9,0)">−0.5</text></g><g class="xtick"><text text-anchor="middle" x="0" y="537" style="font-family: Arial, sans-serif; font-size: 16px; fill: rgb(42, 63, 95); fill-opacity: 1; white-space: pre; opacity: 1;" transform="translate(333.05,0)">0</text></g><g class="xtick"><text text-anchor="middle" x="0" y="537" style="font-family: Arial, sans-serif; font-size: 16px; fill: rgb(42, 63, 95); fill-opacity: 1; white-space: pre; opacity: 1;" transform="translate(444.2,0)">0.5</text></g></g><g class="yaxislayer-above"><g class="ytick"><text text-anchor="end" x="79" y="5.6" transform="translate(0,476.84)" style="font-family: Arial, sans-serif; font-size: 16px; fill: rgb(42, 63, 95); fill-opacity: 1; white-space: pre; opacity: 1;">−0.6</text></g><g class="ytick"><text text-anchor="end" x="79" y="5.6" style="font-family: Arial, sans-serif; font-size: 16px; fill: rgb(42, 63, 95); fill-opacity: 1; white-space: pre; opacity: 1;" transform="translate(0,414.83)">−0.4</text></g><g class="ytick"><text text-anchor="end" x="79" y="5.6" style="font-family: Arial, sans-serif; font-size: 16px; fill: rgb(42, 63, 95); fill-opacity: 1; white-space: pre; opacity: 1;" transform="translate(0,352.82)">−0.2</text></g><g class="ytick"><text text-anchor="end" x="79" y="5.6" style="font-family: Arial, sans-serif; font-size: 16px; fill: rgb(42, 63, 95); fill-opacity: 1; white-space: pre; opacity: 1;" transform="translate(0,290.82)">0</text></g><g class="ytick"><text text-anchor="end" x="79" y="5.6" style="font-family: Arial, sans-serif; font-size: 16px; fill: rgb(42, 63, 95); fill-opacity: 1; white-space: pre; opacity: 1;" transform="translate(0,228.81)">0.2</text></g><g class="ytick"><text text-anchor="end" x="79" y="5.6" style="font-family: Arial, sans-serif; font-size: 16px; fill: rgb(42, 63, 95); fill-opacity: 1; white-space: pre; opacity: 1;" transform="translate(0,166.81)">0.4</text></g><g class="ytick"><text text-anchor="end" x="79" y="5.6" style="font-family: Arial, sans-serif; font-size: 16px; fill: rgb(42, 63, 95); fill-opacity: 1; white-space: pre; opacity: 1;" transform="translate(0,104.8)">0.6</text></g></g><g class="overaxes-above"/></g></g><g class="polarlayer"/><g class="smithlayer"/><g class="ternarylayer"/><g class="geolayer"/><g class="funnelarealayer"/><g class="pielayer"/><g class="iciclelayer"/><g class="treemaplayer"/><g class="sunburstlayer"/><g class="glimages"/><defs id="topdefs-176007"><g class="clips"/></defs><g class="layer-above"><g class="imagelayer"/><g class="shapelayer"/></g><g class="infolayer"><g class="g-gtitle"/><g class="g-xtitle"/><g class="g-ytitle"/></g></svg>