<svg class="main-svg" xmlns="http://www.w3.org/2000/svg" xmlns:xlink="http://www.w3.org/1999/xlink" width="600" height="600" style="" viewBox="0 0 600 600"><rect x="0" y="0" width="600" height="600" style="fill: rgb(255, 255, 255); fill-opacity: 1;"/><defs id="defs-741977"><g class="clips"><clipPath id="clip741977xyplot" class="plotclip"><rect width="440" height="420"/></clipPath><clipPath class="axesclip" id="clip741977x"><rect x="80" y="0" width="440" height="600"/></clipPath><clipPath class="axesclip" id="clip741977y"><rect x="0" y="100" width="600" height="420"/></clipPath><clipPath class="axesclip" id="clip741977xy"><rect x="80" y="100" width="440" height="420"/></clipPath></g><g class="gradients"/><g class="patterns"/></defs><g class="bglayer"><rect class="bg" x="80" y="100" width="440" height="420" style="fill: rgb(229, 236, 246); fill-opacity: 1; stroke-width: 0;"/></g><g class="layer-below"><g class="imagelayer"/><g class="shapelayer"/></g><g class="cartesianlayer"><g class="subplot xy"><g class="layer-subplot"><g class="shapelayer"/><g class="imagelayer"/></g><g class="minor-gridlayer"><g class="x"/><g class="y"/></g><g class="gridlayer"><g class="x"/><g class="y"/></g><g class="zerolinelayer"/><path class="xlines-below"/><path class="ylines-below"/><g class="overlines-below"/><g class="xaxislayer-below"/><g class="yaxislayer-below"/><g class="overaxes-below"/><g class="plot" transform="translate(80,100)" clip-path="url(#clip741977xyplot)"><g class="scatterlayer mlayer"><g class="trace scatter trace723a06" style="stroke-miterlimit: 2; opacity: 1;"><g class="fills"/><g class="errorbars"/><g class="lines"><path class="js-line" d="M336.67,189.95L267,188.33" style="vector-effect: none; fill: none; stroke: rgb(153, 186, 254); stroke-opacity: 1; stroke-width: 3px; opacity: 1;"/></g><g class="points"/><g class="text"/></g><g class="trace scatter tracec39807" style="stroke-miterlimit: 2; opacity: 1;"><g class="fills"/><g class="errorbars"/><g class="lines"><path class="js-line" d="M336.67,189.95L333.6,76.35" style="vector-effect: none; fill: none; stroke: rgb(244, 157, 126); stroke-opacity: 1; stroke-width: 3px; opacity: 1;"/></g><g class="points"/><g class="text"/></g><g class="trace scatter trace1c0e8b" style="stroke-miterlimit: 2; opacity: 1;"><g class="fills"/><g class="errorbars"/><g class="lines"><path class="js-line" d="M336.67,189.95L371.87,138.21" style="vector-effect: none; fill: none; stroke: rgb(239, 137, 108); stroke-opacity: 1; stroke-width: 3px; opacity: 1;"/></g><g class="points"/><g class="text"/></g><g class="trace scatter trace35f8cd" style="stroke-miterlimit: 2; opacity: 1;"><g class="fills"/><g class="errorbars"/><g class="lines"><path class="js-line" d="M333.6,76.35L267,188.33" style="vector-effect: none; fill: none; stroke: rgb(236, 210, 196); stroke-opacity: 1; stroke-width: 3px; opacity: 1;"/></g><g class="points"/><g class="text"/></g><g class="trace scatter trace1c431b" style="stroke-miterlimit: 2; opacity: 1;"><g class="fills"/><g class="errorbars"/><g class="lines"><path class="js-line" d="M333.6,76.35L409.25,29.75" style="vector-effect: none; fill: none; stroke: rgb(246, 183, 156); stroke-opacity: 1; stroke-width: 3px; opacity: 1;"/></g><g class="points"/><g class="text"/></g><g class="trace scatter trace9995c8" style="stroke-miterlimit: 2; opacity: 1;"><g class="fills"/><g class="errorbars"/><g class="lines"><path class="js-line" d="M267,188.33L371.87,138.21" style="vector-effect: none; fill: none; stroke: rgb(200, 56, 53); stroke-opacity: 1; stroke-width: 3px; opacity: 1;"/></g><g class="points"/><g class="text"/></g><g class="trace scatter tracef7ec0a" style="stroke-miterlimit: 2; opacity: 1;"><g class="fills"/><g class="errorbars"/><g class="lines"><path class="js-line" d="M267,188.33L126.36,289.93" style="vector-effect: none; fill: none; stroke: rgb(179, 3, 38); stroke-opacity: 1; stroke-width: 3px; opacity: 1;"/></g><g class="points"/><g class="text"/></g><g class="trace scatter trace753f61" style="stroke-miterlimit: 2; opacity: 1;"><g class="fills"/><g class="errorbars"/><g class="lines"><path class="js-line" d="M371.87,138.21L409.25,29.75" style="vector-effect: none; fill: none; stroke: rgb(234, 125, 97); stroke-opacity: 1; stroke-width: 3px; opacity: 1;"/></g><g class="points"/><g class="text"/></g><g class="trace scatter trace98dbfd" style="stroke-miterlimit: 2; opacity: 1;"><g class="fills"/><g class="errorbars"/><g class="lines"><path class="js-line" d="M50.99,390.25L30.75,340.82" style="vector-effect: none; fill: none; stroke: rgb(218, 220, 223); stroke-opacity: 1; stroke-width: 3px; opacity: 1;"/></g><g class="points"/><g class="text"/></g><g class="trace scatter traced4b94c" style="stroke-miterlimit: 2; opacity: 1;"><g class="fills"/><g class="errorbars"/><g class="lines"><path class="js-line" d="M50.99,390.25L77.64,334.38" style="vector-effect: none; fill: none; stroke: rgb(228, 216, 209); stroke-opacity: 1; stroke-width: 3px; opacity: 1;"/></g><g class="points"/><g class="text"/></g><g class="trace scatter trace49698c" style="stroke-miterlimit: 2; opacity: 1;"><g class="fills"/><g class="errorbars"/><g class="lines"><path class="js-line" d="M50.99,390.25L89.14,387.51" style="vector-effect: none; fill: none; stroke: rgb(236, 210, 196); stroke-opacity: 1; stroke-width: 3px; opacity: 1;"/></g><g class="points"/><g class="text"/></g><g class="trace scatter trace475131" style="stroke-miterlimit: 2; opacity: 1;"><g class="fills"/><g class="errorbars"/><g class="lines"><path class="js-line" d="M50.99,390.25L126.36,289.93" style="vector-effect: none; fill: none; stroke: rgb(239, 206, 188); stroke-opacity: 1; stroke-width: 3px; opacity: 1;"/></g><g class="points"/><g class="text"/></g><g class="trace scatter tracef82e44" style="stroke-miterlimit: 2; opacity: 1;"><g class="fills"/><g class="errorbars"/><g class="lines"><path class="js-line" d="M50.99,390.25L39.58,282.34" style="vector-effect: none; fill: none; stroke: rgb(244, 194, 170); stroke-opacity: 1; stroke-width: 3px; opacity: 1;"/></g><g class="points"/><g class="text"/></g><g class="trace scatter tracebce7c7" style="stroke-miterlimit: 2; opacity: 1;"><g class="fills"/><g class="errorbars"/><g class="lines"><path class="js-line" d="M50.99,390.25L73.62,272.88" style="vector-effect: none; fill: none; stroke: rgb(246, 183, 156); stroke-opacity: 1; stroke-width: 3px; opacity: 1;"/></g><g class="points"/><g class="text"/></g><g class="trace scatter traceb80486" style="stroke-miterlimit: 2; opacity: 1;"><g class="fills"/><g class="errorbars"/><g class="lines"><path class="js-line" d="M30.75,340.82L89.14,387.51" style="vector-effect: none; fill: none; stroke: rgb(111, 145, 242); stroke-opacity: 1; stroke-width: 3px; opacity: 1;"/></g><g class="points"/><g class="text"/></g><g class="trace scatter trace12f5ed" style="stroke-miterlimit: 2; opacity: 1;"><g class="fills"/><g class="errorbars"/><g class="lines"><path class="js-line" d="M30.75,340.82L39.58,282.34" style="vector-effect: none; fill: none; stroke: rgb(141, 175, 253); stroke-opacity: 1; stroke-width: 3px; opacity: 1;"/></g><g class="points"/><g class="text"/></g><g class="trace scatter tracec57483" style="stroke-miterlimit: 2; opacity: 1;"><g class="fills"/><g class="errorbars"/><g class="lines"><path class="js-line" d="M30.75,340.82L126.36,289.93" style="vector-effect: none; fill: none; stroke: rgb(144, 178, 254); stroke-opacity: 1; stroke-width: 3px; opacity: 1;"/></g><g class="points"/><g class="text"/></g><g class="trace scatter tracecd970a" style="stroke-miterlimit: 2; opacity: 1;"><g class="fills"/><g class="errorbars"/><g class="lines"><path class="js-line" d="M30.75,340.82L77.64,334.38" style="vector-effect: none; fill: none; stroke: rgb(190, 211, 245); stroke-opacity: 1; stroke-width: 3px; opacity: 1;"/></g><g class="points"/><g class="text"/></g><g class="trace scatter traceb90f6f" style="stroke-miterlimit: 2; opacity: 1;"><g class="fills"/><g class="errorbars"/><g class="lines"><path class="js-line" d="M30.75,340.82L73.62,272.88" style="vector-effect: none; fill: none; stroke: rgb(190, 211, 245); stroke-opacity: 1; stroke-width: 3px; opacity: 1;"/></g><g class="points"/><g class="text"/></g><g class="trace scatter tracede8745" style="stroke-miterlimit: 2; opacity: 1;"><g class="fills"/><g class="errorbars"/><g class="lines"><path class="js-line" d="M126.36,289.93L89.14,387.51" style="vector-effect: none; fill: none; stroke: rgb(111, 145, 242); stroke-opacity: 1; stroke-width: 3px; opacity: 1;"/></g><g class="points"/><g class="text"/></g><g class="trace scatter trace4473f4" style="stroke-miterlimit: 2; opacity: 1;"><g class="fills"/><g class="errorbars"/><g class="lines"><path class="js-line" d="M126.36,289.93L39.58,282.34" style="vector-effect: none; fill: none; stroke: rgb(144, 178, 254); stroke-opacity: 1; stroke-width: 3px; opacity: 1;"/></g><g class="points"/><g class="text"/></g><g class="trace scatter trace3598be" style="stroke-miterlimit: 2; opacity: 1;"><g class="fills"/><g class="errorbars"/><g class="lines"><path class="js-line" d="M126.36,289.93L73.62,272.88" style="vector-effect: none; fill: none; stroke: rgb(160, 191, 254); stroke-opacity: 1; stroke-width: 3px; opacity: 1;"/></g><g class="points"/><g class="text"/></g><g class="trace scatter tracea7c653" style="stroke-miterlimit: 2; opacity: 1;"><g class="fills"/><g class="errorbars"/><g class="lines"><path class="js-line" d="M126.36,289.93L77.64,334.38" style="vector-effect: none; fill: none; stroke: rgb(190, 211, 245); stroke-opacity: 1; stroke-width: 3px; opacity: 1;"/></g><g class="points"/><g class="text"/></g><g class="trace scatter traceb857fe" style="stroke-miterlimit: 2; opacity: 1;"><g class="fills"/><g class="errorbars"/><g class="lines"><path class="js-line" d="M89.14,387.51L39.58,282.34" style="vector-effect: none; fill: none; stroke: rgb(111, 145, 242); stroke-opacity: 1; stroke-width: 3px; opacity: 1;"/></g><g class="points"/><g class="text"/></g><g class="trace scatter trace6d93e9" style="stroke-miterlimit: 2; opacity: 1;"><g class="fills"/><g class="errorbars"/><g class="lines"><path class="js-line" d="M89.14,387.51L73.62,272.88" style="vector-effect: none; fill: none; stroke: rgb(151, 184, 254); stroke-opacity: 1; stroke-width: 3px; opacity: 1;"/></g><g class="points"/><g class="text"/></g><g class="trace scatter trace321f09" style="stroke-miterlimit: 2; opacity: 1;"><g class="fills"/><g class="errorbars"/><g class="lines"><path class="js-line" d="M89.14,387.51L77.64,334.38" style="vector-effect: none; fill: none; stroke: rgb(197, 213, 242); stroke-opacity: 1; stroke-width: 3px; opacity: 1;"/></g><g class="points"/><g class="text"/></g><g class="trace scatter trace154702" style="stroke-miterlimit: 2; opacity: 1;"><g class="fills"/><g class="errorbars"/><g class="lines"><path class="js-line" d="M39.58,282.34L73.62,272.88" style="vector-effect: none; fill: none; stroke: rgb(153, 186, 254); stroke-opacity: 1; stroke-width: 3px; opacity: 1;"/></g><g class="points"/><g class="text"/></g><g class="trace scatter trace116eb2" style="stroke-miterlimit: 2; opacity: 1;"><g class="fills"/><g class="errorbars"/><g class="lines"><path class="js-line" d="M39.58,282.34L77.64,334.38" style="vector-effect: none; fill: none; stroke: rgb(225, 218, 214); stroke-opacity: 1; stroke-width: 3px; opacity: 1;"/></g><g class="points"/><g class="text"/></g><g class="trace scatter trace04871a" style="stroke-miterlimit: 2; opacity: 1;"><g class="fills"/><g class="errorbars"/><g class="lines"><path class="js-line" d="M77.64,334.38L73.62,272.88" style="vector-effect: none; fill: none; stroke: rgb(218, 220, 223); stroke-opacity: 1; stroke-width: 3px; opacity: 1;"/></g><g class="points"/><g class="text"/></g><g class="trace scatter trace9f5a79" style="stroke-miterlimit: 2; opacity: 1;"><g class="fills"><g><path class="js-fill" d="M30.75,340.82L89.14,387.51L39.58,282.34L30.75,340.82Z" style="fill: rgb(244, 157, 126); fill-opacity: 0.545; stroke-width: 0;"/></g></g><g class="errorbars"/><g class="lines"><path class="js-line" d="M30.75,340.82L89.14,387.51L39.58,282.34L30.75,340.82" style="vector-effect: none; fill: none; stroke: rgb(254, 203, 82); stroke-opacity: 1; stroke-width: 3px; opacity: 1;"/></g><g class="points"/><g class="text"/></g><g class="trace scatter traced69b6d" style="stroke-miterlimit: 2; opacity: 1;"><g class="fills"><g><path class="js-fill" d="M30.75,340.82L126.36,289.93L89.14,387.51L30.75,340.82Z" style="fill: rgb(244, 157, 126); fill-opacity: 0.545; stroke-width: 0;"/></g></g><g class="errorbars"/><g class="lines"><path class="js-line" d="M30.75,340.82L126.36,289.93L89.14,387.51L30.75,340.82" style="vector-effect: none; fill: none; stroke: rgb(99, 110, 250); stroke-opacity: 1; stroke-width: 3px; opacity: 1;"/></g><g class="points"/><g class="text"/></g><g class="trace scatter tracea69c7e" style="stroke-miterlimit: 2; opacity: 1;"><g class="fills"><g><path class="js-fill" d="M30.75,340.82L126.36,289.93L39.58,282.34L30.75,340.82Z" style="fill: rgb(244, 157, 126); fill-opacity: 0.545; stroke-width: 0;"/></g></g><g class="errorbars"/><g class="lines"><path class="js-line" d="M30.75,340.82L126.36,289.93L39.58,282.34L30.75,340.82" style="vector-effect: none; fill: none; stroke: rgb(239, 85, 59); stroke-opacity: 1; stroke-width: 3px; opacity: 1;"/></g><g class="points"/><g class="text"/></g><g class="trace scatter trace83c83b" style="stroke-miterlimit: 2; opacity: 1;"><g class="fills"><g><path class="js-fill" d="M126.36,289.93L89.14,387.51L39.58,282.34L126.36,289.93Z" style="fill: rgb(244, 157, 126); fill-opacity: 0.545; stroke-width: 0;"/></g></g><g class="errorbars"/><g class="lines"><path class="js-line" d="M126.36,289.93L89.14,387.51L39.58,282.34L126.36,289.93" style="vector-effect: none; fill: none; stroke: rgb(0, 204, 150); stroke-opacity: 1; stroke-width: 3px; opacity: 1;"/></g><g class="points"/><g class="text"/></g><g class="trace scatter trace6555f0" style="stroke-miterlimit: 2; opacity: 1;"><g class="fills"><g><path class="js-fill" d="M89.14,387.51L39.58,282.34L73.62,272.88L89.14,387.51Z" style="fill: rgb(244, 157, 126); fill-opacity: 0.545; stroke-width: 0;"/></g></g><g class="errorbars"/><g class="lines"><path class="js-line" d="M89.14,387.51L39.58,282.34L73.62,272.88L89.14,387.51" style="vector-effect: none; fill: none; stroke: rgb(171, 99, 250); stroke-opacity: 1; stroke-width: 3px; opacity: 1;"/></g><g class="points"/><g class="text"/></g><g class="trace scatter trace9077d9" style="stroke-miterlimit: 2; opacity: 1;"><g class="fills"><g><path class="js-fill" d="M126.36,289.93L89.14,387.51L73.62,272.88L126.36,289.93Z" style="fill: rgb(244, 157, 126); fill-opacity: 0.545; stroke-width: 0;"/></g></g><g class="errorbars"/><g class="lines"><path class="js-line" d="M126.36,289.93L89.14,387.51L73.62,272.88L126.36,289.93" style="vector-effect: none; fill: none; stroke: rgb(255, 161, 90); stroke-opacity: 1; stroke-width: 3px; opacity: 1;"/></g><g class="points"/><g class="text"/></g><g class="trace scatter trace450b6a" style="stroke-miterlimit: 2; opacity: 1;"><g class="fills"><g><path class="js-fill" d="M126.36,289.93L39.58,282.34L73.62,272.88L126.36,289.93Z" style="fill: rgb(244, 157, 126); fill-opacity: 0.545; stroke-width: 0;"/></g></g><g class="errorbars"/><g class="lines"><path class="js-line" d="M126.36,289.93L39.58,282.34L73.62,272.88L126.36,289.93" style="vector-effect: none; fill: none; stroke: rgb(25, 211, 243); stroke-opacity: 1; stroke-width: 3px; opacity: 1;"/></g><g class="points"/><g class="text"/></g><g class="trace scatter trace39173e" style="stroke-miterlimit: 2; opacity: 1;"><g class="fills"><g><path class="js-fill" d="M30.75,340.82L126.36,289.93L77.64,334.38L30.75,340.82Z" style="fill: rgb(244, 157, 126); fill-opacity: 0.545; stroke-width: 0;"/></g></g><g class="errorbars"/><g class="lines"><path class="js-line" d="M30.75,340.82L126.36,289.93L77.64,334.38L30.75,340.82" style="vector-effect: none; fill: none; stroke: rgb(255, 102, 146); stroke-opacity: 1; stroke-width: 3px; opacity: 1;"/></g><g class="points"/><g class="text"/></g><g class="trace scatter traceb2c13d" style="stroke-miterlimit: 2; opacity: 1;"><g class="fills"><g><path class="js-fill" d="M30.75,340.82L126.36,289.93L73.62,272.88L30.75,340.82Z" style="fill: rgb(244, 157, 126); fill-opacity: 0.545; stroke-width: 0;"/></g></g><g class="errorbars"/><g class="lines"><path class="js-line" d="M30.75,340.82L126.36,289.93L73.62,272.88L30.75,340.82" style="vector-effect: none; fill: none; stroke: rgb(182, 232, 128); stroke-opacity: 1; stroke-width: 3px; opacity: 1;"/></g><g class="points"/><g class="text"/></g><g class="trace scatter tracec1cab1" style="stroke-miterlimit: 2; opacity: 1;"><g class="fills"><g><path class="js-fill" d="M30.75,340.82L89.14,387.51L73.62,272.88L30.75,340.82Z" style="fill: rgb(244, 157, 126); fill-opacity: 0.545; stroke-width: 0;"/></g></g><g class="errorbars"/><g class="lines"><path class="js-line" d="M30.75,340.82L89.14,387.51L73.62,272.88L30.75,340.82" style="vector-effect: none; fill: none; stroke: rgb(255, 151, 255); stroke-opacity: 1; stroke-width: 3px; opacity: 1;"/></g><g class="points"/><g class="text"/></g><g class="trace scatter tracec6f849" style="stroke-miterlimit: 2; opacity: 1;"><g class="fills"><g><path class="js-fill" d="M30.75,340.82L39.58,282.34L73.62,272.88L30.75,340.82Z" style="fill: rgb(244, 157, 126); fill-opacity: 0.545; stroke-width: 0;"/></g></g><g class="errorbars"/><g class="lines"><path class="js-line" d="M30.75,340.82L39.58,282.34L73.62,272.88L30.75,340.82" style="vector-effect: none; fill: none; stroke: rgb(254, 203, 82); stroke-opacity: 1; stroke-width: 3px; opacity: 1;"/></g><g class="points"/><g class="text"/></g><g class="trace scatter trace4293d8" style="stroke-miterlimit: 2; opacity: 1;"><g class="fills"><g><path class="js-fill" d="M30.75,340.82L89.14,387.51L77.64,334.38L30.75,340.82Z" style="fill: rgb(244, 157, 126); fill-opacity: 0.545; stroke-width: 0;"/></g></g><g class="errorbars"/><g class="lines"><path class="js-line" d="M30.75,340.82L89.14,387.51L77.64,334.38L30.75,340.82" style="vector-effect: none; fill: none; stroke: rgb(99, 110, 250); stroke-opacity: 1; stroke-width: 3px; opacity: 1;"/></g><g class="points"/><g class="text"/></g><g class="trace scatter trace0ee513" style="stroke-miterlimit: 2; opacity: 1;"><g class="fills"><g><path class="js-fill" d="M126.36,289.93L89.14,387.51L77.64,334.38L126.36,289.93Z" style="fill: rgb(244, 157, 126); fill-opacity: 0.545; stroke-width: 0;"/></g></g><g class="errorbars"/><g class="lines"><path class="js-line" d="M126.36,289.93L89.14,387.51L77.64,334.38L126.36,289.93" style="vector-effect: none; fill: none; stroke: rgb(239, 85, 59); stroke-opacity: 1; stroke-width: 3px; opacity: 1;"/></g><g class="points"/><g class="text"/></g><g class="trace scatter tracecf07fb" style="stroke-miterlimit: 2; opacity: 1;"><g class="fills"><g><path class="js-fill" d="M30.75,340.82L77.64,334.38L73.62,272.88L30.75,340.82Z" style="fill: rgb(244, 157, 126); fill-opacity: 0.545; stroke-width: 0;"/></g></g><g class="errorbars"/><g class="lines"><path class="js-line" d="M30.75,340.82L77.64,334.38L73.62,272.88L30.75,340.82" style="vector-effect: none; fill: none; stroke: rgb(0, 204, 150); stroke-opacity: 1; stroke-width: 3px; opacity: 1;"/></g><g class="points"/><g class="text"/></g><g class="trace scatter traceeec77e" style="stroke-miterlimit: 2; opacity: 1;"><g class="fills"><g><path class="js-fill" d="M126.36,289.93L77.64,334.38L73.62,272.88L126.36,289.93Z" style="fill: rgb(244, 157, 126); fill-opacity: 0.545; stroke-width: 0;"/></g></g><g class="errorbars"/><g class="lines"><path class="js-line" d="M126.36,289.93L77.64,334.38L73.62,272.88L126.36,289.93" style="vector-effect: none; fill: none; stroke: rgb(171, 99, 250); stroke-opacity: 1; stroke-width: 3px; opacity: 1;"/></g><g class="points"/><g class="text"/></g><g class="trace scatter traceeab4f3" style="stroke-miterlimit: 2; opacity: 1;"><g class="fills"><g><path class="js-fill" d="M89.14,387.51L77.64,334.38L73.62,272.88L89.14,387.51Z" style="fill: rgb(244, 157, 126); fill-opacity: 0.545; stroke-width: 0;"/></g></g><g class="errorbars"/><g class="lines"><path class="js-line" d="M89.14,387.51L77.64,334.38L73.62,272.88L89.14,387.51" style="vector-effect: none; fill: none; stroke: rgb(255, 161, 90); stroke-opacity: 1; stroke-width: 3px; opacity: 1;"/></g><g class="points"/><g class="text"/></g><g class="trace scatter trace575420" style="stroke-miterlimit: 2; opacity: 1;"><g class="fills"><g><path class="js-fill" d="M30.75,340.82L39.58,282.34L77.64,334.38L30.75,340.82Z" style="fill: rgb(244, 157, 126); fill-opacity: 0.545; stroke-width: 0;"/></g></g><g class="errorbars"/><g class="lines"><path class="js-line" d="M30.75,340.82L39.58,282.34L77.64,334.38L30.75,340.82" style="vector-effect: none; fill: none; stroke: rgb(25, 211, 243); stroke-opacity: 1; stroke-width: 3px; opacity: 1;"/></g><g class="points"/><g class="text"/></g><g class="trace scatter trace0a8c07" style="stroke-miterlimit: 2; opacity: 1;"><g class="fills"><g><path class="js-fill" d="M126.36,289.93L39.58,282.34L77.64,334.38L126.36,289.93Z" style="fill: rgb(244, 157, 126); fill-opacity: 0.545; stroke-width: 0;"/></g></g><g class="errorbars"/><g class="lines"><path class="js-line" d="M126.36,289.93L39.58,282.34L77.64,334.38L126.36,289.93" style="vector-effect: none; fill: none; stroke: rgb(255, 102, 146); stroke-opacity: 1; stroke-width: 3px; opacity: 1;"/></g><g class="points"/><g class="text"/></g><g class="trace scatter traceed32a4" style="stroke-miterlimit: 2; opacity: 1;"><g class="fills"><g><path class="js-fill" d="M89.14,387.51L39.58,282.34L77.64,334.38L89.14,387.51Z" style="fill: rgb(244, 157, 126); fill-opacity: 0.545; stroke-width: 0;"/></g></g><g class="errorbars"/><g class="lines"><path class="js-line" d="M89.14,387.51L39.58,282.34L77.64,334.38L89.14,387.51" style="vector-effect: none; fill: none; stroke: rgb(182, 232, 128); stroke-opacity: 1; stroke-width: 3px; opacity: 1;"/></g><g class="points"/><g class="text"/></g><g class="trace scatter trace917633" style="stroke-miterlimit: 2; opacity: 1;"><g class="fills"><g><path class="js-fill" d="M39.58,282.34L77.64,334.38L73.62,272.88L39.58,282.34Z" style="fill: rgb(244, 157, 126); fill-opacity: 0.545; stroke-width: 0;"/></g></g><g class="errorbars"/><g class="lines"><path class="js-line" d="M39.58,282.34L77.64,334.38L73.62,272.88L39.58,282.34" style="vector-effect: none; fill: none; stroke: rgb(255, 151, 255); stroke-opacity: 1; stroke-width: 3px; opacity: 1;"/></g><g class="points"/><g class="text"/></g><g class="trace scatter trace9fb6ba" style="stroke-miterlimit: 2; opacity: 1;"><g class="fills"><g><path class="js-fill" d="M50.99,390.25L30.75,340.82L77.64,334.38L50.99,390.25Z" style="fill: rgb(244, 157, 126); fill-opacity: 0.545; stroke-width: 0;"/></g></g><g class="errorbars"/><g class="lines"><path class="js-line" d="M50.99,390.25L30.75,340.82L77.64,334.38L50.99,390.25" style="vector-effect: none; fill: none; stroke: rgb(254, 203, 82); stroke-opacity: 1; stroke-width: 3px; opacity: 1;"/></g><g class="points"/><g class="text"/></g><g class="trace scatter trace36bc75" style="stroke-miterlimit: 2; opacity: 1;"><g class="fills"><g><path class="js-fill" d="M50.99,390.25L30.75,340.82L89.14,387.51L50.99,390.25Z" style="fill: rgb(244, 157, 126); fill-opacity: 0.545; stroke-width: 0;"/></g></g><g class="errorbars"/><g class="lines"><path class="js-line" d="M50.99,390.25L30.75,340.82L89.14,387.51L50.99,390.25" style="vector-effect: none; fill: none; stroke: rgb(99, 110, 250); stroke-opacity: 1; stroke-width: 3px; opacity: 1;"/></g><g class="points"/><g class="text"/></g><g class="trace scatter trace2eadc6" style="stroke-miterlimit: 2; opacity: 1;"><g class="fills"><g><path class="js-fill" d="M50.99,390.25L89.14,387.51L77.64,334.38L50.99,390.25Z" style="fill: rgb(244, 157, 126); fill-opacity: 0.545; stroke-width: 0;"/></g></g><g class="errorbars"/><g class="lines"><path class="js-line" d="M50.99,390.25L89.14,387.51L77.64,334.38L50.99,390.25" style="vector-effect: none; fill: none; stroke: rgb(239, 85, 59); stroke-opacity: 1; stroke-width: 3px; opacity: 1;"/></g><g class="points"/><g class="text"/></g><g class="trace scatter tracea3118e" style="stroke-miterlimit: 2; opacity: 1;"><g class="fills"><g><path class="js-fill" d="M50.99,390.25L30.75,340.82L126.36,289.93L50.99,390.25Z" style="fill: rgb(244, 157, 126); fill-opacity: 0.545; stroke-width: 0;"/></g></g><g class="errorbars"/><g class="lines"><path class="js-line" d="M50.99,390.25L30.75,340.82L126.36,289.93L50.99,390.25" style="vector-effect: none; fill: none; stroke: rgb(0, 204, 150); stroke-opacity: 1; stroke-width: 3px; opacity: 1;"/></g><g class="points"/><g class="text"/></g><g class="trace scatter trace51b41c" style="stroke-miterlimit: 2; opacity: 1;"><g class="fills"><g><path class="js-fill" d="M50.99,390.25L126.36,289.93L89.14,387.51L50.99,390.25Z" style="fill: rgb(244, 157, 126); fill-opacity: 0.545; stroke-width: 0;"/></g></g><g class="errorbars"/><g class="lines"><path class="js-line" d="M50.99,390.25L126.36,289.93L89.14,387.51L50.99,390.25" style="vector-effect: none; fill: none; stroke: rgb(171, 99, 250); stroke-opacity: 1; stroke-width: 3px; opacity: 1;"/></g><g class="points"/><g class="text"/></g><g class="trace scatter tracea3e678" style="stroke-miterlimit: 2; opacity: 1;"><g class="fills"><g><path class="js-fill" d="M50.99,390.25L126.36,289.93L77.64,334.38L50.99,390.25Z" style="fill: rgb(244, 157, 126); fill-opacity: 0.545; stroke-width: 0;"/></g></g><g class="errorbars"/><g class="lines"><path class="js-line" d="M50.99,390.25L126.36,289.93L77.64,334.38L50.99,390.25" style="vector-effect: none; fill: none; stroke: rgb(255, 161, 90); stroke-opacity: 1; stroke-width: 3px; opacity: 1;"/></g><g class="points"/><g class="text"/></g><g class="trace scatter trace32a7f1" style="stroke-miterlimit: 2; opacity: 1;"><g class="fills"><g><path class="js-fill" d="M50.99,390.25L30.75,340.82L39.58,282.34L50.99,390.25Z" style="fill: rgb(244, 157, 126); fill-opacity: 0.545; stroke-width: 0;"/></g></g><g class="errorbars"/><g class="lines"><path class="js-line" d="M50.99,390.25L30.75,340.82L39.58,282.34L50.99,390.25" style="vector-effect: none; fill: none; stroke: rgb(25, 211, 243); stroke-opacity: 1; stroke-width: 3px; opacity: 1;"/></g><g class="points"/><g class="text"/></g><g class="trace scatter trace7f8f7b" style="stroke-miterlimit: 2; opacity: 1;"><g class="fills"><g><path class="js-fill" d="M50.99,390.25L126.36,289.93L39.58,282.34L50.99,390.25Z" style="fill: rgb(244, 157, 126); fill-opacity: 0.545; stroke-width: 0;"/></g></g><g class="errorbars"/><g class="lines"><path class="js-line" d="M50.99,390.25L126.36,289.93L39.58,282.34L50.99,390.25" style="vector-effect: none; fill: none; stroke: rgb(255, 102, 146); stroke-opacity: 1; stroke-width: 3px; opacity: 1;"/></g><g class="points"/><g class="text"/></g><g class="trace scatter trace4c1b35" style="stroke-miterlimit: 2; opacity: 1;"><g class="fills"><g><path class="js-fill" d="M50.99,390.25L89.14,387.51L39.58,282.34L50.99,390.25Z" style="fill: rgb(244, 157, 126); fill-opacity: 0.545; stroke-width: 0;"/></g></g><g class="errorbars"/><g class="lines"><path class="js-line" d="M50.99,390.25L89.14,387.51L39.58,282.34L50.99,390.25" style="vector-effect: none; fill: none; stroke: rgb(182, 232, 128); stroke-opacity: 1; stroke-width: 3px; opacity: 1;"/></g><g class="points"/><g class="text"/></g><g class="trace scatter tracefa3891" style="stroke-miterlimit: 2; opacity: 1;"><g class="fills"><g><path class="js-fill" d="M50.99,390.25L39.58,282.34L77.64,334.38L50.99,390.25Z" style="fill: rgb(244, 157, 126); fill-opacity: 0.545; stroke-width: 0;"/></g></g><g class="errorbars"/><g class="lines"><path class="js-line" d="M50.99,390.25L39.58,282.34L77.64,334.38L50.99,390.25" style="vector-effect: none; fill: none; stroke: rgb(255, 151, 255); stroke-opacity: 1; stroke-width: 3px; opacity: 1;"/></g><g class="points"/><g class="text"/></g><g class="trace scatter trace02a716" style="stroke-miterlimit: 2; opacity: 1;"><g class="fills"><g><path class="js-fill" d="M50.99,390.25L30.75,340.82L73.62,272.88L50.99,390.25Z" style="fill: rgb(244, 157, 126); fill-opacity: 0.545; stroke-width: 0;"/></g></g><g class="errorbars"/><g class="lines"><path class="js-line" d="M50.99,390.25L30.75,340.82L73.62,272.88L50.99,390.25" style="vector-effect: none; fill: none; stroke: rgb(254, 203, 82); stroke-opacity: 1; stroke-width: 3px; opacity: 1;"/></g><g class="points"/><g class="text"/></g><g class="trace scatter traceae5c9a" style="stroke-miterlimit: 2; opacity: 1;"><g class="fills"><g><path class="js-fill" d="M50.99,390.25L126.36,289.93L73.62,272.88L50.99,390.25Z" style="fill: rgb(244, 157, 126); fill-opacity: 0.545; stroke-width: 0;"/></g></g><g class="errorbars"/><g class="lines"><path class="js-line" d="M50.99,390.25L126.36,289.93L73.62,272.88L50.99,390.25" style="vector-effect: none; fill: none; stroke: rgb(99, 110, 250); stroke-opacity: 1; stroke-width: 3px; opacity: 1;"/></g><g class="points"/><g class="text"/></g><g class="trace scatter tracecd7493" style="stroke-miterlimit: 2; opacity: 1;"><g class="fills"><g><path class="js-fill" d="M50.99,390.25L89.14,387.51L73.62,272.88L50.99,390.25Z" style="fill: rgb(244, 157, 126); fill-opacity: 0.545; stroke-width: 0;"/></g></g><g class="errorbars"/><g class="lines"><path class="js-line" d="M50.99,390.25L89.14,387.51L73.62,272.88L50.99,390.25" style="vector-effect: none; fill: none; stroke: rgb(239, 85, 59); stroke-opacity: 1; stroke-width: 3px; opacity: 1;"/></g><g class="points"/><g class="text"/></g><g class="trace scatter trace7ed4d5" style="stroke-miterlimit: 2; opacity: 1;"><g class="fills"><g><path class="js-fill" d="M50.99,390.25L39.58,282.34L73.62,272.88L50.99,390.25Z" style="fill: rgb(244, 157, 126); fill-opacity: 0.545; stroke-width: 0;"/></g></g><g class="errorbars"/><g class="lines"><path class="js-line" d="M50.99,390.25L39.58,282.34L73.62,272.88L50.99,390.25" style="vector-effect: none; fill: none; stroke: rgb(0, 204, 150); stroke-opacity: 1; stroke-width: 3px; opacity: 1;"/></g><g class="points"/><g class="text"/></g><g class="trace scatter trace9afe1e" style="stroke-miterlimit: 2; opacity: 1;"><g class="fills"><g><path class="js-fill" d="M50.99,390.25L77.64,334.38L73.62,272.88L50.99,390.25Z" style="fill: rgb(244, 157, 126); fill-opacity: 0.545; stroke-width: 0;"/></g></g><g class="errorbars"/><g class="lines"><path class="js-line" d="M50.99,390.25L77.64,334.38L73.62,272.88L50.99,390.25" style="vector-effect: none; fill: none; stroke: rgb(171, 99, 250); stroke-opacity: 1; stroke-width: 3px; opacity: 1;"/></g><g class="points"/><g class="text"/></g><g class="trace scatter trace309a3f" style="stroke-miterlimit: 2; opacity: 1;"><g class="fills"><g><path class="js-fill" d="M336.67,189.95L333.6,76.35L267,188.33L336.67,189.95Z" style="fill: rgb(244, 157, 126); fill-opacity: 0.545; stroke-width: 0;"/></g></g><g class="errorbars"/><g class="lines"><path class="js-line" d="M336.67,189.95L333.6,76.35L267,188.33L336.67,189.95" style="vector-effect: none; fill: none; stroke: rgb(255, 161, 90); stroke-opacity: 1; stroke-width: 3px; opacity: 1;"/></g><g class="points"/><g class="text"/></g><g class="trace scatter trace651073" style="stroke-miterlimit: 2; opacity: 1;"><g class="fills"><g><path class="js-fill" d="M336.67,189.95L267,188.33L371.87,138.21L336.67,189.95Z" style="fill: rgb(244, 157, 126); fill-opacity: 0.545; stroke-width: 0;"/></g></g><g class="errorbars"/><g class="lines"><path class="js-line" d="M336.67,189.95L267,188.33L371.87,138.21L336.67,189.95" style="vector-effect: none; fill: none; stroke: rgb(25, 211, 243); stroke-opacity: 1; stroke-width: 3px; opacity: 1;"/></g><g class="points"/><g class="text"/></g><g class="trace scatter trace503b71" style="stroke-miterlimit: 2; opacity: 1;"><g class="fills"/><g class="errorbars"/><g class="lines"/><g class="points"><path class="point" transform="translate(336.67,189.95)" d="M7,0A7,7 0 1,1 0,-7A7,7 0 0,1 7,0Z" style="opacity: 1; stroke-width: 0px; fill: rgb(255, 102, 146); fill-opacity: 1;"/><path class="point" transform="translate(333.6,76.35)" d="M7,0A7,7 0 1,1 0,-7A7,7 0 0,1 7,0Z" style="opacity: 1; stroke-width: 0px; fill: rgb(255, 102, 146); fill-opacity: 1;"/><path class="point" transform="translate(267,188.33)" d="M7,0A7,7 0 1,1 0,-7A7,7 0 0,1 7,0Z" style="opacity: 1; stroke-width: 0px; fill: rgb(255, 102, 146); fill-opacity: 1;"/><path class="point" transform="translate(371.87,138.21)" d="M7,0A7,7 0 1,1 0,-7A7,7 0 0,1 7,0Z" style="opacity: 1; stroke-width: 0px; fill: rgb(255, 102, 146); fill-opacity: 1;"/><path class="point" transform="translate(409.25,29.75)" d="M7,0A7,7 0 1,1 0,-7A7,7 0 0,1 7,0Z" style="opacity: 1; stroke-width: 0px; fill: rgb(255, 102, 146); fill-opacity: 1;"/><path class="point" transform="translate(50.99,390.25)" d="M7,0A7,7 0 1,1 0,-7A7,7 0 0,1 7,0Z" style="opacity: 1; stroke-width: 0px; fill: rgb(255, 102, 146); fill-opacity: 1;"/><path class="point" transform="translate(30.75,340.82)" d="M7,0A7,7 0 1,1 0,-7A7,7 0 0,1 7,0Z" style="opacity: 1; stroke-width: 0px; fill: rgb(255, 102, 146); fill-opacity: 1;"/><path class="point" transform="translate(126.36,289.93)" d="M7,0A7,7 0 1,1 0,-7A7,7 0 0,1 7,0Z" style="opacity: 1; stroke-width: 0px; fill: rgb(255, 102, 146); fill-opacity: 1;"/><path class="point" transform="translate(89.14,387.51)" d="M7,0A7,7 0 1,1 0,-7A7,7 0 0,1 7,0Z" style="opacity: 1; stroke-width: 0px; fill: rgb(255, 102, 146); fill-opacity: 1;"/><path class="point" transform="translate(39.58,282.34)" d="M7,0A7,7 0 1,1 0,-7A7,7 0 0,1 7,0Z" style="opacity: 1; stroke-width: 0px; fill: rgb(255, 102, 146); fill-opacity: 1;"/><path class="point" transform="translate(77.64,334.38)" d="M7,0A7,7 0 1,1 0,-7A7,7 0 0,1 7,0Z" style="opacity: 1; stroke-width: 0px; fill: rgb(255, 102, 146); fill-opacity: 1;"/><path class="point" transform="translate(73.62,272.88)" d="M7,0A7,7 0 1,1 0,-7A7,7 0 0,1 7,0Z" style="opacity: 1; stroke-width: 0px; fill: rgb(255, 102, 146); fill-opacity: 1;"/></g><g class="text"><g class="textpoint" transform="translate(0,-13.25)"><text x="336.67" y="189.95" text-anchor="middle" style="font-family: 'Open Sans', verdana, arial, sans-serif; font-size: 14px; fill: rgb(42, 63, 95); fill-opacity: 1; white-space: pre;">EC00690</text></g><g class="textpoint" transform="translate(0,-13.25)"><text x="333.6" y="76.35" text-anchor="middle" style="font-family: 'Open Sans', verdana, arial, sans-serif; font-size: 14px; fill: rgb(42, 63, 95); fill-opacity: 1; white-space: pre;">EC00668</text></g><g class="textpoint" transform="translate(0,-13.25)"><text x="267" y="188.33" text-anchor="middle" style="font-family: 'Open Sans', verdana, arial, sans-serif; font-size: 14px; fill: rgb(42, 63, 95); fill-opacity: 1; white-space: pre;">EC00609</text></g><g class="textpoint" transform="translate(0,-13.25)"><text x="371.87" y="138.21" text-anchor="middle" style="font-family: 'Open Sans', verdana, arial, sans-serif; font-size: 14px; fill: rgb(42, 63, 95); fill-opacity: 1; white-space: pre;">EC00701</text></g><g class="textpoint" transform="translate(0,-13.25)"><text x="409.25" y="29.75" text-anchor="middle" style="font-family: 'Open Sans', verdana, arial, sans-serif; font-size: 14px; fill: rgb(42, 63, 95); fill-opacity: 1; white-space: pre;">EC00678</text></g><g class="textpoint" transform="translate(0,-13.25)"><text x="50.99" y="390.25" text-anchor="middle" style="font-family: 'Open Sans', verdana, arial, sans-serif; font-size: 14px; fill: rgb(42, 63, 95); fill-opacity: 1; white-space: pre;">KLP00215</text></g><g class="textpoint" transform="translate(0,-13.25)"><text x="30.75" y="340.82" text-anchor="middle" style="font-family: 'Open Sans', verdana, arial, sans-serif; font-size: 14px; fill: rgb(42, 63, 95); fill-opacity: 1; white-space: pre;">KLP00221</text></g><g class="textpoint" transform="translate(0,-13.25)"><text x="126.36" y="289.93" text-anchor="middle" style="font-family: 'Open Sans', verdana, arial, sans-serif; font-size: 14px; fill: rgb(42, 63, 95); fill-opacity: 1; white-space: pre;">KLP00218</text></g><g class="textpoint" transform="translate(0,-13.25)"><text x="89.14" y="387.51" text-anchor="middle" style="font-family: 'Open Sans', verdana, arial, sans-serif; font-size: 14px; fill: rgb(42, 63, 95); fill-opacity: 1; white-space: pre;">KLP00213</text></g><g class="textpoint" transform="translate(0,-13.25)"><text x="39.58" y="282.34" text-anchor="middle" style="font-family: 'Open Sans', verdana, arial, sans-serif; font-size: 14px; fill: rgb(42, 63, 95); fill-opacity: 1; white-space: pre;">KLP00187</text></g><g class="textpoint" transform="translate(0,-13.25)"><text x="77.64" y="334.38" text-anchor="middle" style="font-family: 'Open Sans', verdana, arial, sans-serif; font-size: 14px; fill: rgb(42, 63, 95); fill-opacity: 1; white-space: pre;">KLP00149</text></g><g class="textpoint" transform="translate(0,-13.25)"><text x="73.62" y="272.88" text-anchor="middle" style="font-family: 'Open Sans', verdana, arial, sans-serif; font-size: 14px; fill: rgb(42, 63, 95); fill-opacity: 1; white-space: pre;">KLP00177</text></g></g></g></g></g><g class="overplot"/><path class="xlines-above crisp" d="M0,0" style="fill: none;"/><path class="ylines-above crisp" d="M0,0" style="fill: none;"/><g class="overlines-above"/><g class="xaxislayer-above"><g class="xtick"><text text-anchor="middle" x="0" y="537" transform="translate(151.18,0)" style="font-family: Arial, sans-serif; font-size: 16px; fill: rgb(42, 63, 95); fill-opacity: 1; white-space: pre; opacity: 1;">−0.5</text></g><g class="xtick"><text text-anchor="middle" x="0" y="537" style="font-family: Arial, sans-serif; font-size: 16px; fill: rgb(42, 63, 95); fill-opacity: 1; white-space: pre; opacity: 1;" transform="translate(263.87,0)">0</text></g><g class="xtick"><text text-anchor="middle" x="0" y="537" style="font-family: Arial, sans-serif; font-size: 16px; fill: rgb(42, 63, 95); fill-opacity: 1; white-space: pre; opacity: 1;" transform="translate(376.56,0)">0.5</text></g><g class="xtick"><text text-anchor="middle" x="0" y="537" style="font-family: Arial, sans-serif; font-size: 16px; fill: rgb(42, 63, 95); fill-opacity: 1; white-space: pre; opacity: 1;" transform="translate(489.25,0)">1</text></g></g><g class="yaxislayer-above"><g class="ytick"><text text-anchor="end" x="79" y="5.6" transform="translate(0,497.41)" style="font-family: Arial, sans-serif; font-size: 16px; fill: rgb(42, 63, 95); fill-opacity: 1; white-space: pre; opacity: 1;">−0.4</text></g><g class="ytick"><text text-anchor="end" x="79" y="5.6" style="font-family: Arial, sans-serif; font-size: 16px; fill: rgb(42, 63, 95); fill-opacity: 1; white-space: pre; opacity: 1;" transform="translate(0,420.4)">−0.2</text></g><g class="ytick"><text text-anchor="end" x="79" y="5.6" style="font-family: Arial, sans-serif; font-size: 16px; fill: rgb(42, 63, 95); fill-opacity: 1; white-space: pre; opacity: 1;" transform="translate(0,343.39)">0</text></g><g class="ytick"><text text-anchor="end" x="79" y="5.6" style="font-family: Arial, sans-serif; font-size: 16px; fill: rgb(42, 63, 95); fill-opacity: 1; white-space: pre; opacity: 1;" transform="translate(0,266.38)">0.2</text></g><g class="ytick"><text text-anchor="end" x="79" y="5.6" style="font-family: Arial, sans-serif; font-size: 16px; fill: rgb(42, 63, 95); fill-opacity: 1; white-space: pre; opacity: 1;" transform="translate(0,189.37)">0.4</text></g><g class="ytick"><text text-anchor="end" x="79" y="5.6" style="font-family: Arial, sans-serif; font-size: 16px; fill: rgb(42, 63, 95); fill-opacity: 1; white-space: pre; opacity: 1;" transform="translate(0,112.36)">0.6</text></g></g><g class="overaxes-above"/></g></g><g class="polarlayer"/><g class="smithlayer"/><g class="ternarylayer"/><g class="geolayer"/><g class="funnelarealayer"/><g class="pielayer"/><g class="iciclelayer"/><g class="treemaplayer"/><g class="sunburstlayer"/><g class="glimages"/><defs id="topdefs-741977"><g class="clips"/></defs><g class="layer-above"><g class="imagelayer"/><g class="shapelayer"/></g><g class="infolayer"><g class="g-gtitle"/><g class="g-xtitle"/><g class="g-ytitle"/></g></svg>