<svg class="main-svg" xmlns="http://www.w3.org/2000/svg" xmlns:xlink="http://www.w3.org/1999/xlink" width="600" height="600" style="" viewBox="0 0 600 600"><rect x="0" y="0" width="600" height="600" style="fill: rgb(255, 255, 255); fill-opacity: 1;"/><defs id="defs-657297"><g class="clips"><clipPath id="clip657297xyplot" class="plotclip"><rect width="440" height="420"/></clipPath><clipPath class="axesclip" id="clip657297x"><rect x="80" y="0" width="440" height="600"/></clipPath><clipPath class="axesclip" id="clip657297y"><rect x="0" y="100" width="600" height="420"/></clipPath><clipPath class="axesclip" id="clip657297xy"><rect x="80" y="100" width="440" height="420"/></clipPath></g><g class="gradients"/><g class="patterns"/></defs><g class="bglayer"><rect class="bg" x="80" y="100" width="440" height="420" style="fill: rgb(229, 236, 246); fill-opacity: 1; stroke-width: 0;"/></g><g class="layer-below"><g class="imagelayer"/><g class="shapelayer"/></g><g class="cartesianlayer"><g class="subplot xy"><g class="layer-subplot"><g class="shapelayer"/><g class="imagelayer"/></g><g class="minor-gridlayer"><g class="x"/><g class="y"/></g><g class="gridlayer"><g class="x"/><g class="y"/></g><g class="zerolinelayer"/><path class="xlines-below"/><path class="ylines-below"/><g class="overlines-below"/><g class="xaxislayer-below"/><g class="yaxislayer-below"/><g class="overaxes-below"/><g class="plot" transform="translate(80,100)" clip-path="url(#clip657297xyplot)"><g class="scatterlayer mlayer"><g class="trace scatter tracead6963" style="stroke-miterlimit: 2; opacity: 1;"><g class="fills"/><g class="errorbars"/><g class="lines"><path class="js-line" d="M312.61,390.25L256.3,248.31" style="vector-effect: none; fill: none; stroke: rgb(153, 186, 254); stroke-opacity: 1; stroke-width: 3px; opacity: 1;"/></g><g class="points"/><g class="text"/></g><g class="trace scatter trace350ac7" style="stroke-miterlimit: 2; opacity: 1;"><g class="fills"/><g class="errorbars"/><g class="lines"><path class="js-line" d="M312.61,390.25L337.53,118.1" style="vector-effect: none; fill: none; stroke: rgb(244, 157, 126); stroke-opacity: 1; stroke-width: 3px; opacity: 1;"/></g><g class="points"/><g class="text"/></g><g class="trace scatter trace425c8c" style="stroke-miterlimit: 2; opacity: 1;"><g class="fills"/><g class="errorbars"/><g class="lines"><path class="js-line" d="M312.61,390.25L353.14,338.28" style="vector-effect: none; fill: none; stroke: rgb(239, 137, 108); stroke-opacity: 1; stroke-width: 3px; opacity: 1;"/></g><g class="points"/><g class="text"/></g><g class="trace scatter tracedcd52c" style="stroke-miterlimit: 2; opacity: 1;"><g class="fills"/><g class="errorbars"/><g class="lines"><path class="js-line" d="M337.53,118.1L256.3,248.31" style="vector-effect: none; fill: none; stroke: rgb(236, 210, 196); stroke-opacity: 1; stroke-width: 3px; opacity: 1;"/></g><g class="points"/><g class="text"/></g><g class="trace scatter tracec15fec" style="stroke-miterlimit: 2; opacity: 1;"><g class="fills"/><g class="errorbars"/><g class="lines"><path class="js-line" d="M337.53,118.1L409.25,156.85" style="vector-effect: none; fill: none; stroke: rgb(246, 183, 156); stroke-opacity: 1; stroke-width: 3px; opacity: 1;"/></g><g class="points"/><g class="text"/></g><g class="trace scatter trace0bc4ce" style="stroke-miterlimit: 2; opacity: 1;"><g class="fills"/><g class="errorbars"/><g class="lines"><path class="js-line" d="M256.3,248.31L353.14,338.28" style="vector-effect: none; fill: none; stroke: rgb(200, 56, 53); stroke-opacity: 1; stroke-width: 3px; opacity: 1;"/></g><g class="points"/><g class="text"/></g><g class="trace scatter tracec71eb3" style="stroke-miterlimit: 2; opacity: 1;"><g class="fills"/><g class="errorbars"/><g class="lines"><path class="js-line" d="M256.3,248.31L118.19,213" style="vector-effect: none; fill: none; stroke: rgb(179, 3, 38); stroke-opacity: 1; stroke-width: 3px; opacity: 1;"/></g><g class="points"/><g class="text"/></g><g class="trace scatter traceab40f4" style="stroke-miterlimit: 2; opacity: 1;"><g class="fills"/><g class="errorbars"/><g class="lines"><path class="js-line" d="M353.14,338.28L409.25,156.85" style="vector-effect: none; fill: none; stroke: rgb(234, 125, 97); stroke-opacity: 1; stroke-width: 3px; opacity: 1;"/></g><g class="points"/><g class="text"/></g><g class="trace scatter trace17bdc2" style="stroke-miterlimit: 2; opacity: 1;"><g class="fills"/><g class="errorbars"/><g class="lines"><path class="js-line" d="M60.17,371.94L32.98,291.02" style="vector-effect: none; fill: none; stroke: rgb(218, 220, 223); stroke-opacity: 1; stroke-width: 3px; opacity: 1;"/></g><g class="points"/><g class="text"/></g><g class="trace scatter trace6cc850" style="stroke-miterlimit: 2; opacity: 1;"><g class="fills"/><g class="errorbars"/><g class="lines"><path class="js-line" d="M60.17,371.94L74.56,244.07" style="vector-effect: none; fill: none; stroke: rgb(228, 216, 209); stroke-opacity: 1; stroke-width: 3px; opacity: 1;"/></g><g class="points"/><g class="text"/></g><g class="trace scatter tracefc07f2" style="stroke-miterlimit: 2; opacity: 1;"><g class="fills"/><g class="errorbars"/><g class="lines"><path class="js-line" d="M60.17,371.94L77.05,70" style="vector-effect: none; fill: none; stroke: rgb(236, 210, 196); stroke-opacity: 1; stroke-width: 3px; opacity: 1;"/></g><g class="points"/><g class="text"/></g><g class="trace scatter tracef3dc81" style="stroke-miterlimit: 2; opacity: 1;"><g class="fills"/><g class="errorbars"/><g class="lines"><path class="js-line" d="M60.17,371.94L118.19,213" style="vector-effect: none; fill: none; stroke: rgb(239, 206, 188); stroke-opacity: 1; stroke-width: 3px; opacity: 1;"/></g><g class="points"/><g class="text"/></g><g class="trace scatter tracec9b149" style="stroke-miterlimit: 2; opacity: 1;"><g class="fills"/><g class="errorbars"/><g class="lines"><path class="js-line" d="M60.17,371.94L48.33,29.75" style="vector-effect: none; fill: none; stroke: rgb(244, 194, 170); stroke-opacity: 1; stroke-width: 3px; opacity: 1;"/></g><g class="points"/><g class="text"/></g><g class="trace scatter trace3094ae" style="stroke-miterlimit: 2; opacity: 1;"><g class="fills"/><g class="errorbars"/><g class="lines"><path class="js-line" d="M60.17,371.94L30.75,147.24" style="vector-effect: none; fill: none; stroke: rgb(246, 183, 156); stroke-opacity: 1; stroke-width: 3px; opacity: 1;"/></g><g class="points"/><g class="text"/></g><g class="trace scatter tracef37083" style="stroke-miterlimit: 2; opacity: 1;"><g class="fills"/><g class="errorbars"/><g class="lines"><path class="js-line" d="M32.98,291.02L77.05,70" style="vector-effect: none; fill: none; stroke: rgb(111, 145, 242); stroke-opacity: 1; stroke-width: 3px; opacity: 1;"/></g><g class="points"/><g class="text"/></g><g class="trace scatter tracee3aa13" style="stroke-miterlimit: 2; opacity: 1;"><g class="fills"/><g class="errorbars"/><g class="lines"><path class="js-line" d="M32.98,291.02L48.33,29.75" style="vector-effect: none; fill: none; stroke: rgb(141, 175, 253); stroke-opacity: 1; stroke-width: 3px; opacity: 1;"/></g><g class="points"/><g class="text"/></g><g class="trace scatter trace90c4dc" style="stroke-miterlimit: 2; opacity: 1;"><g class="fills"/><g class="errorbars"/><g class="lines"><path class="js-line" d="M32.98,291.02L118.19,213" style="vector-effect: none; fill: none; stroke: rgb(144, 178, 254); stroke-opacity: 1; stroke-width: 3px; opacity: 1;"/></g><g class="points"/><g class="text"/></g><g class="trace scatter tracefa5da3" style="stroke-miterlimit: 2; opacity: 1;"><g class="fills"/><g class="errorbars"/><g class="lines"><path class="js-line" d="M32.98,291.02L74.56,244.07" style="vector-effect: none; fill: none; stroke: rgb(190, 211, 245); stroke-opacity: 1; stroke-width: 3px; opacity: 1;"/></g><g class="points"/><g class="text"/></g><g class="trace scatter trace14e77e" style="stroke-miterlimit: 2; opacity: 1;"><g class="fills"/><g class="errorbars"/><g class="lines"><path class="js-line" d="M32.98,291.02L30.75,147.24" style="vector-effect: none; fill: none; stroke: rgb(190, 211, 245); stroke-opacity: 1; stroke-width: 3px; opacity: 1;"/></g><g class="points"/><g class="text"/></g><g class="trace scatter tracea14e41" style="stroke-miterlimit: 2; opacity: 1;"><g class="fills"/><g class="errorbars"/><g class="lines"><path class="js-line" d="M118.19,213L77.05,70" style="vector-effect: none; fill: none; stroke: rgb(111, 145, 242); stroke-opacity: 1; stroke-width: 3px; opacity: 1;"/></g><g class="points"/><g class="text"/></g><g class="trace scatter trace4634f6" style="stroke-miterlimit: 2; opacity: 1;"><g class="fills"/><g class="errorbars"/><g class="lines"><path class="js-line" d="M118.19,213L48.33,29.75" style="vector-effect: none; fill: none; stroke: rgb(144, 178, 254); stroke-opacity: 1; stroke-width: 3px; opacity: 1;"/></g><g class="points"/><g class="text"/></g><g class="trace scatter tracee75b88" style="stroke-miterlimit: 2; opacity: 1;"><g class="fills"/><g class="errorbars"/><g class="lines"><path class="js-line" d="M118.19,213L30.75,147.24" style="vector-effect: none; fill: none; stroke: rgb(160, 191, 254); stroke-opacity: 1; stroke-width: 3px; opacity: 1;"/></g><g class="points"/><g class="text"/></g><g class="trace scatter trace965898" style="stroke-miterlimit: 2; opacity: 1;"><g class="fills"/><g class="errorbars"/><g class="lines"><path class="js-line" d="M118.19,213L74.56,244.07" style="vector-effect: none; fill: none; stroke: rgb(190, 211, 245); stroke-opacity: 1; stroke-width: 3px; opacity: 1;"/></g><g class="points"/><g class="text"/></g><g class="trace scatter tracec51fb4" style="stroke-miterlimit: 2; opacity: 1;"><g class="fills"/><g class="errorbars"/><g class="lines"><path class="js-line" d="M77.05,70L48.33,29.75" style="vector-effect: none; fill: none; stroke: rgb(111, 145, 242); stroke-opacity: 1; stroke-width: 3px; opacity: 1;"/></g><g class="points"/><g class="text"/></g><g class="trace scatter trace968699" style="stroke-miterlimit: 2; opacity: 1;"><g class="fills"/><g class="errorbars"/><g class="lines"><path class="js-line" d="M77.05,70L30.75,147.24" style="vector-effect: none; fill: none; stroke: rgb(151, 184, 254); stroke-opacity: 1; stroke-width: 3px; opacity: 1;"/></g><g class="points"/><g class="text"/></g><g class="trace scatter tracecf3b6c" style="stroke-miterlimit: 2; opacity: 1;"><g class="fills"/><g class="errorbars"/><g class="lines"><path class="js-line" d="M77.05,70L74.56,244.07" style="vector-effect: none; fill: none; stroke: rgb(197, 213, 242); stroke-opacity: 1; stroke-width: 3px; opacity: 1;"/></g><g class="points"/><g class="text"/></g><g class="trace scatter trace60f970" style="stroke-miterlimit: 2; opacity: 1;"><g class="fills"/><g class="errorbars"/><g class="lines"><path class="js-line" d="M48.33,29.75L30.75,147.24" style="vector-effect: none; fill: none; stroke: rgb(153, 186, 254); stroke-opacity: 1; stroke-width: 3px; opacity: 1;"/></g><g class="points"/><g class="text"/></g><g class="trace scatter tracebc430d" style="stroke-miterlimit: 2; opacity: 1;"><g class="fills"/><g class="errorbars"/><g class="lines"><path class="js-line" d="M48.33,29.75L74.56,244.07" style="vector-effect: none; fill: none; stroke: rgb(225, 218, 214); stroke-opacity: 1; stroke-width: 3px; opacity: 1;"/></g><g class="points"/><g class="text"/></g><g class="trace scatter traceed03fc" style="stroke-miterlimit: 2; opacity: 1;"><g class="fills"/><g class="errorbars"/><g class="lines"><path class="js-line" d="M74.56,244.07L30.75,147.24" style="vector-effect: none; fill: none; stroke: rgb(218, 220, 223); stroke-opacity: 1; stroke-width: 3px; opacity: 1;"/></g><g class="points"/><g class="text"/></g><g class="trace scatter tracefc4b3c" style="stroke-miterlimit: 2; opacity: 1;"><g class="fills"><g><path class="js-fill" d="M32.98,291.02L77.05,70L48.33,29.75L32.98,291.02Z" style="fill: rgb(141, 175, 253); fill-opacity: 1; stroke-width: 0;"/></g></g><g class="errorbars"/><g class="lines"><path class="js-line" d="M32.98,291.02L77.05,70L48.33,29.75L32.98,291.02" style="vector-effect: none; fill: none; stroke: rgb(254, 203, 82); stroke-opacity: 1; stroke-width: 3px; opacity: 1;"/></g><g class="points"/><g class="text"/></g><g class="trace scatter traceb2e796" style="stroke-miterlimit: 2; opacity: 1;"><g class="fills"><g><path class="js-fill" d="M32.98,291.02L118.19,213L77.05,70L32.98,291.02Z" style="fill: rgb(144, 178, 254); fill-opacity: 1; stroke-width: 0;"/></g></g><g class="errorbars"/><g class="lines"><path class="js-line" d="M32.98,291.02L118.19,213L77.05,70L32.98,291.02" style="vector-effect: none; fill: none; stroke: rgb(99, 110, 250); stroke-opacity: 1; stroke-width: 3px; opacity: 1;"/></g><g class="points"/><g class="text"/></g><g class="trace scatter trace364a27" style="stroke-miterlimit: 2; opacity: 1;"><g class="fills"><g><path class="js-fill" d="M32.98,291.02L118.19,213L48.33,29.75L32.98,291.02Z" style="fill: rgb(144, 178, 254); fill-opacity: 1; stroke-width: 0;"/></g></g><g class="errorbars"/><g class="lines"><path class="js-line" d="M32.98,291.02L118.19,213L48.33,29.75L32.98,291.02" style="vector-effect: none; fill: none; stroke: rgb(239, 85, 59); stroke-opacity: 1; stroke-width: 3px; opacity: 1;"/></g><g class="points"/><g class="text"/></g><g class="trace scatter traceff3642" style="stroke-miterlimit: 2; opacity: 1;"><g class="fills"><g><path class="js-fill" d="M118.19,213L77.05,70L48.33,29.75L118.19,213Z" style="fill: rgb(144, 178, 254); fill-opacity: 1; stroke-width: 0;"/></g></g><g class="errorbars"/><g class="lines"><path class="js-line" d="M118.19,213L77.05,70L48.33,29.75L118.19,213" style="vector-effect: none; fill: none; stroke: rgb(0, 204, 150); stroke-opacity: 1; stroke-width: 3px; opacity: 1;"/></g><g class="points"/><g class="text"/></g><g class="trace scatter trace150314" style="stroke-miterlimit: 2; opacity: 1;"><g class="fills"><g><path class="js-fill" d="M77.05,70L48.33,29.75L30.75,147.24L77.05,70Z" style="fill: rgb(153, 186, 254); fill-opacity: 1; stroke-width: 0;"/></g></g><g class="errorbars"/><g class="lines"><path class="js-line" d="M77.05,70L48.33,29.75L30.75,147.24L77.05,70" style="vector-effect: none; fill: none; stroke: rgb(171, 99, 250); stroke-opacity: 1; stroke-width: 3px; opacity: 1;"/></g><g class="points"/><g class="text"/></g><g class="trace scatter tracef924e8" style="stroke-miterlimit: 2; opacity: 1;"><g class="fills"><g><path class="js-fill" d="M118.19,213L77.05,70L30.75,147.24L118.19,213Z" style="fill: rgb(160, 191, 254); fill-opacity: 1; stroke-width: 0;"/></g></g><g class="errorbars"/><g class="lines"><path class="js-line" d="M118.19,213L77.05,70L30.75,147.24L118.19,213" style="vector-effect: none; fill: none; stroke: rgb(255, 161, 90); stroke-opacity: 1; stroke-width: 3px; opacity: 1;"/></g><g class="points"/><g class="text"/></g><g class="trace scatter tracef9fb23" style="stroke-miterlimit: 2; opacity: 1;"><g class="fills"><g><path class="js-fill" d="M118.19,213L48.33,29.75L30.75,147.24L118.19,213Z" style="fill: rgb(160, 191, 254); fill-opacity: 1; stroke-width: 0;"/></g></g><g class="errorbars"/><g class="lines"><path class="js-line" d="M118.19,213L48.33,29.75L30.75,147.24L118.19,213" style="vector-effect: none; fill: none; stroke: rgb(25, 211, 243); stroke-opacity: 1; stroke-width: 3px; opacity: 1;"/></g><g class="points"/><g class="text"/></g><g class="trace scatter traceb5be11" style="stroke-miterlimit: 2; opacity: 1;"><g class="fills"><g><path class="js-fill" d="M32.98,291.02L118.19,213L74.56,244.07L32.98,291.02Z" style="fill: rgb(190, 211, 245); fill-opacity: 1; stroke-width: 0;"/></g></g><g class="errorbars"/><g class="lines"><path class="js-line" d="M32.98,291.02L118.19,213L74.56,244.07L32.98,291.02" style="vector-effect: none; fill: none; stroke: rgb(255, 102, 146); stroke-opacity: 1; stroke-width: 3px; opacity: 1;"/></g><g class="points"/><g class="text"/></g><g class="trace scatter trace070e13" style="stroke-miterlimit: 2; opacity: 1;"><g class="fills"><g><path class="js-fill" d="M32.98,291.02L118.19,213L30.75,147.24L32.98,291.02Z" style="fill: rgb(190, 211, 245); fill-opacity: 1; stroke-width: 0;"/></g></g><g class="errorbars"/><g class="lines"><path class="js-line" d="M32.98,291.02L118.19,213L30.75,147.24L32.98,291.02" style="vector-effect: none; fill: none; stroke: rgb(182, 232, 128); stroke-opacity: 1; stroke-width: 3px; opacity: 1;"/></g><g class="points"/><g class="text"/></g><g class="trace scatter tracee4977a" style="stroke-miterlimit: 2; opacity: 1;"><g class="fills"><g><path class="js-fill" d="M32.98,291.02L77.05,70L30.75,147.24L32.98,291.02Z" style="fill: rgb(190, 211, 245); fill-opacity: 1; stroke-width: 0;"/></g></g><g class="errorbars"/><g class="lines"><path class="js-line" d="M32.98,291.02L77.05,70L30.75,147.24L32.98,291.02" style="vector-effect: none; fill: none; stroke: rgb(255, 151, 255); stroke-opacity: 1; stroke-width: 3px; opacity: 1;"/></g><g class="points"/><g class="text"/></g><g class="trace scatter trace25d1ea" style="stroke-miterlimit: 2; opacity: 1;"><g class="fills"><g><path class="js-fill" d="M32.98,291.02L48.33,29.75L30.75,147.24L32.98,291.02Z" style="fill: rgb(190, 211, 245); fill-opacity: 1; stroke-width: 0;"/></g></g><g class="errorbars"/><g class="lines"><path class="js-line" d="M32.98,291.02L48.33,29.75L30.75,147.24L32.98,291.02" style="vector-effect: none; fill: none; stroke: rgb(254, 203, 82); stroke-opacity: 1; stroke-width: 3px; opacity: 1;"/></g><g class="points"/><g class="text"/></g><g class="trace scatter trace6f2851" style="stroke-miterlimit: 2; opacity: 1;"><g class="fills"><g><path class="js-fill" d="M32.98,291.02L77.05,70L74.56,244.07L32.98,291.02Z" style="fill: rgb(197, 213, 242); fill-opacity: 1; stroke-width: 0;"/></g></g><g class="errorbars"/><g class="lines"><path class="js-line" d="M32.98,291.02L77.05,70L74.56,244.07L32.98,291.02" style="vector-effect: none; fill: none; stroke: rgb(99, 110, 250); stroke-opacity: 1; stroke-width: 3px; opacity: 1;"/></g><g class="points"/><g class="text"/></g><g class="trace scatter trace411ed4" style="stroke-miterlimit: 2; opacity: 1;"><g class="fills"><g><path class="js-fill" d="M118.19,213L77.05,70L74.56,244.07L118.19,213Z" style="fill: rgb(197, 213, 242); fill-opacity: 1; stroke-width: 0;"/></g></g><g class="errorbars"/><g class="lines"><path class="js-line" d="M118.19,213L77.05,70L74.56,244.07L118.19,213" style="vector-effect: none; fill: none; stroke: rgb(239, 85, 59); stroke-opacity: 1; stroke-width: 3px; opacity: 1;"/></g><g class="points"/><g class="text"/></g><g class="trace scatter trace958bc4" style="stroke-miterlimit: 2; opacity: 1;"><g class="fills"><g><path class="js-fill" d="M32.98,291.02L74.56,244.07L30.75,147.24L32.98,291.02Z" style="fill: rgb(218, 220, 223); fill-opacity: 1; stroke-width: 0;"/></g></g><g class="errorbars"/><g class="lines"><path class="js-line" d="M32.98,291.02L74.56,244.07L30.75,147.24L32.98,291.02" style="vector-effect: none; fill: none; stroke: rgb(0, 204, 150); stroke-opacity: 1; stroke-width: 3px; opacity: 1;"/></g><g class="points"/><g class="text"/></g><g class="trace scatter trace5ed595" style="stroke-miterlimit: 2; opacity: 1;"><g class="fills"><g><path class="js-fill" d="M118.19,213L74.56,244.07L30.75,147.24L118.19,213Z" style="fill: rgb(218, 220, 223); fill-opacity: 1; stroke-width: 0;"/></g></g><g class="errorbars"/><g class="lines"><path class="js-line" d="M118.19,213L74.56,244.07L30.75,147.24L118.19,213" style="vector-effect: none; fill: none; stroke: rgb(171, 99, 250); stroke-opacity: 1; stroke-width: 3px; opacity: 1;"/></g><g class="points"/><g class="text"/></g><g class="trace scatter trace62bb52" style="stroke-miterlimit: 2; opacity: 1;"><g class="fills"><g><path class="js-fill" d="M77.05,70L74.56,244.07L30.75,147.24L77.05,70Z" style="fill: rgb(218, 220, 223); fill-opacity: 1; stroke-width: 0;"/></g></g><g class="errorbars"/><g class="lines"><path class="js-line" d="M77.05,70L74.56,244.07L30.75,147.24L77.05,70" style="vector-effect: none; fill: none; stroke: rgb(255, 161, 90); stroke-opacity: 1; stroke-width: 3px; opacity: 1;"/></g><g class="points"/><g class="text"/></g><g class="trace scatter tracec0d47e" style="stroke-miterlimit: 2; opacity: 1;"><g class="fills"><g><path class="js-fill" d="M32.98,291.02L48.33,29.75L74.56,244.07L32.98,291.02Z" style="fill: rgb(225, 218, 214); fill-opacity: 1; stroke-width: 0;"/></g></g><g class="errorbars"/><g class="lines"><path class="js-line" d="M32.98,291.02L48.33,29.75L74.56,244.07L32.98,291.02" style="vector-effect: none; fill: none; stroke: rgb(25, 211, 243); stroke-opacity: 1; stroke-width: 3px; opacity: 1;"/></g><g class="points"/><g class="text"/></g><g class="trace scatter trace7f7ce0" style="stroke-miterlimit: 2; opacity: 1;"><g class="fills"><g><path class="js-fill" d="M118.19,213L48.33,29.75L74.56,244.07L118.19,213Z" style="fill: rgb(225, 218, 214); fill-opacity: 1; stroke-width: 0;"/></g></g><g class="errorbars"/><g class="lines"><path class="js-line" d="M118.19,213L48.33,29.75L74.56,244.07L118.19,213" style="vector-effect: none; fill: none; stroke: rgb(255, 102, 146); stroke-opacity: 1; stroke-width: 3px; opacity: 1;"/></g><g class="points"/><g class="text"/></g><g class="trace scatter traceefee9f" style="stroke-miterlimit: 2; opacity: 1;"><g class="fills"><g><path class="js-fill" d="M77.05,70L48.33,29.75L74.56,244.07L77.05,70Z" style="fill: rgb(225, 218, 214); fill-opacity: 1; stroke-width: 0;"/></g></g><g class="errorbars"/><g class="lines"><path class="js-line" d="M77.05,70L48.33,29.75L74.56,244.07L77.05,70" style="vector-effect: none; fill: none; stroke: rgb(182, 232, 128); stroke-opacity: 1; stroke-width: 3px; opacity: 1;"/></g><g class="points"/><g class="text"/></g><g class="trace scatter trace4ea827" style="stroke-miterlimit: 2; opacity: 1;"><g class="fills"><g><path class="js-fill" d="M48.33,29.75L74.56,244.07L30.75,147.24L48.33,29.75Z" style="fill: rgb(225, 218, 214); fill-opacity: 1; stroke-width: 0;"/></g></g><g class="errorbars"/><g class="lines"><path class="js-line" d="M48.33,29.75L74.56,244.07L30.75,147.24L48.33,29.75" style="vector-effect: none; fill: none; stroke: rgb(255, 151, 255); stroke-opacity: 1; stroke-width: 3px; opacity: 1;"/></g><g class="points"/><g class="text"/></g><g class="trace scatter traceccc84a" style="stroke-miterlimit: 2; opacity: 1;"><g class="fills"><g><path class="js-fill" d="M60.17,371.94L32.98,291.02L74.56,244.07L60.17,371.94Z" style="fill: rgb(228, 216, 209); fill-opacity: 1; stroke-width: 0;"/></g></g><g class="errorbars"/><g class="lines"><path class="js-line" d="M60.17,371.94L32.98,291.02L74.56,244.07L60.17,371.94" style="vector-effect: none; fill: none; stroke: rgb(254, 203, 82); stroke-opacity: 1; stroke-width: 3px; opacity: 1;"/></g><g class="points"/><g class="text"/></g><g class="trace scatter trace9f1e6e" style="stroke-miterlimit: 2; opacity: 1;"><g class="fills"><g><path class="js-fill" d="M60.17,371.94L32.98,291.02L77.05,70L60.17,371.94Z" style="fill: rgb(236, 210, 196); fill-opacity: 1; stroke-width: 0;"/></g></g><g class="errorbars"/><g class="lines"><path class="js-line" d="M60.17,371.94L32.98,291.02L77.05,70L60.17,371.94" style="vector-effect: none; fill: none; stroke: rgb(99, 110, 250); stroke-opacity: 1; stroke-width: 3px; opacity: 1;"/></g><g class="points"/><g class="text"/></g><g class="trace scatter tracea8e852" style="stroke-miterlimit: 2; opacity: 1;"><g class="fills"><g><path class="js-fill" d="M60.17,371.94L77.05,70L74.56,244.07L60.17,371.94Z" style="fill: rgb(236, 210, 196); fill-opacity: 1; stroke-width: 0;"/></g></g><g class="errorbars"/><g class="lines"><path class="js-line" d="M60.17,371.94L77.05,70L74.56,244.07L60.17,371.94" style="vector-effect: none; fill: none; stroke: rgb(239, 85, 59); stroke-opacity: 1; stroke-width: 3px; opacity: 1;"/></g><g class="points"/><g class="text"/></g><g class="trace scatter trace9fbad5" style="stroke-miterlimit: 2; opacity: 1;"><g class="fills"><g><path class="js-fill" d="M60.17,371.94L32.98,291.02L118.19,213L60.17,371.94Z" style="fill: rgb(239, 206, 188); fill-opacity: 1; stroke-width: 0;"/></g></g><g class="errorbars"/><g class="lines"><path class="js-line" d="M60.17,371.94L32.98,291.02L118.19,213L60.17,371.94" style="vector-effect: none; fill: none; stroke: rgb(0, 204, 150); stroke-opacity: 1; stroke-width: 3px; opacity: 1;"/></g><g class="points"/><g class="text"/></g><g class="trace scatter trace727bb4" style="stroke-miterlimit: 2; opacity: 1;"><g class="fills"><g><path class="js-fill" d="M60.17,371.94L118.19,213L77.05,70L60.17,371.94Z" style="fill: rgb(239, 206, 188); fill-opacity: 1; stroke-width: 0;"/></g></g><g class="errorbars"/><g class="lines"><path class="js-line" d="M60.17,371.94L118.19,213L77.05,70L60.17,371.94" style="vector-effect: none; fill: none; stroke: rgb(171, 99, 250); stroke-opacity: 1; stroke-width: 3px; opacity: 1;"/></g><g class="points"/><g class="text"/></g><g class="trace scatter trace216024" style="stroke-miterlimit: 2; opacity: 1;"><g class="fills"><g><path class="js-fill" d="M60.17,371.94L118.19,213L74.56,244.07L60.17,371.94Z" style="fill: rgb(239, 206, 188); fill-opacity: 1; stroke-width: 0;"/></g></g><g class="errorbars"/><g class="lines"><path class="js-line" d="M60.17,371.94L118.19,213L74.56,244.07L60.17,371.94" style="vector-effect: none; fill: none; stroke: rgb(255, 161, 90); stroke-opacity: 1; stroke-width: 3px; opacity: 1;"/></g><g class="points"/><g class="text"/></g><g class="trace scatter trace7bed3b" style="stroke-miterlimit: 2; opacity: 1;"><g class="fills"><g><path class="js-fill" d="M60.17,371.94L32.98,291.02L48.33,29.75L60.17,371.94Z" style="fill: rgb(244, 194, 170); fill-opacity: 1; stroke-width: 0;"/></g></g><g class="errorbars"/><g class="lines"><path class="js-line" d="M60.17,371.94L32.98,291.02L48.33,29.75L60.17,371.94" style="vector-effect: none; fill: none; stroke: rgb(25, 211, 243); stroke-opacity: 1; stroke-width: 3px; opacity: 1;"/></g><g class="points"/><g class="text"/></g><g class="trace scatter trace23c3f4" style="stroke-miterlimit: 2; opacity: 1;"><g class="fills"><g><path class="js-fill" d="M60.17,371.94L118.19,213L48.33,29.75L60.17,371.94Z" style="fill: rgb(244, 194, 170); fill-opacity: 1; stroke-width: 0;"/></g></g><g class="errorbars"/><g class="lines"><path class="js-line" d="M60.17,371.94L118.19,213L48.33,29.75L60.17,371.94" style="vector-effect: none; fill: none; stroke: rgb(255, 102, 146); stroke-opacity: 1; stroke-width: 3px; opacity: 1;"/></g><g class="points"/><g class="text"/></g><g class="trace scatter tracef20651" style="stroke-miterlimit: 2; opacity: 1;"><g class="fills"><g><path class="js-fill" d="M60.17,371.94L77.05,70L48.33,29.75L60.17,371.94Z" style="fill: rgb(244, 194, 170); fill-opacity: 1; stroke-width: 0;"/></g></g><g class="errorbars"/><g class="lines"><path class="js-line" d="M60.17,371.94L77.05,70L48.33,29.75L60.17,371.94" style="vector-effect: none; fill: none; stroke: rgb(182, 232, 128); stroke-opacity: 1; stroke-width: 3px; opacity: 1;"/></g><g class="points"/><g class="text"/></g><g class="trace scatter trace89b4e3" style="stroke-miterlimit: 2; opacity: 1;"><g class="fills"><g><path class="js-fill" d="M60.17,371.94L48.33,29.75L74.56,244.07L60.17,371.94Z" style="fill: rgb(244, 194, 170); fill-opacity: 1; stroke-width: 0;"/></g></g><g class="errorbars"/><g class="lines"><path class="js-line" d="M60.17,371.94L48.33,29.75L74.56,244.07L60.17,371.94" style="vector-effect: none; fill: none; stroke: rgb(255, 151, 255); stroke-opacity: 1; stroke-width: 3px; opacity: 1;"/></g><g class="points"/><g class="text"/></g><g class="trace scatter tracea56a21" style="stroke-miterlimit: 2; opacity: 1;"><g class="fills"><g><path class="js-fill" d="M60.17,371.94L32.98,291.02L30.75,147.24L60.17,371.94Z" style="fill: rgb(246, 183, 156); fill-opacity: 1; stroke-width: 0;"/></g></g><g class="errorbars"/><g class="lines"><path class="js-line" d="M60.17,371.94L32.98,291.02L30.75,147.24L60.17,371.94" style="vector-effect: none; fill: none; stroke: rgb(254, 203, 82); stroke-opacity: 1; stroke-width: 3px; opacity: 1;"/></g><g class="points"/><g class="text"/></g><g class="trace scatter traced5d0bf" style="stroke-miterlimit: 2; opacity: 1;"><g class="fills"><g><path class="js-fill" d="M60.17,371.94L118.19,213L30.75,147.24L60.17,371.94Z" style="fill: rgb(246, 183, 156); fill-opacity: 1; stroke-width: 0;"/></g></g><g class="errorbars"/><g class="lines"><path class="js-line" d="M60.17,371.94L118.19,213L30.75,147.24L60.17,371.94" style="vector-effect: none; fill: none; stroke: rgb(99, 110, 250); stroke-opacity: 1; stroke-width: 3px; opacity: 1;"/></g><g class="points"/><g class="text"/></g><g class="trace scatter trace839f87" style="stroke-miterlimit: 2; opacity: 1;"><g class="fills"><g><path class="js-fill" d="M60.17,371.94L77.05,70L30.75,147.24L60.17,371.94Z" style="fill: rgb(246, 183, 156); fill-opacity: 1; stroke-width: 0;"/></g></g><g class="errorbars"/><g class="lines"><path class="js-line" d="M60.17,371.94L77.05,70L30.75,147.24L60.17,371.94" style="vector-effect: none; fill: none; stroke: rgb(239, 85, 59); stroke-opacity: 1; stroke-width: 3px; opacity: 1;"/></g><g class="points"/><g class="text"/></g><g class="trace scatter tracef1e397" style="stroke-miterlimit: 2; opacity: 1;"><g class="fills"><g><path class="js-fill" d="M60.17,371.94L48.33,29.75L30.75,147.24L60.17,371.94Z" style="fill: rgb(246, 183, 156); fill-opacity: 1; stroke-width: 0;"/></g></g><g class="errorbars"/><g class="lines"><path class="js-line" d="M60.17,371.94L48.33,29.75L30.75,147.24L60.17,371.94" style="vector-effect: none; fill: none; stroke: rgb(0, 204, 150); stroke-opacity: 1; stroke-width: 3px; opacity: 1;"/></g><g class="points"/><g class="text"/></g><g class="trace scatter trace48bd40" style="stroke-miterlimit: 2; opacity: 1;"><g class="fills"><g><path class="js-fill" d="M60.17,371.94L74.56,244.07L30.75,147.24L60.17,371.94Z" style="fill: rgb(246, 183, 156); fill-opacity: 1; stroke-width: 0;"/></g></g><g class="errorbars"/><g class="lines"><path class="js-line" d="M60.17,371.94L74.56,244.07L30.75,147.24L60.17,371.94" style="vector-effect: none; fill: none; stroke: rgb(171, 99, 250); stroke-opacity: 1; stroke-width: 3px; opacity: 1;"/></g><g class="points"/><g class="text"/></g><g class="trace scatter trace1df755" style="stroke-miterlimit: 2; opacity: 1;"><g class="fills"><g><path class="js-fill" d="M312.61,390.25L337.53,118.1L256.3,248.31L312.61,390.25Z" style="fill: rgb(244, 157, 126); fill-opacity: 1; stroke-width: 0;"/></g></g><g class="errorbars"/><g class="lines"><path class="js-line" d="M312.61,390.25L337.53,118.1L256.3,248.31L312.61,390.25" style="vector-effect: none; fill: none; stroke: rgb(255, 161, 90); stroke-opacity: 1; stroke-width: 3px; opacity: 1;"/></g><g class="points"/><g class="text"/></g><g class="trace scatter trace33e388" style="stroke-miterlimit: 2; opacity: 1;"><g class="fills"><g><path class="js-fill" d="M312.61,390.25L256.3,248.31L353.14,338.28L312.61,390.25Z" style="fill: rgb(200, 56, 53); fill-opacity: 1; stroke-width: 0;"/></g></g><g class="errorbars"/><g class="lines"><path class="js-line" d="M312.61,390.25L256.3,248.31L353.14,338.28L312.61,390.25" style="vector-effect: none; fill: none; stroke: rgb(25, 211, 243); stroke-opacity: 1; stroke-width: 3px; opacity: 1;"/></g><g class="points"/><g class="text"/></g><g class="trace scatter trace6f1bc8" style="stroke-miterlimit: 2; opacity: 1;"><g class="fills"/><g class="errorbars"/><g class="lines"/><g class="points"><path class="point" transform="translate(312.61,390.25)" d="M7,0A7,7 0 1,1 0,-7A7,7 0 0,1 7,0Z" style="opacity: 1; stroke-width: 0px; fill: rgb(255, 102, 146); fill-opacity: 1;"/><path class="point" transform="translate(337.53,118.1)" d="M7,0A7,7 0 1,1 0,-7A7,7 0 0,1 7,0Z" style="opacity: 1; stroke-width: 0px; fill: rgb(255, 102, 146); fill-opacity: 1;"/><path class="point" transform="translate(256.3,248.31)" d="M7,0A7,7 0 1,1 0,-7A7,7 0 0,1 7,0Z" style="opacity: 1; stroke-width: 0px; fill: rgb(255, 102, 146); fill-opacity: 1;"/><path class="point" transform="translate(353.14,338.28)" d="M7,0A7,7 0 1,1 0,-7A7,7 0 0,1 7,0Z" style="opacity: 1; stroke-width: 0px; fill: rgb(255, 102, 146); fill-opacity: 1;"/><path class="point" transform="translate(409.25,156.85)" d="M7,0A7,7 0 1,1 0,-7A7,7 0 0,1 7,0Z" style="opacity: 1; stroke-width: 0px; fill: rgb(255, 102, 146); fill-opacity: 1;"/><path class="point" transform="translate(60.17,371.94)" d="M7,0A7,7 0 1,1 0,-7A7,7 0 0,1 7,0Z" style="opacity: 1; stroke-width: 0px; fill: rgb(255, 102, 146); fill-opacity: 1;"/><path class="point" transform="translate(32.98,291.02)" d="M7,0A7,7 0 1,1 0,-7A7,7 0 0,1 7,0Z" style="opacity: 1; stroke-width: 0px; fill: rgb(255, 102, 146); fill-opacity: 1;"/><path class="point" transform="translate(118.19,213)" d="M7,0A7,7 0 1,1 0,-7A7,7 0 0,1 7,0Z" style="opacity: 1; stroke-width: 0px; fill: rgb(255, 102, 146); fill-opacity: 1;"/><path class="point" transform="translate(77.05,70)" d="M7,0A7,7 0 1,1 0,-7A7,7 0 0,1 7,0Z" style="opacity: 1; stroke-width: 0px; fill: rgb(255, 102, 146); fill-opacity: 1;"/><path class="point" transform="translate(48.33,29.75)" d="M7,0A7,7 0 1,1 0,-7A7,7 0 0,1 7,0Z" style="opacity: 1; stroke-width: 0px; fill: rgb(255, 102, 146); fill-opacity: 1;"/><path class="point" transform="translate(74.56,244.07)" d="M7,0A7,7 0 1,1 0,-7A7,7 0 0,1 7,0Z" style="opacity: 1; stroke-width: 0px; fill: rgb(255, 102, 146); fill-opacity: 1;"/><path class="point" transform="translate(30.75,147.24)" d="M7,0A7,7 0 1,1 0,-7A7,7 0 0,1 7,0Z" style="opacity: 1; stroke-width: 0px; fill: rgb(255, 102, 146); fill-opacity: 1;"/></g><g class="text"><g class="textpoint" transform="translate(0,-13.25)"><text x="312.61" y="390.25" text-anchor="middle" style="font-family: 'Open Sans', verdana, arial, sans-serif; font-size: 14px; fill: rgb(42, 63, 95); fill-opacity: 1; white-space: pre;">EC00690</text></g><g class="textpoint" transform="translate(0,-13.25)"><text x="337.53" y="118.1" text-anchor="middle" style="font-family: 'Open Sans', verdana, arial, sans-serif; font-size: 14px; fill: rgb(42, 63, 95); fill-opacity: 1; white-space: pre;">EC00668</text></g><g class="textpoint" transform="translate(0,-13.25)"><text x="256.3" y="248.31" text-anchor="middle" style="font-family: 'Open Sans', verdana, arial, sans-serif; font-size: 14px; fill: rgb(42, 63, 95); fill-opacity: 1; white-space: pre;">EC00609</text></g><g class="textpoint" transform="translate(0,-13.25)"><text x="353.14" y="338.28" text-anchor="middle" style="font-family: 'Open Sans', verdana, arial, sans-serif; font-size: 14px; fill: rgb(42, 63, 95); fill-opacity: 1; white-space: pre;">EC00701</text></g><g class="textpoint" transform="translate(0,-13.25)"><text x="409.25" y="156.85" text-anchor="middle" style="font-family: 'Open Sans', verdana, arial, sans-serif; font-size: 14px; fill: rgb(42, 63, 95); fill-opacity: 1; white-space: pre;">EC00678</text></g><g class="textpoint" transform="translate(0,-13.25)"><text x="60.17" y="371.94" text-anchor="middle" style="font-family: 'Open Sans', verdana, arial, sans-serif; font-size: 14px; fill: rgb(42, 63, 95); fill-opacity: 1; white-space: pre;">KLP00215</text></g><g class="textpoint" transform="translate(0,-13.25)"><text x="32.98" y="291.02" text-anchor="middle" style="font-family: 'Open Sans', verdana, arial, sans-serif; font-size: 14px; fill: rgb(42, 63, 95); fill-opacity: 1; white-space: pre;">KLP00221</text></g><g class="textpoint" transform="translate(0,-13.25)"><text x="118.19" y="213" text-anchor="middle" style="font-family: 'Open Sans', verdana, arial, sans-serif; font-size: 14px; fill: rgb(42, 63, 95); fill-opacity: 1; white-space: pre;">KLP00218</text></g><g class="textpoint" transform="translate(0,-13.25)"><text x="77.05" y="70" text-anchor="middle" style="font-family: 'Open Sans', verdana, arial, sans-serif; font-size: 14px; fill: rgb(42, 63, 95); fill-opacity: 1; white-space: pre;">KLP00213</text></g><g class="textpoint" transform="translate(0,-13.25)"><text x="48.33" y="29.75" text-anchor="middle" style="font-family: 'Open Sans', verdana, arial, sans-serif; font-size: 14px; fill: rgb(42, 63, 95); fill-opacity: 1; white-space: pre;">KLP00187</text></g><g class="textpoint" transform="translate(0,-13.25)"><text x="74.56" y="244.07" text-anchor="middle" style="font-family: 'Open Sans', verdana, arial, sans-serif; font-size: 14px; fill: rgb(42, 63, 95); fill-opacity: 1; white-space: pre;">KLP00149</text></g><g class="textpoint" transform="translate(0,-13.25)"><text x="30.75" y="147.24" text-anchor="middle" style="font-family: 'Open Sans', verdana, arial, sans-serif; font-size: 14px; fill: rgb(42, 63, 95); fill-opacity: 1; white-space: pre;">KLP00177</text></g></g></g></g></g><g class="overplot"/><path class="xlines-above crisp" d="M0,0" style="fill: none;"/><path class="ylines-above crisp" d="M0,0" style="fill: none;"/><g class="overlines-above"/><g class="xaxislayer-above"><g class="xtick"><text text-anchor="middle" x="0" y="537" transform="translate(139.23,0)" style="font-family: Arial, sans-serif; font-size: 16px; fill: rgb(42, 63, 95); fill-opacity: 1; white-space: pre; opacity: 1;">−0.5</text></g><g class="xtick"><text text-anchor="middle" x="0" y="537" style="font-family: Arial, sans-serif; font-size: 16px; fill: rgb(42, 63, 95); fill-opacity: 1; white-space: pre; opacity: 1;" transform="translate(255.91,0)">0</text></g><g class="xtick"><text text-anchor="middle" x="0" y="537" style="font-family: Arial, sans-serif; font-size: 16px; fill: rgb(42, 63, 95); fill-opacity: 1; white-space: pre; opacity: 1;" transform="translate(372.58,0)">0.5</text></g><g class="xtick"><text text-anchor="middle" x="0" y="537" style="font-family: Arial, sans-serif; font-size: 16px; fill: rgb(42, 63, 95); fill-opacity: 1; white-space: pre; opacity: 1;" transform="translate(489.25,0)">1</text></g></g><g class="yaxislayer-above"><g class="ytick"><text text-anchor="end" x="79" y="5.6" transform="translate(0,490.28)" style="font-family: Arial, sans-serif; font-size: 16px; fill: rgb(42, 63, 95); fill-opacity: 1; white-space: pre; opacity: 1;">−0.15</text></g><g class="ytick"><text text-anchor="end" x="79" y="5.6" style="font-family: Arial, sans-serif; font-size: 16px; fill: rgb(42, 63, 95); fill-opacity: 1; white-space: pre; opacity: 1;" transform="translate(0,432.93)">−0.1</text></g><g class="ytick"><text text-anchor="end" x="79" y="5.6" style="font-family: Arial, sans-serif; font-size: 16px; fill: rgb(42, 63, 95); fill-opacity: 1; white-space: pre; opacity: 1;" transform="translate(0,375.58)">−0.05</text></g><g class="ytick"><text text-anchor="end" x="79" y="5.6" style="font-family: Arial, sans-serif; font-size: 16px; fill: rgb(42, 63, 95); fill-opacity: 1; white-space: pre; opacity: 1;" transform="translate(0,318.23)">0</text></g><g class="ytick"><text text-anchor="end" x="79" y="5.6" style="font-family: Arial, sans-serif; font-size: 16px; fill: rgb(42, 63, 95); fill-opacity: 1; white-space: pre; opacity: 1;" transform="translate(0,260.89)">0.05</text></g><g class="ytick"><text text-anchor="end" x="79" y="5.6" style="font-family: Arial, sans-serif; font-size: 16px; fill: rgb(42, 63, 95); fill-opacity: 1; white-space: pre; opacity: 1;" transform="translate(0,203.54000000000002)">0.1</text></g><g class="ytick"><text text-anchor="end" x="79" y="5.6" style="font-family: Arial, sans-serif; font-size: 16px; fill: rgb(42, 63, 95); fill-opacity: 1; white-space: pre; opacity: 1;" transform="translate(0,146.19)">0.15</text></g></g><g class="overaxes-above"/></g></g><g class="polarlayer"/><g class="smithlayer"/><g class="ternarylayer"/><g class="geolayer"/><g class="funnelarealayer"/><g class="pielayer"/><g class="iciclelayer"/><g class="treemaplayer"/><g class="sunburstlayer"/><g class="glimages"/><defs id="topdefs-657297"><g class="clips"/></defs><g class="layer-above"><g class="imagelayer"/><g class="shapelayer"/></g><g class="infolayer"><g class="g-gtitle"/><g class="g-xtitle"/><g class="g-ytitle"/></g></svg>