<svg class="main-svg" xmlns="http://www.w3.org/2000/svg" xmlns:xlink="http://www.w3.org/1999/xlink" width="600" height="600" style="" viewBox="0 0 600 600"><rect x="0" y="0" width="600" height="600" style="fill: rgb(255, 255, 255); fill-opacity: 1;"/><defs id="defs-5e06a2"><g class="clips"><clipPath id="clip5e06a2xyplot" class="plotclip"><rect width="440" height="420"/></clipPath><clipPath class="axesclip" id="clip5e06a2x"><rect x="80" y="0" width="440" height="600"/></clipPath><clipPath class="axesclip" id="clip5e06a2y"><rect x="0" y="100" width="600" height="420"/></clipPath><clipPath class="axesclip" id="clip5e06a2xy"><rect x="80" y="100" width="440" height="420"/></clipPath></g><g class="gradients"/><g class="patterns"/></defs><g class="bglayer"><rect class="bg" x="80" y="100" width="440" height="420" style="fill: rgb(229, 236, 246); fill-opacity: 1; stroke-width: 0;"/></g><g class="layer-below"><g class="imagelayer"/><g class="shapelayer"/></g><g class="cartesianlayer"><g class="subplot xy"><g class="layer-subplot"><g class="shapelayer"/><g class="imagelayer"/></g><g class="minor-gridlayer"><g class="x"/><g class="y"/></g><g class="gridlayer"><g class="x"/><g class="y"/></g><g class="zerolinelayer"/><path class="xlines-below"/><path class="ylines-below"/><g class="overlines-below"/><g class="xaxislayer-below"/><g class="yaxislayer-below"/><g class="overaxes-below"/><g class="plot" transform="translate(80,100)" clip-path="url(#clip5e06a2xyplot)"><g class="scatterlayer mlayer"><g class="trace scatter trace749f86" style="stroke-miterlimit: 2; opacity: 1;"><g class="fills"/><g class="errorbars"/><g class="lines"><path class="js-line" d="M171.64,85.92L190.53,159.83" style="vector-effect: none; fill: none; stroke: rgb(153, 186, 254); stroke-opacity: 1; stroke-width: 3px; opacity: 1;"/></g><g class="points"/><g class="text"/></g><g class="trace scatter trace4dffb3" style="stroke-miterlimit: 2; opacity: 1;"><g class="fills"/><g class="errorbars"/><g class="lines"><path class="js-line" d="M171.64,85.92L86.68,104.15" style="vector-effect: none; fill: none; stroke: rgb(244, 157, 126); stroke-opacity: 1; stroke-width: 3px; opacity: 1;"/></g><g class="points"/><g class="text"/></g><g class="trace scatter tracec886c9" style="stroke-miterlimit: 2; opacity: 1;"><g class="fills"/><g class="errorbars"/><g class="lines"><path class="js-line" d="M171.64,85.92L123.14,54.63" style="vector-effect: none; fill: none; stroke: rgb(239, 137, 108); stroke-opacity: 1; stroke-width: 3px; opacity: 1;"/></g><g class="points"/><g class="text"/></g><g class="trace scatter traced84d24" style="stroke-miterlimit: 2; opacity: 1;"><g class="fills"/><g class="errorbars"/><g class="lines"><path class="js-line" d="M86.68,104.15L190.53,159.83" style="vector-effect: none; fill: none; stroke: rgb(236, 210, 196); stroke-opacity: 1; stroke-width: 3px; opacity: 1;"/></g><g class="points"/><g class="text"/></g><g class="trace scatter tracec3f734" style="stroke-miterlimit: 2; opacity: 1;"><g class="fills"/><g class="errorbars"/><g class="lines"><path class="js-line" d="M86.68,104.15L30.75,29.75" style="vector-effect: none; fill: none; stroke: rgb(246, 183, 156); stroke-opacity: 1; stroke-width: 3px; opacity: 1;"/></g><g class="points"/><g class="text"/></g><g class="trace scatter traceeb8416" style="stroke-miterlimit: 2; opacity: 1;"><g class="fills"/><g class="errorbars"/><g class="lines"><path class="js-line" d="M190.53,159.83L123.14,54.63" style="vector-effect: none; fill: none; stroke: rgb(200, 56, 53); stroke-opacity: 1; stroke-width: 3px; opacity: 1;"/></g><g class="points"/><g class="text"/></g><g class="trace scatter trace1dc95b" style="stroke-miterlimit: 2; opacity: 1;"><g class="fills"/><g class="errorbars"/><g class="lines"><path class="js-line" d="M190.53,159.83L310.3,295.14" style="vector-effect: none; fill: none; stroke: rgb(179, 3, 38); stroke-opacity: 1; stroke-width: 3px; opacity: 1;"/></g><g class="points"/><g class="text"/></g><g class="trace scatter trace6df52d" style="stroke-miterlimit: 2; opacity: 1;"><g class="fills"/><g class="errorbars"/><g class="lines"><path class="js-line" d="M123.14,54.63L30.75,29.75" style="vector-effect: none; fill: none; stroke: rgb(234, 125, 97); stroke-opacity: 1; stroke-width: 3px; opacity: 1;"/></g><g class="points"/><g class="text"/></g><g class="trace scatter trace49e882" style="stroke-miterlimit: 2; opacity: 1;"><g class="fills"/><g class="errorbars"/><g class="lines"><path class="js-line" d="M388.01,381.8L387.58,316.1" style="vector-effect: none; fill: none; stroke: rgb(218, 220, 223); stroke-opacity: 1; stroke-width: 3px; opacity: 1;"/></g><g class="points"/><g class="text"/></g><g class="trace scatter tracebf5168" style="stroke-miterlimit: 2; opacity: 1;"><g class="fills"/><g class="errorbars"/><g class="lines"><path class="js-line" d="M388.01,381.8L409.25,349.42" style="vector-effect: none; fill: none; stroke: rgb(228, 216, 209); stroke-opacity: 1; stroke-width: 3px; opacity: 1;"/></g><g class="points"/><g class="text"/></g><g class="trace scatter tracebf392e" style="stroke-miterlimit: 2; opacity: 1;"><g class="fills"/><g class="errorbars"/><g class="lines"><path class="js-line" d="M388.01,381.8L348.19,337.97" style="vector-effect: none; fill: none; stroke: rgb(236, 210, 196); stroke-opacity: 1; stroke-width: 3px; opacity: 1;"/></g><g class="points"/><g class="text"/></g><g class="trace scatter trace4cc679" style="stroke-miterlimit: 2; opacity: 1;"><g class="fills"/><g class="errorbars"/><g class="lines"><path class="js-line" d="M388.01,381.8L310.3,295.14" style="vector-effect: none; fill: none; stroke: rgb(239, 206, 188); stroke-opacity: 1; stroke-width: 3px; opacity: 1;"/></g><g class="points"/><g class="text"/></g><g class="trace scatter tracefb0d26" style="stroke-miterlimit: 2; opacity: 1;"><g class="fills"/><g class="errorbars"/><g class="lines"><path class="js-line" d="M388.01,381.8L312.52,364.58" style="vector-effect: none; fill: none; stroke: rgb(244, 194, 170); stroke-opacity: 1; stroke-width: 3px; opacity: 1;"/></g><g class="points"/><g class="text"/></g><g class="trace scatter traceaacb58" style="stroke-miterlimit: 2; opacity: 1;"><g class="fills"/><g class="errorbars"/><g class="lines"><path class="js-line" d="M388.01,381.8L346.24,390.25" style="vector-effect: none; fill: none; stroke: rgb(246, 183, 156); stroke-opacity: 1; stroke-width: 3px; opacity: 1;"/></g><g class="points"/><g class="text"/></g><g class="trace scatter trace89c316" style="stroke-miterlimit: 2; opacity: 1;"><g class="fills"/><g class="errorbars"/><g class="lines"><path class="js-line" d="M387.58,316.1L348.19,337.97" style="vector-effect: none; fill: none; stroke: rgb(111, 145, 242); stroke-opacity: 1; stroke-width: 3px; opacity: 1;"/></g><g class="points"/><g class="text"/></g><g class="trace scatter trace719094" style="stroke-miterlimit: 2; opacity: 1;"><g class="fills"/><g class="errorbars"/><g class="lines"><path class="js-line" d="M387.58,316.1L312.52,364.58" style="vector-effect: none; fill: none; stroke: rgb(141, 175, 253); stroke-opacity: 1; stroke-width: 3px; opacity: 1;"/></g><g class="points"/><g class="text"/></g><g class="trace scatter trace2107fa" style="stroke-miterlimit: 2; opacity: 1;"><g class="fills"/><g class="errorbars"/><g class="lines"><path class="js-line" d="M387.58,316.1L310.3,295.14" style="vector-effect: none; fill: none; stroke: rgb(144, 178, 254); stroke-opacity: 1; stroke-width: 3px; opacity: 1;"/></g><g class="points"/><g class="text"/></g><g class="trace scatter traceefc2a5" style="stroke-miterlimit: 2; opacity: 1;"><g class="fills"/><g class="errorbars"/><g class="lines"><path class="js-line" d="M387.58,316.1L409.25,349.42" style="vector-effect: none; fill: none; stroke: rgb(190, 211, 245); stroke-opacity: 1; stroke-width: 3px; opacity: 1;"/></g><g class="points"/><g class="text"/></g><g class="trace scatter tracec79a19" style="stroke-miterlimit: 2; opacity: 1;"><g class="fills"/><g class="errorbars"/><g class="lines"><path class="js-line" d="M387.58,316.1L346.24,390.25" style="vector-effect: none; fill: none; stroke: rgb(190, 211, 245); stroke-opacity: 1; stroke-width: 3px; opacity: 1;"/></g><g class="points"/><g class="text"/></g><g class="trace scatter trace4198fc" style="stroke-miterlimit: 2; opacity: 1;"><g class="fills"/><g class="errorbars"/><g class="lines"><path class="js-line" d="M310.3,295.14L348.19,337.97" style="vector-effect: none; fill: none; stroke: rgb(111, 145, 242); stroke-opacity: 1; stroke-width: 3px; opacity: 1;"/></g><g class="points"/><g class="text"/></g><g class="trace scatter trace31db07" style="stroke-miterlimit: 2; opacity: 1;"><g class="fills"/><g class="errorbars"/><g class="lines"><path class="js-line" d="M310.3,295.14L312.52,364.58" style="vector-effect: none; fill: none; stroke: rgb(144, 178, 254); stroke-opacity: 1; stroke-width: 3px; opacity: 1;"/></g><g class="points"/><g class="text"/></g><g class="trace scatter trace48e153" style="stroke-miterlimit: 2; opacity: 1;"><g class="fills"/><g class="errorbars"/><g class="lines"><path class="js-line" d="M310.3,295.14L346.24,390.25" style="vector-effect: none; fill: none; stroke: rgb(160, 191, 254); stroke-opacity: 1; stroke-width: 3px; opacity: 1;"/></g><g class="points"/><g class="text"/></g><g class="trace scatter trace6c5683" style="stroke-miterlimit: 2; opacity: 1;"><g class="fills"/><g class="errorbars"/><g class="lines"><path class="js-line" d="M310.3,295.14L409.25,349.42" style="vector-effect: none; fill: none; stroke: rgb(190, 211, 245); stroke-opacity: 1; stroke-width: 3px; opacity: 1;"/></g><g class="points"/><g class="text"/></g><g class="trace scatter trace6d4c0a" style="stroke-miterlimit: 2; opacity: 1;"><g class="fills"/><g class="errorbars"/><g class="lines"><path class="js-line" d="M348.19,337.97L312.52,364.58" style="vector-effect: none; fill: none; stroke: rgb(111, 145, 242); stroke-opacity: 1; stroke-width: 3px; opacity: 1;"/></g><g class="points"/><g class="text"/></g><g class="trace scatter tracee83f8b" style="stroke-miterlimit: 2; opacity: 1;"><g class="fills"/><g class="errorbars"/><g class="lines"><path class="js-line" d="M348.19,337.97L346.24,390.25" style="vector-effect: none; fill: none; stroke: rgb(151, 184, 254); stroke-opacity: 1; stroke-width: 3px; opacity: 1;"/></g><g class="points"/><g class="text"/></g><g class="trace scatter trace1162b0" style="stroke-miterlimit: 2; opacity: 1;"><g class="fills"/><g class="errorbars"/><g class="lines"><path class="js-line" d="M348.19,337.97L409.25,349.42" style="vector-effect: none; fill: none; stroke: rgb(197, 213, 242); stroke-opacity: 1; stroke-width: 3px; opacity: 1;"/></g><g class="points"/><g class="text"/></g><g class="trace scatter trace500c46" style="stroke-miterlimit: 2; opacity: 1;"><g class="fills"/><g class="errorbars"/><g class="lines"><path class="js-line" d="M312.52,364.58L346.24,390.25" style="vector-effect: none; fill: none; stroke: rgb(153, 186, 254); stroke-opacity: 1; stroke-width: 3px; opacity: 1;"/></g><g class="points"/><g class="text"/></g><g class="trace scatter trace71e582" style="stroke-miterlimit: 2; opacity: 1;"><g class="fills"/><g class="errorbars"/><g class="lines"><path class="js-line" d="M312.52,364.58L409.25,349.42" style="vector-effect: none; fill: none; stroke: rgb(225, 218, 214); stroke-opacity: 1; stroke-width: 3px; opacity: 1;"/></g><g class="points"/><g class="text"/></g><g class="trace scatter tracee0e1fd" style="stroke-miterlimit: 2; opacity: 1;"><g class="fills"/><g class="errorbars"/><g class="lines"><path class="js-line" d="M409.25,349.42L346.24,390.25" style="vector-effect: none; fill: none; stroke: rgb(218, 220, 223); stroke-opacity: 1; stroke-width: 3px; opacity: 1;"/></g><g class="points"/><g class="text"/></g><g class="trace scatter trace2132dd" style="stroke-miterlimit: 2; opacity: 1;"><g class="fills"><g><path class="js-fill" d="M387.58,316.1L348.19,337.97L312.52,364.58L387.58,316.1Z" style="fill: rgb(244, 157, 126); fill-opacity: 0.545; stroke-width: 0;"/></g></g><g class="errorbars"/><g class="lines"><path class="js-line" d="M387.58,316.1L348.19,337.97L312.52,364.58L387.58,316.1" style="vector-effect: none; fill: none; stroke: rgb(254, 203, 82); stroke-opacity: 1; stroke-width: 3px; opacity: 1;"/></g><g class="points"/><g class="text"/></g><g class="trace scatter tracebbb7e1" style="stroke-miterlimit: 2; opacity: 1;"><g class="fills"><g><path class="js-fill" d="M387.58,316.1L310.3,295.14L348.19,337.97L387.58,316.1Z" style="fill: rgb(244, 157, 126); fill-opacity: 0.545; stroke-width: 0;"/></g></g><g class="errorbars"/><g class="lines"><path class="js-line" d="M387.58,316.1L310.3,295.14L348.19,337.97L387.58,316.1" style="vector-effect: none; fill: none; stroke: rgb(99, 110, 250); stroke-opacity: 1; stroke-width: 3px; opacity: 1;"/></g><g class="points"/><g class="text"/></g><g class="trace scatter traceb06e12" style="stroke-miterlimit: 2; opacity: 1;"><g class="fills"><g><path class="js-fill" d="M387.58,316.1L310.3,295.14L312.52,364.58L387.58,316.1Z" style="fill: rgb(244, 157, 126); fill-opacity: 0.545; stroke-width: 0;"/></g></g><g class="errorbars"/><g class="lines"><path class="js-line" d="M387.58,316.1L310.3,295.14L312.52,364.58L387.58,316.1" style="vector-effect: none; fill: none; stroke: rgb(239, 85, 59); stroke-opacity: 1; stroke-width: 3px; opacity: 1;"/></g><g class="points"/><g class="text"/></g><g class="trace scatter tracedbefc9" style="stroke-miterlimit: 2; opacity: 1;"><g class="fills"><g><path class="js-fill" d="M310.3,295.14L348.19,337.97L312.52,364.58L310.3,295.14Z" style="fill: rgb(244, 157, 126); fill-opacity: 0.545; stroke-width: 0;"/></g></g><g class="errorbars"/><g class="lines"><path class="js-line" d="M310.3,295.14L348.19,337.97L312.52,364.58L310.3,295.14" style="vector-effect: none; fill: none; stroke: rgb(0, 204, 150); stroke-opacity: 1; stroke-width: 3px; opacity: 1;"/></g><g class="points"/><g class="text"/></g><g class="trace scatter traceab647e" style="stroke-miterlimit: 2; opacity: 1;"><g class="fills"><g><path class="js-fill" d="M348.19,337.97L312.52,364.58L346.24,390.25L348.19,337.97Z" style="fill: rgb(244, 157, 126); fill-opacity: 0.545; stroke-width: 0;"/></g></g><g class="errorbars"/><g class="lines"><path class="js-line" d="M348.19,337.97L312.52,364.58L346.24,390.25L348.19,337.97" style="vector-effect: none; fill: none; stroke: rgb(171, 99, 250); stroke-opacity: 1; stroke-width: 3px; opacity: 1;"/></g><g class="points"/><g class="text"/></g><g class="trace scatter trace695c0c" style="stroke-miterlimit: 2; opacity: 1;"><g class="fills"><g><path class="js-fill" d="M310.3,295.14L348.19,337.97L346.24,390.25L310.3,295.14Z" style="fill: rgb(244, 157, 126); fill-opacity: 0.545; stroke-width: 0;"/></g></g><g class="errorbars"/><g class="lines"><path class="js-line" d="M310.3,295.14L348.19,337.97L346.24,390.25L310.3,295.14" style="vector-effect: none; fill: none; stroke: rgb(255, 161, 90); stroke-opacity: 1; stroke-width: 3px; opacity: 1;"/></g><g class="points"/><g class="text"/></g><g class="trace scatter trace4723e2" style="stroke-miterlimit: 2; opacity: 1;"><g class="fills"><g><path class="js-fill" d="M310.3,295.14L312.52,364.58L346.24,390.25L310.3,295.14Z" style="fill: rgb(244, 157, 126); fill-opacity: 0.545; stroke-width: 0;"/></g></g><g class="errorbars"/><g class="lines"><path class="js-line" d="M310.3,295.14L312.52,364.58L346.24,390.25L310.3,295.14" style="vector-effect: none; fill: none; stroke: rgb(25, 211, 243); stroke-opacity: 1; stroke-width: 3px; opacity: 1;"/></g><g class="points"/><g class="text"/></g><g class="trace scatter trace729359" style="stroke-miterlimit: 2; opacity: 1;"><g class="fills"><g><path class="js-fill" d="M387.58,316.1L310.3,295.14L409.25,349.42L387.58,316.1Z" style="fill: rgb(244, 157, 126); fill-opacity: 0.545; stroke-width: 0;"/></g></g><g class="errorbars"/><g class="lines"><path class="js-line" d="M387.58,316.1L310.3,295.14L409.25,349.42L387.58,316.1" style="vector-effect: none; fill: none; stroke: rgb(255, 102, 146); stroke-opacity: 1; stroke-width: 3px; opacity: 1;"/></g><g class="points"/><g class="text"/></g><g class="trace scatter trace54f15f" style="stroke-miterlimit: 2; opacity: 1;"><g class="fills"><g><path class="js-fill" d="M387.58,316.1L310.3,295.14L346.24,390.25L387.58,316.1Z" style="fill: rgb(244, 157, 126); fill-opacity: 0.545; stroke-width: 0;"/></g></g><g class="errorbars"/><g class="lines"><path class="js-line" d="M387.58,316.1L310.3,295.14L346.24,390.25L387.58,316.1" style="vector-effect: none; fill: none; stroke: rgb(182, 232, 128); stroke-opacity: 1; stroke-width: 3px; opacity: 1;"/></g><g class="points"/><g class="text"/></g><g class="trace scatter trace0d85e0" style="stroke-miterlimit: 2; opacity: 1;"><g class="fills"><g><path class="js-fill" d="M387.58,316.1L348.19,337.97L346.24,390.25L387.58,316.1Z" style="fill: rgb(244, 157, 126); fill-opacity: 0.545; stroke-width: 0;"/></g></g><g class="errorbars"/><g class="lines"><path class="js-line" d="M387.58,316.1L348.19,337.97L346.24,390.25L387.58,316.1" style="vector-effect: none; fill: none; stroke: rgb(255, 151, 255); stroke-opacity: 1; stroke-width: 3px; opacity: 1;"/></g><g class="points"/><g class="text"/></g><g class="trace scatter tracebbc237" style="stroke-miterlimit: 2; opacity: 1;"><g class="fills"><g><path class="js-fill" d="M387.58,316.1L312.52,364.58L346.24,390.25L387.58,316.1Z" style="fill: rgb(244, 157, 126); fill-opacity: 0.545; stroke-width: 0;"/></g></g><g class="errorbars"/><g class="lines"><path class="js-line" d="M387.58,316.1L312.52,364.58L346.24,390.25L387.58,316.1" style="vector-effect: none; fill: none; stroke: rgb(254, 203, 82); stroke-opacity: 1; stroke-width: 3px; opacity: 1;"/></g><g class="points"/><g class="text"/></g><g class="trace scatter trace354569" style="stroke-miterlimit: 2; opacity: 1;"><g class="fills"><g><path class="js-fill" d="M387.58,316.1L348.19,337.97L409.25,349.42L387.58,316.1Z" style="fill: rgb(244, 157, 126); fill-opacity: 0.545; stroke-width: 0;"/></g></g><g class="errorbars"/><g class="lines"><path class="js-line" d="M387.58,316.1L348.19,337.97L409.25,349.42L387.58,316.1" style="vector-effect: none; fill: none; stroke: rgb(99, 110, 250); stroke-opacity: 1; stroke-width: 3px; opacity: 1;"/></g><g class="points"/><g class="text"/></g><g class="trace scatter traceaf5d26" style="stroke-miterlimit: 2; opacity: 1;"><g class="fills"><g><path class="js-fill" d="M310.3,295.14L348.19,337.97L409.25,349.42L310.3,295.14Z" style="fill: rgb(244, 157, 126); fill-opacity: 0.545; stroke-width: 0;"/></g></g><g class="errorbars"/><g class="lines"><path class="js-line" d="M310.3,295.14L348.19,337.97L409.25,349.42L310.3,295.14" style="vector-effect: none; fill: none; stroke: rgb(239, 85, 59); stroke-opacity: 1; stroke-width: 3px; opacity: 1;"/></g><g class="points"/><g class="text"/></g><g class="trace scatter trace39f022" style="stroke-miterlimit: 2; opacity: 1;"><g class="fills"><g><path class="js-fill" d="M387.58,316.1L409.25,349.42L346.24,390.25L387.58,316.1Z" style="fill: rgb(244, 157, 126); fill-opacity: 0.545; stroke-width: 0;"/></g></g><g class="errorbars"/><g class="lines"><path class="js-line" d="M387.58,316.1L409.25,349.42L346.24,390.25L387.58,316.1" style="vector-effect: none; fill: none; stroke: rgb(0, 204, 150); stroke-opacity: 1; stroke-width: 3px; opacity: 1;"/></g><g class="points"/><g class="text"/></g><g class="trace scatter trace271a5d" style="stroke-miterlimit: 2; opacity: 1;"><g class="fills"><g><path class="js-fill" d="M310.3,295.14L409.25,349.42L346.24,390.25L310.3,295.14Z" style="fill: rgb(244, 157, 126); fill-opacity: 0.545; stroke-width: 0;"/></g></g><g class="errorbars"/><g class="lines"><path class="js-line" d="M310.3,295.14L409.25,349.42L346.24,390.25L310.3,295.14" style="vector-effect: none; fill: none; stroke: rgb(171, 99, 250); stroke-opacity: 1; stroke-width: 3px; opacity: 1;"/></g><g class="points"/><g class="text"/></g><g class="trace scatter tracea54c75" style="stroke-miterlimit: 2; opacity: 1;"><g class="fills"><g><path class="js-fill" d="M348.19,337.97L409.25,349.42L346.24,390.25L348.19,337.97Z" style="fill: rgb(244, 157, 126); fill-opacity: 0.545; stroke-width: 0;"/></g></g><g class="errorbars"/><g class="lines"><path class="js-line" d="M348.19,337.97L409.25,349.42L346.24,390.25L348.19,337.97" style="vector-effect: none; fill: none; stroke: rgb(255, 161, 90); stroke-opacity: 1; stroke-width: 3px; opacity: 1;"/></g><g class="points"/><g class="text"/></g><g class="trace scatter traceb211dc" style="stroke-miterlimit: 2; opacity: 1;"><g class="fills"><g><path class="js-fill" d="M387.58,316.1L312.52,364.58L409.25,349.42L387.58,316.1Z" style="fill: rgb(244, 157, 126); fill-opacity: 0.545; stroke-width: 0;"/></g></g><g class="errorbars"/><g class="lines"><path class="js-line" d="M387.58,316.1L312.52,364.58L409.25,349.42L387.58,316.1" style="vector-effect: none; fill: none; stroke: rgb(25, 211, 243); stroke-opacity: 1; stroke-width: 3px; opacity: 1;"/></g><g class="points"/><g class="text"/></g><g class="trace scatter trace222f0e" style="stroke-miterlimit: 2; opacity: 1;"><g class="fills"><g><path class="js-fill" d="M310.3,295.14L312.52,364.58L409.25,349.42L310.3,295.14Z" style="fill: rgb(244, 157, 126); fill-opacity: 0.545; stroke-width: 0;"/></g></g><g class="errorbars"/><g class="lines"><path class="js-line" d="M310.3,295.14L312.52,364.58L409.25,349.42L310.3,295.14" style="vector-effect: none; fill: none; stroke: rgb(255, 102, 146); stroke-opacity: 1; stroke-width: 3px; opacity: 1;"/></g><g class="points"/><g class="text"/></g><g class="trace scatter trace95d28e" style="stroke-miterlimit: 2; opacity: 1;"><g class="fills"><g><path class="js-fill" d="M348.19,337.97L312.52,364.58L409.25,349.42L348.19,337.97Z" style="fill: rgb(244, 157, 126); fill-opacity: 0.545; stroke-width: 0;"/></g></g><g class="errorbars"/><g class="lines"><path class="js-line" d="M348.19,337.97L312.52,364.58L409.25,349.42L348.19,337.97" style="vector-effect: none; fill: none; stroke: rgb(182, 232, 128); stroke-opacity: 1; stroke-width: 3px; opacity: 1;"/></g><g class="points"/><g class="text"/></g><g class="trace scatter trace4c52aa" style="stroke-miterlimit: 2; opacity: 1;"><g class="fills"><g><path class="js-fill" d="M312.52,364.58L409.25,349.42L346.24,390.25L312.52,364.58Z" style="fill: rgb(244, 157, 126); fill-opacity: 0.545; stroke-width: 0;"/></g></g><g class="errorbars"/><g class="lines"><path class="js-line" d="M312.52,364.58L409.25,349.42L346.24,390.25L312.52,364.58" style="vector-effect: none; fill: none; stroke: rgb(255, 151, 255); stroke-opacity: 1; stroke-width: 3px; opacity: 1;"/></g><g class="points"/><g class="text"/></g><g class="trace scatter trace7232e0" style="stroke-miterlimit: 2; opacity: 1;"><g class="fills"><g><path class="js-fill" d="M388.01,381.8L387.58,316.1L409.25,349.42L388.01,381.8Z" style="fill: rgb(244, 157, 126); fill-opacity: 0.545; stroke-width: 0;"/></g></g><g class="errorbars"/><g class="lines"><path class="js-line" d="M388.01,381.8L387.58,316.1L409.25,349.42L388.01,381.8" style="vector-effect: none; fill: none; stroke: rgb(254, 203, 82); stroke-opacity: 1; stroke-width: 3px; opacity: 1;"/></g><g class="points"/><g class="text"/></g><g class="trace scatter tracee75583" style="stroke-miterlimit: 2; opacity: 1;"><g class="fills"><g><path class="js-fill" d="M388.01,381.8L387.58,316.1L348.19,337.97L388.01,381.8Z" style="fill: rgb(244, 157, 126); fill-opacity: 0.545; stroke-width: 0;"/></g></g><g class="errorbars"/><g class="lines"><path class="js-line" d="M388.01,381.8L387.58,316.1L348.19,337.97L388.01,381.8" style="vector-effect: none; fill: none; stroke: rgb(99, 110, 250); stroke-opacity: 1; stroke-width: 3px; opacity: 1;"/></g><g class="points"/><g class="text"/></g><g class="trace scatter trace9cc6a7" style="stroke-miterlimit: 2; opacity: 1;"><g class="fills"><g><path class="js-fill" d="M388.01,381.8L348.19,337.97L409.25,349.42L388.01,381.8Z" style="fill: rgb(244, 157, 126); fill-opacity: 0.545; stroke-width: 0;"/></g></g><g class="errorbars"/><g class="lines"><path class="js-line" d="M388.01,381.8L348.19,337.97L409.25,349.42L388.01,381.8" style="vector-effect: none; fill: none; stroke: rgb(239, 85, 59); stroke-opacity: 1; stroke-width: 3px; opacity: 1;"/></g><g class="points"/><g class="text"/></g><g class="trace scatter trace1bba51" style="stroke-miterlimit: 2; opacity: 1;"><g class="fills"><g><path class="js-fill" d="M388.01,381.8L387.58,316.1L310.3,295.14L388.01,381.8Z" style="fill: rgb(244, 157, 126); fill-opacity: 0.545; stroke-width: 0;"/></g></g><g class="errorbars"/><g class="lines"><path class="js-line" d="M388.01,381.8L387.58,316.1L310.3,295.14L388.01,381.8" style="vector-effect: none; fill: none; stroke: rgb(0, 204, 150); stroke-opacity: 1; stroke-width: 3px; opacity: 1;"/></g><g class="points"/><g class="text"/></g><g class="trace scatter traced71716" style="stroke-miterlimit: 2; opacity: 1;"><g class="fills"><g><path class="js-fill" d="M388.01,381.8L310.3,295.14L388.01,381.8Z" style="fill: rgb(244, 157, 126); fill-opacity: 0.545; stroke-width: 0;"/></g></g><g class="errorbars"/><g class="lines"><path class="js-line" d="M388.01,381.8L310.3,295.14L388.01,381.8" style="vector-effect: none; fill: none; stroke: rgb(171, 99, 250); stroke-opacity: 1; stroke-width: 3px; opacity: 1;"/></g><g class="points"/><g class="text"/></g><g class="trace scatter trace1cd3b4" style="stroke-miterlimit: 2; opacity: 1;"><g class="fills"><g><path class="js-fill" d="M388.01,381.8L310.3,295.14L409.25,349.42L388.01,381.8Z" style="fill: rgb(244, 157, 126); fill-opacity: 0.545; stroke-width: 0;"/></g></g><g class="errorbars"/><g class="lines"><path class="js-line" d="M388.01,381.8L310.3,295.14L409.25,349.42L388.01,381.8" style="vector-effect: none; fill: none; stroke: rgb(255, 161, 90); stroke-opacity: 1; stroke-width: 3px; opacity: 1;"/></g><g class="points"/><g class="text"/></g><g class="trace scatter trace75a6b2" style="stroke-miterlimit: 2; opacity: 1;"><g class="fills"><g><path class="js-fill" d="M388.01,381.8L387.58,316.1L312.52,364.58L388.01,381.8Z" style="fill: rgb(244, 157, 126); fill-opacity: 0.545; stroke-width: 0;"/></g></g><g class="errorbars"/><g class="lines"><path class="js-line" d="M388.01,381.8L387.58,316.1L312.52,364.58L388.01,381.8" style="vector-effect: none; fill: none; stroke: rgb(25, 211, 243); stroke-opacity: 1; stroke-width: 3px; opacity: 1;"/></g><g class="points"/><g class="text"/></g><g class="trace scatter trace1ce156" style="stroke-miterlimit: 2; opacity: 1;"><g class="fills"><g><path class="js-fill" d="M388.01,381.8L310.3,295.14L312.52,364.58L388.01,381.8Z" style="fill: rgb(244, 157, 126); fill-opacity: 0.545; stroke-width: 0;"/></g></g><g class="errorbars"/><g class="lines"><path class="js-line" d="M388.01,381.8L310.3,295.14L312.52,364.58L388.01,381.8" style="vector-effect: none; fill: none; stroke: rgb(255, 102, 146); stroke-opacity: 1; stroke-width: 3px; opacity: 1;"/></g><g class="points"/><g class="text"/></g><g class="trace scatter trace4a4c9b" style="stroke-miterlimit: 2; opacity: 1;"><g class="fills"><g><path class="js-fill" d="M388.01,381.8L348.19,337.97L312.52,364.58L388.01,381.8Z" style="fill: rgb(244, 157, 126); fill-opacity: 0.545; stroke-width: 0;"/></g></g><g class="errorbars"/><g class="lines"><path class="js-line" d="M388.01,381.8L348.19,337.97L312.52,364.58L388.01,381.8" style="vector-effect: none; fill: none; stroke: rgb(182, 232, 128); stroke-opacity: 1; stroke-width: 3px; opacity: 1;"/></g><g class="points"/><g class="text"/></g><g class="trace scatter trace610c68" style="stroke-miterlimit: 2; opacity: 1;"><g class="fills"><g><path class="js-fill" d="M388.01,381.8L312.52,364.58L409.25,349.42L388.01,381.8Z" style="fill: rgb(244, 157, 126); fill-opacity: 0.545; stroke-width: 0;"/></g></g><g class="errorbars"/><g class="lines"><path class="js-line" d="M388.01,381.8L312.52,364.58L409.25,349.42L388.01,381.8" style="vector-effect: none; fill: none; stroke: rgb(255, 151, 255); stroke-opacity: 1; stroke-width: 3px; opacity: 1;"/></g><g class="points"/><g class="text"/></g><g class="trace scatter trace847248" style="stroke-miterlimit: 2; opacity: 1;"><g class="fills"><g><path class="js-fill" d="M388.01,381.8L387.58,316.1L346.24,390.25L388.01,381.8Z" style="fill: rgb(244, 157, 126); fill-opacity: 0.545; stroke-width: 0;"/></g></g><g class="errorbars"/><g class="lines"><path class="js-line" d="M388.01,381.8L387.58,316.1L346.24,390.25L388.01,381.8" style="vector-effect: none; fill: none; stroke: rgb(254, 203, 82); stroke-opacity: 1; stroke-width: 3px; opacity: 1;"/></g><g class="points"/><g class="text"/></g><g class="trace scatter trace02df64" style="stroke-miterlimit: 2; opacity: 1;"><g class="fills"><g><path class="js-fill" d="M388.01,381.8L310.3,295.14L346.24,390.25L388.01,381.8Z" style="fill: rgb(244, 157, 126); fill-opacity: 0.545; stroke-width: 0;"/></g></g><g class="errorbars"/><g class="lines"><path class="js-line" d="M388.01,381.8L310.3,295.14L346.24,390.25L388.01,381.8" style="vector-effect: none; fill: none; stroke: rgb(99, 110, 250); stroke-opacity: 1; stroke-width: 3px; opacity: 1;"/></g><g class="points"/><g class="text"/></g><g class="trace scatter trace5a0cf2" style="stroke-miterlimit: 2; opacity: 1;"><g class="fills"><g><path class="js-fill" d="M388.01,381.8L348.19,337.97L346.24,390.25L388.01,381.8Z" style="fill: rgb(244, 157, 126); fill-opacity: 0.545; stroke-width: 0;"/></g></g><g class="errorbars"/><g class="lines"><path class="js-line" d="M388.01,381.8L348.19,337.97L346.24,390.25L388.01,381.8" style="vector-effect: none; fill: none; stroke: rgb(239, 85, 59); stroke-opacity: 1; stroke-width: 3px; opacity: 1;"/></g><g class="points"/><g class="text"/></g><g class="trace scatter trace397cf8" style="stroke-miterlimit: 2; opacity: 1;"><g class="fills"><g><path class="js-fill" d="M388.01,381.8L312.52,364.58L346.24,390.25L388.01,381.8Z" style="fill: rgb(244, 157, 126); fill-opacity: 0.545; stroke-width: 0;"/></g></g><g class="errorbars"/><g class="lines"><path class="js-line" d="M388.01,381.8L312.52,364.58L346.24,390.25L388.01,381.8" style="vector-effect: none; fill: none; stroke: rgb(0, 204, 150); stroke-opacity: 1; stroke-width: 3px; opacity: 1;"/></g><g class="points"/><g class="text"/></g><g class="trace scatter trace0531a9" style="stroke-miterlimit: 2; opacity: 1;"><g class="fills"><g><path class="js-fill" d="M388.01,381.8L409.25,349.42L346.24,390.25L388.01,381.8Z" style="fill: rgb(244, 157, 126); fill-opacity: 0.545; stroke-width: 0;"/></g></g><g class="errorbars"/><g class="lines"><path class="js-line" d="M388.01,381.8L409.25,349.42L346.24,390.25L388.01,381.8" style="vector-effect: none; fill: none; stroke: rgb(171, 99, 250); stroke-opacity: 1; stroke-width: 3px; opacity: 1;"/></g><g class="points"/><g class="text"/></g><g class="trace scatter tracef8ab53" style="stroke-miterlimit: 2; opacity: 1;"><g class="fills"><g><path class="js-fill" d="M171.64,85.92L86.68,104.15L190.53,159.83L171.64,85.92Z" style="fill: rgb(244, 157, 126); fill-opacity: 0.545; stroke-width: 0;"/></g></g><g class="errorbars"/><g class="lines"><path class="js-line" d="M171.64,85.92L86.68,104.15L190.53,159.83L171.64,85.92" style="vector-effect: none; fill: none; stroke: rgb(255, 161, 90); stroke-opacity: 1; stroke-width: 3px; opacity: 1;"/></g><g class="points"/><g class="text"/></g><g class="trace scatter tracecc93f2" style="stroke-miterlimit: 2; opacity: 1;"><g class="fills"><g><path class="js-fill" d="M171.64,85.92L190.53,159.83L123.14,54.63L171.64,85.92Z" style="fill: rgb(244, 157, 126); fill-opacity: 0.545; stroke-width: 0;"/></g></g><g class="errorbars"/><g class="lines"><path class="js-line" d="M171.64,85.92L190.53,159.83L123.14,54.63L171.64,85.92" style="vector-effect: none; fill: none; stroke: rgb(25, 211, 243); stroke-opacity: 1; stroke-width: 3px; opacity: 1;"/></g><g class="points"/><g class="text"/></g><g class="trace scatter trace443612" style="stroke-miterlimit: 2; opacity: 1;"><g class="fills"/><g class="errorbars"/><g class="lines"/><g class="points"><path class="point" transform="translate(171.64,85.92)" d="M7,0A7,7 0 1,1 0,-7A7,7 0 0,1 7,0Z" style="opacity: 1; stroke-width: 0px; fill: rgb(255, 102, 146); fill-opacity: 1;"/><path class="point" transform="translate(86.68,104.15)" d="M7,0A7,7 0 1,1 0,-7A7,7 0 0,1 7,0Z" style="opacity: 1; stroke-width: 0px; fill: rgb(255, 102, 146); fill-opacity: 1;"/><path class="point" transform="translate(190.53,159.83)" d="M7,0A7,7 0 1,1 0,-7A7,7 0 0,1 7,0Z" style="opacity: 1; stroke-width: 0px; fill: rgb(255, 102, 146); fill-opacity: 1;"/><path class="point" transform="translate(123.14,54.63)" d="M7,0A7,7 0 1,1 0,-7A7,7 0 0,1 7,0Z" style="opacity: 1; stroke-width: 0px; fill: rgb(255, 102, 146); fill-opacity: 1;"/><path class="point" transform="translate(30.75,29.75)" d="M7,0A7,7 0 1,1 0,-7A7,7 0 0,1 7,0Z" style="opacity: 1; stroke-width: 0px; fill: rgb(255, 102, 146); fill-opacity: 1;"/><path class="point" transform="translate(388.01,381.8)" d="M7,0A7,7 0 1,1 0,-7A7,7 0 0,1 7,0Z" style="opacity: 1; stroke-width: 0px; fill: rgb(255, 102, 146); fill-opacity: 1;"/><path class="point" transform="translate(387.58,316.1)" d="M7,0A7,7 0 1,1 0,-7A7,7 0 0,1 7,0Z" style="opacity: 1; stroke-width: 0px; fill: rgb(255, 102, 146); fill-opacity: 1;"/><path class="point" transform="translate(310.3,295.14)" d="M7,0A7,7 0 1,1 0,-7A7,7 0 0,1 7,0Z" style="opacity: 1; stroke-width: 0px; fill: rgb(255, 102, 146); fill-opacity: 1;"/><path class="point" transform="translate(348.19,337.97)" d="M7,0A7,7 0 1,1 0,-7A7,7 0 0,1 7,0Z" style="opacity: 1; stroke-width: 0px; fill: rgb(255, 102, 146); fill-opacity: 1;"/><path class="point" transform="translate(312.52,364.58)" d="M7,0A7,7 0 1,1 0,-7A7,7 0 0,1 7,0Z" style="opacity: 1; stroke-width: 0px; fill: rgb(255, 102, 146); fill-opacity: 1;"/><path class="point" transform="translate(409.25,349.42)" d="M7,0A7,7 0 1,1 0,-7A7,7 0 0,1 7,0Z" style="opacity: 1; stroke-width: 0px; fill: rgb(255, 102, 146); fill-opacity: 1;"/><path class="point" transform="translate(346.24,390.25)" d="M7,0A7,7 0 1,1 0,-7A7,7 0 0,1 7,0Z" style="opacity: 1; stroke-width: 0px; fill: rgb(255, 102, 146); fill-opacity: 1;"/></g><g class="text"><g class="textpoint" transform="translate(0,-13.25)"><text x="171.64" y="85.92" text-anchor="middle" style="font-family: 'Open Sans', verdana, arial, sans-serif; font-size: 14px; fill: rgb(42, 63, 95); fill-opacity: 1; white-space: pre;">EC00690</text></g><g class="textpoint" transform="translate(0,-13.25)"><text x="86.68" y="104.15" text-anchor="middle" style="font-family: 'Open Sans', verdana, arial, sans-serif; font-size: 14px; fill: rgb(42, 63, 95); fill-opacity: 1; white-space: pre;">EC00668</text></g><g class="textpoint" transform="translate(0,-13.25)"><text x="190.53" y="159.83" text-anchor="middle" style="font-family: 'Open Sans', verdana, arial, sans-serif; font-size: 14px; fill: rgb(42, 63, 95); fill-opacity: 1; white-space: pre;">EC00609</text></g><g class="textpoint" transform="translate(0,-13.25)"><text x="123.14" y="54.63" text-anchor="middle" style="font-family: 'Open Sans', verdana, arial, sans-serif; font-size: 14px; fill: rgb(42, 63, 95); fill-opacity: 1; white-space: pre;">EC00701</text></g><g class="textpoint" transform="translate(0,-13.25)"><text x="30.75" y="29.75" text-anchor="middle" style="font-family: 'Open Sans', verdana, arial, sans-serif; font-size: 14px; fill: rgb(42, 63, 95); fill-opacity: 1; white-space: pre;">EC00678</text></g><g class="textpoint" transform="translate(0,-13.25)"><text x="388.01" y="381.8" text-anchor="middle" style="font-family: 'Open Sans', verdana, arial, sans-serif; font-size: 14px; fill: rgb(42, 63, 95); fill-opacity: 1; white-space: pre;">KLP00215</text></g><g class="textpoint" transform="translate(0,-13.25)"><text x="387.58" y="316.1" text-anchor="middle" style="font-family: 'Open Sans', verdana, arial, sans-serif; font-size: 14px; fill: rgb(42, 63, 95); fill-opacity: 1; white-space: pre;">KLP00221</text></g><g class="textpoint" transform="translate(0,-13.25)"><text x="310.3" y="295.14" text-anchor="middle" style="font-family: 'Open Sans', verdana, arial, sans-serif; font-size: 14px; fill: rgb(42, 63, 95); fill-opacity: 1; white-space: pre;">KLP00218</text></g><g class="textpoint" transform="translate(0,-13.25)"><text x="348.19" y="337.97" text-anchor="middle" style="font-family: 'Open Sans', verdana, arial, sans-serif; font-size: 14px; fill: rgb(42, 63, 95); fill-opacity: 1; white-space: pre;">KLP00213</text></g><g class="textpoint" transform="translate(0,-13.25)"><text x="312.52" y="364.58" text-anchor="middle" style="font-family: 'Open Sans', verdana, arial, sans-serif; font-size: 14px; fill: rgb(42, 63, 95); fill-opacity: 1; white-space: pre;">KLP00187</text></g><g class="textpoint" transform="translate(0,-13.25)"><text x="409.25" y="349.42" text-anchor="middle" style="font-family: 'Open Sans', verdana, arial, sans-serif; font-size: 14px; fill: rgb(42, 63, 95); fill-opacity: 1; white-space: pre;">KLP00149</text></g><g class="textpoint" transform="translate(0,-13.25)"><text x="346.24" y="390.25" text-anchor="middle" style="font-family: 'Open Sans', verdana, arial, sans-serif; font-size: 14px; fill: rgb(42, 63, 95); fill-opacity: 1; white-space: pre;">KLP00177</text></g></g></g></g></g><g class="overplot"/><path class="xlines-above crisp" d="M0,0" style="fill: none;"/><path class="ylines-above crisp" d="M0,0" style="fill: none;"/><g class="overlines-above"/><g class="xaxislayer-above"><g class="xtick"><text text-anchor="middle" x="0" y="537" transform="translate(92.34,0)" style="font-family: Arial, sans-serif; font-size: 16px; fill: rgb(42, 63, 95); fill-opacity: 1; white-space: pre; opacity: 1;">−1</text></g><g class="xtick"><text text-anchor="middle" x="0" y="537" style="font-family: Arial, sans-serif; font-size: 16px; fill: rgb(42, 63, 95); fill-opacity: 1; white-space: pre; opacity: 1;" transform="translate(215.54,0)">−0.5</text></g><g class="xtick"><text text-anchor="middle" x="0" y="537" style="font-family: Arial, sans-serif; font-size: 16px; fill: rgb(42, 63, 95); fill-opacity: 1; white-space: pre; opacity: 1;" transform="translate(338.74,0)">0</text></g><g class="xtick"><text text-anchor="middle" x="0" y="537" style="font-family: Arial, sans-serif; font-size: 16px; fill: rgb(42, 63, 95); fill-opacity: 1; white-space: pre; opacity: 1;" transform="translate(461.94,0)">0.5</text></g></g><g class="yaxislayer-above"><g class="ytick"><text text-anchor="end" x="79" y="5.6" transform="translate(0,443.82)" style="font-family: Arial, sans-serif; font-size: 16px; fill: rgb(42, 63, 95); fill-opacity: 1; white-space: pre; opacity: 1;">−0.5</text></g><g class="ytick"><text text-anchor="end" x="79" y="5.6" style="font-family: Arial, sans-serif; font-size: 16px; fill: rgb(42, 63, 95); fill-opacity: 1; white-space: pre; opacity: 1;" transform="translate(0,339.13)">0</text></g><g class="ytick"><text text-anchor="end" x="79" y="5.6" style="font-family: Arial, sans-serif; font-size: 16px; fill: rgb(42, 63, 95); fill-opacity: 1; white-space: pre; opacity: 1;" transform="translate(0,234.44)">0.5</text></g><g class="ytick"><text text-anchor="end" x="79" y="5.6" style="font-family: Arial, sans-serif; font-size: 16px; fill: rgb(42, 63, 95); fill-opacity: 1; white-space: pre; opacity: 1;" transform="translate(0,129.75)">1</text></g></g><g class="overaxes-above"/></g></g><g class="polarlayer"/><g class="smithlayer"/><g class="ternarylayer"/><g class="geolayer"/><g class="funnelarealayer"/><g class="pielayer"/><g class="iciclelayer"/><g class="treemaplayer"/><g class="sunburstlayer"/><g class="glimages"/><defs id="topdefs-5e06a2"><g class="clips"/></defs><g class="layer-above"><g class="imagelayer"/><g class="shapelayer"/></g><g class="infolayer"><g class="g-gtitle"/><g class="g-xtitle"/><g class="g-ytitle"/></g></svg>