<svg class="main-svg" xmlns="http://www.w3.org/2000/svg" xmlns:xlink="http://www.w3.org/1999/xlink" width="600" height="600" style="" viewBox="0 0 600 600"><rect x="0" y="0" width="600" height="600" style="fill: rgb(255, 255, 255); fill-opacity: 1;"/><defs id="defs-12e8d3"><g class="clips"><clipPath id="clip12e8d3xyplot" class="plotclip"><rect width="440" height="420"/></clipPath><clipPath class="axesclip" id="clip12e8d3x"><rect x="80" y="0" width="440" height="600"/></clipPath><clipPath class="axesclip" id="clip12e8d3y"><rect x="0" y="100" width="600" height="420"/></clipPath><clipPath class="axesclip" id="clip12e8d3xy"><rect x="80" y="100" width="440" height="420"/></clipPath></g><g class="gradients"/><g class="patterns"/></defs><g class="bglayer"><rect class="bg" x="80" y="100" width="440" height="420" style="fill: rgb(229, 236, 246); fill-opacity: 1; stroke-width: 0;"/></g><g class="layer-below"><g class="imagelayer"/><g class="shapelayer"/></g><g class="cartesianlayer"><g class="subplot xy"><g class="layer-subplot"><g class="shapelayer"/><g class="imagelayer"/></g><g class="minor-gridlayer"><g class="x"/><g class="y"/></g><g class="gridlayer"><g class="x"/><g class="y"/></g><g class="zerolinelayer"/><path class="xlines-below"/><path class="ylines-below"/><g class="overlines-below"/><g class="xaxislayer-below"/><g class="yaxislayer-below"/><g class="overaxes-below"/><g class="plot" transform="translate(80,100)" clip-path="url(#clip12e8d3xyplot)"><g class="scatterlayer mlayer"><g class="trace scatter tracee2b972" style="stroke-miterlimit: 2; opacity: 1;"><g class="fills"/><g class="errorbars"/><g class="lines"><path class="js-line" d="M216.25,29.75L220.68,176.85" style="vector-effect: none; fill: none; stroke: rgb(145, 179, 254); stroke-opacity: 1; stroke-width: 3px; opacity: 1;"/></g><g class="points"/><g class="text"/></g><g class="trace scatter trace7fe6d1" style="stroke-miterlimit: 2; opacity: 1;"><g class="fills"/><g class="errorbars"/><g class="lines"><path class="js-line" d="M216.25,29.75L275.81,80.42" style="vector-effect: none; fill: none; stroke: rgb(247, 179, 151); stroke-opacity: 1; stroke-width: 3px; opacity: 1;"/></g><g class="points"/><g class="text"/></g><g class="trace scatter trace8a26d3" style="stroke-miterlimit: 2; opacity: 1;"><g class="fills"/><g class="errorbars"/><g class="lines"><path class="js-line" d="M216.25,29.75L409.25,70.53" style="vector-effect: none; fill: none; stroke: rgb(246, 164, 134); stroke-opacity: 1; stroke-width: 3px; opacity: 1;"/></g><g class="points"/><g class="text"/></g><g class="trace scatter tracee2f66b" style="stroke-miterlimit: 2; opacity: 1;"><g class="fills"/><g class="errorbars"/><g class="lines"><path class="js-line" d="M275.81,80.42L220.68,176.85" style="vector-effect: none; fill: none; stroke: rgb(225, 218, 214); stroke-opacity: 1; stroke-width: 3px; opacity: 1;"/></g><g class="points"/><g class="text"/></g><g class="trace scatter trace3c0653" style="stroke-miterlimit: 2; opacity: 1;"><g class="fills"/><g class="errorbars"/><g class="lines"><path class="js-line" d="M275.81,80.42L395.56,163" style="vector-effect: none; fill: none; stroke: rgb(242, 199, 178); stroke-opacity: 1; stroke-width: 3px; opacity: 1;"/></g><g class="points"/><g class="text"/></g><g class="trace scatter trace21aecd" style="stroke-miterlimit: 2; opacity: 1;"><g class="fills"/><g class="errorbars"/><g class="lines"><path class="js-line" d="M220.68,176.85L409.25,70.53" style="vector-effect: none; fill: none; stroke: rgb(223, 100, 79); stroke-opacity: 1; stroke-width: 3px; opacity: 1;"/></g><g class="points"/><g class="text"/></g><g class="trace scatter traceb3bf28" style="stroke-miterlimit: 2; opacity: 1;"><g class="fills"/><g class="errorbars"/><g class="lines"><path class="js-line" d="M220.68,176.85L133.84,307.12" style="vector-effect: none; fill: none; stroke: rgb(209, 73, 62); stroke-opacity: 1; stroke-width: 3px; opacity: 1;"/></g><g class="points"/><g class="text"/></g><g class="trace scatter trace6629ad" style="stroke-miterlimit: 2; opacity: 1;"><g class="fills"/><g class="errorbars"/><g class="lines"><path class="js-line" d="M220.68,176.85L395.56,163" style="vector-effect: none; fill: none; stroke: rgb(198, 53, 52); stroke-opacity: 1; stroke-width: 3px; opacity: 1;"/></g><g class="points"/><g class="text"/></g><g class="trace scatter trace030ff0" style="stroke-miterlimit: 2; opacity: 1;"><g class="fills"/><g class="errorbars"/><g class="lines"><path class="js-line" d="M220.68,176.85L222.17,327.13" style="vector-effect: none; fill: none; stroke: rgb(179, 3, 38); stroke-opacity: 1; stroke-width: 3px; opacity: 1;"/></g><g class="points"/><g class="text"/></g><g class="trace scatter tracec0b662" style="stroke-miterlimit: 2; opacity: 1;"><g class="fills"/><g class="errorbars"/><g class="lines"><path class="js-line" d="M220.68,176.85L68.68,287.55" style="vector-effect: none; fill: none; stroke: rgb(179, 3, 38); stroke-opacity: 1; stroke-width: 3px; opacity: 1;"/></g><g class="points"/><g class="text"/></g><g class="trace scatter trace2002a1" style="stroke-miterlimit: 2; opacity: 1;"><g class="fills"/><g class="errorbars"/><g class="lines"><path class="js-line" d="M409.25,70.53L395.56,163" style="vector-effect: none; fill: none; stroke: rgb(244, 155, 124); stroke-opacity: 1; stroke-width: 3px; opacity: 1;"/></g><g class="points"/><g class="text"/></g><g class="trace scatter tracef957a0" style="stroke-miterlimit: 2; opacity: 1;"><g class="fills"/><g class="errorbars"/><g class="lines"><path class="js-line" d="M395.56,163L257.05,291.62" style="vector-effect: none; fill: none; stroke: rgb(179, 3, 38); stroke-opacity: 1; stroke-width: 3px; opacity: 1;"/></g><g class="points"/><g class="text"/></g><g class="trace scatter tracee86c4a" style="stroke-miterlimit: 2; opacity: 1;"><g class="fills"/><g class="errorbars"/><g class="lines"><path class="js-line" d="M257.05,291.62L109.41,390.25" style="vector-effect: none; fill: none; stroke: rgb(206, 217, 235); stroke-opacity: 1; stroke-width: 3px; opacity: 1;"/></g><g class="points"/><g class="text"/></g><g class="trace scatter tracef6492d" style="stroke-miterlimit: 2; opacity: 1;"><g class="fills"/><g class="errorbars"/><g class="lines"><path class="js-line" d="M257.05,291.62L212.82,386.04" style="vector-effect: none; fill: none; stroke: rgb(216, 219, 225); stroke-opacity: 1; stroke-width: 3px; opacity: 1;"/></g><g class="points"/><g class="text"/></g><g class="trace scatter tracedb58fe" style="stroke-miterlimit: 2; opacity: 1;"><g class="fills"/><g class="errorbars"/><g class="lines"><path class="js-line" d="M257.05,291.62L222.17,327.13" style="vector-effect: none; fill: none; stroke: rgb(225, 218, 214); stroke-opacity: 1; stroke-width: 3px; opacity: 1;"/></g><g class="points"/><g class="text"/></g><g class="trace scatter traced2d5ef" style="stroke-miterlimit: 2; opacity: 1;"><g class="fills"/><g class="errorbars"/><g class="lines"><path class="js-line" d="M257.05,291.62L133.84,307.12" style="vector-effect: none; fill: none; stroke: rgb(229, 216, 208); stroke-opacity: 1; stroke-width: 3px; opacity: 1;"/></g><g class="points"/><g class="text"/></g><g class="trace scatter trace9d84ca" style="stroke-miterlimit: 2; opacity: 1;"><g class="fills"/><g class="errorbars"/><g class="lines"><path class="js-line" d="M257.05,291.62L68.68,287.55" style="vector-effect: none; fill: none; stroke: rgb(237, 207, 192); stroke-opacity: 1; stroke-width: 3px; opacity: 1;"/></g><g class="points"/><g class="text"/></g><g class="trace scatter trace2dd7bf" style="stroke-miterlimit: 2; opacity: 1;"><g class="fills"/><g class="errorbars"/><g class="lines"><path class="js-line" d="M257.05,291.62L30.75,359.31" style="vector-effect: none; fill: none; stroke: rgb(242, 199, 178); stroke-opacity: 1; stroke-width: 3px; opacity: 1;"/></g><g class="points"/><g class="text"/></g><g class="trace scatter tracec64984" style="stroke-miterlimit: 2; opacity: 1;"><g class="fills"/><g class="errorbars"/><g class="lines"><path class="js-line" d="M109.41,390.25L222.17,327.13" style="vector-effect: none; fill: none; stroke: rgb(107, 141, 240); stroke-opacity: 1; stroke-width: 3px; opacity: 1;"/></g><g class="points"/><g class="text"/></g><g class="trace scatter trace36b5f7" style="stroke-miterlimit: 2; opacity: 1;"><g class="fills"/><g class="errorbars"/><g class="lines"><path class="js-line" d="M109.41,390.25L68.68,287.55" style="vector-effect: none; fill: none; stroke: rgb(133, 168, 251); stroke-opacity: 1; stroke-width: 3px; opacity: 1;"/></g><g class="points"/><g class="text"/></g><g class="trace scatter trace411527" style="stroke-miterlimit: 2; opacity: 1;"><g class="fills"/><g class="errorbars"/><g class="lines"><path class="js-line" d="M109.41,390.25L133.84,307.12" style="vector-effect: none; fill: none; stroke: rgb(135, 170, 252); stroke-opacity: 1; stroke-width: 3px; opacity: 1;"/></g><g class="points"/><g class="text"/></g><g class="trace scatter trace2bcb47" style="stroke-miterlimit: 2; opacity: 1;"><g class="fills"/><g class="errorbars"/><g class="lines"><path class="js-line" d="M109.41,390.25L212.82,386.04" style="vector-effect: none; fill: none; stroke: rgb(180, 205, 250); stroke-opacity: 1; stroke-width: 3px; opacity: 1;"/></g><g class="points"/><g class="text"/></g><g class="trace scatter trace2b6bfe" style="stroke-miterlimit: 2; opacity: 1;"><g class="fills"/><g class="errorbars"/><g class="lines"><path class="js-line" d="M109.41,390.25L30.75,359.31" style="vector-effect: none; fill: none; stroke: rgb(180, 205, 250); stroke-opacity: 1; stroke-width: 3px; opacity: 1;"/></g><g class="points"/><g class="text"/></g><g class="trace scatter trace91cb55" style="stroke-miterlimit: 2; opacity: 1;"><g class="fills"/><g class="errorbars"/><g class="lines"><path class="js-line" d="M133.84,307.12L222.17,327.13" style="vector-effect: none; fill: none; stroke: rgb(107, 141, 240); stroke-opacity: 1; stroke-width: 3px; opacity: 1;"/></g><g class="points"/><g class="text"/></g><g class="trace scatter trace71f965" style="stroke-miterlimit: 2; opacity: 1;"><g class="fills"/><g class="errorbars"/><g class="lines"><path class="js-line" d="M133.84,307.12L68.68,287.55" style="vector-effect: none; fill: none; stroke: rgb(135, 170, 252); stroke-opacity: 1; stroke-width: 3px; opacity: 1;"/></g><g class="points"/><g class="text"/></g><g class="trace scatter tracea9ccfd" style="stroke-miterlimit: 2; opacity: 1;"><g class="fills"/><g class="errorbars"/><g class="lines"><path class="js-line" d="M133.84,307.12L30.75,359.31" style="vector-effect: none; fill: none; stroke: rgb(151, 184, 254); stroke-opacity: 1; stroke-width: 3px; opacity: 1;"/></g><g class="points"/><g class="text"/></g><g class="trace scatter trace9e84d7" style="stroke-miterlimit: 2; opacity: 1;"><g class="fills"/><g class="errorbars"/><g class="lines"><path class="js-line" d="M133.84,307.12L212.82,386.04" style="vector-effect: none; fill: none; stroke: rgb(180, 205, 250); stroke-opacity: 1; stroke-width: 3px; opacity: 1;"/></g><g class="points"/><g class="text"/></g><g class="trace scatter trace1b30cd" style="stroke-miterlimit: 2; opacity: 1;"><g class="fills"/><g class="errorbars"/><g class="lines"><path class="js-line" d="M222.17,327.13L68.68,287.55" style="vector-effect: none; fill: none; stroke: rgb(107, 141, 240); stroke-opacity: 1; stroke-width: 3px; opacity: 1;"/></g><g class="points"/><g class="text"/></g><g class="trace scatter trace18e312" style="stroke-miterlimit: 2; opacity: 1;"><g class="fills"/><g class="errorbars"/><g class="lines"><path class="js-line" d="M222.17,327.13L30.75,359.31" style="vector-effect: none; fill: none; stroke: rgb(142, 177, 253); stroke-opacity: 1; stroke-width: 3px; opacity: 1;"/></g><g class="points"/><g class="text"/></g><g class="trace scatter trace215c2c" style="stroke-miterlimit: 2; opacity: 1;"><g class="fills"/><g class="errorbars"/><g class="lines"><path class="js-line" d="M222.17,327.13L212.82,386.04" style="vector-effect: none; fill: none; stroke: rgb(185, 208, 248); stroke-opacity: 1; stroke-width: 3px; opacity: 1;"/></g><g class="points"/><g class="text"/></g><g class="trace scatter trace588e17" style="stroke-miterlimit: 2; opacity: 1;"><g class="fills"/><g class="errorbars"/><g class="lines"><path class="js-line" d="M68.68,287.55L30.75,359.31" style="vector-effect: none; fill: none; stroke: rgb(145, 179, 254); stroke-opacity: 1; stroke-width: 3px; opacity: 1;"/></g><g class="points"/><g class="text"/></g><g class="trace scatter tracee24acd" style="stroke-miterlimit: 2; opacity: 1;"><g class="fills"/><g class="errorbars"/><g class="lines"><path class="js-line" d="M68.68,287.55L212.82,386.04" style="vector-effect: none; fill: none; stroke: rgb(214, 219, 228); stroke-opacity: 1; stroke-width: 3px; opacity: 1;"/></g><g class="points"/><g class="text"/></g><g class="trace scatter trace6d6eee" style="stroke-miterlimit: 2; opacity: 1;"><g class="fills"/><g class="errorbars"/><g class="lines"><path class="js-line" d="M212.82,386.04L30.75,359.31" style="vector-effect: none; fill: none; stroke: rgb(206, 217, 235); stroke-opacity: 1; stroke-width: 3px; opacity: 1;"/></g><g class="points"/><g class="text"/></g><g class="trace scatter tracecb5d32" style="stroke-miterlimit: 2; opacity: 1;"><g class="fills"><g><path class="js-fill" d="M109.41,390.25L222.17,327.13L68.68,287.55L109.41,390.25Z" style="fill: rgb(244, 157, 126); fill-opacity: 0.545; stroke-width: 0;"/></g></g><g class="errorbars"/><g class="lines"><path class="js-line" d="M109.41,390.25L222.17,327.13L68.68,287.55L109.41,390.25" style="vector-effect: none; fill: none; stroke: rgb(171, 99, 250); stroke-opacity: 1; stroke-width: 3px; opacity: 1;"/></g><g class="points"/><g class="text"/></g><g class="trace scatter traceb3e163" style="stroke-miterlimit: 2; opacity: 1;"><g class="fills"><g><path class="js-fill" d="M109.41,390.25L133.84,307.12L222.17,327.13L109.41,390.25Z" style="fill: rgb(244, 157, 126); fill-opacity: 0.545; stroke-width: 0;"/></g></g><g class="errorbars"/><g class="lines"><path class="js-line" d="M109.41,390.25L133.84,307.12L222.17,327.13L109.41,390.25" style="vector-effect: none; fill: none; stroke: rgb(255, 161, 90); stroke-opacity: 1; stroke-width: 3px; opacity: 1;"/></g><g class="points"/><g class="text"/></g><g class="trace scatter trace7328b2" style="stroke-miterlimit: 2; opacity: 1;"><g class="fills"><g><path class="js-fill" d="M109.41,390.25L133.84,307.12L68.68,287.55L109.41,390.25Z" style="fill: rgb(244, 157, 126); fill-opacity: 0.545; stroke-width: 0;"/></g></g><g class="errorbars"/><g class="lines"><path class="js-line" d="M109.41,390.25L133.84,307.12L68.68,287.55L109.41,390.25" style="vector-effect: none; fill: none; stroke: rgb(25, 211, 243); stroke-opacity: 1; stroke-width: 3px; opacity: 1;"/></g><g class="points"/><g class="text"/></g><g class="trace scatter traced0ab5a" style="stroke-miterlimit: 2; opacity: 1;"><g class="fills"><g><path class="js-fill" d="M133.84,307.12L222.17,327.13L68.68,287.55L133.84,307.12Z" style="fill: rgb(244, 157, 126); fill-opacity: 0.545; stroke-width: 0;"/></g></g><g class="errorbars"/><g class="lines"><path class="js-line" d="M133.84,307.12L222.17,327.13L68.68,287.55L133.84,307.12" style="vector-effect: none; fill: none; stroke: rgb(255, 102, 146); stroke-opacity: 1; stroke-width: 3px; opacity: 1;"/></g><g class="points"/><g class="text"/></g><g class="trace scatter trace0ca869" style="stroke-miterlimit: 2; opacity: 1;"><g class="fills"><g><path class="js-fill" d="M222.17,327.13L68.68,287.55L30.75,359.31L222.17,327.13Z" style="fill: rgb(244, 157, 126); fill-opacity: 0.545; stroke-width: 0;"/></g></g><g class="errorbars"/><g class="lines"><path class="js-line" d="M222.17,327.13L68.68,287.55L30.75,359.31L222.17,327.13" style="vector-effect: none; fill: none; stroke: rgb(182, 232, 128); stroke-opacity: 1; stroke-width: 3px; opacity: 1;"/></g><g class="points"/><g class="text"/></g><g class="trace scatter trace4669c7" style="stroke-miterlimit: 2; opacity: 1;"><g class="fills"><g><path class="js-fill" d="M133.84,307.12L222.17,327.13L30.75,359.31L133.84,307.12Z" style="fill: rgb(244, 157, 126); fill-opacity: 0.545; stroke-width: 0;"/></g></g><g class="errorbars"/><g class="lines"><path class="js-line" d="M133.84,307.12L222.17,327.13L30.75,359.31L133.84,307.12" style="vector-effect: none; fill: none; stroke: rgb(255, 151, 255); stroke-opacity: 1; stroke-width: 3px; opacity: 1;"/></g><g class="points"/><g class="text"/></g><g class="trace scatter trace512bc4" style="stroke-miterlimit: 2; opacity: 1;"><g class="fills"><g><path class="js-fill" d="M133.84,307.12L68.68,287.55L30.75,359.31L133.84,307.12Z" style="fill: rgb(244, 157, 126); fill-opacity: 0.545; stroke-width: 0;"/></g></g><g class="errorbars"/><g class="lines"><path class="js-line" d="M133.84,307.12L68.68,287.55L30.75,359.31L133.84,307.12" style="vector-effect: none; fill: none; stroke: rgb(254, 203, 82); stroke-opacity: 1; stroke-width: 3px; opacity: 1;"/></g><g class="points"/><g class="text"/></g><g class="trace scatter tracee77de6" style="stroke-miterlimit: 2; opacity: 1;"><g class="fills"><g><path class="js-fill" d="M109.41,390.25L133.84,307.12L212.82,386.04L109.41,390.25Z" style="fill: rgb(244, 157, 126); fill-opacity: 0.545; stroke-width: 0;"/></g></g><g class="errorbars"/><g class="lines"><path class="js-line" d="M109.41,390.25L133.84,307.12L212.82,386.04L109.41,390.25" style="vector-effect: none; fill: none; stroke: rgb(99, 110, 250); stroke-opacity: 1; stroke-width: 3px; opacity: 1;"/></g><g class="points"/><g class="text"/></g><g class="trace scatter traced1e83c" style="stroke-miterlimit: 2; opacity: 1;"><g class="fills"><g><path class="js-fill" d="M109.41,390.25L133.84,307.12L30.75,359.31L109.41,390.25Z" style="fill: rgb(244, 157, 126); fill-opacity: 0.545; stroke-width: 0;"/></g></g><g class="errorbars"/><g class="lines"><path class="js-line" d="M109.41,390.25L133.84,307.12L30.75,359.31L109.41,390.25" style="vector-effect: none; fill: none; stroke: rgb(239, 85, 59); stroke-opacity: 1; stroke-width: 3px; opacity: 1;"/></g><g class="points"/><g class="text"/></g><g class="trace scatter trace00d577" style="stroke-miterlimit: 2; opacity: 1;"><g class="fills"><g><path class="js-fill" d="M109.41,390.25L222.17,327.13L30.75,359.31L109.41,390.25Z" style="fill: rgb(244, 157, 126); fill-opacity: 0.545; stroke-width: 0;"/></g></g><g class="errorbars"/><g class="lines"><path class="js-line" d="M109.41,390.25L222.17,327.13L30.75,359.31L109.41,390.25" style="vector-effect: none; fill: none; stroke: rgb(0, 204, 150); stroke-opacity: 1; stroke-width: 3px; opacity: 1;"/></g><g class="points"/><g class="text"/></g><g class="trace scatter trace2e742e" style="stroke-miterlimit: 2; opacity: 1;"><g class="fills"><g><path class="js-fill" d="M109.41,390.25L68.68,287.55L30.75,359.31L109.41,390.25Z" style="fill: rgb(244, 157, 126); fill-opacity: 0.545; stroke-width: 0;"/></g></g><g class="errorbars"/><g class="lines"><path class="js-line" d="M109.41,390.25L68.68,287.55L30.75,359.31L109.41,390.25" style="vector-effect: none; fill: none; stroke: rgb(171, 99, 250); stroke-opacity: 1; stroke-width: 3px; opacity: 1;"/></g><g class="points"/><g class="text"/></g><g class="trace scatter trace3ea682" style="stroke-miterlimit: 2; opacity: 1;"><g class="fills"><g><path class="js-fill" d="M109.41,390.25L222.17,327.13L212.82,386.04L109.41,390.25Z" style="fill: rgb(244, 157, 126); fill-opacity: 0.545; stroke-width: 0;"/></g></g><g class="errorbars"/><g class="lines"><path class="js-line" d="M109.41,390.25L222.17,327.13L212.82,386.04L109.41,390.25" style="vector-effect: none; fill: none; stroke: rgb(255, 161, 90); stroke-opacity: 1; stroke-width: 3px; opacity: 1;"/></g><g class="points"/><g class="text"/></g><g class="trace scatter trace876f2d" style="stroke-miterlimit: 2; opacity: 1;"><g class="fills"><g><path class="js-fill" d="M133.84,307.12L222.17,327.13L212.82,386.04L133.84,307.12Z" style="fill: rgb(244, 157, 126); fill-opacity: 0.545; stroke-width: 0;"/></g></g><g class="errorbars"/><g class="lines"><path class="js-line" d="M133.84,307.12L222.17,327.13L212.82,386.04L133.84,307.12" style="vector-effect: none; fill: none; stroke: rgb(25, 211, 243); stroke-opacity: 1; stroke-width: 3px; opacity: 1;"/></g><g class="points"/><g class="text"/></g><g class="trace scatter traceebac7c" style="stroke-miterlimit: 2; opacity: 1;"><g class="fills"><g><path class="js-fill" d="M109.41,390.25L212.82,386.04L30.75,359.31L109.41,390.25Z" style="fill: rgb(244, 157, 126); fill-opacity: 0.545; stroke-width: 0;"/></g></g><g class="errorbars"/><g class="lines"><path class="js-line" d="M109.41,390.25L212.82,386.04L30.75,359.31L109.41,390.25" style="vector-effect: none; fill: none; stroke: rgb(255, 102, 146); stroke-opacity: 1; stroke-width: 3px; opacity: 1;"/></g><g class="points"/><g class="text"/></g><g class="trace scatter trace67a3ec" style="stroke-miterlimit: 2; opacity: 1;"><g class="fills"><g><path class="js-fill" d="M133.84,307.12L212.82,386.04L30.75,359.31L133.84,307.12Z" style="fill: rgb(244, 157, 126); fill-opacity: 0.545; stroke-width: 0;"/></g></g><g class="errorbars"/><g class="lines"><path class="js-line" d="M133.84,307.12L212.82,386.04L30.75,359.31L133.84,307.12" style="vector-effect: none; fill: none; stroke: rgb(182, 232, 128); stroke-opacity: 1; stroke-width: 3px; opacity: 1;"/></g><g class="points"/><g class="text"/></g><g class="trace scatter trace4918ed" style="stroke-miterlimit: 2; opacity: 1;"><g class="fills"><g><path class="js-fill" d="M222.17,327.13L212.82,386.04L30.75,359.31L222.17,327.13Z" style="fill: rgb(244, 157, 126); fill-opacity: 0.545; stroke-width: 0;"/></g></g><g class="errorbars"/><g class="lines"><path class="js-line" d="M222.17,327.13L212.82,386.04L30.75,359.31L222.17,327.13" style="vector-effect: none; fill: none; stroke: rgb(255, 151, 255); stroke-opacity: 1; stroke-width: 3px; opacity: 1;"/></g><g class="points"/><g class="text"/></g><g class="trace scatter tracee55aae" style="stroke-miterlimit: 2; opacity: 1;"><g class="fills"><g><path class="js-fill" d="M109.41,390.25L68.68,287.55L212.82,386.04L109.41,390.25Z" style="fill: rgb(244, 157, 126); fill-opacity: 0.545; stroke-width: 0;"/></g></g><g class="errorbars"/><g class="lines"><path class="js-line" d="M109.41,390.25L68.68,287.55L212.82,386.04L109.41,390.25" style="vector-effect: none; fill: none; stroke: rgb(254, 203, 82); stroke-opacity: 1; stroke-width: 3px; opacity: 1;"/></g><g class="points"/><g class="text"/></g><g class="trace scatter trace14e3ff" style="stroke-miterlimit: 2; opacity: 1;"><g class="fills"><g><path class="js-fill" d="M133.84,307.12L68.68,287.55L212.82,386.04L133.84,307.12Z" style="fill: rgb(244, 157, 126); fill-opacity: 0.545; stroke-width: 0;"/></g></g><g class="errorbars"/><g class="lines"><path class="js-line" d="M133.84,307.12L68.68,287.55L212.82,386.04L133.84,307.12" style="vector-effect: none; fill: none; stroke: rgb(99, 110, 250); stroke-opacity: 1; stroke-width: 3px; opacity: 1;"/></g><g class="points"/><g class="text"/></g><g class="trace scatter trace139c0f" style="stroke-miterlimit: 2; opacity: 1;"><g class="fills"><g><path class="js-fill" d="M222.17,327.13L68.68,287.55L212.82,386.04L222.17,327.13Z" style="fill: rgb(244, 157, 126); fill-opacity: 0.545; stroke-width: 0;"/></g></g><g class="errorbars"/><g class="lines"><path class="js-line" d="M222.17,327.13L68.68,287.55L212.82,386.04L222.17,327.13" style="vector-effect: none; fill: none; stroke: rgb(239, 85, 59); stroke-opacity: 1; stroke-width: 3px; opacity: 1;"/></g><g class="points"/><g class="text"/></g><g class="trace scatter trace247fa6" style="stroke-miterlimit: 2; opacity: 1;"><g class="fills"><g><path class="js-fill" d="M68.68,287.55L212.82,386.04L30.75,359.31L68.68,287.55Z" style="fill: rgb(244, 157, 126); fill-opacity: 0.545; stroke-width: 0;"/></g></g><g class="errorbars"/><g class="lines"><path class="js-line" d="M68.68,287.55L212.82,386.04L30.75,359.31L68.68,287.55" style="vector-effect: none; fill: none; stroke: rgb(0, 204, 150); stroke-opacity: 1; stroke-width: 3px; opacity: 1;"/></g><g class="points"/><g class="text"/></g><g class="trace scatter trace64f178" style="stroke-miterlimit: 2; opacity: 1;"><g class="fills"><g><path class="js-fill" d="M257.05,291.62L109.41,390.25L212.82,386.04L257.05,291.62Z" style="fill: rgb(244, 157, 126); fill-opacity: 0.545; stroke-width: 0;"/></g></g><g class="errorbars"/><g class="lines"><path class="js-line" d="M257.05,291.62L109.41,390.25L212.82,386.04L257.05,291.62" style="vector-effect: none; fill: none; stroke: rgb(171, 99, 250); stroke-opacity: 1; stroke-width: 3px; opacity: 1;"/></g><g class="points"/><g class="text"/></g><g class="trace scatter trace876fad" style="stroke-miterlimit: 2; opacity: 1;"><g class="fills"><g><path class="js-fill" d="M257.05,291.62L109.41,390.25L222.17,327.13L257.05,291.62Z" style="fill: rgb(244, 157, 126); fill-opacity: 0.545; stroke-width: 0;"/></g></g><g class="errorbars"/><g class="lines"><path class="js-line" d="M257.05,291.62L109.41,390.25L222.17,327.13L257.05,291.62" style="vector-effect: none; fill: none; stroke: rgb(255, 161, 90); stroke-opacity: 1; stroke-width: 3px; opacity: 1;"/></g><g class="points"/><g class="text"/></g><g class="trace scatter trace26f389" style="stroke-miterlimit: 2; opacity: 1;"><g class="fills"><g><path class="js-fill" d="M257.05,291.62L222.17,327.13L212.82,386.04L257.05,291.62Z" style="fill: rgb(244, 157, 126); fill-opacity: 0.545; stroke-width: 0;"/></g></g><g class="errorbars"/><g class="lines"><path class="js-line" d="M257.05,291.62L222.17,327.13L212.82,386.04L257.05,291.62" style="vector-effect: none; fill: none; stroke: rgb(25, 211, 243); stroke-opacity: 1; stroke-width: 3px; opacity: 1;"/></g><g class="points"/><g class="text"/></g><g class="trace scatter tracedac082" style="stroke-miterlimit: 2; opacity: 1;"><g class="fills"><g><path class="js-fill" d="M257.05,291.62L109.41,390.25L133.84,307.12L257.05,291.62Z" style="fill: rgb(244, 157, 126); fill-opacity: 0.545; stroke-width: 0;"/></g></g><g class="errorbars"/><g class="lines"><path class="js-line" d="M257.05,291.62L109.41,390.25L133.84,307.12L257.05,291.62" style="vector-effect: none; fill: none; stroke: rgb(255, 102, 146); stroke-opacity: 1; stroke-width: 3px; opacity: 1;"/></g><g class="points"/><g class="text"/></g><g class="trace scatter tracec9ad22" style="stroke-miterlimit: 2; opacity: 1;"><g class="fills"><g><path class="js-fill" d="M257.05,291.62L133.84,307.12L222.17,327.13L257.05,291.62Z" style="fill: rgb(244, 157, 126); fill-opacity: 0.545; stroke-width: 0;"/></g></g><g class="errorbars"/><g class="lines"><path class="js-line" d="M257.05,291.62L133.84,307.12L222.17,327.13L257.05,291.62" style="vector-effect: none; fill: none; stroke: rgb(182, 232, 128); stroke-opacity: 1; stroke-width: 3px; opacity: 1;"/></g><g class="points"/><g class="text"/></g><g class="trace scatter trace800453" style="stroke-miterlimit: 2; opacity: 1;"><g class="fills"><g><path class="js-fill" d="M257.05,291.62L133.84,307.12L212.82,386.04L257.05,291.62Z" style="fill: rgb(244, 157, 126); fill-opacity: 0.545; stroke-width: 0;"/></g></g><g class="errorbars"/><g class="lines"><path class="js-line" d="M257.05,291.62L133.84,307.12L212.82,386.04L257.05,291.62" style="vector-effect: none; fill: none; stroke: rgb(255, 151, 255); stroke-opacity: 1; stroke-width: 3px; opacity: 1;"/></g><g class="points"/><g class="text"/></g><g class="trace scatter tracec84517" style="stroke-miterlimit: 2; opacity: 1;"><g class="fills"><g><path class="js-fill" d="M257.05,291.62L109.41,390.25L68.68,287.55L257.05,291.62Z" style="fill: rgb(244, 157, 126); fill-opacity: 0.545; stroke-width: 0;"/></g></g><g class="errorbars"/><g class="lines"><path class="js-line" d="M257.05,291.62L109.41,390.25L68.68,287.55L257.05,291.62" style="vector-effect: none; fill: none; stroke: rgb(254, 203, 82); stroke-opacity: 1; stroke-width: 3px; opacity: 1;"/></g><g class="points"/><g class="text"/></g><g class="trace scatter trace2528e2" style="stroke-miterlimit: 2; opacity: 1;"><g class="fills"><g><path class="js-fill" d="M257.05,291.62L133.84,307.12L68.68,287.55L257.05,291.62Z" style="fill: rgb(244, 157, 126); fill-opacity: 0.545; stroke-width: 0;"/></g></g><g class="errorbars"/><g class="lines"><path class="js-line" d="M257.05,291.62L133.84,307.12L68.68,287.55L257.05,291.62" style="vector-effect: none; fill: none; stroke: rgb(99, 110, 250); stroke-opacity: 1; stroke-width: 3px; opacity: 1;"/></g><g class="points"/><g class="text"/></g><g class="trace scatter tracebff684" style="stroke-miterlimit: 2; opacity: 1;"><g class="fills"><g><path class="js-fill" d="M257.05,291.62L222.17,327.13L68.68,287.55L257.05,291.62Z" style="fill: rgb(244, 157, 126); fill-opacity: 0.545; stroke-width: 0;"/></g></g><g class="errorbars"/><g class="lines"><path class="js-line" d="M257.05,291.62L222.17,327.13L68.68,287.55L257.05,291.62" style="vector-effect: none; fill: none; stroke: rgb(239, 85, 59); stroke-opacity: 1; stroke-width: 3px; opacity: 1;"/></g><g class="points"/><g class="text"/></g><g class="trace scatter traceccee3b" style="stroke-miterlimit: 2; opacity: 1;"><g class="fills"><g><path class="js-fill" d="M257.05,291.62L68.68,287.55L212.82,386.04L257.05,291.62Z" style="fill: rgb(244, 157, 126); fill-opacity: 0.545; stroke-width: 0;"/></g></g><g class="errorbars"/><g class="lines"><path class="js-line" d="M257.05,291.62L68.68,287.55L212.82,386.04L257.05,291.62" style="vector-effect: none; fill: none; stroke: rgb(0, 204, 150); stroke-opacity: 1; stroke-width: 3px; opacity: 1;"/></g><g class="points"/><g class="text"/></g><g class="trace scatter trace7cf748" style="stroke-miterlimit: 2; opacity: 1;"><g class="fills"><g><path class="js-fill" d="M257.05,291.62L109.41,390.25L30.75,359.31L257.05,291.62Z" style="fill: rgb(244, 157, 126); fill-opacity: 0.545; stroke-width: 0;"/></g></g><g class="errorbars"/><g class="lines"><path class="js-line" d="M257.05,291.62L109.41,390.25L30.75,359.31L257.05,291.62" style="vector-effect: none; fill: none; stroke: rgb(171, 99, 250); stroke-opacity: 1; stroke-width: 3px; opacity: 1;"/></g><g class="points"/><g class="text"/></g><g class="trace scatter trace8e906b" style="stroke-miterlimit: 2; opacity: 1;"><g class="fills"><g><path class="js-fill" d="M257.05,291.62L133.84,307.12L30.75,359.31L257.05,291.62Z" style="fill: rgb(244, 157, 126); fill-opacity: 0.545; stroke-width: 0;"/></g></g><g class="errorbars"/><g class="lines"><path class="js-line" d="M257.05,291.62L133.84,307.12L30.75,359.31L257.05,291.62" style="vector-effect: none; fill: none; stroke: rgb(255, 161, 90); stroke-opacity: 1; stroke-width: 3px; opacity: 1;"/></g><g class="points"/><g class="text"/></g><g class="trace scatter trace386f5a" style="stroke-miterlimit: 2; opacity: 1;"><g class="fills"><g><path class="js-fill" d="M257.05,291.62L222.17,327.13L30.75,359.31L257.05,291.62Z" style="fill: rgb(244, 157, 126); fill-opacity: 0.545; stroke-width: 0;"/></g></g><g class="errorbars"/><g class="lines"><path class="js-line" d="M257.05,291.62L222.17,327.13L30.75,359.31L257.05,291.62" style="vector-effect: none; fill: none; stroke: rgb(25, 211, 243); stroke-opacity: 1; stroke-width: 3px; opacity: 1;"/></g><g class="points"/><g class="text"/></g><g class="trace scatter trace0d5439" style="stroke-miterlimit: 2; opacity: 1;"><g class="fills"><g><path class="js-fill" d="M257.05,291.62L68.68,287.55L30.75,359.31L257.05,291.62Z" style="fill: rgb(244, 157, 126); fill-opacity: 0.545; stroke-width: 0;"/></g></g><g class="errorbars"/><g class="lines"><path class="js-line" d="M257.05,291.62L68.68,287.55L30.75,359.31L257.05,291.62" style="vector-effect: none; fill: none; stroke: rgb(255, 102, 146); stroke-opacity: 1; stroke-width: 3px; opacity: 1;"/></g><g class="points"/><g class="text"/></g><g class="trace scatter tracee16a71" style="stroke-miterlimit: 2; opacity: 1;"><g class="fills"><g><path class="js-fill" d="M257.05,291.62L212.82,386.04L30.75,359.31L257.05,291.62Z" style="fill: rgb(244, 157, 126); fill-opacity: 0.545; stroke-width: 0;"/></g></g><g class="errorbars"/><g class="lines"><path class="js-line" d="M257.05,291.62L212.82,386.04L30.75,359.31L257.05,291.62" style="vector-effect: none; fill: none; stroke: rgb(182, 232, 128); stroke-opacity: 1; stroke-width: 3px; opacity: 1;"/></g><g class="points"/><g class="text"/></g><g class="trace scatter trace66caab" style="stroke-miterlimit: 2; opacity: 1;"><g class="fills"><g><path class="js-fill" d="M216.25,29.75L275.81,80.42L220.68,176.85L216.25,29.75Z" style="fill: rgb(244, 157, 126); fill-opacity: 0.545; stroke-width: 0;"/></g></g><g class="errorbars"/><g class="lines"><path class="js-line" d="M216.25,29.75L275.81,80.42L220.68,176.85L216.25,29.75" style="vector-effect: none; fill: none; stroke: rgb(255, 151, 255); stroke-opacity: 1; stroke-width: 3px; opacity: 1;"/></g><g class="points"/><g class="text"/></g><g class="trace scatter trace2bd1b7" style="stroke-miterlimit: 2; opacity: 1;"><g class="fills"><g><path class="js-fill" d="M216.25,29.75L220.68,176.85L409.25,70.53L216.25,29.75Z" style="fill: rgb(244, 157, 126); fill-opacity: 0.545; stroke-width: 0;"/></g></g><g class="errorbars"/><g class="lines"><path class="js-line" d="M216.25,29.75L220.68,176.85L409.25,70.53L216.25,29.75" style="vector-effect: none; fill: none; stroke: rgb(254, 203, 82); stroke-opacity: 1; stroke-width: 3px; opacity: 1;"/></g><g class="points"/><g class="text"/></g><g class="trace scatter tracef90598" style="stroke-miterlimit: 2; opacity: 1;"><g class="fills"><g><path class="js-fill" d="M275.81,80.42L220.68,176.85L395.56,163L275.81,80.42Z" style="fill: rgb(244, 157, 126); fill-opacity: 0.545; stroke-width: 0;"/></g></g><g class="errorbars"/><g class="lines"><path class="js-line" d="M275.81,80.42L220.68,176.85L395.56,163L275.81,80.42" style="vector-effect: none; fill: none; stroke: rgb(99, 110, 250); stroke-opacity: 1; stroke-width: 3px; opacity: 1;"/></g><g class="points"/><g class="text"/></g><g class="trace scatter trace855de0" style="stroke-miterlimit: 2; opacity: 1;"><g class="fills"><g><path class="js-fill" d="M220.68,176.85L409.25,70.53L395.56,163L220.68,176.85Z" style="fill: rgb(244, 157, 126); fill-opacity: 0.545; stroke-width: 0;"/></g></g><g class="errorbars"/><g class="lines"><path class="js-line" d="M220.68,176.85L409.25,70.53L395.56,163L220.68,176.85" style="vector-effect: none; fill: none; stroke: rgb(239, 85, 59); stroke-opacity: 1; stroke-width: 3px; opacity: 1;"/></g><g class="points"/><g class="text"/></g><g class="trace scatter tracedb62ab" style="stroke-miterlimit: 2; opacity: 1;"><g class="fills"><g><path class="js-fill" d="M220.68,176.85L133.84,307.12L222.17,327.13L220.68,176.85Z" style="fill: rgb(244, 157, 126); fill-opacity: 0.545; stroke-width: 0;"/></g></g><g class="errorbars"/><g class="lines"><path class="js-line" d="M220.68,176.85L133.84,307.12L222.17,327.13L220.68,176.85" style="vector-effect: none; fill: none; stroke: rgb(0, 204, 150); stroke-opacity: 1; stroke-width: 3px; opacity: 1;"/></g><g class="points"/><g class="text"/></g><g class="trace scatter trace7334e3" style="stroke-miterlimit: 2; opacity: 1;"><g class="fills"><g><path class="js-fill" d="M220.68,176.85L133.84,307.12L68.68,287.55L220.68,176.85Z" style="fill: rgb(244, 157, 126); fill-opacity: 0.545; stroke-width: 0;"/></g></g><g class="errorbars"/><g class="lines"><path class="js-line" d="M220.68,176.85L133.84,307.12L68.68,287.55L220.68,176.85" style="vector-effect: none; fill: none; stroke: rgb(171, 99, 250); stroke-opacity: 1; stroke-width: 3px; opacity: 1;"/></g><g class="points"/><g class="text"/></g><g class="trace scatter tracec3f494" style="stroke-miterlimit: 2; opacity: 1;"><g class="fills"><g><path class="js-fill" d="M220.68,176.85L222.17,327.13L68.68,287.55L220.68,176.85Z" style="fill: rgb(244, 157, 126); fill-opacity: 0.545; stroke-width: 0;"/></g></g><g class="errorbars"/><g class="lines"><path class="js-line" d="M220.68,176.85L222.17,327.13L68.68,287.55L220.68,176.85" style="vector-effect: none; fill: none; stroke: rgb(255, 161, 90); stroke-opacity: 1; stroke-width: 3px; opacity: 1;"/></g><g class="points"/><g class="text"/></g><g class="trace scatter trace5fe460" style="stroke-miterlimit: 2; opacity: 1;"><g class="fills"/><g class="errorbars"/><g class="lines"/><g class="points"><path class="point" transform="translate(216.25,29.75)" d="M7,0A7,7 0 1,1 0,-7A7,7 0 0,1 7,0Z" style="opacity: 1; stroke-width: 0px; fill: rgb(25, 211, 243); fill-opacity: 1;"/><path class="point" transform="translate(275.81,80.42)" d="M7,0A7,7 0 1,1 0,-7A7,7 0 0,1 7,0Z" style="opacity: 1; stroke-width: 0px; fill: rgb(25, 211, 243); fill-opacity: 1;"/><path class="point" transform="translate(220.68,176.85)" d="M7,0A7,7 0 1,1 0,-7A7,7 0 0,1 7,0Z" style="opacity: 1; stroke-width: 0px; fill: rgb(25, 211, 243); fill-opacity: 1;"/><path class="point" transform="translate(409.25,70.53)" d="M7,0A7,7 0 1,1 0,-7A7,7 0 0,1 7,0Z" style="opacity: 1; stroke-width: 0px; fill: rgb(25, 211, 243); fill-opacity: 1;"/><path class="point" transform="translate(395.56,163)" d="M7,0A7,7 0 1,1 0,-7A7,7 0 0,1 7,0Z" style="opacity: 1; stroke-width: 0px; fill: rgb(25, 211, 243); fill-opacity: 1;"/><path class="point" transform="translate(257.05,291.62)" d="M7,0A7,7 0 1,1 0,-7A7,7 0 0,1 7,0Z" style="opacity: 1; stroke-width: 0px; fill: rgb(25, 211, 243); fill-opacity: 1;"/><path class="point" transform="translate(109.41,390.25)" d="M7,0A7,7 0 1,1 0,-7A7,7 0 0,1 7,0Z" style="opacity: 1; stroke-width: 0px; fill: rgb(25, 211, 243); fill-opacity: 1;"/><path class="point" transform="translate(133.84,307.12)" d="M7,0A7,7 0 1,1 0,-7A7,7 0 0,1 7,0Z" style="opacity: 1; stroke-width: 0px; fill: rgb(25, 211, 243); fill-opacity: 1;"/><path class="point" transform="translate(222.17,327.13)" d="M7,0A7,7 0 1,1 0,-7A7,7 0 0,1 7,0Z" style="opacity: 1; stroke-width: 0px; fill: rgb(25, 211, 243); fill-opacity: 1;"/><path class="point" transform="translate(68.68,287.55)" d="M7,0A7,7 0 1,1 0,-7A7,7 0 0,1 7,0Z" style="opacity: 1; stroke-width: 0px; fill: rgb(25, 211, 243); fill-opacity: 1;"/><path class="point" transform="translate(212.82,386.04)" d="M7,0A7,7 0 1,1 0,-7A7,7 0 0,1 7,0Z" style="opacity: 1; stroke-width: 0px; fill: rgb(25, 211, 243); fill-opacity: 1;"/><path class="point" transform="translate(30.75,359.31)" d="M7,0A7,7 0 1,1 0,-7A7,7 0 0,1 7,0Z" style="opacity: 1; stroke-width: 0px; fill: rgb(25, 211, 243); fill-opacity: 1;"/></g><g class="text"><g class="textpoint" transform="translate(0,-13.25)"><text x="216.25" y="29.75" text-anchor="middle" style="font-family: 'Open Sans', verdana, arial, sans-serif; font-size: 14px; fill: rgb(42, 63, 95); fill-opacity: 1; white-space: pre;">EC00690</text></g><g class="textpoint" transform="translate(0,-13.25)"><text x="275.81" y="80.42" text-anchor="middle" style="font-family: 'Open Sans', verdana, arial, sans-serif; font-size: 14px; fill: rgb(42, 63, 95); fill-opacity: 1; white-space: pre;">EC00668</text></g><g class="textpoint" transform="translate(0,-13.25)"><text x="220.68" y="176.85" text-anchor="middle" style="font-family: 'Open Sans', verdana, arial, sans-serif; font-size: 14px; fill: rgb(42, 63, 95); fill-opacity: 1; white-space: pre;">EC00609</text></g><g class="textpoint" transform="translate(0,-13.25)"><text x="409.25" y="70.53" text-anchor="middle" style="font-family: 'Open Sans', verdana, arial, sans-serif; font-size: 14px; fill: rgb(42, 63, 95); fill-opacity: 1; white-space: pre;">EC00701</text></g><g class="textpoint" transform="translate(0,-13.25)"><text x="395.56" y="163" text-anchor="middle" style="font-family: 'Open Sans', verdana, arial, sans-serif; font-size: 14px; fill: rgb(42, 63, 95); fill-opacity: 1; white-space: pre;">EC00678</text></g><g class="textpoint" transform="translate(0,-13.25)"><text x="257.05" y="291.62" text-anchor="middle" style="font-family: 'Open Sans', verdana, arial, sans-serif; font-size: 14px; fill: rgb(42, 63, 95); fill-opacity: 1; white-space: pre;">KLP00215</text></g><g class="textpoint" transform="translate(0,-13.25)"><text x="109.41" y="390.25" text-anchor="middle" style="font-family: 'Open Sans', verdana, arial, sans-serif; font-size: 14px; fill: rgb(42, 63, 95); fill-opacity: 1; white-space: pre;">KLP00221</text></g><g class="textpoint" transform="translate(0,-13.25)"><text x="133.84" y="307.12" text-anchor="middle" style="font-family: 'Open Sans', verdana, arial, sans-serif; font-size: 14px; fill: rgb(42, 63, 95); fill-opacity: 1; white-space: pre;">KLP00218</text></g><g class="textpoint" transform="translate(0,-13.25)"><text x="222.17" y="327.13" text-anchor="middle" style="font-family: 'Open Sans', verdana, arial, sans-serif; font-size: 14px; fill: rgb(42, 63, 95); fill-opacity: 1; white-space: pre;">KLP00213</text></g><g class="textpoint" transform="translate(0,-13.25)"><text x="68.68" y="287.55" text-anchor="middle" style="font-family: 'Open Sans', verdana, arial, sans-serif; font-size: 14px; fill: rgb(42, 63, 95); fill-opacity: 1; white-space: pre;">KLP00187</text></g><g class="textpoint" transform="translate(0,-13.25)"><text x="212.82" y="386.04" text-anchor="middle" style="font-family: 'Open Sans', verdana, arial, sans-serif; font-size: 14px; fill: rgb(42, 63, 95); fill-opacity: 1; white-space: pre;">KLP00149</text></g><g class="textpoint" transform="translate(0,-13.25)"><text x="30.75" y="359.31" text-anchor="middle" style="font-family: 'Open Sans', verdana, arial, sans-serif; font-size: 14px; fill: rgb(42, 63, 95); fill-opacity: 1; white-space: pre;">KLP00177</text></g></g></g></g></g><g class="overplot"/><path class="xlines-above crisp" d="M0,0" style="fill: none;"/><path class="ylines-above crisp" d="M0,0" style="fill: none;"/><g class="overlines-above"/><g class="xaxislayer-above"><g class="xtick"><text text-anchor="middle" x="0" y="537" transform="translate(110.89,0)" style="font-family: Arial, sans-serif; font-size: 16px; fill: rgb(42, 63, 95); fill-opacity: 1; white-space: pre; opacity: 1;">−0.4</text></g><g class="xtick"><text text-anchor="middle" x="0" y="537" style="font-family: Arial, sans-serif; font-size: 16px; fill: rgb(42, 63, 95); fill-opacity: 1; white-space: pre; opacity: 1;" transform="translate(201.79000000000002,0)">−0.2</text></g><g class="xtick"><text text-anchor="middle" x="0" y="537" style="font-family: Arial, sans-serif; font-size: 16px; fill: rgb(42, 63, 95); fill-opacity: 1; white-space: pre; opacity: 1;" transform="translate(292.69,0)">0</text></g><g class="xtick"><text text-anchor="middle" x="0" y="537" style="font-family: Arial, sans-serif; font-size: 16px; fill: rgb(42, 63, 95); fill-opacity: 1; white-space: pre; opacity: 1;" transform="translate(383.59,0)">0.2</text></g><g class="xtick"><text text-anchor="middle" x="0" y="537" style="font-family: Arial, sans-serif; font-size: 16px; fill: rgb(42, 63, 95); fill-opacity: 1; white-space: pre; opacity: 1;" transform="translate(474.49,0)">0.4</text></g></g><g class="yaxislayer-above"><g class="ytick"><text text-anchor="end" x="79" y="5.6" transform="translate(0,443.82)" style="font-family: Arial, sans-serif; font-size: 16px; fill: rgb(42, 63, 95); fill-opacity: 1; white-space: pre; opacity: 1;">−0.5</text></g><g class="ytick"><text text-anchor="end" x="79" y="5.6" style="font-family: Arial, sans-serif; font-size: 16px; fill: rgb(42, 63, 95); fill-opacity: 1; white-space: pre; opacity: 1;" transform="translate(0,339.13)">0</text></g><g class="ytick"><text text-anchor="end" x="79" y="5.6" style="font-family: Arial, sans-serif; font-size: 16px; fill: rgb(42, 63, 95); fill-opacity: 1; white-space: pre; opacity: 1;" transform="translate(0,234.44)">0.5</text></g><g class="ytick"><text text-anchor="end" x="79" y="5.6" style="font-family: Arial, sans-serif; font-size: 16px; fill: rgb(42, 63, 95); fill-opacity: 1; white-space: pre; opacity: 1;" transform="translate(0,129.75)">1</text></g></g><g class="overaxes-above"/></g></g><g class="polarlayer"/><g class="smithlayer"/><g class="ternarylayer"/><g class="geolayer"/><g class="funnelarealayer"/><g class="pielayer"/><g class="iciclelayer"/><g class="treemaplayer"/><g class="sunburstlayer"/><g class="glimages"/><defs id="topdefs-12e8d3"><g class="clips"/></defs><g class="layer-above"><g class="imagelayer"/><g class="shapelayer"/></g><g class="infolayer"><g class="g-gtitle"/><g class="g-xtitle"/><g class="g-ytitle"/></g></svg>