<svg class="main-svg" xmlns="http://www.w3.org/2000/svg" xmlns:xlink="http://www.w3.org/1999/xlink" width="600" height="600" style="" viewBox="0 0 600 600"><rect x="0" y="0" width="600" height="600" style="fill: rgb(255, 255, 255); fill-opacity: 1;"/><defs id="defs-b4d003"><g class="clips"><clipPath id="clipb4d003xyplot" class="plotclip"><rect width="440" height="420"/></clipPath><clipPath class="axesclip" id="clipb4d003x"><rect x="80" y="0" width="440" height="600"/></clipPath><clipPath class="axesclip" id="clipb4d003y"><rect x="0" y="100" width="600" height="420"/></clipPath><clipPath class="axesclip" id="clipb4d003xy"><rect x="80" y="100" width="440" height="420"/></clipPath></g><g class="gradients"/><g class="patterns"/></defs><g class="bglayer"><rect class="bg" x="80" y="100" width="440" height="420" style="fill: rgb(229, 236, 246); fill-opacity: 1; stroke-width: 0;"/></g><g class="layer-below"><g class="imagelayer"/><g class="shapelayer"/></g><g class="cartesianlayer"><g class="subplot xy"><g class="layer-subplot"><g class="shapelayer"/><g class="imagelayer"/></g><g class="minor-gridlayer"><g class="x"/><g class="y"/></g><g class="gridlayer"><g class="x"/><g class="y"/></g><g class="zerolinelayer"/><path class="xlines-below"/><path class="ylines-below"/><g class="overlines-below"/><g class="xaxislayer-below"/><g class="yaxislayer-below"/><g class="overaxes-below"/><g class="plot" transform="translate(80,100)" clip-path="url(#clipb4d003xyplot)"><g class="scatterlayer mlayer"><g class="trace scatter trace43027d" style="stroke-miterlimit: 2; opacity: 1;"><g class="fills"/><g class="errorbars"/><g class="lines"><path class="js-line" d="M211.12,317.14L197.79,252.4" style="vector-effect: none; fill: none; stroke: rgb(153, 186, 254); stroke-opacity: 1; stroke-width: 3px; opacity: 1;"/></g><g class="points"/><g class="text"/></g><g class="trace scatter trace30b75e" style="stroke-miterlimit: 2; opacity: 1;"><g class="fills"/><g class="errorbars"/><g class="lines"><path class="js-line" d="M211.12,317.14L75.5,318.87" style="vector-effect: none; fill: none; stroke: rgb(244, 157, 126); stroke-opacity: 1; stroke-width: 3px; opacity: 1;"/></g><g class="points"/><g class="text"/></g><g class="trace scatter trace8bf6f1" style="stroke-miterlimit: 2; opacity: 1;"><g class="fills"/><g class="errorbars"/><g class="lines"><path class="js-line" d="M211.12,317.14L153.79,351.6" style="vector-effect: none; fill: none; stroke: rgb(239, 137, 108); stroke-opacity: 1; stroke-width: 3px; opacity: 1;"/></g><g class="points"/><g class="text"/></g><g class="trace scatter traceb2f920" style="stroke-miterlimit: 2; opacity: 1;"><g class="fills"/><g class="errorbars"/><g class="lines"><path class="js-line" d="M75.5,318.87L197.79,252.4" style="vector-effect: none; fill: none; stroke: rgb(236, 210, 196); stroke-opacity: 1; stroke-width: 3px; opacity: 1;"/></g><g class="points"/><g class="text"/></g><g class="trace scatter tracec58ccd" style="stroke-miterlimit: 2; opacity: 1;"><g class="fills"/><g class="errorbars"/><g class="lines"><path class="js-line" d="M75.5,318.87L30.75,390.25" style="vector-effect: none; fill: none; stroke: rgb(246, 183, 156); stroke-opacity: 1; stroke-width: 3px; opacity: 1;"/></g><g class="points"/><g class="text"/></g><g class="trace scatter trace47742c" style="stroke-miterlimit: 2; opacity: 1;"><g class="fills"/><g class="errorbars"/><g class="lines"><path class="js-line" d="M197.79,252.4L153.79,351.6" style="vector-effect: none; fill: none; stroke: rgb(200, 56, 53); stroke-opacity: 1; stroke-width: 3px; opacity: 1;"/></g><g class="points"/><g class="text"/></g><g class="trace scatter trace384682" style="stroke-miterlimit: 2; opacity: 1;"><g class="fills"/><g class="errorbars"/><g class="lines"><path class="js-line" d="M197.79,252.4L297.24,119.1" style="vector-effect: none; fill: none; stroke: rgb(179, 3, 38); stroke-opacity: 1; stroke-width: 3px; opacity: 1;"/></g><g class="points"/><g class="text"/></g><g class="trace scatter tracec2c1f5" style="stroke-miterlimit: 2; opacity: 1;"><g class="fills"/><g class="errorbars"/><g class="lines"><path class="js-line" d="M153.79,351.6L30.75,390.25" style="vector-effect: none; fill: none; stroke: rgb(234, 125, 97); stroke-opacity: 1; stroke-width: 3px; opacity: 1;"/></g><g class="points"/><g class="text"/></g><g class="trace scatter trace285274" style="stroke-miterlimit: 2; opacity: 1;"><g class="fills"/><g class="errorbars"/><g class="lines"><path class="js-line" d="M402.51,46.73L266.07,67.95" style="vector-effect: none; fill: none; stroke: rgb(218, 220, 223); stroke-opacity: 1; stroke-width: 3px; opacity: 1;"/></g><g class="points"/><g class="text"/></g><g class="trace scatter trace011ed2" style="stroke-miterlimit: 2; opacity: 1;"><g class="fills"/><g class="errorbars"/><g class="lines"><path class="js-line" d="M402.51,46.73L409.25,79.65" style="vector-effect: none; fill: none; stroke: rgb(228, 216, 209); stroke-opacity: 1; stroke-width: 3px; opacity: 1;"/></g><g class="points"/><g class="text"/></g><g class="trace scatter tracef3f8ee" style="stroke-miterlimit: 2; opacity: 1;"><g class="fills"/><g class="errorbars"/><g class="lines"><path class="js-line" d="M402.51,46.73L339.88,78" style="vector-effect: none; fill: none; stroke: rgb(236, 210, 196); stroke-opacity: 1; stroke-width: 3px; opacity: 1;"/></g><g class="points"/><g class="text"/></g><g class="trace scatter tracecdec57" style="stroke-miterlimit: 2; opacity: 1;"><g class="fills"/><g class="errorbars"/><g class="lines"><path class="js-line" d="M402.51,46.73L297.24,119.1" style="vector-effect: none; fill: none; stroke: rgb(239, 206, 188); stroke-opacity: 1; stroke-width: 3px; opacity: 1;"/></g><g class="points"/><g class="text"/></g><g class="trace scatter trace556da0" style="stroke-miterlimit: 2; opacity: 1;"><g class="fills"/><g class="errorbars"/><g class="lines"><path class="js-line" d="M402.51,46.73L280.61,37.92" style="vector-effect: none; fill: none; stroke: rgb(244, 194, 170); stroke-opacity: 1; stroke-width: 3px; opacity: 1;"/></g><g class="points"/><g class="text"/></g><g class="trace scatter tracee2b22d" style="stroke-miterlimit: 2; opacity: 1;"><g class="fills"/><g class="errorbars"/><g class="lines"><path class="js-line" d="M402.51,46.73L346.06,29.75" style="vector-effect: none; fill: none; stroke: rgb(246, 183, 156); stroke-opacity: 1; stroke-width: 3px; opacity: 1;"/></g><g class="points"/><g class="text"/></g><g class="trace scatter tracee80d0b" style="stroke-miterlimit: 2; opacity: 1;"><g class="fills"/><g class="errorbars"/><g class="lines"><path class="js-line" d="M266.07,67.95L339.88,78" style="vector-effect: none; fill: none; stroke: rgb(111, 145, 242); stroke-opacity: 1; stroke-width: 3px; opacity: 1;"/></g><g class="points"/><g class="text"/></g><g class="trace scatter trace6d9dee" style="stroke-miterlimit: 2; opacity: 1;"><g class="fills"/><g class="errorbars"/><g class="lines"><path class="js-line" d="M266.07,67.95L280.61,37.92" style="vector-effect: none; fill: none; stroke: rgb(141, 175, 253); stroke-opacity: 1; stroke-width: 3px; opacity: 1;"/></g><g class="points"/><g class="text"/></g><g class="trace scatter trace585d46" style="stroke-miterlimit: 2; opacity: 1;"><g class="fills"/><g class="errorbars"/><g class="lines"><path class="js-line" d="M266.07,67.95L297.24,119.1" style="vector-effect: none; fill: none; stroke: rgb(144, 178, 254); stroke-opacity: 1; stroke-width: 3px; opacity: 1;"/></g><g class="points"/><g class="text"/></g><g class="trace scatter tracedf48d7" style="stroke-miterlimit: 2; opacity: 1;"><g class="fills"/><g class="errorbars"/><g class="lines"><path class="js-line" d="M266.07,67.95L409.25,79.65" style="vector-effect: none; fill: none; stroke: rgb(190, 211, 245); stroke-opacity: 1; stroke-width: 3px; opacity: 1;"/></g><g class="points"/><g class="text"/></g><g class="trace scatter traceb557ec" style="stroke-miterlimit: 2; opacity: 1;"><g class="fills"/><g class="errorbars"/><g class="lines"><path class="js-line" d="M266.07,67.95L346.06,29.75" style="vector-effect: none; fill: none; stroke: rgb(190, 211, 245); stroke-opacity: 1; stroke-width: 3px; opacity: 1;"/></g><g class="points"/><g class="text"/></g><g class="trace scatter trace323c8c" style="stroke-miterlimit: 2; opacity: 1;"><g class="fills"/><g class="errorbars"/><g class="lines"><path class="js-line" d="M297.24,119.1L339.88,78" style="vector-effect: none; fill: none; stroke: rgb(111, 145, 242); stroke-opacity: 1; stroke-width: 3px; opacity: 1;"/></g><g class="points"/><g class="text"/></g><g class="trace scatter trace326735" style="stroke-miterlimit: 2; opacity: 1;"><g class="fills"/><g class="errorbars"/><g class="lines"><path class="js-line" d="M297.24,119.1L280.61,37.92" style="vector-effect: none; fill: none; stroke: rgb(144, 178, 254); stroke-opacity: 1; stroke-width: 3px; opacity: 1;"/></g><g class="points"/><g class="text"/></g><g class="trace scatter trace6eacfa" style="stroke-miterlimit: 2; opacity: 1;"><g class="fills"/><g class="errorbars"/><g class="lines"><path class="js-line" d="M297.24,119.1L346.06,29.75" style="vector-effect: none; fill: none; stroke: rgb(160, 191, 254); stroke-opacity: 1; stroke-width: 3px; opacity: 1;"/></g><g class="points"/><g class="text"/></g><g class="trace scatter trace529063" style="stroke-miterlimit: 2; opacity: 1;"><g class="fills"/><g class="errorbars"/><g class="lines"><path class="js-line" d="M297.24,119.1L409.25,79.65" style="vector-effect: none; fill: none; stroke: rgb(190, 211, 245); stroke-opacity: 1; stroke-width: 3px; opacity: 1;"/></g><g class="points"/><g class="text"/></g><g class="trace scatter trace96460e" style="stroke-miterlimit: 2; opacity: 1;"><g class="fills"/><g class="errorbars"/><g class="lines"><path class="js-line" d="M339.88,78L280.61,37.92" style="vector-effect: none; fill: none; stroke: rgb(111, 145, 242); stroke-opacity: 1; stroke-width: 3px; opacity: 1;"/></g><g class="points"/><g class="text"/></g><g class="trace scatter trace0291a3" style="stroke-miterlimit: 2; opacity: 1;"><g class="fills"/><g class="errorbars"/><g class="lines"><path class="js-line" d="M339.88,78L346.06,29.75" style="vector-effect: none; fill: none; stroke: rgb(151, 184, 254); stroke-opacity: 1; stroke-width: 3px; opacity: 1;"/></g><g class="points"/><g class="text"/></g><g class="trace scatter tracea46efe" style="stroke-miterlimit: 2; opacity: 1;"><g class="fills"/><g class="errorbars"/><g class="lines"><path class="js-line" d="M339.88,78L409.25,79.65" style="vector-effect: none; fill: none; stroke: rgb(197, 213, 242); stroke-opacity: 1; stroke-width: 3px; opacity: 1;"/></g><g class="points"/><g class="text"/></g><g class="trace scatter trace170ffe" style="stroke-miterlimit: 2; opacity: 1;"><g class="fills"/><g class="errorbars"/><g class="lines"><path class="js-line" d="M280.61,37.92L346.06,29.75" style="vector-effect: none; fill: none; stroke: rgb(153, 186, 254); stroke-opacity: 1; stroke-width: 3px; opacity: 1;"/></g><g class="points"/><g class="text"/></g><g class="trace scatter trace7cc143" style="stroke-miterlimit: 2; opacity: 1;"><g class="fills"/><g class="errorbars"/><g class="lines"><path class="js-line" d="M280.61,37.92L409.25,79.65" style="vector-effect: none; fill: none; stroke: rgb(225, 218, 214); stroke-opacity: 1; stroke-width: 3px; opacity: 1;"/></g><g class="points"/><g class="text"/></g><g class="trace scatter tracea72961" style="stroke-miterlimit: 2; opacity: 1;"><g class="fills"/><g class="errorbars"/><g class="lines"><path class="js-line" d="M409.25,79.65L346.06,29.75" style="vector-effect: none; fill: none; stroke: rgb(218, 220, 223); stroke-opacity: 1; stroke-width: 3px; opacity: 1;"/></g><g class="points"/><g class="text"/></g><g class="trace scatter tracedb54ab" style="stroke-miterlimit: 2; opacity: 1;"><g class="fills"><g><path class="js-fill" d="M266.07,67.95L339.88,78L280.61,37.92L266.07,67.95Z" style="fill: rgb(244, 157, 126); fill-opacity: 0.545; stroke-width: 0;"/></g></g><g class="errorbars"/><g class="lines"><path class="js-line" d="M266.07,67.95L339.88,78L280.61,37.92L266.07,67.95" style="vector-effect: none; fill: none; stroke: rgb(254, 203, 82); stroke-opacity: 1; stroke-width: 3px; opacity: 1;"/></g><g class="points"/><g class="text"/></g><g class="trace scatter traced8d97f" style="stroke-miterlimit: 2; opacity: 1;"><g class="fills"><g><path class="js-fill" d="M266.07,67.95L297.24,119.1L339.88,78L266.07,67.95Z" style="fill: rgb(244, 157, 126); fill-opacity: 0.545; stroke-width: 0;"/></g></g><g class="errorbars"/><g class="lines"><path class="js-line" d="M266.07,67.95L297.24,119.1L339.88,78L266.07,67.95" style="vector-effect: none; fill: none; stroke: rgb(99, 110, 250); stroke-opacity: 1; stroke-width: 3px; opacity: 1;"/></g><g class="points"/><g class="text"/></g><g class="trace scatter trace89e471" style="stroke-miterlimit: 2; opacity: 1;"><g class="fills"><g><path class="js-fill" d="M266.07,67.95L297.24,119.1L280.61,37.92L266.07,67.95Z" style="fill: rgb(244, 157, 126); fill-opacity: 0.545; stroke-width: 0;"/></g></g><g class="errorbars"/><g class="lines"><path class="js-line" d="M266.07,67.95L297.24,119.1L280.61,37.92L266.07,67.95" style="vector-effect: none; fill: none; stroke: rgb(239, 85, 59); stroke-opacity: 1; stroke-width: 3px; opacity: 1;"/></g><g class="points"/><g class="text"/></g><g class="trace scatter traceb8b6e8" style="stroke-miterlimit: 2; opacity: 1;"><g class="fills"><g><path class="js-fill" d="M297.24,119.1L339.88,78L280.61,37.92L297.24,119.1Z" style="fill: rgb(244, 157, 126); fill-opacity: 0.545; stroke-width: 0;"/></g></g><g class="errorbars"/><g class="lines"><path class="js-line" d="M297.24,119.1L339.88,78L280.61,37.92L297.24,119.1" style="vector-effect: none; fill: none; stroke: rgb(0, 204, 150); stroke-opacity: 1; stroke-width: 3px; opacity: 1;"/></g><g class="points"/><g class="text"/></g><g class="trace scatter trace5ee824" style="stroke-miterlimit: 2; opacity: 1;"><g class="fills"><g><path class="js-fill" d="M339.88,78L280.61,37.92L346.06,29.75L339.88,78Z" style="fill: rgb(244, 157, 126); fill-opacity: 0.545; stroke-width: 0;"/></g></g><g class="errorbars"/><g class="lines"><path class="js-line" d="M339.88,78L280.61,37.92L346.06,29.75L339.88,78" style="vector-effect: none; fill: none; stroke: rgb(171, 99, 250); stroke-opacity: 1; stroke-width: 3px; opacity: 1;"/></g><g class="points"/><g class="text"/></g><g class="trace scatter trace92c262" style="stroke-miterlimit: 2; opacity: 1;"><g class="fills"><g><path class="js-fill" d="M297.24,119.1L339.88,78L346.06,29.75L297.24,119.1Z" style="fill: rgb(244, 157, 126); fill-opacity: 0.545; stroke-width: 0;"/></g></g><g class="errorbars"/><g class="lines"><path class="js-line" d="M297.24,119.1L339.88,78L346.06,29.75L297.24,119.1" style="vector-effect: none; fill: none; stroke: rgb(255, 161, 90); stroke-opacity: 1; stroke-width: 3px; opacity: 1;"/></g><g class="points"/><g class="text"/></g><g class="trace scatter traceba246c" style="stroke-miterlimit: 2; opacity: 1;"><g class="fills"><g><path class="js-fill" d="M297.24,119.1L280.61,37.92L346.06,29.75L297.24,119.1Z" style="fill: rgb(244, 157, 126); fill-opacity: 0.545; stroke-width: 0;"/></g></g><g class="errorbars"/><g class="lines"><path class="js-line" d="M297.24,119.1L280.61,37.92L346.06,29.75L297.24,119.1" style="vector-effect: none; fill: none; stroke: rgb(25, 211, 243); stroke-opacity: 1; stroke-width: 3px; opacity: 1;"/></g><g class="points"/><g class="text"/></g><g class="trace scatter trace21b0cd" style="stroke-miterlimit: 2; opacity: 1;"><g class="fills"><g><path class="js-fill" d="M266.07,67.95L297.24,119.1L409.25,79.65L266.07,67.95Z" style="fill: rgb(244, 157, 126); fill-opacity: 0.545; stroke-width: 0;"/></g></g><g class="errorbars"/><g class="lines"><path class="js-line" d="M266.07,67.95L297.24,119.1L409.25,79.65L266.07,67.95" style="vector-effect: none; fill: none; stroke: rgb(255, 102, 146); stroke-opacity: 1; stroke-width: 3px; opacity: 1;"/></g><g class="points"/><g class="text"/></g><g class="trace scatter trace2247c9" style="stroke-miterlimit: 2; opacity: 1;"><g class="fills"><g><path class="js-fill" d="M266.07,67.95L297.24,119.1L346.06,29.75L266.07,67.95Z" style="fill: rgb(244, 157, 126); fill-opacity: 0.545; stroke-width: 0;"/></g></g><g class="errorbars"/><g class="lines"><path class="js-line" d="M266.07,67.95L297.24,119.1L346.06,29.75L266.07,67.95" style="vector-effect: none; fill: none; stroke: rgb(182, 232, 128); stroke-opacity: 1; stroke-width: 3px; opacity: 1;"/></g><g class="points"/><g class="text"/></g><g class="trace scatter trace6d3a27" style="stroke-miterlimit: 2; opacity: 1;"><g class="fills"><g><path class="js-fill" d="M266.07,67.95L339.88,78L346.06,29.75L266.07,67.95Z" style="fill: rgb(244, 157, 126); fill-opacity: 0.545; stroke-width: 0;"/></g></g><g class="errorbars"/><g class="lines"><path class="js-line" d="M266.07,67.95L339.88,78L346.06,29.75L266.07,67.95" style="vector-effect: none; fill: none; stroke: rgb(255, 151, 255); stroke-opacity: 1; stroke-width: 3px; opacity: 1;"/></g><g class="points"/><g class="text"/></g><g class="trace scatter trace2a9b9b" style="stroke-miterlimit: 2; opacity: 1;"><g class="fills"><g><path class="js-fill" d="M266.07,67.95L280.61,37.92L346.06,29.75L266.07,67.95Z" style="fill: rgb(244, 157, 126); fill-opacity: 0.545; stroke-width: 0;"/></g></g><g class="errorbars"/><g class="lines"><path class="js-line" d="M266.07,67.95L280.61,37.92L346.06,29.75L266.07,67.95" style="vector-effect: none; fill: none; stroke: rgb(254, 203, 82); stroke-opacity: 1; stroke-width: 3px; opacity: 1;"/></g><g class="points"/><g class="text"/></g><g class="trace scatter trace54c1f3" style="stroke-miterlimit: 2; opacity: 1;"><g class="fills"><g><path class="js-fill" d="M266.07,67.95L339.88,78L409.25,79.65L266.07,67.95Z" style="fill: rgb(244, 157, 126); fill-opacity: 0.545; stroke-width: 0;"/></g></g><g class="errorbars"/><g class="lines"><path class="js-line" d="M266.07,67.95L339.88,78L409.25,79.65L266.07,67.95" style="vector-effect: none; fill: none; stroke: rgb(99, 110, 250); stroke-opacity: 1; stroke-width: 3px; opacity: 1;"/></g><g class="points"/><g class="text"/></g><g class="trace scatter traceb60f2c" style="stroke-miterlimit: 2; opacity: 1;"><g class="fills"><g><path class="js-fill" d="M297.24,119.1L339.88,78L409.25,79.65L297.24,119.1Z" style="fill: rgb(244, 157, 126); fill-opacity: 0.545; stroke-width: 0;"/></g></g><g class="errorbars"/><g class="lines"><path class="js-line" d="M297.24,119.1L339.88,78L409.25,79.65L297.24,119.1" style="vector-effect: none; fill: none; stroke: rgb(239, 85, 59); stroke-opacity: 1; stroke-width: 3px; opacity: 1;"/></g><g class="points"/><g class="text"/></g><g class="trace scatter tracedfa587" style="stroke-miterlimit: 2; opacity: 1;"><g class="fills"><g><path class="js-fill" d="M266.07,67.95L409.25,79.65L346.06,29.75L266.07,67.95Z" style="fill: rgb(244, 157, 126); fill-opacity: 0.545; stroke-width: 0;"/></g></g><g class="errorbars"/><g class="lines"><path class="js-line" d="M266.07,67.95L409.25,79.65L346.06,29.75L266.07,67.95" style="vector-effect: none; fill: none; stroke: rgb(0, 204, 150); stroke-opacity: 1; stroke-width: 3px; opacity: 1;"/></g><g class="points"/><g class="text"/></g><g class="trace scatter trace8065c9" style="stroke-miterlimit: 2; opacity: 1;"><g class="fills"><g><path class="js-fill" d="M297.24,119.1L409.25,79.65L346.06,29.75L297.24,119.1Z" style="fill: rgb(244, 157, 126); fill-opacity: 0.545; stroke-width: 0;"/></g></g><g class="errorbars"/><g class="lines"><path class="js-line" d="M297.24,119.1L409.25,79.65L346.06,29.75L297.24,119.1" style="vector-effect: none; fill: none; stroke: rgb(171, 99, 250); stroke-opacity: 1; stroke-width: 3px; opacity: 1;"/></g><g class="points"/><g class="text"/></g><g class="trace scatter traceab3d2e" style="stroke-miterlimit: 2; opacity: 1;"><g class="fills"><g><path class="js-fill" d="M339.88,78L409.25,79.65L346.06,29.75L339.88,78Z" style="fill: rgb(244, 157, 126); fill-opacity: 0.545; stroke-width: 0;"/></g></g><g class="errorbars"/><g class="lines"><path class="js-line" d="M339.88,78L409.25,79.65L346.06,29.75L339.88,78" style="vector-effect: none; fill: none; stroke: rgb(255, 161, 90); stroke-opacity: 1; stroke-width: 3px; opacity: 1;"/></g><g class="points"/><g class="text"/></g><g class="trace scatter trace2536e0" style="stroke-miterlimit: 2; opacity: 1;"><g class="fills"><g><path class="js-fill" d="M266.07,67.95L280.61,37.92L409.25,79.65L266.07,67.95Z" style="fill: rgb(244, 157, 126); fill-opacity: 0.545; stroke-width: 0;"/></g></g><g class="errorbars"/><g class="lines"><path class="js-line" d="M266.07,67.95L280.61,37.92L409.25,79.65L266.07,67.95" style="vector-effect: none; fill: none; stroke: rgb(25, 211, 243); stroke-opacity: 1; stroke-width: 3px; opacity: 1;"/></g><g class="points"/><g class="text"/></g><g class="trace scatter trace7841af" style="stroke-miterlimit: 2; opacity: 1;"><g class="fills"><g><path class="js-fill" d="M297.24,119.1L280.61,37.92L409.25,79.65L297.24,119.1Z" style="fill: rgb(244, 157, 126); fill-opacity: 0.545; stroke-width: 0;"/></g></g><g class="errorbars"/><g class="lines"><path class="js-line" d="M297.24,119.1L280.61,37.92L409.25,79.65L297.24,119.1" style="vector-effect: none; fill: none; stroke: rgb(255, 102, 146); stroke-opacity: 1; stroke-width: 3px; opacity: 1;"/></g><g class="points"/><g class="text"/></g><g class="trace scatter traceb9fd65" style="stroke-miterlimit: 2; opacity: 1;"><g class="fills"><g><path class="js-fill" d="M339.88,78L280.61,37.92L409.25,79.65L339.88,78Z" style="fill: rgb(244, 157, 126); fill-opacity: 0.545; stroke-width: 0;"/></g></g><g class="errorbars"/><g class="lines"><path class="js-line" d="M339.88,78L280.61,37.92L409.25,79.65L339.88,78" style="vector-effect: none; fill: none; stroke: rgb(182, 232, 128); stroke-opacity: 1; stroke-width: 3px; opacity: 1;"/></g><g class="points"/><g class="text"/></g><g class="trace scatter trace9a2786" style="stroke-miterlimit: 2; opacity: 1;"><g class="fills"><g><path class="js-fill" d="M280.61,37.92L409.25,79.65L346.06,29.75L280.61,37.92Z" style="fill: rgb(244, 157, 126); fill-opacity: 0.545; stroke-width: 0;"/></g></g><g class="errorbars"/><g class="lines"><path class="js-line" d="M280.61,37.92L409.25,79.65L346.06,29.75L280.61,37.92" style="vector-effect: none; fill: none; stroke: rgb(255, 151, 255); stroke-opacity: 1; stroke-width: 3px; opacity: 1;"/></g><g class="points"/><g class="text"/></g><g class="trace scatter tracefe37f0" style="stroke-miterlimit: 2; opacity: 1;"><g class="fills"><g><path class="js-fill" d="M402.51,46.73L266.07,67.95L409.25,79.65L402.51,46.73Z" style="fill: rgb(244, 157, 126); fill-opacity: 0.545; stroke-width: 0;"/></g></g><g class="errorbars"/><g class="lines"><path class="js-line" d="M402.51,46.73L266.07,67.95L409.25,79.65L402.51,46.73" style="vector-effect: none; fill: none; stroke: rgb(254, 203, 82); stroke-opacity: 1; stroke-width: 3px; opacity: 1;"/></g><g class="points"/><g class="text"/></g><g class="trace scatter trace0ce4ef" style="stroke-miterlimit: 2; opacity: 1;"><g class="fills"><g><path class="js-fill" d="M402.51,46.73L266.07,67.95L339.88,78L402.51,46.73Z" style="fill: rgb(244, 157, 126); fill-opacity: 0.545; stroke-width: 0;"/></g></g><g class="errorbars"/><g class="lines"><path class="js-line" d="M402.51,46.73L266.07,67.95L339.88,78L402.51,46.73" style="vector-effect: none; fill: none; stroke: rgb(99, 110, 250); stroke-opacity: 1; stroke-width: 3px; opacity: 1;"/></g><g class="points"/><g class="text"/></g><g class="trace scatter trace00ce09" style="stroke-miterlimit: 2; opacity: 1;"><g class="fills"><g><path class="js-fill" d="M402.51,46.73L339.88,78L409.25,79.65L402.51,46.73Z" style="fill: rgb(244, 157, 126); fill-opacity: 0.545; stroke-width: 0;"/></g></g><g class="errorbars"/><g class="lines"><path class="js-line" d="M402.51,46.73L339.88,78L409.25,79.65L402.51,46.73" style="vector-effect: none; fill: none; stroke: rgb(239, 85, 59); stroke-opacity: 1; stroke-width: 3px; opacity: 1;"/></g><g class="points"/><g class="text"/></g><g class="trace scatter trace609c88" style="stroke-miterlimit: 2; opacity: 1;"><g class="fills"><g><path class="js-fill" d="M402.51,46.73L266.07,67.95L297.24,119.1L402.51,46.73Z" style="fill: rgb(244, 157, 126); fill-opacity: 0.545; stroke-width: 0;"/></g></g><g class="errorbars"/><g class="lines"><path class="js-line" d="M402.51,46.73L266.07,67.95L297.24,119.1L402.51,46.73" style="vector-effect: none; fill: none; stroke: rgb(0, 204, 150); stroke-opacity: 1; stroke-width: 3px; opacity: 1;"/></g><g class="points"/><g class="text"/></g><g class="trace scatter traced615db" style="stroke-miterlimit: 2; opacity: 1;"><g class="fills"><g><path class="js-fill" d="M402.51,46.73L297.24,119.1L339.88,78L402.51,46.73Z" style="fill: rgb(244, 157, 126); fill-opacity: 0.545; stroke-width: 0;"/></g></g><g class="errorbars"/><g class="lines"><path class="js-line" d="M402.51,46.73L297.24,119.1L339.88,78L402.51,46.73" style="vector-effect: none; fill: none; stroke: rgb(171, 99, 250); stroke-opacity: 1; stroke-width: 3px; opacity: 1;"/></g><g class="points"/><g class="text"/></g><g class="trace scatter trace53ffa7" style="stroke-miterlimit: 2; opacity: 1;"><g class="fills"><g><path class="js-fill" d="M402.51,46.73L297.24,119.1L409.25,79.65L402.51,46.73Z" style="fill: rgb(244, 157, 126); fill-opacity: 0.545; stroke-width: 0;"/></g></g><g class="errorbars"/><g class="lines"><path class="js-line" d="M402.51,46.73L297.24,119.1L409.25,79.65L402.51,46.73" style="vector-effect: none; fill: none; stroke: rgb(255, 161, 90); stroke-opacity: 1; stroke-width: 3px; opacity: 1;"/></g><g class="points"/><g class="text"/></g><g class="trace scatter trace725c79" style="stroke-miterlimit: 2; opacity: 1;"><g class="fills"><g><path class="js-fill" d="M402.51,46.73L266.07,67.95L280.61,37.92L402.51,46.73Z" style="fill: rgb(244, 157, 126); fill-opacity: 0.545; stroke-width: 0;"/></g></g><g class="errorbars"/><g class="lines"><path class="js-line" d="M402.51,46.73L266.07,67.95L280.61,37.92L402.51,46.73" style="vector-effect: none; fill: none; stroke: rgb(25, 211, 243); stroke-opacity: 1; stroke-width: 3px; opacity: 1;"/></g><g class="points"/><g class="text"/></g><g class="trace scatter tracea97c80" style="stroke-miterlimit: 2; opacity: 1;"><g class="fills"><g><path class="js-fill" d="M402.51,46.73L297.24,119.1L280.61,37.92L402.51,46.73Z" style="fill: rgb(244, 157, 126); fill-opacity: 0.545; stroke-width: 0;"/></g></g><g class="errorbars"/><g class="lines"><path class="js-line" d="M402.51,46.73L297.24,119.1L280.61,37.92L402.51,46.73" style="vector-effect: none; fill: none; stroke: rgb(255, 102, 146); stroke-opacity: 1; stroke-width: 3px; opacity: 1;"/></g><g class="points"/><g class="text"/></g><g class="trace scatter trace21b95e" style="stroke-miterlimit: 2; opacity: 1;"><g class="fills"><g><path class="js-fill" d="M402.51,46.73L339.88,78L280.61,37.92L402.51,46.73Z" style="fill: rgb(244, 157, 126); fill-opacity: 0.545; stroke-width: 0;"/></g></g><g class="errorbars"/><g class="lines"><path class="js-line" d="M402.51,46.73L339.88,78L280.61,37.92L402.51,46.73" style="vector-effect: none; fill: none; stroke: rgb(182, 232, 128); stroke-opacity: 1; stroke-width: 3px; opacity: 1;"/></g><g class="points"/><g class="text"/></g><g class="trace scatter trace9b6674" style="stroke-miterlimit: 2; opacity: 1;"><g class="fills"><g><path class="js-fill" d="M402.51,46.73L280.61,37.92L409.25,79.65L402.51,46.73Z" style="fill: rgb(244, 157, 126); fill-opacity: 0.545; stroke-width: 0;"/></g></g><g class="errorbars"/><g class="lines"><path class="js-line" d="M402.51,46.73L280.61,37.92L409.25,79.65L402.51,46.73" style="vector-effect: none; fill: none; stroke: rgb(255, 151, 255); stroke-opacity: 1; stroke-width: 3px; opacity: 1;"/></g><g class="points"/><g class="text"/></g><g class="trace scatter trace9e3a45" style="stroke-miterlimit: 2; opacity: 1;"><g class="fills"><g><path class="js-fill" d="M402.51,46.73L266.07,67.95L346.06,29.75L402.51,46.73Z" style="fill: rgb(244, 157, 126); fill-opacity: 0.545; stroke-width: 0;"/></g></g><g class="errorbars"/><g class="lines"><path class="js-line" d="M402.51,46.73L266.07,67.95L346.06,29.75L402.51,46.73" style="vector-effect: none; fill: none; stroke: rgb(254, 203, 82); stroke-opacity: 1; stroke-width: 3px; opacity: 1;"/></g><g class="points"/><g class="text"/></g><g class="trace scatter trace164736" style="stroke-miterlimit: 2; opacity: 1;"><g class="fills"><g><path class="js-fill" d="M402.51,46.73L297.24,119.1L346.06,29.75L402.51,46.73Z" style="fill: rgb(244, 157, 126); fill-opacity: 0.545; stroke-width: 0;"/></g></g><g class="errorbars"/><g class="lines"><path class="js-line" d="M402.51,46.73L297.24,119.1L346.06,29.75L402.51,46.73" style="vector-effect: none; fill: none; stroke: rgb(99, 110, 250); stroke-opacity: 1; stroke-width: 3px; opacity: 1;"/></g><g class="points"/><g class="text"/></g><g class="trace scatter traceed5ee2" style="stroke-miterlimit: 2; opacity: 1;"><g class="fills"><g><path class="js-fill" d="M402.51,46.73L339.88,78L346.06,29.75L402.51,46.73Z" style="fill: rgb(244, 157, 126); fill-opacity: 0.545; stroke-width: 0;"/></g></g><g class="errorbars"/><g class="lines"><path class="js-line" d="M402.51,46.73L339.88,78L346.06,29.75L402.51,46.73" style="vector-effect: none; fill: none; stroke: rgb(239, 85, 59); stroke-opacity: 1; stroke-width: 3px; opacity: 1;"/></g><g class="points"/><g class="text"/></g><g class="trace scatter traceb75f57" style="stroke-miterlimit: 2; opacity: 1;"><g class="fills"><g><path class="js-fill" d="M402.51,46.73L280.61,37.92L346.06,29.75L402.51,46.73Z" style="fill: rgb(244, 157, 126); fill-opacity: 0.545; stroke-width: 0;"/></g></g><g class="errorbars"/><g class="lines"><path class="js-line" d="M402.51,46.73L280.61,37.92L346.06,29.75L402.51,46.73" style="vector-effect: none; fill: none; stroke: rgb(0, 204, 150); stroke-opacity: 1; stroke-width: 3px; opacity: 1;"/></g><g class="points"/><g class="text"/></g><g class="trace scatter tracea95f82" style="stroke-miterlimit: 2; opacity: 1;"><g class="fills"><g><path class="js-fill" d="M402.51,46.73L409.25,79.65L346.06,29.75L402.51,46.73Z" style="fill: rgb(244, 157, 126); fill-opacity: 0.545; stroke-width: 0;"/></g></g><g class="errorbars"/><g class="lines"><path class="js-line" d="M402.51,46.73L409.25,79.65L346.06,29.75L402.51,46.73" style="vector-effect: none; fill: none; stroke: rgb(171, 99, 250); stroke-opacity: 1; stroke-width: 3px; opacity: 1;"/></g><g class="points"/><g class="text"/></g><g class="trace scatter trace7ed835" style="stroke-miterlimit: 2; opacity: 1;"><g class="fills"><g><path class="js-fill" d="M211.12,317.14L75.5,318.87L197.79,252.4L211.12,317.14Z" style="fill: rgb(244, 157, 126); fill-opacity: 0.545; stroke-width: 0;"/></g></g><g class="errorbars"/><g class="lines"><path class="js-line" d="M211.12,317.14L75.5,318.87L197.79,252.4L211.12,317.14" style="vector-effect: none; fill: none; stroke: rgb(255, 161, 90); stroke-opacity: 1; stroke-width: 3px; opacity: 1;"/></g><g class="points"/><g class="text"/></g><g class="trace scatter trace7b4ce6" style="stroke-miterlimit: 2; opacity: 1;"><g class="fills"><g><path class="js-fill" d="M211.12,317.14L197.79,252.4L153.79,351.6L211.12,317.14Z" style="fill: rgb(244, 157, 126); fill-opacity: 0.545; stroke-width: 0;"/></g></g><g class="errorbars"/><g class="lines"><path class="js-line" d="M211.12,317.14L197.79,252.4L153.79,351.6L211.12,317.14" style="vector-effect: none; fill: none; stroke: rgb(25, 211, 243); stroke-opacity: 1; stroke-width: 3px; opacity: 1;"/></g><g class="points"/><g class="text"/></g><g class="trace scatter trace3077e7" style="stroke-miterlimit: 2; opacity: 1;"><g class="fills"/><g class="errorbars"/><g class="lines"/><g class="points"><path class="point" transform="translate(211.12,317.14)" d="M7,0A7,7 0 1,1 0,-7A7,7 0 0,1 7,0Z" style="opacity: 1; stroke-width: 0px; fill: rgb(255, 102, 146); fill-opacity: 1;"/><path class="point" transform="translate(75.5,318.87)" d="M7,0A7,7 0 1,1 0,-7A7,7 0 0,1 7,0Z" style="opacity: 1; stroke-width: 0px; fill: rgb(255, 102, 146); fill-opacity: 1;"/><path class="point" transform="translate(197.79,252.4)" d="M7,0A7,7 0 1,1 0,-7A7,7 0 0,1 7,0Z" style="opacity: 1; stroke-width: 0px; fill: rgb(255, 102, 146); fill-opacity: 1;"/><path class="point" transform="translate(153.79,351.6)" d="M7,0A7,7 0 1,1 0,-7A7,7 0 0,1 7,0Z" style="opacity: 1; stroke-width: 0px; fill: rgb(255, 102, 146); fill-opacity: 1;"/><path class="point" transform="translate(30.75,390.25)" d="M7,0A7,7 0 1,1 0,-7A7,7 0 0,1 7,0Z" style="opacity: 1; stroke-width: 0px; fill: rgb(255, 102, 146); fill-opacity: 1;"/><path class="point" transform="translate(402.51,46.73)" d="M7,0A7,7 0 1,1 0,-7A7,7 0 0,1 7,0Z" style="opacity: 1; stroke-width: 0px; fill: rgb(255, 102, 146); fill-opacity: 1;"/><path class="point" transform="translate(266.07,67.95)" d="M7,0A7,7 0 1,1 0,-7A7,7 0 0,1 7,0Z" style="opacity: 1; stroke-width: 0px; fill: rgb(255, 102, 146); fill-opacity: 1;"/><path class="point" transform="translate(297.24,119.1)" d="M7,0A7,7 0 1,1 0,-7A7,7 0 0,1 7,0Z" style="opacity: 1; stroke-width: 0px; fill: rgb(255, 102, 146); fill-opacity: 1;"/><path class="point" transform="translate(339.88,78)" d="M7,0A7,7 0 1,1 0,-7A7,7 0 0,1 7,0Z" style="opacity: 1; stroke-width: 0px; fill: rgb(255, 102, 146); fill-opacity: 1;"/><path class="point" transform="translate(280.61,37.92)" d="M7,0A7,7 0 1,1 0,-7A7,7 0 0,1 7,0Z" style="opacity: 1; stroke-width: 0px; fill: rgb(255, 102, 146); fill-opacity: 1;"/><path class="point" transform="translate(409.25,79.65)" d="M7,0A7,7 0 1,1 0,-7A7,7 0 0,1 7,0Z" style="opacity: 1; stroke-width: 0px; fill: rgb(255, 102, 146); fill-opacity: 1;"/><path class="point" transform="translate(346.06,29.75)" d="M7,0A7,7 0 1,1 0,-7A7,7 0 0,1 7,0Z" style="opacity: 1; stroke-width: 0px; fill: rgb(255, 102, 146); fill-opacity: 1;"/></g><g class="text"><g class="textpoint" transform="translate(0,-13.25)"><text x="211.12" y="317.14" text-anchor="middle" style="font-family: 'Open Sans', verdana, arial, sans-serif; font-size: 14px; fill: rgb(42, 63, 95); fill-opacity: 1; white-space: pre;">EC00690</text></g><g class="textpoint" transform="translate(0,-13.25)"><text x="75.5" y="318.87" text-anchor="middle" style="font-family: 'Open Sans', verdana, arial, sans-serif; font-size: 14px; fill: rgb(42, 63, 95); fill-opacity: 1; white-space: pre;">EC00668</text></g><g class="textpoint" transform="translate(0,-13.25)"><text x="197.79" y="252.4" text-anchor="middle" style="font-family: 'Open Sans', verdana, arial, sans-serif; font-size: 14px; fill: rgb(42, 63, 95); fill-opacity: 1; white-space: pre;">EC00609</text></g><g class="textpoint" transform="translate(0,-13.25)"><text x="153.79" y="351.6" text-anchor="middle" style="font-family: 'Open Sans', verdana, arial, sans-serif; font-size: 14px; fill: rgb(42, 63, 95); fill-opacity: 1; white-space: pre;">EC00701</text></g><g class="textpoint" transform="translate(0,-13.25)"><text x="30.75" y="390.25" text-anchor="middle" style="font-family: 'Open Sans', verdana, arial, sans-serif; font-size: 14px; fill: rgb(42, 63, 95); fill-opacity: 1; white-space: pre;">EC00678</text></g><g class="textpoint" transform="translate(0,-13.25)"><text x="402.51" y="46.73" text-anchor="middle" style="font-family: 'Open Sans', verdana, arial, sans-serif; font-size: 14px; fill: rgb(42, 63, 95); fill-opacity: 1; white-space: pre;">KLP00215</text></g><g class="textpoint" transform="translate(0,-13.25)"><text x="266.07" y="67.95" text-anchor="middle" style="font-family: 'Open Sans', verdana, arial, sans-serif; font-size: 14px; fill: rgb(42, 63, 95); fill-opacity: 1; white-space: pre;">KLP00221</text></g><g class="textpoint" transform="translate(0,-13.25)"><text x="297.24" y="119.1" text-anchor="middle" style="font-family: 'Open Sans', verdana, arial, sans-serif; font-size: 14px; fill: rgb(42, 63, 95); fill-opacity: 1; white-space: pre;">KLP00218</text></g><g class="textpoint" transform="translate(0,-13.25)"><text x="339.88" y="78" text-anchor="middle" style="font-family: 'Open Sans', verdana, arial, sans-serif; font-size: 14px; fill: rgb(42, 63, 95); fill-opacity: 1; white-space: pre;">KLP00213</text></g><g class="textpoint" transform="translate(0,-13.25)"><text x="280.61" y="37.92" text-anchor="middle" style="font-family: 'Open Sans', verdana, arial, sans-serif; font-size: 14px; fill: rgb(42, 63, 95); fill-opacity: 1; white-space: pre;">KLP00187</text></g><g class="textpoint" transform="translate(0,-13.25)"><text x="409.25" y="79.65" text-anchor="middle" style="font-family: 'Open Sans', verdana, arial, sans-serif; font-size: 14px; fill: rgb(42, 63, 95); fill-opacity: 1; white-space: pre;">KLP00149</text></g><g class="textpoint" transform="translate(0,-13.25)"><text x="346.06" y="29.75" text-anchor="middle" style="font-family: 'Open Sans', verdana, arial, sans-serif; font-size: 14px; fill: rgb(42, 63, 95); fill-opacity: 1; white-space: pre;">KLP00177</text></g></g></g></g></g><g class="overplot"/><path class="xlines-above crisp" d="M0,0" style="fill: none;"/><path class="ylines-above crisp" d="M0,0" style="fill: none;"/><g class="overlines-above"/><g class="xaxislayer-above"><g class="xtick"><text text-anchor="middle" x="0" y="537" transform="translate(142.14,0)" style="font-family: Arial, sans-serif; font-size: 16px; fill: rgb(42, 63, 95); fill-opacity: 1; white-space: pre; opacity: 1;">−0.4</text></g><g class="xtick"><text text-anchor="middle" x="0" y="537" style="font-family: Arial, sans-serif; font-size: 16px; fill: rgb(42, 63, 95); fill-opacity: 1; white-space: pre; opacity: 1;" transform="translate(236.51,0)">−0.2</text></g><g class="xtick"><text text-anchor="middle" x="0" y="537" style="font-family: Arial, sans-serif; font-size: 16px; fill: rgb(42, 63, 95); fill-opacity: 1; white-space: pre; opacity: 1;" transform="translate(330.88,0)">0</text></g><g class="xtick"><text text-anchor="middle" x="0" y="537" style="font-family: Arial, sans-serif; font-size: 16px; fill: rgb(42, 63, 95); fill-opacity: 1; white-space: pre; opacity: 1;" transform="translate(425.25,0)">0.2</text></g><g class="xtick"><text text-anchor="middle" x="0" y="537" style="font-family: Arial, sans-serif; font-size: 16px; fill: rgb(42, 63, 95); fill-opacity: 1; white-space: pre; opacity: 1;" transform="translate(519.63,0)">0.4</text></g></g><g class="yaxislayer-above"><g class="ytick"><text text-anchor="end" x="79" y="5.6" transform="translate(0,490.25)" style="font-family: Arial, sans-serif; font-size: 16px; fill: rgb(42, 63, 95); fill-opacity: 1; white-space: pre; opacity: 1;">−1</text></g><g class="ytick"><text text-anchor="end" x="79" y="5.6" style="font-family: Arial, sans-serif; font-size: 16px; fill: rgb(42, 63, 95); fill-opacity: 1; white-space: pre; opacity: 1;" transform="translate(0,447.02)">−0.8</text></g><g class="ytick"><text text-anchor="end" x="79" y="5.6" style="font-family: Arial, sans-serif; font-size: 16px; fill: rgb(42, 63, 95); fill-opacity: 1; white-space: pre; opacity: 1;" transform="translate(0,403.8)">−0.6</text></g><g class="ytick"><text text-anchor="end" x="79" y="5.6" style="font-family: Arial, sans-serif; font-size: 16px; fill: rgb(42, 63, 95); fill-opacity: 1; white-space: pre; opacity: 1;" transform="translate(0,360.57)">−0.4</text></g><g class="ytick"><text text-anchor="end" x="79" y="5.6" style="font-family: Arial, sans-serif; font-size: 16px; fill: rgb(42, 63, 95); fill-opacity: 1; white-space: pre; opacity: 1;" transform="translate(0,317.34000000000003)">−0.2</text></g><g class="ytick"><text text-anchor="end" x="79" y="5.6" style="font-family: Arial, sans-serif; font-size: 16px; fill: rgb(42, 63, 95); fill-opacity: 1; white-space: pre; opacity: 1;" transform="translate(0,274.11)">0</text></g><g class="ytick"><text text-anchor="end" x="79" y="5.6" style="font-family: Arial, sans-serif; font-size: 16px; fill: rgb(42, 63, 95); fill-opacity: 1; white-space: pre; opacity: 1;" transform="translate(0,230.89)">0.2</text></g><g class="ytick"><text text-anchor="end" x="79" y="5.6" style="font-family: Arial, sans-serif; font-size: 16px; fill: rgb(42, 63, 95); fill-opacity: 1; white-space: pre; opacity: 1;" transform="translate(0,187.66)">0.4</text></g><g class="ytick"><text text-anchor="end" x="79" y="5.6" style="font-family: Arial, sans-serif; font-size: 16px; fill: rgb(42, 63, 95); fill-opacity: 1; white-space: pre; opacity: 1;" transform="translate(0,144.43)">0.6</text></g><g class="ytick"><text text-anchor="end" x="79" y="5.6" style="font-family: Arial, sans-serif; font-size: 16px; fill: rgb(42, 63, 95); fill-opacity: 1; white-space: pre; opacity: 1;" transform="translate(0,101.2)">0.8</text></g></g><g class="overaxes-above"/></g></g><g class="polarlayer"/><g class="smithlayer"/><g class="ternarylayer"/><g class="geolayer"/><g class="funnelarealayer"/><g class="pielayer"/><g class="iciclelayer"/><g class="treemaplayer"/><g class="sunburstlayer"/><g class="glimages"/><defs id="topdefs-b4d003"><g class="clips"/></defs><g class="layer-above"><g class="imagelayer"/><g class="shapelayer"/></g><g class="infolayer"><g class="g-gtitle"/><g class="g-xtitle"/><g class="g-ytitle"/></g></svg>