<?xml version="1.0" encoding="utf-8" standalone="no"?>
<!DOCTYPE svg PUBLIC "-//W3C//DTD SVG 1.1//EN"
  "http://www.w3.org/Graphics/SVG/1.1/DTD/svg11.dtd">
<svg xmlns:xlink="http://www.w3.org/1999/xlink" width="712.8pt" height="713.885pt" viewBox="0 0 712.8 713.885" xmlns="http://www.w3.org/2000/svg" version="1.1">
 <metadata>
  <rdf:RDF xmlns:dc="http://purl.org/dc/elements/1.1/" xmlns:cc="http://creativecommons.org/ns#" xmlns:rdf="http://www.w3.org/1999/02/22-rdf-syntax-ns#">
   <cc:Work>
    <dc:type rdf:resource="http://purl.org/dc/dcmitype/StillImage"/>
    <dc:date>2024-02-24T09:56:49.403278</dc:date>
    <dc:format>image/svg+xml</dc:format>
    <dc:creator>
     <cc:Agent>
      <dc:title>Matplotlib v3.5.3, https://matplotlib.org/</dc:title>
     </cc:Agent>
    </dc:creator>
   </cc:Work>
  </rdf:RDF>
 </metadata>
 <defs>
  <style type="text/css">*{stroke-linejoin: round; stroke-linecap: butt}</style>
 </defs>
 <g id="figure_1">
  <g id="patch_1">
   <path d="M 0 713.885 
L 712.8 713.885 
L 712.8 0 
L 0 0 
z
" style="fill: #ffffff"/>
  </g>
  <g id="axes_1">
   <g id="patch_2">
    <path d="M 10.7 684.2 
L 705.6 684.2 
L 705.6 7.2 
L 10.7 7.2 
z
" style="fill: #ffffff"/>
   </g>
   <g id="matplotlib.axis_1">
    <g id="xtick_1">
     <g id="line2d_1">
      <defs>
       <path id="mce890614b5" d="M 0 0 
L 0 3.5 
" style="stroke: #000000; stroke-width: 0.8"/>
      </defs>
      <g>
       <use xlink:href="#mce890614b5" x="73.170808" y="684.2" style="stroke: #000000; stroke-width: 0.8"/>
      </g>
     </g>
     <g id="text_1">
      <!-- 0.04 -->
      <g transform="translate(55.358308 703.3575)scale(0.16 -0.16)">
       <defs>
        <path id="DejaVuSans-30" d="M 2034 4250 
Q 1547 4250 1301 3770 
Q 1056 3291 1056 2328 
Q 1056 1369 1301 889 
Q 1547 409 2034 409 
Q 2525 409 2770 889 
Q 3016 1369 3016 2328 
Q 3016 3291 2770 3770 
Q 2525 4250 2034 4250 
z
M 2034 4750 
Q 2819 4750 3233 4129 
Q 3647 3509 3647 2328 
Q 3647 1150 3233 529 
Q 2819 -91 2034 -91 
Q 1250 -91 836 529 
Q 422 1150 422 2328 
Q 422 3509 836 4129 
Q 1250 4750 2034 4750 
z
" transform="scale(0.015625)"/>
        <path id="DejaVuSans-2e" d="M 684 794 
L 1344 794 
L 1344 0 
L 684 0 
L 684 794 
z
" transform="scale(0.015625)"/>
        <path id="DejaVuSans-34" d="M 2419 4116 
L 825 1625 
L 2419 1625 
L 2419 4116 
z
M 2253 4666 
L 3047 4666 
L 3047 1625 
L 3713 1625 
L 3713 1100 
L 3047 1100 
L 3047 0 
L 2419 0 
L 2419 1100 
L 313 1100 
L 313 1709 
L 2253 4666 
z
" transform="scale(0.015625)"/>
       </defs>
       <use xlink:href="#DejaVuSans-30"/>
       <use xlink:href="#DejaVuSans-2e" x="63.623047"/>
       <use xlink:href="#DejaVuSans-30" x="95.410156"/>
       <use xlink:href="#DejaVuSans-34" x="159.033203"/>
      </g>
     </g>
    </g>
    <g id="xtick_2">
     <g id="line2d_2">
      <g>
       <use xlink:href="#mce890614b5" x="214.958485" y="684.2" style="stroke: #000000; stroke-width: 0.8"/>
      </g>
     </g>
     <g id="text_2">
      <!-- 0.06 -->
      <g transform="translate(197.145985 703.3575)scale(0.16 -0.16)">
       <defs>
        <path id="DejaVuSans-36" d="M 2113 2584 
Q 1688 2584 1439 2293 
Q 1191 2003 1191 1497 
Q 1191 994 1439 701 
Q 1688 409 2113 409 
Q 2538 409 2786 701 
Q 3034 994 3034 1497 
Q 3034 2003 2786 2293 
Q 2538 2584 2113 2584 
z
M 3366 4563 
L 3366 3988 
Q 3128 4100 2886 4159 
Q 2644 4219 2406 4219 
Q 1781 4219 1451 3797 
Q 1122 3375 1075 2522 
Q 1259 2794 1537 2939 
Q 1816 3084 2150 3084 
Q 2853 3084 3261 2657 
Q 3669 2231 3669 1497 
Q 3669 778 3244 343 
Q 2819 -91 2113 -91 
Q 1303 -91 875 529 
Q 447 1150 447 2328 
Q 447 3434 972 4092 
Q 1497 4750 2381 4750 
Q 2619 4750 2861 4703 
Q 3103 4656 3366 4563 
z
" transform="scale(0.015625)"/>
       </defs>
       <use xlink:href="#DejaVuSans-30"/>
       <use xlink:href="#DejaVuSans-2e" x="63.623047"/>
       <use xlink:href="#DejaVuSans-30" x="95.410156"/>
       <use xlink:href="#DejaVuSans-36" x="159.033203"/>
      </g>
     </g>
    </g>
    <g id="xtick_3">
     <g id="line2d_3">
      <g>
       <use xlink:href="#mce890614b5" x="356.746162" y="684.2" style="stroke: #000000; stroke-width: 0.8"/>
      </g>
     </g>
     <g id="text_3">
      <!-- 0.08 -->
      <g transform="translate(338.933662 703.3575)scale(0.16 -0.16)">
       <defs>
        <path id="DejaVuSans-38" d="M 2034 2216 
Q 1584 2216 1326 1975 
Q 1069 1734 1069 1313 
Q 1069 891 1326 650 
Q 1584 409 2034 409 
Q 2484 409 2743 651 
Q 3003 894 3003 1313 
Q 3003 1734 2745 1975 
Q 2488 2216 2034 2216 
z
M 1403 2484 
Q 997 2584 770 2862 
Q 544 3141 544 3541 
Q 544 4100 942 4425 
Q 1341 4750 2034 4750 
Q 2731 4750 3128 4425 
Q 3525 4100 3525 3541 
Q 3525 3141 3298 2862 
Q 3072 2584 2669 2484 
Q 3125 2378 3379 2068 
Q 3634 1759 3634 1313 
Q 3634 634 3220 271 
Q 2806 -91 2034 -91 
Q 1263 -91 848 271 
Q 434 634 434 1313 
Q 434 1759 690 2068 
Q 947 2378 1403 2484 
z
M 1172 3481 
Q 1172 3119 1398 2916 
Q 1625 2713 2034 2713 
Q 2441 2713 2670 2916 
Q 2900 3119 2900 3481 
Q 2900 3844 2670 4047 
Q 2441 4250 2034 4250 
Q 1625 4250 1398 4047 
Q 1172 3844 1172 3481 
z
" transform="scale(0.015625)"/>
       </defs>
       <use xlink:href="#DejaVuSans-30"/>
       <use xlink:href="#DejaVuSans-2e" x="63.623047"/>
       <use xlink:href="#DejaVuSans-30" x="95.410156"/>
       <use xlink:href="#DejaVuSans-38" x="159.033203"/>
      </g>
     </g>
    </g>
    <g id="xtick_4">
     <g id="line2d_4">
      <g>
       <use xlink:href="#mce890614b5" x="498.533838" y="684.2" style="stroke: #000000; stroke-width: 0.8"/>
      </g>
     </g>
     <g id="text_4">
      <!-- 0.10 -->
      <g transform="translate(480.721338 703.3575)scale(0.16 -0.16)">
       <defs>
        <path id="DejaVuSans-31" d="M 794 531 
L 1825 531 
L 1825 4091 
L 703 3866 
L 703 4441 
L 1819 4666 
L 2450 4666 
L 2450 531 
L 3481 531 
L 3481 0 
L 794 0 
L 794 531 
z
" transform="scale(0.015625)"/>
       </defs>
       <use xlink:href="#DejaVuSans-30"/>
       <use xlink:href="#DejaVuSans-2e" x="63.623047"/>
       <use xlink:href="#DejaVuSans-31" x="95.410156"/>
       <use xlink:href="#DejaVuSans-30" x="159.033203"/>
      </g>
     </g>
    </g>
    <g id="xtick_5">
     <g id="line2d_5">
      <g>
       <use xlink:href="#mce890614b5" x="640.321515" y="684.2" style="stroke: #000000; stroke-width: 0.8"/>
      </g>
     </g>
     <g id="text_5">
      <!-- 0.12 -->
      <g transform="translate(622.509015 703.3575)scale(0.16 -0.16)">
       <defs>
        <path id="DejaVuSans-32" d="M 1228 531 
L 3431 531 
L 3431 0 
L 469 0 
L 469 531 
Q 828 903 1448 1529 
Q 2069 2156 2228 2338 
Q 2531 2678 2651 2914 
Q 2772 3150 2772 3378 
Q 2772 3750 2511 3984 
Q 2250 4219 1831 4219 
Q 1534 4219 1204 4116 
Q 875 4013 500 3803 
L 500 4441 
Q 881 4594 1212 4672 
Q 1544 4750 1819 4750 
Q 2544 4750 2975 4387 
Q 3406 4025 3406 3419 
Q 3406 3131 3298 2873 
Q 3191 2616 2906 2266 
Q 2828 2175 2409 1742 
Q 1991 1309 1228 531 
z
" transform="scale(0.015625)"/>
       </defs>
       <use xlink:href="#DejaVuSans-30"/>
       <use xlink:href="#DejaVuSans-2e" x="63.623047"/>
       <use xlink:href="#DejaVuSans-31" x="95.410156"/>
       <use xlink:href="#DejaVuSans-32" x="159.033203"/>
      </g>
     </g>
    </g>
   </g>
   <g id="matplotlib.axis_2"/>
   <g id="line2d_6">
    <path d="M 56.324747 653.427273 
L 70.363131 653.427273 
" clip-path="url(#pd2c7bbee08)" style="fill: none; stroke: #f34e81; stroke-width: 5; stroke-linecap: square"/>
   </g>
   <g id="line2d_7">
    <path d="M 56.324747 637.646387 
L 84.401515 637.646387 
" clip-path="url(#pd2c7bbee08)" style="fill: none; stroke: #f34e81; stroke-width: 5; stroke-linecap: square"/>
   </g>
   <g id="line2d_8">
    <path d="M 70.363131 621.865501 
L 84.401515 621.865501 
" clip-path="url(#pd2c7bbee08)" style="fill: none; stroke: #f34e81; stroke-width: 5; stroke-linecap: square"/>
   </g>
   <g id="line2d_9">
    <path d="M 42.286364 606.084615 
L 84.401515 606.084615 
" clip-path="url(#pd2c7bbee08)" style="fill: none; stroke: #f34e81; stroke-width: 5; stroke-linecap: square"/>
   </g>
   <g id="line2d_10">
    <path d="M 70.363131 590.30373 
L 84.401515 590.30373 
" clip-path="url(#pd2c7bbee08)" style="fill: none; stroke: #f34e81; stroke-width: 5; stroke-linecap: square"/>
   </g>
   <g id="line2d_11">
    <path d="M 42.286364 574.522844 
L 84.401515 574.522844 
" clip-path="url(#pd2c7bbee08)" style="fill: none; stroke: #f34e81; stroke-width: 5; stroke-linecap: square"/>
   </g>
   <g id="line2d_12">
    <path d="M 70.363131 558.741958 
L 84.401515 558.741958 
" clip-path="url(#pd2c7bbee08)" style="fill: none; stroke: #f34e81; stroke-width: 5; stroke-linecap: square"/>
   </g>
   <g id="line2d_13">
    <path d="M 84.401515 542.961072 
L 98.439899 542.961072 
" clip-path="url(#pd2c7bbee08)" style="fill: none; stroke: #f34e81; stroke-width: 5; stroke-linecap: square"/>
   </g>
   <g id="line2d_14">
    <path d="M 56.324747 527.180186 
L 98.439899 527.180186 
" clip-path="url(#pd2c7bbee08)" style="fill: none; stroke: #f34e81; stroke-width: 5; stroke-linecap: square"/>
   </g>
   <g id="line2d_15">
    <path d="M 84.401515 511.399301 
L 98.439899 511.399301 
" clip-path="url(#pd2c7bbee08)" style="fill: none; stroke: #f34e81; stroke-width: 5; stroke-linecap: square"/>
   </g>
   <g id="line2d_16">
    <path d="M 56.324747 495.618415 
L 112.478283 495.618415 
" clip-path="url(#pd2c7bbee08)" style="fill: none; stroke: #f34e81; stroke-width: 5; stroke-linecap: square"/>
   </g>
   <g id="line2d_17">
    <path d="M 84.401515 479.837529 
L 126.516667 479.837529 
" clip-path="url(#pd2c7bbee08)" style="fill: none; stroke: #f34e81; stroke-width: 5; stroke-linecap: square"/>
   </g>
   <g id="line2d_18">
    <path d="M 98.439899 464.056643 
L 126.516667 464.056643 
" clip-path="url(#pd2c7bbee08)" style="fill: none; stroke: #f34e81; stroke-width: 5; stroke-linecap: square"/>
   </g>
   <g id="line2d_19">
    <path d="M 112.478283 448.275758 
L 126.516667 448.275758 
" clip-path="url(#pd2c7bbee08)" style="fill: none; stroke: #f34e81; stroke-width: 5; stroke-linecap: square"/>
   </g>
   <g id="line2d_20">
    <path d="M 112.478283 432.494872 
L 126.516667 432.494872 
" clip-path="url(#pd2c7bbee08)" style="fill: none; stroke: #f34e81; stroke-width: 5; stroke-linecap: square"/>
   </g>
   <g id="line2d_21">
    <path d="M 112.478283 416.713986 
L 126.516667 416.713986 
" clip-path="url(#pd2c7bbee08)" style="fill: none; stroke: #f34e81; stroke-width: 5; stroke-linecap: square"/>
   </g>
   <g id="line2d_22">
    <path d="M 112.478283 400.9331 
L 126.516667 400.9331 
" clip-path="url(#pd2c7bbee08)" style="fill: none; stroke: #f34e81; stroke-width: 5; stroke-linecap: square"/>
   </g>
   <g id="line2d_23">
    <path d="M 112.478283 385.152214 
L 126.516667 385.152214 
" clip-path="url(#pd2c7bbee08)" style="fill: none; stroke: #f34e81; stroke-width: 5; stroke-linecap: square"/>
   </g>
   <g id="line2d_24">
    <path d="M 112.478283 369.371329 
L 126.516667 369.371329 
" clip-path="url(#pd2c7bbee08)" style="fill: none; stroke: #f34e81; stroke-width: 5; stroke-linecap: square"/>
   </g>
   <g id="line2d_25">
    <path d="M 84.401515 353.590443 
L 126.516667 353.590443 
" clip-path="url(#pd2c7bbee08)" style="fill: none; stroke: #f34e81; stroke-width: 5; stroke-linecap: square"/>
   </g>
   <g id="line2d_26">
    <path d="M 42.286364 337.809557 
L 126.516667 337.809557 
" clip-path="url(#pd2c7bbee08)" style="fill: none; stroke: #f34e81; stroke-width: 5; stroke-linecap: square"/>
   </g>
   <g id="line2d_27">
    <path d="M 84.401515 322.028671 
L 140.555051 322.028671 
" clip-path="url(#pd2c7bbee08)" style="fill: none; stroke: #f34e81; stroke-width: 5; stroke-linecap: square"/>
   </g>
   <g id="line2d_28">
    <path d="M 126.516667 306.247786 
L 140.555051 306.247786 
" clip-path="url(#pd2c7bbee08)" style="fill: none; stroke: #f34e81; stroke-width: 5; stroke-linecap: square"/>
   </g>
   <g id="line2d_29">
    <path d="M 98.439899 290.4669 
L 154.593434 290.4669 
" clip-path="url(#pd2c7bbee08)" style="fill: none; stroke: #f34e81; stroke-width: 5; stroke-linecap: square"/>
   </g>
   <g id="line2d_30">
    <path d="M 112.478283 274.686014 
L 154.593434 274.686014 
" clip-path="url(#pd2c7bbee08)" style="fill: none; stroke: #f34e81; stroke-width: 5; stroke-linecap: square"/>
   </g>
   <g id="line2d_31">
    <path d="M 84.401515 258.905128 
L 154.593434 258.905128 
" clip-path="url(#pd2c7bbee08)" style="fill: none; stroke: #f34e81; stroke-width: 5; stroke-linecap: square"/>
   </g>
   <g id="line2d_32">
    <path d="M 126.516667 243.124242 
L 168.631818 243.124242 
" clip-path="url(#pd2c7bbee08)" style="fill: none; stroke: #f34e81; stroke-width: 5; stroke-linecap: square"/>
   </g>
   <g id="line2d_33">
    <path d="M 112.478283 227.343357 
L 168.631818 227.343357 
" clip-path="url(#pd2c7bbee08)" style="fill: none; stroke: #f34e81; stroke-width: 5; stroke-linecap: square"/>
   </g>
   <g id="line2d_34">
    <path d="M 140.555051 211.562471 
L 168.631818 211.562471 
" clip-path="url(#pd2c7bbee08)" style="fill: none; stroke: #f34e81; stroke-width: 5; stroke-linecap: square"/>
   </g>
   <g id="line2d_35">
    <path d="M 154.593434 195.781585 
L 168.631818 195.781585 
" clip-path="url(#pd2c7bbee08)" style="fill: none; stroke: #f34e81; stroke-width: 5; stroke-linecap: square"/>
   </g>
   <g id="line2d_36">
    <path d="M 112.478283 180.000699 
L 182.670202 180.000699 
" clip-path="url(#pd2c7bbee08)" style="fill: none; stroke: #f34e81; stroke-width: 5; stroke-linecap: square"/>
   </g>
   <g id="line2d_37">
    <path d="M 140.555051 164.219814 
L 182.670202 164.219814 
" clip-path="url(#pd2c7bbee08)" style="fill: none; stroke: #f34e81; stroke-width: 5; stroke-linecap: square"/>
   </g>
   <g id="line2d_38">
    <path d="M 98.439899 148.438928 
L 196.708586 148.438928 
" clip-path="url(#pd2c7bbee08)" style="fill: none; stroke: #f34e81; stroke-width: 5; stroke-linecap: square"/>
   </g>
   <g id="line2d_39">
    <path d="M 154.593434 132.658042 
L 196.708586 132.658042 
" clip-path="url(#pd2c7bbee08)" style="fill: none; stroke: #f34e81; stroke-width: 5; stroke-linecap: square"/>
   </g>
   <g id="line2d_40">
    <path d="M 140.555051 116.877156 
L 224.785354 116.877156 
" clip-path="url(#pd2c7bbee08)" style="fill: none; stroke: #f34e81; stroke-width: 5; stroke-linecap: square"/>
   </g>
   <g id="line2d_41">
    <path d="M 280.938889 101.09627 
L 294.977273 101.09627 
" clip-path="url(#pd2c7bbee08)" style="fill: none; stroke: #f34e81; stroke-width: 5; stroke-linecap: square"/>
   </g>
   <g id="line2d_42">
    <path d="M 224.785354 85.315385 
L 294.977273 85.315385 
" clip-path="url(#pd2c7bbee08)" style="fill: none; stroke: #f34e81; stroke-width: 5; stroke-linecap: square"/>
   </g>
   <g id="line2d_43">
    <path d="M 224.785354 69.534499 
L 294.977273 69.534499 
" clip-path="url(#pd2c7bbee08)" style="fill: none; stroke: #f34e81; stroke-width: 5; stroke-linecap: square"/>
   </g>
   <g id="line2d_44">
    <path d="M 224.785354 53.753613 
L 309.015657 53.753613 
" clip-path="url(#pd2c7bbee08)" style="fill: none; stroke: #f34e81; stroke-width: 5; stroke-linecap: square"/>
   </g>
   <g id="line2d_45">
    <path d="M 294.977273 37.972727 
L 379.207576 37.972727 
" clip-path="url(#pd2c7bbee08)" style="fill: none; stroke: #f34e81; stroke-width: 5; stroke-linecap: square"/>
   </g>
   <g id="line2d_46">
    <path d="M 547.668182 653.427273 
L 561.706566 653.427273 
" clip-path="url(#pd2c7bbee08)" style="fill: none; stroke: #274e13; stroke-width: 5; stroke-linecap: square"/>
   </g>
   <g id="line2d_47">
    <path d="M 547.668182 637.646387 
L 561.706566 637.646387 
" clip-path="url(#pd2c7bbee08)" style="fill: none; stroke: #274e13; stroke-width: 5; stroke-linecap: square"/>
   </g>
   <g id="line2d_48">
    <path d="M 589.783333 621.865501 
L 674.013636 621.865501 
" clip-path="url(#pd2c7bbee08)" style="fill: none; stroke: #274e13; stroke-width: 5; stroke-linecap: square"/>
   </g>
   <g id="patch_3">
    <path d="M 10.7 684.2 
L 10.7 7.2 
" style="fill: none; stroke: #000000; stroke-width: 0.8; stroke-linejoin: miter; stroke-linecap: square"/>
   </g>
   <g id="patch_4">
    <path d="M 705.6 684.2 
L 705.6 7.2 
" style="fill: none; stroke: #000000; stroke-width: 0.8; stroke-linejoin: miter; stroke-linecap: square"/>
   </g>
   <g id="patch_5">
    <path d="M 10.7 684.2 
L 705.6 684.2 
" style="fill: none; stroke: #000000; stroke-width: 0.8; stroke-linejoin: miter; stroke-linecap: square"/>
   </g>
   <g id="patch_6">
    <path d="M 10.7 7.2 
L 705.6 7.2 
" style="fill: none; stroke: #000000; stroke-width: 0.8; stroke-linejoin: miter; stroke-linecap: square"/>
   </g>
   <g id="legend_1">
    <g id="patch_7">
     <path d="M 415.7 104.32625 
L 687.4 104.32625 
Q 692.6 104.32625 692.6 99.12625 
L 692.6 25.4 
Q 692.6 20.2 687.4 20.2 
L 415.7 20.2 
Q 410.5 20.2 410.5 25.4 
L 410.5 99.12625 
Q 410.5 104.32625 415.7 104.32625 
z
" style="fill: #ffffff; opacity: 0.8; stroke: #cccccc; stroke-linejoin: miter"/>
    </g>
    <g id="line2d_49">
     <path d="M 420.9 41.255937 
L 446.9 41.255937 
L 472.9 41.255937 
" style="fill: none; stroke: #f34e81; stroke-width: 1.5; stroke-linecap: square"/>
    </g>
    <g id="text_6">
     <!-- $Klebsiella$ $P.$  -->
     <g transform="translate(493.7 50.355937)scale(0.26 -0.26)">
      <defs>
       <path id="DejaVuSans-Oblique-4b" d="M 1081 4666 
L 1716 4666 
L 1331 2700 
L 3781 4666 
L 4622 4666 
L 1850 2438 
L 3878 0 
L 3109 0 
L 1247 2272 
L 806 0 
L 172 0 
L 1081 4666 
z
" transform="scale(0.015625)"/>
       <path id="DejaVuSans-Oblique-6c" d="M 1172 4863 
L 1747 4863 
L 800 0 
L 225 0 
L 1172 4863 
z
" transform="scale(0.015625)"/>
       <path id="DejaVuSans-Oblique-65" d="M 3078 2063 
Q 3088 2113 3092 2166 
Q 3097 2219 3097 2272 
Q 3097 2653 2873 2875 
Q 2650 3097 2266 3097 
Q 1838 3097 1509 2826 
Q 1181 2556 1013 2059 
L 3078 2063 
z
M 3578 1613 
L 903 1613 
Q 884 1494 878 1425 
Q 872 1356 872 1306 
Q 872 872 1139 634 
Q 1406 397 1894 397 
Q 2269 397 2603 481 
Q 2938 566 3225 728 
L 3116 159 
Q 2806 34 2476 -28 
Q 2147 -91 1806 -91 
Q 1078 -91 686 257 
Q 294 606 294 1247 
Q 294 1794 489 2264 
Q 684 2734 1063 3103 
Q 1306 3334 1642 3459 
Q 1978 3584 2356 3584 
Q 2950 3584 3301 3228 
Q 3653 2872 3653 2272 
Q 3653 2128 3634 1964 
Q 3616 1800 3578 1613 
z
" transform="scale(0.015625)"/>
       <path id="DejaVuSans-Oblique-62" d="M 3169 2138 
Q 3169 2591 2961 2847 
Q 2753 3103 2388 3103 
Q 2122 3103 1889 2973 
Q 1656 2844 1484 2597 
Q 1303 2338 1198 1995 
Q 1094 1653 1094 1313 
Q 1094 881 1298 636 
Q 1503 391 1863 391 
Q 2134 391 2365 517 
Q 2597 644 2772 891 
Q 2950 1147 3059 1487 
Q 3169 1828 3169 2138 
z
M 1381 2969 
Q 1594 3256 1914 3420 
Q 2234 3584 2584 3584 
Q 3122 3584 3439 3221 
Q 3756 2859 3756 2241 
Q 3756 1734 3570 1259 
Q 3384 784 3041 416 
Q 2816 172 2522 40 
Q 2228 -91 1906 -91 
Q 1566 -91 1316 65 
Q 1066 222 909 531 
L 806 0 
L 231 0 
L 1178 4863 
L 1753 4863 
L 1381 2969 
z
" transform="scale(0.015625)"/>
       <path id="DejaVuSans-Oblique-73" d="M 3200 3397 
L 3091 2853 
Q 2863 2978 2609 3040 
Q 2356 3103 2088 3103 
Q 1634 3103 1373 2948 
Q 1113 2794 1113 2528 
Q 1113 2219 1719 2053 
Q 1766 2041 1788 2034 
L 1972 1978 
Q 2547 1819 2739 1644 
Q 2931 1469 2931 1166 
Q 2931 609 2489 259 
Q 2047 -91 1331 -91 
Q 1053 -91 747 -37 
Q 441 16 72 128 
L 184 722 
Q 500 559 806 475 
Q 1113 391 1394 391 
Q 1816 391 2080 572 
Q 2344 753 2344 1031 
Q 2344 1331 1650 1516 
L 1591 1531 
L 1394 1581 
Q 956 1697 753 1886 
Q 550 2075 550 2369 
Q 550 2928 970 3256 
Q 1391 3584 2113 3584 
Q 2397 3584 2667 3537 
Q 2938 3491 3200 3397 
z
" transform="scale(0.015625)"/>
       <path id="DejaVuSans-Oblique-69" d="M 1172 4863 
L 1747 4863 
L 1606 4134 
L 1031 4134 
L 1172 4863 
z
M 909 3500 
L 1484 3500 
L 800 0 
L 225 0 
L 909 3500 
z
" transform="scale(0.015625)"/>
       <path id="DejaVuSans-Oblique-61" d="M 3438 1997 
L 3047 0 
L 2472 0 
L 2578 531 
Q 2325 219 2001 64 
Q 1678 -91 1281 -91 
Q 834 -91 548 182 
Q 263 456 263 884 
Q 263 1497 752 1853 
Q 1241 2209 2100 2209 
L 2900 2209 
L 2931 2363 
Q 2938 2388 2941 2417 
Q 2944 2447 2944 2509 
Q 2944 2788 2717 2942 
Q 2491 3097 2081 3097 
Q 1800 3097 1504 3025 
Q 1209 2953 897 2809 
L 997 3341 
Q 1322 3463 1633 3523 
Q 1944 3584 2234 3584 
Q 2853 3584 3176 3315 
Q 3500 3047 3500 2534 
Q 3500 2431 3484 2292 
Q 3469 2153 3438 1997 
z
M 2816 1759 
L 2241 1759 
Q 1534 1759 1195 1570 
Q 856 1381 856 984 
Q 856 709 1029 553 
Q 1203 397 1509 397 
Q 1978 397 2328 733 
Q 2678 1069 2791 1631 
L 2816 1759 
z
" transform="scale(0.015625)"/>
       <path id="DejaVuSans-20" transform="scale(0.015625)"/>
       <path id="DejaVuSans-Oblique-50" d="M 1081 4666 
L 2541 4666 
Q 3178 4666 3512 4369 
Q 3847 4072 3847 3500 
Q 3847 2731 3353 2303 
Q 2859 1875 1966 1875 
L 1172 1875 
L 806 0 
L 172 0 
L 1081 4666 
z
M 1613 4147 
L 1275 2394 
L 2069 2394 
Q 2606 2394 2893 2669 
Q 3181 2944 3181 3456 
Q 3181 3784 2986 3965 
Q 2791 4147 2438 4147 
L 1613 4147 
z
" transform="scale(0.015625)"/>
      </defs>
      <use xlink:href="#DejaVuSans-Oblique-4b" transform="translate(0 0.015625)"/>
      <use xlink:href="#DejaVuSans-Oblique-6c" transform="translate(65.576172 0.015625)"/>
      <use xlink:href="#DejaVuSans-Oblique-65" transform="translate(93.359375 0.015625)"/>
      <use xlink:href="#DejaVuSans-Oblique-62" transform="translate(154.882812 0.015625)"/>
      <use xlink:href="#DejaVuSans-Oblique-73" transform="translate(218.359375 0.015625)"/>
      <use xlink:href="#DejaVuSans-Oblique-69" transform="translate(270.458984 0.015625)"/>
      <use xlink:href="#DejaVuSans-Oblique-65" transform="translate(298.242188 0.015625)"/>
      <use xlink:href="#DejaVuSans-Oblique-6c" transform="translate(359.765625 0.015625)"/>
      <use xlink:href="#DejaVuSans-Oblique-6c" transform="translate(387.548828 0.015625)"/>
      <use xlink:href="#DejaVuSans-Oblique-61" transform="translate(415.332031 0.015625)"/>
      <use xlink:href="#DejaVuSans-20" transform="translate(476.611328 0.015625)"/>
      <use xlink:href="#DejaVuSans-Oblique-50" transform="translate(508.398438 0.015625)"/>
      <use xlink:href="#DejaVuSans-2e" transform="translate(568.701172 0.015625)"/>
      <use xlink:href="#DejaVuSans-20" transform="translate(619.970703 0.015625)"/>
     </g>
    </g>
    <g id="line2d_50">
     <path d="M 420.9 79.419062 
L 446.9 79.419062 
L 472.9 79.419062 
" style="fill: none; stroke: #274e13; stroke-width: 1.5; stroke-linecap: square"/>
    </g>
    <g id="text_7">
     <!-- $Escherichia$ $C.$ -->
     <g transform="translate(493.7 88.519062)scale(0.26 -0.26)">
      <defs>
       <path id="DejaVuSans-Oblique-45" d="M 1081 4666 
L 4031 4666 
L 3928 4134 
L 1606 4134 
L 1338 2753 
L 3566 2753 
L 3463 2222 
L 1234 2222 
L 909 531 
L 3284 531 
L 3181 0 
L 172 0 
L 1081 4666 
z
" transform="scale(0.015625)"/>
       <path id="DejaVuSans-Oblique-63" d="M 3431 3366 
L 3316 2797 
Q 3109 2947 2876 3022 
Q 2644 3097 2394 3097 
Q 2119 3097 1870 3000 
Q 1622 2903 1453 2725 
Q 1184 2453 1037 2087 
Q 891 1722 891 1331 
Q 891 859 1127 628 
Q 1363 397 1844 397 
Q 2081 397 2348 469 
Q 2616 541 2906 684 
L 2797 116 
Q 2547 13 2283 -39 
Q 2019 -91 1741 -91 
Q 1044 -91 669 257 
Q 294 606 294 1253 
Q 294 1797 489 2255 
Q 684 2713 1069 3078 
Q 1331 3328 1684 3456 
Q 2038 3584 2456 3584 
Q 2700 3584 2940 3529 
Q 3181 3475 3431 3366 
z
" transform="scale(0.015625)"/>
       <path id="DejaVuSans-Oblique-68" d="M 3566 2113 
L 3156 0 
L 2578 0 
L 2988 2091 
Q 3016 2238 3031 2350 
Q 3047 2463 3047 2528 
Q 3047 2791 2881 2937 
Q 2716 3084 2419 3084 
Q 1956 3084 1617 2771 
Q 1278 2459 1178 1941 
L 800 0 
L 225 0 
L 1172 4863 
L 1747 4863 
L 1375 2950 
Q 1594 3244 1934 3414 
Q 2275 3584 2650 3584 
Q 3113 3584 3367 3334 
Q 3622 3084 3622 2631 
Q 3622 2519 3608 2391 
Q 3594 2263 3566 2113 
z
" transform="scale(0.015625)"/>
       <path id="DejaVuSans-Oblique-72" d="M 2853 2969 
Q 2766 3016 2653 3041 
Q 2541 3066 2413 3066 
Q 1953 3066 1609 2717 
Q 1266 2369 1153 1784 
L 800 0 
L 225 0 
L 909 3500 
L 1484 3500 
L 1375 2956 
Q 1603 3259 1920 3421 
Q 2238 3584 2597 3584 
Q 2691 3584 2781 3573 
Q 2872 3563 2963 3538 
L 2853 2969 
z
" transform="scale(0.015625)"/>
       <path id="DejaVuSans-Oblique-43" d="M 4447 4306 
L 4319 3641 
Q 4019 3944 3683 4091 
Q 3347 4238 2956 4238 
Q 2422 4238 2017 3981 
Q 1613 3725 1319 3200 
Q 1131 2863 1032 2486 
Q 934 2109 934 1728 
Q 934 1091 1264 756 
Q 1594 422 2222 422 
Q 2656 422 3056 561 
Q 3456 700 3834 978 
L 3688 231 
Q 3316 72 2936 -9 
Q 2556 -91 2175 -91 
Q 1278 -91 773 396 
Q 269 884 269 1753 
Q 269 2309 461 2846 
Q 653 3384 1013 3828 
Q 1394 4300 1883 4525 
Q 2372 4750 3022 4750 
Q 3422 4750 3780 4639 
Q 4138 4528 4447 4306 
z
" transform="scale(0.015625)"/>
      </defs>
      <use xlink:href="#DejaVuSans-Oblique-45" transform="translate(0 0.015625)"/>
      <use xlink:href="#DejaVuSans-Oblique-73" transform="translate(63.183594 0.015625)"/>
      <use xlink:href="#DejaVuSans-Oblique-63" transform="translate(115.283203 0.015625)"/>
      <use xlink:href="#DejaVuSans-Oblique-68" transform="translate(170.263672 0.015625)"/>
      <use xlink:href="#DejaVuSans-Oblique-65" transform="translate(233.642578 0.015625)"/>
      <use xlink:href="#DejaVuSans-Oblique-72" transform="translate(295.166016 0.015625)"/>
      <use xlink:href="#DejaVuSans-Oblique-69" transform="translate(336.279297 0.015625)"/>
      <use xlink:href="#DejaVuSans-Oblique-63" transform="translate(364.0625 0.015625)"/>
      <use xlink:href="#DejaVuSans-Oblique-68" transform="translate(419.042969 0.015625)"/>
      <use xlink:href="#DejaVuSans-Oblique-69" transform="translate(482.421875 0.015625)"/>
      <use xlink:href="#DejaVuSans-Oblique-61" transform="translate(510.205078 0.015625)"/>
      <use xlink:href="#DejaVuSans-20" transform="translate(571.484375 0.015625)"/>
      <use xlink:href="#DejaVuSans-Oblique-43" transform="translate(603.271484 0.015625)"/>
      <use xlink:href="#DejaVuSans-2e" transform="translate(673.095703 0.015625)"/>
     </g>
    </g>
   </g>
  </g>
 </g>
 <defs>
  <clipPath id="pd2c7bbee08">
   <rect x="10.7" y="7.2" width="694.9" height="677"/>
  </clipPath>
 </defs>
</svg>
