<?xml version="1.0" encoding="utf-8" standalone="no"?>
<!DOCTYPE svg PUBLIC "-//W3C//DTD SVG 1.1//EN"
  "http://www.w3.org/Graphics/SVG/1.1/DTD/svg11.dtd">
<svg xmlns:xlink="http://www.w3.org/1999/xlink" width="712.8pt" height="713.885pt" viewBox="0 0 712.8 713.885" xmlns="http://www.w3.org/2000/svg" version="1.1">
 <metadata>
  <rdf:RDF xmlns:dc="http://purl.org/dc/elements/1.1/" xmlns:cc="http://creativecommons.org/ns#" xmlns:rdf="http://www.w3.org/1999/02/22-rdf-syntax-ns#">
   <cc:Work>
    <dc:type rdf:resource="http://purl.org/dc/dcmitype/StillImage"/>
    <dc:date>2024-10-23T10:19:33.734151</dc:date>
    <dc:format>image/svg+xml</dc:format>
    <dc:creator>
     <cc:Agent>
      <dc:title>Matplotlib v3.5.3, https://matplotlib.org/</dc:title>
     </cc:Agent>
    </dc:creator>
   </cc:Work>
  </rdf:RDF>
 </metadata>
 <defs>
  <style type="text/css">*{stroke-linejoin: round; stroke-linecap: butt}</style>
 </defs>
 <g id="figure_1">
  <g id="patch_1">
   <path d="M 0 713.885 
L 712.8 713.885 
L 712.8 0 
L 0 0 
z
" style="fill: #ffffff"/>
  </g>
  <g id="axes_1">
   <g id="patch_2">
    <path d="M 10.7 684.2 
L 705.6 684.2 
L 705.6 7.2 
L 10.7 7.2 
z
" style="fill: #ffffff"/>
   </g>
   <g id="matplotlib.axis_1">
    <g id="xtick_1">
     <g id="line2d_1">
      <defs>
       <path id="m67348b03ab" d="M 0 0 
L 0 3.5 
" style="stroke: #000000; stroke-width: 0.8"/>
      </defs>
      <g>
       <use xlink:href="#m67348b03ab" x="73.170808" y="684.2" style="stroke: #000000; stroke-width: 0.8"/>
      </g>
     </g>
     <g id="text_1">
      <!-- 0.04 -->
      <g transform="translate(55.358308 703.3575)scale(0.16 -0.16)">
       <defs>
        <path id="DejaVuSans-30" d="M 2034 4250 
Q 1547 4250 1301 3770 
Q 1056 3291 1056 2328 
Q 1056 1369 1301 889 
Q 1547 409 2034 409 
Q 2525 409 2770 889 
Q 3016 1369 3016 2328 
Q 3016 3291 2770 3770 
Q 2525 4250 2034 4250 
z
M 2034 4750 
Q 2819 4750 3233 4129 
Q 3647 3509 3647 2328 
Q 3647 1150 3233 529 
Q 2819 -91 2034 -91 
Q 1250 -91 836 529 
Q 422 1150 422 2328 
Q 422 3509 836 4129 
Q 1250 4750 2034 4750 
z
" transform="scale(0.015625)"/>
        <path id="DejaVuSans-2e" d="M 684 794 
L 1344 794 
L 1344 0 
L 684 0 
L 684 794 
z
" transform="scale(0.015625)"/>
        <path id="DejaVuSans-34" d="M 2419 4116 
L 825 1625 
L 2419 1625 
L 2419 4116 
z
M 2253 4666 
L 3047 4666 
L 3047 1625 
L 3713 1625 
L 3713 1100 
L 3047 1100 
L 3047 0 
L 2419 0 
L 2419 1100 
L 313 1100 
L 313 1709 
L 2253 4666 
z
" transform="scale(0.015625)"/>
       </defs>
       <use xlink:href="#DejaVuSans-30"/>
       <use xlink:href="#DejaVuSans-2e" x="63.623047"/>
       <use xlink:href="#DejaVuSans-30" x="95.410156"/>
       <use xlink:href="#DejaVuSans-34" x="159.033203"/>
      </g>
     </g>
    </g>
    <g id="xtick_2">
     <g id="line2d_2">
      <g>
       <use xlink:href="#m67348b03ab" x="214.958485" y="684.2" style="stroke: #000000; stroke-width: 0.8"/>
      </g>
     </g>
     <g id="text_2">
      <!-- 0.06 -->
      <g transform="translate(197.145985 703.3575)scale(0.16 -0.16)">
       <defs>
        <path id="DejaVuSans-36" d="M 2113 2584 
Q 1688 2584 1439 2293 
Q 1191 2003 1191 1497 
Q 1191 994 1439 701 
Q 1688 409 2113 409 
Q 2538 409 2786 701 
Q 3034 994 3034 1497 
Q 3034 2003 2786 2293 
Q 2538 2584 2113 2584 
z
M 3366 4563 
L 3366 3988 
Q 3128 4100 2886 4159 
Q 2644 4219 2406 4219 
Q 1781 4219 1451 3797 
Q 1122 3375 1075 2522 
Q 1259 2794 1537 2939 
Q 1816 3084 2150 3084 
Q 2853 3084 3261 2657 
Q 3669 2231 3669 1497 
Q 3669 778 3244 343 
Q 2819 -91 2113 -91 
Q 1303 -91 875 529 
Q 447 1150 447 2328 
Q 447 3434 972 4092 
Q 1497 4750 2381 4750 
Q 2619 4750 2861 4703 
Q 3103 4656 3366 4563 
z
" transform="scale(0.015625)"/>
       </defs>
       <use xlink:href="#DejaVuSans-30"/>
       <use xlink:href="#DejaVuSans-2e" x="63.623047"/>
       <use xlink:href="#DejaVuSans-30" x="95.410156"/>
       <use xlink:href="#DejaVuSans-36" x="159.033203"/>
      </g>
     </g>
    </g>
    <g id="xtick_3">
     <g id="line2d_3">
      <g>
       <use xlink:href="#m67348b03ab" x="356.746162" y="684.2" style="stroke: #000000; stroke-width: 0.8"/>
      </g>
     </g>
     <g id="text_3">
      <!-- 0.08 -->
      <g transform="translate(338.933662 703.3575)scale(0.16 -0.16)">
       <defs>
        <path id="DejaVuSans-38" d="M 2034 2216 
Q 1584 2216 1326 1975 
Q 1069 1734 1069 1313 
Q 1069 891 1326 650 
Q 1584 409 2034 409 
Q 2484 409 2743 651 
Q 3003 894 3003 1313 
Q 3003 1734 2745 1975 
Q 2488 2216 2034 2216 
z
M 1403 2484 
Q 997 2584 770 2862 
Q 544 3141 544 3541 
Q 544 4100 942 4425 
Q 1341 4750 2034 4750 
Q 2731 4750 3128 4425 
Q 3525 4100 3525 3541 
Q 3525 3141 3298 2862 
Q 3072 2584 2669 2484 
Q 3125 2378 3379 2068 
Q 3634 1759 3634 1313 
Q 3634 634 3220 271 
Q 2806 -91 2034 -91 
Q 1263 -91 848 271 
Q 434 634 434 1313 
Q 434 1759 690 2068 
Q 947 2378 1403 2484 
z
M 1172 3481 
Q 1172 3119 1398 2916 
Q 1625 2713 2034 2713 
Q 2441 2713 2670 2916 
Q 2900 3119 2900 3481 
Q 2900 3844 2670 4047 
Q 2441 4250 2034 4250 
Q 1625 4250 1398 4047 
Q 1172 3844 1172 3481 
z
" transform="scale(0.015625)"/>
       </defs>
       <use xlink:href="#DejaVuSans-30"/>
       <use xlink:href="#DejaVuSans-2e" x="63.623047"/>
       <use xlink:href="#DejaVuSans-30" x="95.410156"/>
       <use xlink:href="#DejaVuSans-38" x="159.033203"/>
      </g>
     </g>
    </g>
    <g id="xtick_4">
     <g id="line2d_4">
      <g>
       <use xlink:href="#m67348b03ab" x="498.533838" y="684.2" style="stroke: #000000; stroke-width: 0.8"/>
      </g>
     </g>
     <g id="text_4">
      <!-- 0.10 -->
      <g transform="translate(480.721338 703.3575)scale(0.16 -0.16)">
       <defs>
        <path id="DejaVuSans-31" d="M 794 531 
L 1825 531 
L 1825 4091 
L 703 3866 
L 703 4441 
L 1819 4666 
L 2450 4666 
L 2450 531 
L 3481 531 
L 3481 0 
L 794 0 
L 794 531 
z
" transform="scale(0.015625)"/>
       </defs>
       <use xlink:href="#DejaVuSans-30"/>
       <use xlink:href="#DejaVuSans-2e" x="63.623047"/>
       <use xlink:href="#DejaVuSans-31" x="95.410156"/>
       <use xlink:href="#DejaVuSans-30" x="159.033203"/>
      </g>
     </g>
    </g>
    <g id="xtick_5">
     <g id="line2d_5">
      <g>
       <use xlink:href="#m67348b03ab" x="640.321515" y="684.2" style="stroke: #000000; stroke-width: 0.8"/>
      </g>
     </g>
     <g id="text_5">
      <!-- 0.12 -->
      <g transform="translate(622.509015 703.3575)scale(0.16 -0.16)">
       <defs>
        <path id="DejaVuSans-32" d="M 1228 531 
L 3431 531 
L 3431 0 
L 469 0 
L 469 531 
Q 828 903 1448 1529 
Q 2069 2156 2228 2338 
Q 2531 2678 2651 2914 
Q 2772 3150 2772 3378 
Q 2772 3750 2511 3984 
Q 2250 4219 1831 4219 
Q 1534 4219 1204 4116 
Q 875 4013 500 3803 
L 500 4441 
Q 881 4594 1212 4672 
Q 1544 4750 1819 4750 
Q 2544 4750 2975 4387 
Q 3406 4025 3406 3419 
Q 3406 3131 3298 2873 
Q 3191 2616 2906 2266 
Q 2828 2175 2409 1742 
Q 1991 1309 1228 531 
z
" transform="scale(0.015625)"/>
       </defs>
       <use xlink:href="#DejaVuSans-30"/>
       <use xlink:href="#DejaVuSans-2e" x="63.623047"/>
       <use xlink:href="#DejaVuSans-31" x="95.410156"/>
       <use xlink:href="#DejaVuSans-32" x="159.033203"/>
      </g>
     </g>
    </g>
   </g>
   <g id="matplotlib.axis_2"/>
   <g id="line2d_6">
    <path d="M 56.324747 653.427273 
L 70.363131 653.427273 
" clip-path="url(#p9da853739a)" style="fill: none; stroke: #f34e81; stroke-width: 5; stroke-linecap: square"/>
   </g>
   <g id="line2d_7">
    <path d="M 56.324747 637.646387 
L 84.401515 637.646387 
" clip-path="url(#p9da853739a)" style="fill: none; stroke: #f34e81; stroke-width: 5; stroke-linecap: square"/>
   </g>
   <g id="line2d_8">
    <path d="M 70.363131 621.865501 
L 84.401515 621.865501 
" clip-path="url(#p9da853739a)" style="fill: none; stroke: #f34e81; stroke-width: 5; stroke-linecap: square"/>
   </g>
   <g id="line2d_9">
    <path d="M 42.286364 606.084615 
L 84.401515 606.084615 
" clip-path="url(#p9da853739a)" style="fill: none; stroke: #f34e81; stroke-width: 5; stroke-linecap: square"/>
   </g>
   <g id="line2d_10">
    <path d="M 70.363131 590.30373 
L 84.401515 590.30373 
" clip-path="url(#p9da853739a)" style="fill: none; stroke: #f34e81; stroke-width: 5; stroke-linecap: square"/>
   </g>
   <g id="line2d_11">
    <path d="M 42.286364 574.522844 
L 84.401515 574.522844 
" clip-path="url(#p9da853739a)" style="fill: none; stroke: #f34e81; stroke-width: 5; stroke-linecap: square"/>
   </g>
   <g id="line2d_12">
    <path d="M 70.363131 558.741958 
L 84.401515 558.741958 
" clip-path="url(#p9da853739a)" style="fill: none; stroke: #f34e81; stroke-width: 5; stroke-linecap: square"/>
   </g>
   <g id="line2d_13">
    <path d="M 84.401515 542.961072 
L 98.439899 542.961072 
" clip-path="url(#p9da853739a)" style="fill: none; stroke: #f34e81; stroke-width: 5; stroke-linecap: square"/>
   </g>
   <g id="line2d_14">
    <path d="M 56.324747 527.180186 
L 98.439899 527.180186 
" clip-path="url(#p9da853739a)" style="fill: none; stroke: #f34e81; stroke-width: 5; stroke-linecap: square"/>
   </g>
   <g id="line2d_15">
    <path d="M 84.401515 511.399301 
L 98.439899 511.399301 
" clip-path="url(#p9da853739a)" style="fill: none; stroke: #f34e81; stroke-width: 5; stroke-linecap: square"/>
   </g>
   <g id="line2d_16">
    <path d="M 56.324747 495.618415 
L 112.478283 495.618415 
" clip-path="url(#p9da853739a)" style="fill: none; stroke: #f34e81; stroke-width: 5; stroke-linecap: square"/>
   </g>
   <g id="line2d_17">
    <path d="M 84.401515 479.837529 
L 126.516667 479.837529 
" clip-path="url(#p9da853739a)" style="fill: none; stroke: #f34e81; stroke-width: 5; stroke-linecap: square"/>
   </g>
   <g id="line2d_18">
    <path d="M 98.439899 464.056643 
L 126.516667 464.056643 
" clip-path="url(#p9da853739a)" style="fill: none; stroke: #f34e81; stroke-width: 5; stroke-linecap: square"/>
   </g>
   <g id="line2d_19">
    <path d="M 112.478283 448.275758 
L 126.516667 448.275758 
" clip-path="url(#p9da853739a)" style="fill: none; stroke: #f34e81; stroke-width: 5; stroke-linecap: square"/>
   </g>
   <g id="line2d_20">
    <path d="M 112.478283 432.494872 
L 126.516667 432.494872 
" clip-path="url(#p9da853739a)" style="fill: none; stroke: #f34e81; stroke-width: 5; stroke-linecap: square"/>
   </g>
   <g id="line2d_21">
    <path d="M 112.478283 416.713986 
L 126.516667 416.713986 
" clip-path="url(#p9da853739a)" style="fill: none; stroke: #f34e81; stroke-width: 5; stroke-linecap: square"/>
   </g>
   <g id="line2d_22">
    <path d="M 112.478283 400.9331 
L 126.516667 400.9331 
" clip-path="url(#p9da853739a)" style="fill: none; stroke: #f34e81; stroke-width: 5; stroke-linecap: square"/>
   </g>
   <g id="line2d_23">
    <path d="M 112.478283 385.152214 
L 126.516667 385.152214 
" clip-path="url(#p9da853739a)" style="fill: none; stroke: #f34e81; stroke-width: 5; stroke-linecap: square"/>
   </g>
   <g id="line2d_24">
    <path d="M 112.478283 369.371329 
L 126.516667 369.371329 
" clip-path="url(#p9da853739a)" style="fill: none; stroke: #f34e81; stroke-width: 5; stroke-linecap: square"/>
   </g>
   <g id="line2d_25">
    <path d="M 84.401515 353.590443 
L 126.516667 353.590443 
" clip-path="url(#p9da853739a)" style="fill: none; stroke: #f34e81; stroke-width: 5; stroke-linecap: square"/>
   </g>
   <g id="line2d_26">
    <path d="M 42.286364 337.809557 
L 126.516667 337.809557 
" clip-path="url(#p9da853739a)" style="fill: none; stroke: #f34e81; stroke-width: 5; stroke-linecap: square"/>
   </g>
   <g id="line2d_27">
    <path d="M 84.401515 322.028671 
L 140.555051 322.028671 
" clip-path="url(#p9da853739a)" style="fill: none; stroke: #f34e81; stroke-width: 5; stroke-linecap: square"/>
   </g>
   <g id="line2d_28">
    <path d="M 126.516667 306.247786 
L 140.555051 306.247786 
" clip-path="url(#p9da853739a)" style="fill: none; stroke: #f34e81; stroke-width: 5; stroke-linecap: square"/>
   </g>
   <g id="line2d_29">
    <path d="M 98.439899 290.4669 
L 154.593434 290.4669 
" clip-path="url(#p9da853739a)" style="fill: none; stroke: #f34e81; stroke-width: 5; stroke-linecap: square"/>
   </g>
   <g id="line2d_30">
    <path d="M 112.478283 274.686014 
L 154.593434 274.686014 
" clip-path="url(#p9da853739a)" style="fill: none; stroke: #f34e81; stroke-width: 5; stroke-linecap: square"/>
   </g>
   <g id="line2d_31">
    <path d="M 84.401515 258.905128 
L 154.593434 258.905128 
" clip-path="url(#p9da853739a)" style="fill: none; stroke: #f34e81; stroke-width: 5; stroke-linecap: square"/>
   </g>
   <g id="line2d_32">
    <path d="M 126.516667 243.124242 
L 168.631818 243.124242 
" clip-path="url(#p9da853739a)" style="fill: none; stroke: #f34e81; stroke-width: 5; stroke-linecap: square"/>
   </g>
   <g id="line2d_33">
    <path d="M 112.478283 227.343357 
L 168.631818 227.343357 
" clip-path="url(#p9da853739a)" style="fill: none; stroke: #f34e81; stroke-width: 5; stroke-linecap: square"/>
   </g>
   <g id="line2d_34">
    <path d="M 140.555051 211.562471 
L 168.631818 211.562471 
" clip-path="url(#p9da853739a)" style="fill: none; stroke: #f34e81; stroke-width: 5; stroke-linecap: square"/>
   </g>
   <g id="line2d_35">
    <path d="M 154.593434 195.781585 
L 168.631818 195.781585 
" clip-path="url(#p9da853739a)" style="fill: none; stroke: #f34e81; stroke-width: 5; stroke-linecap: square"/>
   </g>
   <g id="line2d_36">
    <path d="M 112.478283 180.000699 
L 182.670202 180.000699 
" clip-path="url(#p9da853739a)" style="fill: none; stroke: #f34e81; stroke-width: 5; stroke-linecap: square"/>
   </g>
   <g id="line2d_37">
    <path d="M 140.555051 164.219814 
L 182.670202 164.219814 
" clip-path="url(#p9da853739a)" style="fill: none; stroke: #f34e81; stroke-width: 5; stroke-linecap: square"/>
   </g>
   <g id="line2d_38">
    <path d="M 98.439899 148.438928 
L 196.708586 148.438928 
" clip-path="url(#p9da853739a)" style="fill: none; stroke: #f34e81; stroke-width: 5; stroke-linecap: square"/>
   </g>
   <g id="line2d_39">
    <path d="M 154.593434 132.658042 
L 196.708586 132.658042 
" clip-path="url(#p9da853739a)" style="fill: none; stroke: #f34e81; stroke-width: 5; stroke-linecap: square"/>
   </g>
   <g id="line2d_40">
    <path d="M 140.555051 116.877156 
L 224.785354 116.877156 
" clip-path="url(#p9da853739a)" style="fill: none; stroke: #f34e81; stroke-width: 5; stroke-linecap: square"/>
   </g>
   <g id="line2d_41">
    <path d="M 280.938889 101.09627 
L 294.977273 101.09627 
" clip-path="url(#p9da853739a)" style="fill: none; stroke: #f34e81; stroke-width: 5; stroke-linecap: square"/>
   </g>
   <g id="line2d_42">
    <path d="M 224.785354 85.315385 
L 294.977273 85.315385 
" clip-path="url(#p9da853739a)" style="fill: none; stroke: #f34e81; stroke-width: 5; stroke-linecap: square"/>
   </g>
   <g id="line2d_43">
    <path d="M 224.785354 69.534499 
L 294.977273 69.534499 
" clip-path="url(#p9da853739a)" style="fill: none; stroke: #f34e81; stroke-width: 5; stroke-linecap: square"/>
   </g>
   <g id="line2d_44">
    <path d="M 224.785354 53.753613 
L 309.015657 53.753613 
" clip-path="url(#p9da853739a)" style="fill: none; stroke: #f34e81; stroke-width: 5; stroke-linecap: square"/>
   </g>
   <g id="line2d_45">
    <path d="M 294.977273 37.972727 
L 379.207576 37.972727 
" clip-path="url(#p9da853739a)" style="fill: none; stroke: #f34e81; stroke-width: 5; stroke-linecap: square"/>
   </g>
   <g id="line2d_46">
    <path d="M 547.668182 653.427273 
L 561.706566 653.427273 
" clip-path="url(#p9da853739a)" style="fill: none; stroke: #274e13; stroke-width: 5; stroke-linecap: square"/>
   </g>
   <g id="line2d_47">
    <path d="M 547.668182 637.646387 
L 561.706566 637.646387 
" clip-path="url(#p9da853739a)" style="fill: none; stroke: #274e13; stroke-width: 5; stroke-linecap: square"/>
   </g>
   <g id="line2d_48">
    <path d="M 589.783333 621.865501 
L 674.013636 621.865501 
" clip-path="url(#p9da853739a)" style="fill: none; stroke: #274e13; stroke-width: 5; stroke-linecap: square"/>
   </g>
   <g id="patch_3">
    <path d="M 10.7 684.2 
L 10.7 7.2 
" style="fill: none; stroke: #000000; stroke-width: 0.8; stroke-linejoin: miter; stroke-linecap: square"/>
   </g>
   <g id="patch_4">
    <path d="M 705.6 684.2 
L 705.6 7.2 
" style="fill: none; stroke: #000000; stroke-width: 0.8; stroke-linejoin: miter; stroke-linecap: square"/>
   </g>
   <g id="patch_5">
    <path d="M 10.7 684.2 
L 705.6 684.2 
" style="fill: none; stroke: #000000; stroke-width: 0.8; stroke-linejoin: miter; stroke-linecap: square"/>
   </g>
   <g id="patch_6">
    <path d="M 10.7 7.2 
L 705.6 7.2 
" style="fill: none; stroke: #000000; stroke-width: 0.8; stroke-linejoin: miter; stroke-linecap: square"/>
   </g>
   <g id="legend_1">
    <g id="patch_7">
     <path d="M 394.9 104.383125 
L 687.4 104.383125 
Q 692.6 104.383125 692.6 99.183125 
L 692.6 25.4 
Q 692.6 20.2 687.4 20.2 
L 394.9 20.2 
Q 389.7 20.2 389.7 25.4 
L 389.7 99.183125 
Q 389.7 104.383125 394.9 104.383125 
z
" style="fill: #ffffff; opacity: 0.8; stroke: #cccccc; stroke-linejoin: miter"/>
    </g>
    <g id="line2d_49">
     <path d="M 400.1 41.26 
L 426.1 41.26 
L 452.1 41.26 
" style="fill: none; stroke: #f34e81; stroke-width: 1.5; stroke-linecap: square"/>
    </g>
    <g id="text_6">
     <!-- $K.$ $pneumoniae$  -->
     <g transform="translate(472.9 50.36)scale(0.26 -0.26)">
      <defs>
       <path id="DejaVuSans-Oblique-4b" d="M 1081 4666 
L 1716 4666 
L 1331 2700 
L 3781 4666 
L 4622 4666 
L 1850 2438 
L 3878 0 
L 3109 0 
L 1247 2272 
L 806 0 
L 172 0 
L 1081 4666 
z
" transform="scale(0.015625)"/>
       <path id="DejaVuSans-20" transform="scale(0.015625)"/>
       <path id="DejaVuSans-Oblique-70" d="M 3175 2156 
Q 3175 2616 2975 2859 
Q 2775 3103 2400 3103 
Q 2144 3103 1911 2972 
Q 1678 2841 1497 2591 
Q 1319 2344 1212 1994 
Q 1106 1644 1106 1300 
Q 1106 863 1306 627 
Q 1506 391 1875 391 
Q 2147 391 2380 519 
Q 2613 647 2778 891 
Q 2956 1147 3065 1494 
Q 3175 1841 3175 2156 
z
M 1394 2969 
Q 1625 3272 1939 3428 
Q 2253 3584 2638 3584 
Q 3175 3584 3472 3232 
Q 3769 2881 3769 2247 
Q 3769 1728 3584 1258 
Q 3400 788 3053 416 
Q 2822 169 2531 39 
Q 2241 -91 1919 -91 
Q 1547 -91 1294 64 
Q 1041 219 916 525 
L 556 -1331 
L -19 -1331 
L 922 3500 
L 1497 3500 
L 1394 2969 
z
" transform="scale(0.015625)"/>
       <path id="DejaVuSans-Oblique-6e" d="M 3566 2113 
L 3156 0 
L 2578 0 
L 2988 2091 
Q 3016 2238 3031 2350 
Q 3047 2463 3047 2528 
Q 3047 2791 2881 2937 
Q 2716 3084 2419 3084 
Q 1956 3084 1622 2776 
Q 1288 2469 1184 1941 
L 800 0 
L 225 0 
L 903 3500 
L 1478 3500 
L 1363 2950 
Q 1603 3253 1940 3418 
Q 2278 3584 2650 3584 
Q 3113 3584 3367 3334 
Q 3622 3084 3622 2631 
Q 3622 2519 3608 2391 
Q 3594 2263 3566 2113 
z
" transform="scale(0.015625)"/>
       <path id="DejaVuSans-Oblique-65" d="M 3078 2063 
Q 3088 2113 3092 2166 
Q 3097 2219 3097 2272 
Q 3097 2653 2873 2875 
Q 2650 3097 2266 3097 
Q 1838 3097 1509 2826 
Q 1181 2556 1013 2059 
L 3078 2063 
z
M 3578 1613 
L 903 1613 
Q 884 1494 878 1425 
Q 872 1356 872 1306 
Q 872 872 1139 634 
Q 1406 397 1894 397 
Q 2269 397 2603 481 
Q 2938 566 3225 728 
L 3116 159 
Q 2806 34 2476 -28 
Q 2147 -91 1806 -91 
Q 1078 -91 686 257 
Q 294 606 294 1247 
Q 294 1794 489 2264 
Q 684 2734 1063 3103 
Q 1306 3334 1642 3459 
Q 1978 3584 2356 3584 
Q 2950 3584 3301 3228 
Q 3653 2872 3653 2272 
Q 3653 2128 3634 1964 
Q 3616 1800 3578 1613 
z
" transform="scale(0.015625)"/>
       <path id="DejaVuSans-Oblique-75" d="M 428 1388 
L 838 3500 
L 1416 3500 
L 1006 1409 
Q 975 1256 961 1147 
Q 947 1038 947 966 
Q 947 700 1109 554 
Q 1272 409 1569 409 
Q 2031 409 2368 721 
Q 2706 1034 2809 1563 
L 3194 3500 
L 3769 3500 
L 3091 0 
L 2516 0 
L 2631 550 
Q 2388 244 2052 76 
Q 1716 -91 1338 -91 
Q 878 -91 622 161 
Q 366 413 366 863 
Q 366 956 381 1097 
Q 397 1238 428 1388 
z
" transform="scale(0.015625)"/>
       <path id="DejaVuSans-Oblique-6d" d="M 5747 2113 
L 5338 0 
L 4763 0 
L 5166 2094 
Q 5191 2228 5203 2325 
Q 5216 2422 5216 2491 
Q 5216 2772 5059 2928 
Q 4903 3084 4622 3084 
Q 4203 3084 3875 2770 
Q 3547 2456 3450 1953 
L 3066 0 
L 2491 0 
L 2900 2094 
Q 2925 2209 2937 2307 
Q 2950 2406 2950 2484 
Q 2950 2769 2794 2926 
Q 2638 3084 2363 3084 
Q 1938 3084 1609 2770 
Q 1281 2456 1184 1953 
L 800 0 
L 225 0 
L 909 3500 
L 1484 3500 
L 1375 2956 
Q 1609 3263 1923 3423 
Q 2238 3584 2597 3584 
Q 2978 3584 3223 3384 
Q 3469 3184 3519 2828 
Q 3781 3197 4126 3390 
Q 4472 3584 4856 3584 
Q 5306 3584 5551 3325 
Q 5797 3066 5797 2591 
Q 5797 2488 5784 2364 
Q 5772 2241 5747 2113 
z
" transform="scale(0.015625)"/>
       <path id="DejaVuSans-Oblique-6f" d="M 1625 -91 
Q 1009 -91 651 289 
Q 294 669 294 1325 
Q 294 1706 417 2101 
Q 541 2497 738 2766 
Q 1047 3184 1428 3384 
Q 1809 3584 2291 3584 
Q 2888 3584 3255 3212 
Q 3622 2841 3622 2241 
Q 3622 1825 3500 1412 
Q 3378 1000 3181 728 
Q 2875 309 2494 109 
Q 2113 -91 1625 -91 
z
M 891 1344 
Q 891 869 1089 633 
Q 1288 397 1691 397 
Q 2269 397 2648 901 
Q 3028 1406 3028 2181 
Q 3028 2634 2825 2865 
Q 2622 3097 2228 3097 
Q 1903 3097 1650 2945 
Q 1397 2794 1197 2484 
Q 1050 2253 970 1956 
Q 891 1659 891 1344 
z
" transform="scale(0.015625)"/>
       <path id="DejaVuSans-Oblique-69" d="M 1172 4863 
L 1747 4863 
L 1606 4134 
L 1031 4134 
L 1172 4863 
z
M 909 3500 
L 1484 3500 
L 800 0 
L 225 0 
L 909 3500 
z
" transform="scale(0.015625)"/>
       <path id="DejaVuSans-Oblique-61" d="M 3438 1997 
L 3047 0 
L 2472 0 
L 2578 531 
Q 2325 219 2001 64 
Q 1678 -91 1281 -91 
Q 834 -91 548 182 
Q 263 456 263 884 
Q 263 1497 752 1853 
Q 1241 2209 2100 2209 
L 2900 2209 
L 2931 2363 
Q 2938 2388 2941 2417 
Q 2944 2447 2944 2509 
Q 2944 2788 2717 2942 
Q 2491 3097 2081 3097 
Q 1800 3097 1504 3025 
Q 1209 2953 897 2809 
L 997 3341 
Q 1322 3463 1633 3523 
Q 1944 3584 2234 3584 
Q 2853 3584 3176 3315 
Q 3500 3047 3500 2534 
Q 3500 2431 3484 2292 
Q 3469 2153 3438 1997 
z
M 2816 1759 
L 2241 1759 
Q 1534 1759 1195 1570 
Q 856 1381 856 984 
Q 856 709 1029 553 
Q 1203 397 1509 397 
Q 1978 397 2328 733 
Q 2678 1069 2791 1631 
L 2816 1759 
z
" transform="scale(0.015625)"/>
      </defs>
      <use xlink:href="#DejaVuSans-Oblique-4b" transform="translate(0 0.015625)"/>
      <use xlink:href="#DejaVuSans-2e" transform="translate(65.576172 0.015625)"/>
      <use xlink:href="#DejaVuSans-20" transform="translate(116.845703 0.015625)"/>
      <use xlink:href="#DejaVuSans-Oblique-70" transform="translate(148.632812 0.015625)"/>
      <use xlink:href="#DejaVuSans-Oblique-6e" transform="translate(212.109375 0.015625)"/>
      <use xlink:href="#DejaVuSans-Oblique-65" transform="translate(275.488281 0.015625)"/>
      <use xlink:href="#DejaVuSans-Oblique-75" transform="translate(337.011719 0.015625)"/>
      <use xlink:href="#DejaVuSans-Oblique-6d" transform="translate(400.390625 0.015625)"/>
      <use xlink:href="#DejaVuSans-Oblique-6f" transform="translate(497.802734 0.015625)"/>
      <use xlink:href="#DejaVuSans-Oblique-6e" transform="translate(558.984375 0.015625)"/>
      <use xlink:href="#DejaVuSans-Oblique-69" transform="translate(622.363281 0.015625)"/>
      <use xlink:href="#DejaVuSans-Oblique-61" transform="translate(650.146484 0.015625)"/>
      <use xlink:href="#DejaVuSans-Oblique-65" transform="translate(711.425781 0.015625)"/>
      <use xlink:href="#DejaVuSans-20" transform="translate(772.949219 0.015625)"/>
     </g>
    </g>
    <g id="line2d_50">
     <path d="M 400.1 79.475937 
L 426.1 79.475937 
L 452.1 79.475937 
" style="fill: none; stroke: #274e13; stroke-width: 1.5; stroke-linecap: square"/>
    </g>
    <g id="text_7">
     <!-- $E.$ $coli$ -->
     <g transform="translate(472.9 88.575937)scale(0.26 -0.26)">
      <defs>
       <path id="DejaVuSans-Oblique-45" d="M 1081 4666 
L 4031 4666 
L 3928 4134 
L 1606 4134 
L 1338 2753 
L 3566 2753 
L 3463 2222 
L 1234 2222 
L 909 531 
L 3284 531 
L 3181 0 
L 172 0 
L 1081 4666 
z
" transform="scale(0.015625)"/>
       <path id="DejaVuSans-Oblique-63" d="M 3431 3366 
L 3316 2797 
Q 3109 2947 2876 3022 
Q 2644 3097 2394 3097 
Q 2119 3097 1870 3000 
Q 1622 2903 1453 2725 
Q 1184 2453 1037 2087 
Q 891 1722 891 1331 
Q 891 859 1127 628 
Q 1363 397 1844 397 
Q 2081 397 2348 469 
Q 2616 541 2906 684 
L 2797 116 
Q 2547 13 2283 -39 
Q 2019 -91 1741 -91 
Q 1044 -91 669 257 
Q 294 606 294 1253 
Q 294 1797 489 2255 
Q 684 2713 1069 3078 
Q 1331 3328 1684 3456 
Q 2038 3584 2456 3584 
Q 2700 3584 2940 3529 
Q 3181 3475 3431 3366 
z
" transform="scale(0.015625)"/>
       <path id="DejaVuSans-Oblique-6c" d="M 1172 4863 
L 1747 4863 
L 800 0 
L 225 0 
L 1172 4863 
z
" transform="scale(0.015625)"/>
      </defs>
      <use xlink:href="#DejaVuSans-Oblique-45" transform="translate(0 0.015625)"/>
      <use xlink:href="#DejaVuSans-2e" transform="translate(63.183594 0.015625)"/>
      <use xlink:href="#DejaVuSans-20" transform="translate(114.453125 0.015625)"/>
      <use xlink:href="#DejaVuSans-Oblique-63" transform="translate(146.240234 0.015625)"/>
      <use xlink:href="#DejaVuSans-Oblique-6f" transform="translate(201.220703 0.015625)"/>
      <use xlink:href="#DejaVuSans-Oblique-6c" transform="translate(262.402344 0.015625)"/>
      <use xlink:href="#DejaVuSans-Oblique-69" transform="translate(290.185547 0.015625)"/>
     </g>
    </g>
   </g>
  </g>
 </g>
 <defs>
  <clipPath id="p9da853739a">
   <rect x="10.7" y="7.2" width="694.9" height="677"/>
  </clipPath>
 </defs>
</svg>
