<svg class="main-svg" xmlns="http://www.w3.org/2000/svg" xmlns:xlink="http://www.w3.org/1999/xlink" width="600" height="600" style="" viewBox="0 0 600 600"><rect x="0" y="0" width="600" height="600" style="fill: rgb(255, 255, 255); fill-opacity: 1;"/><defs id="defs-004586"><g class="clips"><clipPath id="clip004586xyplot" class="plotclip"><rect width="440" height="420"/></clipPath><clipPath class="axesclip" id="clip004586x"><rect x="80" y="0" width="440" height="600"/></clipPath><clipPath class="axesclip" id="clip004586y"><rect x="0" y="100" width="600" height="420"/></clipPath><clipPath class="axesclip" id="clip004586xy"><rect x="80" y="100" width="440" height="420"/></clipPath></g><g class="gradients"/><g class="patterns"/></defs><g class="bglayer"><rect class="bg" x="80" y="100" width="440" height="420" style="fill: rgb(229, 236, 246); fill-opacity: 1; stroke-width: 0;"/></g><g class="layer-below"><g class="imagelayer"/><g class="shapelayer"/></g><g class="cartesianlayer"><g class="subplot xy"><g class="layer-subplot"><g class="shapelayer"/><g class="imagelayer"/></g><g class="minor-gridlayer"><g class="x"/><g class="y"/></g><g class="gridlayer"><g class="x"/><g class="y"/></g><g class="zerolinelayer"/><path class="xlines-below"/><path class="ylines-below"/><g class="overlines-below"/><g class="xaxislayer-below"/><g class="yaxislayer-below"/><g class="overaxes-below"/><g class="plot" transform="translate(80,100)" clip-path="url(#clip004586xyplot)"><g class="scatterlayer mlayer"><g class="trace scatter tracebb3f4e" style="stroke-miterlimit: 2; opacity: 1;"><g class="fills"/><g class="errorbars"/><g class="lines"><path class="js-line" d="M180.74,65.52L207.98,39.72" style="vector-effect: none; fill: none; stroke: rgb(145, 179, 254); stroke-opacity: 1; stroke-width: 3px; opacity: 1;"/></g><g class="points"/><g class="text"/></g><g class="trace scatter trace0241e5" style="stroke-miterlimit: 2; opacity: 1;"><g class="fills"/><g class="errorbars"/><g class="lines"><path class="js-line" d="M180.74,65.52L187.19,29.75" style="vector-effect: none; fill: none; stroke: rgb(145, 179, 254); stroke-opacity: 1; stroke-width: 3px; opacity: 1;"/></g><g class="points"/><g class="text"/></g><g class="trace scatter traceb4ff4a" style="stroke-miterlimit: 2; opacity: 1;"><g class="fills"/><g class="errorbars"/><g class="lines"><path class="js-line" d="M180.74,65.52L154.36,113.5" style="vector-effect: none; fill: none; stroke: rgb(185, 22, 42); stroke-opacity: 1; stroke-width: 3px; opacity: 1;"/></g><g class="points"/><g class="text"/></g><g class="trace scatter trace8c1a8b" style="stroke-miterlimit: 2; opacity: 1;"><g class="fills"/><g class="errorbars"/><g class="lines"><path class="js-line" d="M112.97,183.68L145.09,188.44" style="vector-effect: none; fill: none; stroke: rgb(198, 214, 241); stroke-opacity: 1; stroke-width: 3px; opacity: 1;"/></g><g class="points"/><g class="text"/></g><g class="trace scatter tracecc179f" style="stroke-miterlimit: 2; opacity: 1;"><g class="fills"/><g class="errorbars"/><g class="lines"><path class="js-line" d="M112.97,183.68L144.14,156.62" style="vector-effect: none; fill: none; stroke: rgb(215, 84, 68); stroke-opacity: 1; stroke-width: 3px; opacity: 1;"/></g><g class="points"/><g class="text"/></g><g class="trace scatter trace3aeadd" style="stroke-miterlimit: 2; opacity: 1;"><g class="fills"/><g class="errorbars"/><g class="lines"><path class="js-line" d="M112.97,183.68L120.96,146.93" style="vector-effect: none; fill: none; stroke: rgb(198, 53, 52); stroke-opacity: 1; stroke-width: 3px; opacity: 1;"/></g><g class="points"/><g class="text"/></g><g class="trace scatter traceb7a042" style="stroke-miterlimit: 2; opacity: 1;"><g class="fills"/><g class="errorbars"/><g class="lines"><path class="js-line" d="M112.97,183.68L122.82,170.27" style="vector-effect: none; fill: none; stroke: rgb(185, 22, 42); stroke-opacity: 1; stroke-width: 3px; opacity: 1;"/></g><g class="points"/><g class="text"/></g><g class="trace scatter trace40a42a" style="stroke-miterlimit: 2; opacity: 1;"><g class="fills"/><g class="errorbars"/><g class="lines"><path class="js-line" d="M112.97,183.68L67.42,197.4" style="vector-effect: none; fill: none; stroke: rgb(179, 3, 38); stroke-opacity: 1; stroke-width: 3px; opacity: 1;"/></g><g class="points"/><g class="text"/></g><g class="trace scatter tracee4c430" style="stroke-miterlimit: 2; opacity: 1;"><g class="fills"/><g class="errorbars"/><g class="lines"><path class="js-line" d="M207.98,39.72L187.19,29.75" style="vector-effect: none; fill: none; stroke: rgb(151, 184, 254); stroke-opacity: 1; stroke-width: 3px; opacity: 1;"/></g><g class="points"/><g class="text"/></g><g class="trace scatter traceaeb910" style="stroke-miterlimit: 2; opacity: 1;"><g class="fills"/><g class="errorbars"/><g class="lines"><path class="js-line" d="M67.42,197.4L30.75,217.61" style="vector-effect: none; fill: none; stroke: rgb(238, 135, 106); stroke-opacity: 1; stroke-width: 3px; opacity: 1;"/></g><g class="points"/><g class="text"/></g><g class="trace scatter tracebb6647" style="stroke-miterlimit: 2; opacity: 1;"><g class="fills"/><g class="errorbars"/><g class="lines"><path class="js-line" d="M67.42,197.4L87.09,167.78" style="vector-effect: none; fill: none; stroke: rgb(210, 75, 63); stroke-opacity: 1; stroke-width: 3px; opacity: 1;"/></g><g class="points"/><g class="text"/></g><g class="trace scatter tracee3cc6d" style="stroke-miterlimit: 2; opacity: 1;"><g class="fills"/><g class="errorbars"/><g class="lines"><path class="js-line" d="M87.09,167.78L120.96,146.93" style="vector-effect: none; fill: none; stroke: rgb(193, 212, 244); stroke-opacity: 1; stroke-width: 3px; opacity: 1;"/></g><g class="points"/><g class="text"/></g><g class="trace scatter trace417f55" style="stroke-miterlimit: 2; opacity: 1;"><g class="fills"/><g class="errorbars"/><g class="lines"><path class="js-line" d="M87.09,167.78L122.82,170.27" style="vector-effect: none; fill: none; stroke: rgb(179, 3, 38); stroke-opacity: 1; stroke-width: 3px; opacity: 1;"/></g><g class="points"/><g class="text"/></g><g class="trace scatter traceed8688" style="stroke-miterlimit: 2; opacity: 1;"><g class="fills"/><g class="errorbars"/><g class="lines"><path class="js-line" d="M120.96,146.93L154.36,113.5" style="vector-effect: none; fill: none; stroke: rgb(215, 84, 68); stroke-opacity: 1; stroke-width: 3px; opacity: 1;"/></g><g class="points"/><g class="text"/></g><g class="trace scatter traceb124d4" style="stroke-miterlimit: 2; opacity: 1;"><g class="fills"/><g class="errorbars"/><g class="lines"><path class="js-line" d="M120.96,146.93L122.82,170.27" style="vector-effect: none; fill: none; stroke: rgb(198, 53, 52); stroke-opacity: 1; stroke-width: 3px; opacity: 1;"/></g><g class="points"/><g class="text"/></g><g class="trace scatter traceaf84f0" style="stroke-miterlimit: 2; opacity: 1;"><g class="fills"/><g class="errorbars"/><g class="lines"><path class="js-line" d="M120.96,146.93L144.14,156.62" style="vector-effect: none; fill: none; stroke: rgb(191, 40, 46); stroke-opacity: 1; stroke-width: 3px; opacity: 1;"/></g><g class="points"/><g class="text"/></g><g class="trace scatter trace3fbe46" style="stroke-miterlimit: 2; opacity: 1;"><g class="fills"/><g class="errorbars"/><g class="lines"><path class="js-line" d="M122.82,170.27L145.09,188.44" style="vector-effect: none; fill: none; stroke: rgb(229, 112, 87); stroke-opacity: 1; stroke-width: 3px; opacity: 1;"/></g><g class="points"/><g class="text"/></g><g class="trace scatter trace04e6ce" style="stroke-miterlimit: 2; opacity: 1;"><g class="fills"/><g class="errorbars"/><g class="lines"><path class="js-line" d="M122.82,170.27L144.14,156.62" style="vector-effect: none; fill: none; stroke: rgb(215, 84, 68); stroke-opacity: 1; stroke-width: 3px; opacity: 1;"/></g><g class="points"/><g class="text"/></g><g class="trace scatter trace6f76ca" style="stroke-miterlimit: 2; opacity: 1;"><g class="fills"/><g class="errorbars"/><g class="lines"><path class="js-line" d="M154.36,113.5L144.14,156.62" style="vector-effect: none; fill: none; stroke: rgb(198, 53, 52); stroke-opacity: 1; stroke-width: 3px; opacity: 1;"/></g><g class="points"/><g class="text"/></g><g class="trace scatter traceaa0949" style="stroke-miterlimit: 2; opacity: 1;"><g class="fills"/><g class="errorbars"/><g class="lines"><path class="js-line" d="M144.14,156.62L145.09,188.44" style="vector-effect: none; fill: none; stroke: rgb(238, 135, 106); stroke-opacity: 1; stroke-width: 3px; opacity: 1;"/></g><g class="points"/><g class="text"/></g><g class="trace scatter trace08091a" style="stroke-miterlimit: 2; opacity: 1;"><g class="fills"><g><path class="js-fill" d="M180.74,65.52L207.98,39.72L187.19,29.75L180.74,65.52Z" style="fill: rgb(244, 157, 126); fill-opacity: 0.545; stroke-width: 0;"/></g></g><g class="errorbars"/><g class="lines"><path class="js-line" d="M180.74,65.52L207.98,39.72L187.19,29.75L180.74,65.52" style="vector-effect: none; fill: none; stroke: rgb(99, 110, 250); stroke-opacity: 1; stroke-width: 3px; opacity: 1;"/></g><g class="points"/><g class="text"/></g><g class="trace scatter trace8113f6" style="stroke-miterlimit: 2; opacity: 1;"><g class="fills"><g><path class="js-fill" d="M112.97,183.68L144.14,156.62L145.09,188.44L112.97,183.68Z" style="fill: rgb(244, 157, 126); fill-opacity: 0.545; stroke-width: 0;"/></g></g><g class="errorbars"/><g class="lines"><path class="js-line" d="M112.97,183.68L144.14,156.62L145.09,188.44L112.97,183.68" style="vector-effect: none; fill: none; stroke: rgb(239, 85, 59); stroke-opacity: 1; stroke-width: 3px; opacity: 1;"/></g><g class="points"/><g class="text"/></g><g class="trace scatter traceeb434b" style="stroke-miterlimit: 2; opacity: 1;"><g class="fills"><g><path class="js-fill" d="M122.82,170.27L144.14,156.62L145.09,188.44L122.82,170.27Z" style="fill: rgb(244, 157, 126); fill-opacity: 0.545; stroke-width: 0;"/></g></g><g class="errorbars"/><g class="lines"><path class="js-line" d="M122.82,170.27L144.14,156.62L145.09,188.44L122.82,170.27" style="vector-effect: none; fill: none; stroke: rgb(0, 204, 150); stroke-opacity: 1; stroke-width: 3px; opacity: 1;"/></g><g class="points"/><g class="text"/></g><g class="trace scatter tracea51aed" style="stroke-miterlimit: 2; opacity: 1;"><g class="fills"><g><path class="js-fill" d="M112.97,183.68L120.96,146.93L144.14,156.62L112.97,183.68Z" style="fill: rgb(244, 157, 126); fill-opacity: 0.545; stroke-width: 0;"/></g></g><g class="errorbars"/><g class="lines"><path class="js-line" d="M112.97,183.68L120.96,146.93L144.14,156.62L112.97,183.68" style="vector-effect: none; fill: none; stroke: rgb(171, 99, 250); stroke-opacity: 1; stroke-width: 3px; opacity: 1;"/></g><g class="points"/><g class="text"/></g><g class="trace scatter tracea44bf6" style="stroke-miterlimit: 2; opacity: 1;"><g class="fills"><g><path class="js-fill" d="M120.96,146.93L122.82,170.27L144.14,156.62L120.96,146.93Z" style="fill: rgb(244, 157, 126); fill-opacity: 0.545; stroke-width: 0;"/></g></g><g class="errorbars"/><g class="lines"><path class="js-line" d="M120.96,146.93L122.82,170.27L144.14,156.62L120.96,146.93" style="vector-effect: none; fill: none; stroke: rgb(255, 161, 90); stroke-opacity: 1; stroke-width: 3px; opacity: 1;"/></g><g class="points"/><g class="text"/></g><g class="trace scatter tracefbffec" style="stroke-miterlimit: 2; opacity: 1;"><g class="fills"><g><path class="js-fill" d="M120.96,146.93L154.36,113.5L144.14,156.62L120.96,146.93Z" style="fill: rgb(244, 157, 126); fill-opacity: 0.545; stroke-width: 0;"/></g></g><g class="errorbars"/><g class="lines"><path class="js-line" d="M120.96,146.93L154.36,113.5L144.14,156.62L120.96,146.93" style="vector-effect: none; fill: none; stroke: rgb(25, 211, 243); stroke-opacity: 1; stroke-width: 3px; opacity: 1;"/></g><g class="points"/><g class="text"/></g><g class="trace scatter trace9fab56" style="stroke-miterlimit: 2; opacity: 1;"><g class="fills"><g><path class="js-fill" d="M112.97,183.68L120.96,146.93L122.82,170.27L112.97,183.68Z" style="fill: rgb(244, 157, 126); fill-opacity: 0.545; stroke-width: 0;"/></g></g><g class="errorbars"/><g class="lines"><path class="js-line" d="M112.97,183.68L120.96,146.93L122.82,170.27L112.97,183.68" style="vector-effect: none; fill: none; stroke: rgb(255, 102, 146); stroke-opacity: 1; stroke-width: 3px; opacity: 1;"/></g><g class="points"/><g class="text"/></g><g class="trace scatter trace11950f" style="stroke-miterlimit: 2; opacity: 1;"><g class="fills"><g><path class="js-fill" d="M112.97,183.68L122.82,170.27L144.14,156.62L112.97,183.68Z" style="fill: rgb(244, 157, 126); fill-opacity: 0.545; stroke-width: 0;"/></g></g><g class="errorbars"/><g class="lines"><path class="js-line" d="M112.97,183.68L122.82,170.27L144.14,156.62L112.97,183.68" style="vector-effect: none; fill: none; stroke: rgb(182, 232, 128); stroke-opacity: 1; stroke-width: 3px; opacity: 1;"/></g><g class="points"/><g class="text"/></g><g class="trace scatter traced175bf" style="stroke-miterlimit: 2; opacity: 1;"><g class="fills"><g><path class="js-fill" d="M112.97,183.68L122.82,170.27L145.09,188.44L112.97,183.68Z" style="fill: rgb(244, 157, 126); fill-opacity: 0.545; stroke-width: 0;"/></g></g><g class="errorbars"/><g class="lines"><path class="js-line" d="M112.97,183.68L122.82,170.27L145.09,188.44L112.97,183.68" style="vector-effect: none; fill: none; stroke: rgb(255, 151, 255); stroke-opacity: 1; stroke-width: 3px; opacity: 1;"/></g><g class="points"/><g class="text"/></g><g class="trace scatter tracea88d17" style="stroke-miterlimit: 2; opacity: 1;"><g class="fills"><g><path class="js-fill" d="M87.09,167.78L120.96,146.93L122.82,170.27L87.09,167.78Z" style="fill: rgb(244, 157, 126); fill-opacity: 0.545; stroke-width: 0;"/></g></g><g class="errorbars"/><g class="lines"><path class="js-line" d="M87.09,167.78L120.96,146.93L122.82,170.27L87.09,167.78" style="vector-effect: none; fill: none; stroke: rgb(254, 203, 82); stroke-opacity: 1; stroke-width: 3px; opacity: 1;"/></g><g class="points"/><g class="text"/></g><g class="trace scatter trace35d467" style="stroke-miterlimit: 2; opacity: 1;"><g class="fills"/><g class="errorbars"/><g class="lines"/><g class="points"><path class="point" transform="translate(180.74,65.52)" d="M7,0A7,7 0 1,1 0,-7A7,7 0 0,1 7,0Z" style="opacity: 1; stroke-width: 0px; fill: rgb(99, 110, 250); fill-opacity: 1;"/><path class="point" transform="translate(112.97,183.68)" d="M7,0A7,7 0 1,1 0,-7A7,7 0 0,1 7,0Z" style="opacity: 1; stroke-width: 0px; fill: rgb(99, 110, 250); fill-opacity: 1;"/><path class="point" transform="translate(409.25,278.19)" d="M7,0A7,7 0 1,1 0,-7A7,7 0 0,1 7,0Z" style="opacity: 1; stroke-width: 0px; fill: rgb(99, 110, 250); fill-opacity: 1;"/><path class="point" transform="translate(207.98,39.72)" d="M7,0A7,7 0 1,1 0,-7A7,7 0 0,1 7,0Z" style="opacity: 1; stroke-width: 0px; fill: rgb(99, 110, 250); fill-opacity: 1;"/><path class="point" transform="translate(67.42,197.4)" d="M7,0A7,7 0 1,1 0,-7A7,7 0 0,1 7,0Z" style="opacity: 1; stroke-width: 0px; fill: rgb(99, 110, 250); fill-opacity: 1;"/><path class="point" transform="translate(30.75,217.61)" d="M7,0A7,7 0 1,1 0,-7A7,7 0 0,1 7,0Z" style="opacity: 1; stroke-width: 0px; fill: rgb(99, 110, 250); fill-opacity: 1;"/><path class="point" transform="translate(87.09,167.78)" d="M7,0A7,7 0 1,1 0,-7A7,7 0 0,1 7,0Z" style="opacity: 1; stroke-width: 0px; fill: rgb(99, 110, 250); fill-opacity: 1;"/><path class="point" transform="translate(120.96,146.93)" d="M7,0A7,7 0 1,1 0,-7A7,7 0 0,1 7,0Z" style="opacity: 1; stroke-width: 0px; fill: rgb(99, 110, 250); fill-opacity: 1;"/><path class="point" transform="translate(187.19,29.75)" d="M7,0A7,7 0 1,1 0,-7A7,7 0 0,1 7,0Z" style="opacity: 1; stroke-width: 0px; fill: rgb(99, 110, 250); fill-opacity: 1;"/><path class="point" transform="translate(122.82,170.27)" d="M7,0A7,7 0 1,1 0,-7A7,7 0 0,1 7,0Z" style="opacity: 1; stroke-width: 0px; fill: rgb(99, 110, 250); fill-opacity: 1;"/><path class="point" transform="translate(154.36,113.5)" d="M7,0A7,7 0 1,1 0,-7A7,7 0 0,1 7,0Z" style="opacity: 1; stroke-width: 0px; fill: rgb(99, 110, 250); fill-opacity: 1;"/><path class="point" transform="translate(129.36,390.25)" d="M7,0A7,7 0 1,1 0,-7A7,7 0 0,1 7,0Z" style="opacity: 1; stroke-width: 0px; fill: rgb(99, 110, 250); fill-opacity: 1;"/><path class="point" transform="translate(144.14,156.62)" d="M7,0A7,7 0 1,1 0,-7A7,7 0 0,1 7,0Z" style="opacity: 1; stroke-width: 0px; fill: rgb(99, 110, 250); fill-opacity: 1;"/><path class="point" transform="translate(145.09,188.44)" d="M7,0A7,7 0 1,1 0,-7A7,7 0 0,1 7,0Z" style="opacity: 1; stroke-width: 0px; fill: rgb(99, 110, 250); fill-opacity: 1;"/></g><g class="text"><g class="textpoint" transform="translate(0,-13.25)"><text x="180.74" y="65.52" text-anchor="middle" style="font-family: 'Open Sans', verdana, arial, sans-serif; font-size: 14px; fill: rgb(42, 63, 95); fill-opacity: 1; white-space: pre;">0</text></g><g class="textpoint" transform="translate(0,-13.25)"><text x="112.97" y="183.68" text-anchor="middle" style="font-family: 'Open Sans', verdana, arial, sans-serif; font-size: 14px; fill: rgb(42, 63, 95); fill-opacity: 1; white-space: pre;">1</text></g><g class="textpoint" transform="translate(0,-13.25)"><text x="409.25" y="278.19" text-anchor="middle" style="font-family: 'Open Sans', verdana, arial, sans-serif; font-size: 14px; fill: rgb(42, 63, 95); fill-opacity: 1; white-space: pre;">2</text></g><g class="textpoint" transform="translate(0,-13.25)"><text x="207.98" y="39.72" text-anchor="middle" style="font-family: 'Open Sans', verdana, arial, sans-serif; font-size: 14px; fill: rgb(42, 63, 95); fill-opacity: 1; white-space: pre;">3</text></g><g class="textpoint" transform="translate(0,-13.25)"><text x="67.42" y="197.4" text-anchor="middle" style="font-family: 'Open Sans', verdana, arial, sans-serif; font-size: 14px; fill: rgb(42, 63, 95); fill-opacity: 1; white-space: pre;">4</text></g><g class="textpoint" transform="translate(0,-13.25)"><text x="30.75" y="217.61" text-anchor="middle" style="font-family: 'Open Sans', verdana, arial, sans-serif; font-size: 14px; fill: rgb(42, 63, 95); fill-opacity: 1; white-space: pre;">5</text></g><g class="textpoint" transform="translate(0,-13.25)"><text x="87.09" y="167.78" text-anchor="middle" style="font-family: 'Open Sans', verdana, arial, sans-serif; font-size: 14px; fill: rgb(42, 63, 95); fill-opacity: 1; white-space: pre;">6</text></g><g class="textpoint" transform="translate(0,-13.25)"><text x="120.96" y="146.93" text-anchor="middle" style="font-family: 'Open Sans', verdana, arial, sans-serif; font-size: 14px; fill: rgb(42, 63, 95); fill-opacity: 1; white-space: pre;">7</text></g><g class="textpoint" transform="translate(0,-13.25)"><text x="187.19" y="29.75" text-anchor="middle" style="font-family: 'Open Sans', verdana, arial, sans-serif; font-size: 14px; fill: rgb(42, 63, 95); fill-opacity: 1; white-space: pre;">8</text></g><g class="textpoint" transform="translate(0,-13.25)"><text x="122.82" y="170.27" text-anchor="middle" style="font-family: 'Open Sans', verdana, arial, sans-serif; font-size: 14px; fill: rgb(42, 63, 95); fill-opacity: 1; white-space: pre;">9</text></g><g class="textpoint" transform="translate(0,-13.25)"><text x="154.36" y="113.5" text-anchor="middle" style="font-family: 'Open Sans', verdana, arial, sans-serif; font-size: 14px; fill: rgb(42, 63, 95); fill-opacity: 1; white-space: pre;">10</text></g><g class="textpoint" transform="translate(0,-13.25)"><text x="129.36" y="390.25" text-anchor="middle" style="font-family: 'Open Sans', verdana, arial, sans-serif; font-size: 14px; fill: rgb(42, 63, 95); fill-opacity: 1; white-space: pre;">11</text></g><g class="textpoint" transform="translate(0,-13.25)"><text x="144.14" y="156.62" text-anchor="middle" style="font-family: 'Open Sans', verdana, arial, sans-serif; font-size: 14px; fill: rgb(42, 63, 95); fill-opacity: 1; white-space: pre;">12</text></g><g class="textpoint" transform="translate(0,-13.25)"><text x="145.09" y="188.44" text-anchor="middle" style="font-family: 'Open Sans', verdana, arial, sans-serif; font-size: 14px; fill: rgb(42, 63, 95); fill-opacity: 1; white-space: pre;">13</text></g></g></g></g></g><g class="overplot"/><path class="xlines-above crisp" d="M0,0" style="fill: none;"/><path class="ylines-above crisp" d="M0,0" style="fill: none;"/><g class="overlines-above"/><g class="xaxislayer-above"><g class="xtick"><text text-anchor="middle" x="0" y="537" transform="translate(100.39,0)" style="font-family: Arial, sans-serif; font-size: 16px; fill: rgb(42, 63, 95); fill-opacity: 1; white-space: pre; opacity: 1;">−0.5</text></g><g class="xtick"><text text-anchor="middle" x="0" y="537" style="font-family: Arial, sans-serif; font-size: 16px; fill: rgb(42, 63, 95); fill-opacity: 1; white-space: pre; opacity: 1;" transform="translate(230.01,0)">0</text></g><g class="xtick"><text text-anchor="middle" x="0" y="537" style="font-family: Arial, sans-serif; font-size: 16px; fill: rgb(42, 63, 95); fill-opacity: 1; white-space: pre; opacity: 1;" transform="translate(359.63,0)">0.5</text></g><g class="xtick"><text text-anchor="middle" x="0" y="537" style="font-family: Arial, sans-serif; font-size: 16px; fill: rgb(42, 63, 95); fill-opacity: 1; white-space: pre; opacity: 1;" transform="translate(489.25,0)">1</text></g></g><g class="yaxislayer-above"><g class="ytick"><text text-anchor="end" x="79" y="5.6" transform="translate(0,508.44)" style="font-family: Arial, sans-serif; font-size: 16px; fill: rgb(42, 63, 95); fill-opacity: 1; white-space: pre; opacity: 1;">−1</text></g><g class="ytick"><text text-anchor="end" x="79" y="5.6" style="font-family: Arial, sans-serif; font-size: 16px; fill: rgb(42, 63, 95); fill-opacity: 1; white-space: pre; opacity: 1;" transform="translate(0,460.26)">−0.8</text></g><g class="ytick"><text text-anchor="end" x="79" y="5.6" style="font-family: Arial, sans-serif; font-size: 16px; fill: rgb(42, 63, 95); fill-opacity: 1; white-space: pre; opacity: 1;" transform="translate(0,412.08)">−0.6</text></g><g class="ytick"><text text-anchor="end" x="79" y="5.6" style="font-family: Arial, sans-serif; font-size: 16px; fill: rgb(42, 63, 95); fill-opacity: 1; white-space: pre; opacity: 1;" transform="translate(0,363.9)">−0.4</text></g><g class="ytick"><text text-anchor="end" x="79" y="5.6" style="font-family: Arial, sans-serif; font-size: 16px; fill: rgb(42, 63, 95); fill-opacity: 1; white-space: pre; opacity: 1;" transform="translate(0,315.73)">−0.2</text></g><g class="ytick"><text text-anchor="end" x="79" y="5.6" style="font-family: Arial, sans-serif; font-size: 16px; fill: rgb(42, 63, 95); fill-opacity: 1; white-space: pre; opacity: 1;" transform="translate(0,267.55)">0</text></g><g class="ytick"><text text-anchor="end" x="79" y="5.6" style="font-family: Arial, sans-serif; font-size: 16px; fill: rgb(42, 63, 95); fill-opacity: 1; white-space: pre; opacity: 1;" transform="translate(0,219.37)">0.2</text></g><g class="ytick"><text text-anchor="end" x="79" y="5.6" style="font-family: Arial, sans-serif; font-size: 16px; fill: rgb(42, 63, 95); fill-opacity: 1; white-space: pre; opacity: 1;" transform="translate(0,171.19)">0.4</text></g><g class="ytick"><text text-anchor="end" x="79" y="5.6" style="font-family: Arial, sans-serif; font-size: 16px; fill: rgb(42, 63, 95); fill-opacity: 1; white-space: pre; opacity: 1;" transform="translate(0,123.01)">0.6</text></g></g><g class="overaxes-above"/></g></g><g class="polarlayer"/><g class="smithlayer"/><g class="ternarylayer"/><g class="geolayer"/><g class="funnelarealayer"/><g class="pielayer"/><g class="iciclelayer"/><g class="treemaplayer"/><g class="sunburstlayer"/><g class="glimages"/><defs id="topdefs-004586"><g class="clips"/></defs><g class="layer-above"><g class="imagelayer"/><g class="shapelayer"/></g><g class="infolayer"><g class="g-gtitle"/><g class="g-xtitle"/><g class="g-ytitle"/></g></svg>